M48
; DRILL file {KiCad 7.0.2} date Sun Oct  8 18:29:36 2023
; FORMAT={-:-/ absolute / inch / decimal}
; #@! TF.CreationDate,2023-10-08T18:29:36-07:00
; #@! TF.GenerationSoftware,Kicad,Pcbnew,7.0.2
; #@! TF.FileFunction,Plated,1,2,PTH
FMAT,2
INCH
; #@! TA.AperFunction,Plated,PTH,ViaDrill
T1C0.0157
; #@! TA.AperFunction,Plated,PTH,ComponentDrill
T2C0.0236
; #@! TA.AperFunction,Plated,PTH,ComponentDrill
T3C0.0394
; #@! TA.AperFunction,Plated,PTH,ComponentDrill
T4C0.0433
%
G90
G05
T1
X4.76Y-3.411
X4.8425Y-4.4173
X4.95Y-3.55
X5.0315Y-2.7638
X5.0866Y-3.9134
X5.1654Y-4.3228
X5.4567Y-3.411
X5.4803Y-2.937
X5.5591Y-3.8661
X5.6457Y-4.3937
X5.925Y-3.3
X5.96Y-3.411
X5.98Y-3.3
X6.0157Y-3.937
X6.1181Y-4.3228
X6.5669Y-3.411
X6.6614Y-3.9134
X6.6693Y-4.3228
X7.1496Y-4.3228
T3
X4.814Y-3.06
X4.814Y-3.76
X4.914Y-3.06
X4.914Y-3.76
X5.014Y-3.06
X5.014Y-3.76
X5.0161Y-4.084
X5.0161Y-4.502
X5.114Y-3.06
X5.114Y-3.76
X5.1161Y-4.084
X5.1161Y-4.502
X5.214Y-3.06
X5.214Y-3.76
X5.2161Y-4.084
X5.2161Y-4.502
X5.314Y-3.06
X5.314Y-3.76
X5.3161Y-4.084
X5.3161Y-4.502
X5.3492Y-2.8342
X5.414Y-3.06
X5.414Y-3.76
X5.4161Y-4.084
X5.4161Y-4.502
X5.4492Y-2.8342
X5.514Y-3.06
X5.514Y-3.76
X5.5161Y-4.084
X5.5161Y-4.502
X5.614Y-3.06
X5.614Y-3.76
X5.6161Y-4.084
X5.6161Y-4.502
X5.714Y-3.06
X5.714Y-3.76
X5.7161Y-4.084
X5.7161Y-4.502
X5.814Y-3.06
X5.814Y-3.76
X5.8161Y-4.084
X5.8161Y-4.502
X5.914Y-3.06
X5.914Y-3.76
X5.9161Y-4.084
X5.9161Y-4.502
X6.014Y-3.06
X6.014Y-3.76
X6.0161Y-4.084
X6.0161Y-4.502
X6.114Y-3.06
X6.114Y-3.76
X6.1161Y-4.084
X6.1161Y-4.502
X6.214Y-3.06
X6.214Y-3.76
X6.2161Y-4.084
X6.2161Y-4.502
X6.314Y-3.06
X6.314Y-3.76
X6.3161Y-4.084
X6.3161Y-4.502
X6.414Y-3.06
X6.414Y-3.76
X6.4161Y-4.084
X6.4161Y-4.502
X6.514Y-3.06
X6.514Y-3.76
X6.5161Y-4.084
X6.5161Y-4.502
X6.614Y-3.06
X6.614Y-3.76
X6.6161Y-4.084
X6.6161Y-4.502
X6.714Y-3.06
X6.714Y-3.76
X6.7161Y-4.084
X6.7161Y-4.502
X6.8161Y-4.084
X6.8161Y-4.502
X6.9161Y-4.084
X6.9161Y-4.502
X6.952Y-3.586
X6.952Y-3.686
X7.052Y-3.586
X7.052Y-3.686
X7.152Y-3.586
X7.152Y-3.686
T4
X6.008Y-2.6561
X6.008Y-2.912
X6.1852Y-2.6561
X6.1852Y-2.912
T2
G00X6.5499Y-2.6767
M15
G01X6.5499Y-2.7003
M16
G05
G00X6.5499Y-2.8263
M15
G01X6.5499Y-2.8499
M16
G05
G00X6.8901Y-2.6767
M15
G01X6.8901Y-2.7003
M16
G05
G00X6.8901Y-2.8263
M15
G01X6.8901Y-2.8499
M16
G05
T0
M30
