%TF.GenerationSoftware,KiCad,Pcbnew,7.0.2*%
%TF.CreationDate,2023-10-08T18:29:29-07:00*%
%TF.ProjectId,Pi Pico Extender,50692050-6963-46f2-9045-7874656e6465,rev?*%
%TF.SameCoordinates,Original*%
%TF.FileFunction,Soldermask,Bot*%
%TF.FilePolarity,Negative*%
%FSLAX46Y46*%
G04 Gerber Fmt 4.6, Leading zero omitted, Abs format (unit mm)*
G04 Created by KiCad (PCBNEW 7.0.2) date 2023-10-08 18:29:29*
%MOMM*%
%LPD*%
G01*
G04 APERTURE LIST*
%ADD10R,1.700000X1.700000*%
%ADD11O,1.700000X1.700000*%
%ADD12C,1.700000*%
%ADD13C,2.700000*%
%ADD14O,0.800000X1.600000*%
%ADD15C,2.000000*%
G04 APERTURE END LIST*
D10*
%TO.C,A1*%
X122275600Y-95504000D03*
D11*
X124815600Y-95504000D03*
X127355600Y-95504000D03*
X129895600Y-95504000D03*
X132435600Y-95504000D03*
X134975600Y-95504000D03*
X137515600Y-95504000D03*
X140055600Y-95504000D03*
X142595600Y-95504000D03*
X145135600Y-95504000D03*
X147675600Y-95504000D03*
X150215600Y-95504000D03*
X152755600Y-95504000D03*
X155295600Y-95504000D03*
X157835600Y-95504000D03*
X160375600Y-95504000D03*
X162915600Y-95504000D03*
X165455600Y-95504000D03*
X167995600Y-95504000D03*
X170535600Y-95504000D03*
X170535600Y-77724000D03*
X167995600Y-77724000D03*
X165455600Y-77724000D03*
X162915600Y-77724000D03*
X160375600Y-77724000D03*
X157835600Y-77724000D03*
X155295600Y-77724000D03*
X152755600Y-77724000D03*
X150215600Y-77724000D03*
X147675600Y-77724000D03*
X145135600Y-77724000D03*
X142595600Y-77724000D03*
X140055600Y-77724000D03*
X137515600Y-77724000D03*
X134975600Y-77724000D03*
X132435600Y-77724000D03*
X129895600Y-77724000D03*
X127355600Y-77724000D03*
X124815600Y-77724000D03*
D12*
X122275600Y-77724000D03*
%TD*%
D10*
%TO.C,J3*%
X176580800Y-91084400D03*
D11*
X176580800Y-93624400D03*
X179120800Y-91084400D03*
X179120800Y-93624400D03*
X181660800Y-91084400D03*
X181660800Y-93624400D03*
%TD*%
D13*
%TO.C,MH2*%
X180509320Y-68774680D03*
%TD*%
D10*
%TO.C,J5*%
X127409320Y-103733600D03*
D11*
X129949320Y-103733600D03*
X132489320Y-103733600D03*
X135029320Y-103733600D03*
X137569320Y-103733600D03*
X140109320Y-103733600D03*
X142649320Y-103733600D03*
X145189320Y-103733600D03*
X147729320Y-103733600D03*
X150269320Y-103733600D03*
X152809320Y-103733600D03*
X155349320Y-103733600D03*
X157889320Y-103733600D03*
X160429320Y-103733600D03*
X162969320Y-103733600D03*
X165509320Y-103733600D03*
X168049320Y-103733600D03*
X170589320Y-103733600D03*
X173129320Y-103733600D03*
X175669320Y-103733600D03*
%TD*%
D13*
%TO.C,MH3*%
X122509320Y-117774680D03*
%TD*%
D10*
%TO.C,J4*%
X127409320Y-114350800D03*
D11*
X129949320Y-114350800D03*
X132489320Y-114350800D03*
X135029320Y-114350800D03*
X137569320Y-114350800D03*
X140109320Y-114350800D03*
X142649320Y-114350800D03*
X145189320Y-114350800D03*
X147729320Y-114350800D03*
X150269320Y-114350800D03*
X152809320Y-114350800D03*
X155349320Y-114350800D03*
X157889320Y-114350800D03*
X160429320Y-114350800D03*
X162969320Y-114350800D03*
X165509320Y-114350800D03*
X168049320Y-114350800D03*
X170589320Y-114350800D03*
X173129320Y-114350800D03*
X175669320Y-114350800D03*
%TD*%
D10*
%TO.C,J2*%
X138410000Y-71989250D03*
D11*
X135870000Y-71989250D03*
%TD*%
D14*
%TO.C,J1*%
X166368000Y-72088000D03*
X175008000Y-72088000D03*
X166368000Y-68288000D03*
X175008000Y-68288000D03*
%TD*%
D15*
%TO.C,SW1*%
X157103200Y-67464800D03*
X157103200Y-73964800D03*
X152603200Y-67464800D03*
X152603200Y-73964800D03*
%TD*%
D13*
%TO.C,MH1*%
X122509320Y-68774680D03*
%TD*%
%TO.C,MH4*%
X180509320Y-117774680D03*
%TD*%
M02*
