%TF.GenerationSoftware,KiCad,Pcbnew,7.0.2*%
%TF.CreationDate,2023-10-08T18:29:29-07:00*%
%TF.ProjectId,Pi Pico Extender,50692050-6963-46f2-9045-7874656e6465,rev?*%
%TF.SameCoordinates,Original*%
%TF.FileFunction,Soldermask,Top*%
%TF.FilePolarity,Negative*%
%FSLAX46Y46*%
G04 Gerber Fmt 4.6, Leading zero omitted, Abs format (unit mm)*
G04 Created by KiCad (PCBNEW 7.0.2) date 2023-10-08 18:29:29*
%MOMM*%
%LPD*%
G01*
G04 APERTURE LIST*
G04 Aperture macros list*
%AMRoundRect*
0 Rectangle with rounded corners*
0 $1 Rounding radius*
0 $2 $3 $4 $5 $6 $7 $8 $9 X,Y pos of 4 corners*
0 Add a 4 corners polygon primitive as box body*
4,1,4,$2,$3,$4,$5,$6,$7,$8,$9,$2,$3,0*
0 Add four circle primitives for the rounded corners*
1,1,$1+$1,$2,$3*
1,1,$1+$1,$4,$5*
1,1,$1+$1,$6,$7*
1,1,$1+$1,$8,$9*
0 Add four rect primitives between the rounded corners*
20,1,$1+$1,$2,$3,$4,$5,0*
20,1,$1+$1,$4,$5,$6,$7,0*
20,1,$1+$1,$6,$7,$8,$9,0*
20,1,$1+$1,$8,$9,$2,$3,0*%
G04 Aperture macros list end*
%ADD10RoundRect,0.250000X-0.450000X0.325000X-0.450000X-0.325000X0.450000X-0.325000X0.450000X0.325000X0*%
%ADD11RoundRect,0.250000X-0.475000X0.337500X-0.475000X-0.337500X0.475000X-0.337500X0.475000X0.337500X0*%
%ADD12RoundRect,0.250000X0.450000X-0.350000X0.450000X0.350000X-0.450000X0.350000X-0.450000X-0.350000X0*%
%ADD13R,1.700000X1.700000*%
%ADD14O,1.700000X1.700000*%
%ADD15C,1.700000*%
%ADD16C,2.700000*%
%ADD17RoundRect,0.250000X-0.300000X0.300000X-0.300000X-0.300000X0.300000X-0.300000X0.300000X0.300000X0*%
%ADD18R,0.700000X1.200000*%
%ADD19R,0.760000X1.200000*%
%ADD20R,0.800000X1.200000*%
%ADD21O,0.800000X1.600000*%
%ADD22R,1.500000X2.000000*%
%ADD23R,3.800000X2.000000*%
%ADD24RoundRect,0.250000X0.337500X0.475000X-0.337500X0.475000X-0.337500X-0.475000X0.337500X-0.475000X0*%
%ADD25C,2.000000*%
G04 APERTURE END LIST*
D10*
%TO.C,D1*%
X163550000Y-67500000D03*
X163550000Y-69550000D03*
%TD*%
D11*
%TO.C,C2*%
X173736000Y-83269000D03*
X173736000Y-85344000D03*
%TD*%
D12*
%TO.C,R1*%
X163550000Y-74250000D03*
X163550000Y-72250000D03*
%TD*%
D13*
%TO.C,A1*%
X122275600Y-95504000D03*
D14*
X124815600Y-95504000D03*
X127355600Y-95504000D03*
X129895600Y-95504000D03*
X132435600Y-95504000D03*
X134975600Y-95504000D03*
X137515600Y-95504000D03*
X140055600Y-95504000D03*
X142595600Y-95504000D03*
X145135600Y-95504000D03*
X147675600Y-95504000D03*
X150215600Y-95504000D03*
X152755600Y-95504000D03*
X155295600Y-95504000D03*
X157835600Y-95504000D03*
X160375600Y-95504000D03*
X162915600Y-95504000D03*
X165455600Y-95504000D03*
X167995600Y-95504000D03*
X170535600Y-95504000D03*
X170535600Y-77724000D03*
X167995600Y-77724000D03*
X165455600Y-77724000D03*
X162915600Y-77724000D03*
X160375600Y-77724000D03*
X157835600Y-77724000D03*
X155295600Y-77724000D03*
X152755600Y-77724000D03*
X150215600Y-77724000D03*
X147675600Y-77724000D03*
X145135600Y-77724000D03*
X142595600Y-77724000D03*
X140055600Y-77724000D03*
X137515600Y-77724000D03*
X134975600Y-77724000D03*
X132435600Y-77724000D03*
X129895600Y-77724000D03*
X127355600Y-77724000D03*
X124815600Y-77724000D03*
D15*
X122275600Y-77724000D03*
%TD*%
D13*
%TO.C,J3*%
X176580800Y-91084400D03*
D14*
X176580800Y-93624400D03*
X179120800Y-91084400D03*
X179120800Y-93624400D03*
X181660800Y-91084400D03*
X181660800Y-93624400D03*
%TD*%
D16*
%TO.C,MH2*%
X180509320Y-68774680D03*
%TD*%
D13*
%TO.C,J5*%
X127409320Y-103733600D03*
D14*
X129949320Y-103733600D03*
X132489320Y-103733600D03*
X135029320Y-103733600D03*
X137569320Y-103733600D03*
X140109320Y-103733600D03*
X142649320Y-103733600D03*
X145189320Y-103733600D03*
X147729320Y-103733600D03*
X150269320Y-103733600D03*
X152809320Y-103733600D03*
X155349320Y-103733600D03*
X157889320Y-103733600D03*
X160429320Y-103733600D03*
X162969320Y-103733600D03*
X165509320Y-103733600D03*
X168049320Y-103733600D03*
X170589320Y-103733600D03*
X173129320Y-103733600D03*
X175669320Y-103733600D03*
%TD*%
D16*
%TO.C,MH3*%
X122509320Y-117774680D03*
%TD*%
D17*
%TO.C,D2*%
X125730000Y-86230000D03*
X125730000Y-89030000D03*
%TD*%
D13*
%TO.C,J4*%
X127409320Y-114350800D03*
D14*
X129949320Y-114350800D03*
X132489320Y-114350800D03*
X135029320Y-114350800D03*
X137569320Y-114350800D03*
X140109320Y-114350800D03*
X142649320Y-114350800D03*
X145189320Y-114350800D03*
X147729320Y-114350800D03*
X150269320Y-114350800D03*
X152809320Y-114350800D03*
X155349320Y-114350800D03*
X157889320Y-114350800D03*
X160429320Y-114350800D03*
X162969320Y-114350800D03*
X165509320Y-114350800D03*
X168049320Y-114350800D03*
X170589320Y-114350800D03*
X173129320Y-114350800D03*
X175669320Y-114350800D03*
%TD*%
D13*
%TO.C,J2*%
X138410000Y-71989250D03*
D14*
X135870000Y-71989250D03*
%TD*%
D18*
%TO.C,J1*%
X170188000Y-72168000D03*
D19*
X172208000Y-72168000D03*
D20*
X173438000Y-72168000D03*
D18*
X171188000Y-72168000D03*
D19*
X169168000Y-72168000D03*
D20*
X167938000Y-72168000D03*
D21*
X166368000Y-72088000D03*
X175008000Y-72088000D03*
X166368000Y-68288000D03*
X175008000Y-68288000D03*
%TD*%
D22*
%TO.C,U1*%
X181700000Y-79012500D03*
X179400000Y-79012500D03*
D23*
X179400000Y-85312500D03*
D22*
X177100000Y-79012500D03*
%TD*%
D24*
%TO.C,C1*%
X179875000Y-75946000D03*
X177800000Y-75946000D03*
%TD*%
D25*
%TO.C,SW1*%
X157103200Y-67464800D03*
X157103200Y-73964800D03*
X152603200Y-67464800D03*
X152603200Y-73964800D03*
%TD*%
D16*
%TO.C,MH1*%
X122509320Y-68774680D03*
%TD*%
%TO.C,MH4*%
X180509320Y-117774680D03*
%TD*%
M02*
