%TF.GenerationSoftware,KiCad,Pcbnew,7.0.2*%
%TF.CreationDate,2023-10-08T18:29:29-07:00*%
%TF.ProjectId,Pi Pico Extender,50692050-6963-46f2-9045-7874656e6465,rev?*%
%TF.SameCoordinates,Original*%
%TF.FileFunction,Legend,Top*%
%TF.FilePolarity,Positive*%
%FSLAX46Y46*%
G04 Gerber Fmt 4.6, Leading zero omitted, Abs format (unit mm)*
G04 Created by KiCad (PCBNEW 7.0.2) date 2023-10-08 18:29:29*
%MOMM*%
%LPD*%
G01*
G04 APERTURE LIST*
%ADD10C,0.150000*%
%ADD11C,0.300000*%
%ADD12C,0.120000*%
%ADD13C,0.200000*%
G04 APERTURE END LIST*
D10*
X129742857Y-70906095D02*
X129895238Y-70906095D01*
X129895238Y-70906095D02*
X129971428Y-70944190D01*
X129971428Y-70944190D02*
X130047619Y-71020380D01*
X130047619Y-71020380D02*
X130085714Y-71172761D01*
X130085714Y-71172761D02*
X130085714Y-71439428D01*
X130085714Y-71439428D02*
X130047619Y-71591809D01*
X130047619Y-71591809D02*
X129971428Y-71668000D01*
X129971428Y-71668000D02*
X129895238Y-71706095D01*
X129895238Y-71706095D02*
X129742857Y-71706095D01*
X129742857Y-71706095D02*
X129666666Y-71668000D01*
X129666666Y-71668000D02*
X129590476Y-71591809D01*
X129590476Y-71591809D02*
X129552380Y-71439428D01*
X129552380Y-71439428D02*
X129552380Y-71172761D01*
X129552380Y-71172761D02*
X129590476Y-71020380D01*
X129590476Y-71020380D02*
X129666666Y-70944190D01*
X129666666Y-70944190D02*
X129742857Y-70906095D01*
X130428571Y-71172761D02*
X130428571Y-71706095D01*
X130428571Y-71248952D02*
X130466666Y-71210857D01*
X130466666Y-71210857D02*
X130542856Y-71172761D01*
X130542856Y-71172761D02*
X130657142Y-71172761D01*
X130657142Y-71172761D02*
X130733333Y-71210857D01*
X130733333Y-71210857D02*
X130771428Y-71287047D01*
X130771428Y-71287047D02*
X130771428Y-71706095D01*
X131723809Y-70868000D02*
X131038095Y-71896571D01*
X132142857Y-70906095D02*
X132295238Y-70906095D01*
X132295238Y-70906095D02*
X132371428Y-70944190D01*
X132371428Y-70944190D02*
X132447619Y-71020380D01*
X132447619Y-71020380D02*
X132485714Y-71172761D01*
X132485714Y-71172761D02*
X132485714Y-71439428D01*
X132485714Y-71439428D02*
X132447619Y-71591809D01*
X132447619Y-71591809D02*
X132371428Y-71668000D01*
X132371428Y-71668000D02*
X132295238Y-71706095D01*
X132295238Y-71706095D02*
X132142857Y-71706095D01*
X132142857Y-71706095D02*
X132066666Y-71668000D01*
X132066666Y-71668000D02*
X131990476Y-71591809D01*
X131990476Y-71591809D02*
X131952380Y-71439428D01*
X131952380Y-71439428D02*
X131952380Y-71172761D01*
X131952380Y-71172761D02*
X131990476Y-71020380D01*
X131990476Y-71020380D02*
X132066666Y-70944190D01*
X132066666Y-70944190D02*
X132142857Y-70906095D01*
X132714285Y-71172761D02*
X133019047Y-71172761D01*
X132828571Y-71706095D02*
X132828571Y-71020380D01*
X132828571Y-71020380D02*
X132866666Y-70944190D01*
X132866666Y-70944190D02*
X132942856Y-70906095D01*
X132942856Y-70906095D02*
X133019047Y-70906095D01*
X133171428Y-71172761D02*
X133476190Y-71172761D01*
X133285714Y-71706095D02*
X133285714Y-71020380D01*
X133285714Y-71020380D02*
X133323809Y-70944190D01*
X133323809Y-70944190D02*
X133399999Y-70906095D01*
X133399999Y-70906095D02*
X133476190Y-70906095D01*
X129819047Y-72202095D02*
X129819047Y-72773523D01*
X129819047Y-72773523D02*
X129780952Y-72887809D01*
X129780952Y-72887809D02*
X129704761Y-72964000D01*
X129704761Y-72964000D02*
X129590476Y-73002095D01*
X129590476Y-73002095D02*
X129514285Y-73002095D01*
X130542857Y-72468761D02*
X130542857Y-73002095D01*
X130200000Y-72468761D02*
X130200000Y-72887809D01*
X130200000Y-72887809D02*
X130238095Y-72964000D01*
X130238095Y-72964000D02*
X130314285Y-73002095D01*
X130314285Y-73002095D02*
X130428571Y-73002095D01*
X130428571Y-73002095D02*
X130504762Y-72964000D01*
X130504762Y-72964000D02*
X130542857Y-72925904D01*
X130923810Y-73002095D02*
X130923810Y-72468761D01*
X130923810Y-72544952D02*
X130961905Y-72506857D01*
X130961905Y-72506857D02*
X131038095Y-72468761D01*
X131038095Y-72468761D02*
X131152381Y-72468761D01*
X131152381Y-72468761D02*
X131228572Y-72506857D01*
X131228572Y-72506857D02*
X131266667Y-72583047D01*
X131266667Y-72583047D02*
X131266667Y-73002095D01*
X131266667Y-72583047D02*
X131304762Y-72506857D01*
X131304762Y-72506857D02*
X131380953Y-72468761D01*
X131380953Y-72468761D02*
X131495238Y-72468761D01*
X131495238Y-72468761D02*
X131571429Y-72506857D01*
X131571429Y-72506857D02*
X131609524Y-72583047D01*
X131609524Y-72583047D02*
X131609524Y-73002095D01*
X131990477Y-72468761D02*
X131990477Y-73268761D01*
X131990477Y-72506857D02*
X132066667Y-72468761D01*
X132066667Y-72468761D02*
X132219048Y-72468761D01*
X132219048Y-72468761D02*
X132295239Y-72506857D01*
X132295239Y-72506857D02*
X132333334Y-72544952D01*
X132333334Y-72544952D02*
X132371429Y-72621142D01*
X132371429Y-72621142D02*
X132371429Y-72849714D01*
X132371429Y-72849714D02*
X132333334Y-72925904D01*
X132333334Y-72925904D02*
X132295239Y-72964000D01*
X132295239Y-72964000D02*
X132219048Y-73002095D01*
X132219048Y-73002095D02*
X132066667Y-73002095D01*
X132066667Y-73002095D02*
X131990477Y-72964000D01*
X133019049Y-72964000D02*
X132942858Y-73002095D01*
X132942858Y-73002095D02*
X132790477Y-73002095D01*
X132790477Y-73002095D02*
X132714287Y-72964000D01*
X132714287Y-72964000D02*
X132676191Y-72887809D01*
X132676191Y-72887809D02*
X132676191Y-72583047D01*
X132676191Y-72583047D02*
X132714287Y-72506857D01*
X132714287Y-72506857D02*
X132790477Y-72468761D01*
X132790477Y-72468761D02*
X132942858Y-72468761D01*
X132942858Y-72468761D02*
X133019049Y-72506857D01*
X133019049Y-72506857D02*
X133057144Y-72583047D01*
X133057144Y-72583047D02*
X133057144Y-72659238D01*
X133057144Y-72659238D02*
X132676191Y-72735428D01*
X133400001Y-73002095D02*
X133400001Y-72468761D01*
X133400001Y-72621142D02*
X133438096Y-72544952D01*
X133438096Y-72544952D02*
X133476191Y-72506857D01*
X133476191Y-72506857D02*
X133552382Y-72468761D01*
X133552382Y-72468761D02*
X133628572Y-72468761D01*
X160004110Y-108077009D02*
X159966015Y-108153199D01*
X159966015Y-108153199D02*
X159966015Y-108267485D01*
X159966015Y-108267485D02*
X160004110Y-108381771D01*
X160004110Y-108381771D02*
X160080300Y-108457961D01*
X160080300Y-108457961D02*
X160156491Y-108496056D01*
X160156491Y-108496056D02*
X160308872Y-108534152D01*
X160308872Y-108534152D02*
X160423158Y-108534152D01*
X160423158Y-108534152D02*
X160575539Y-108496056D01*
X160575539Y-108496056D02*
X160651729Y-108457961D01*
X160651729Y-108457961D02*
X160727920Y-108381771D01*
X160727920Y-108381771D02*
X160766015Y-108267485D01*
X160766015Y-108267485D02*
X160766015Y-108191294D01*
X160766015Y-108191294D02*
X160727920Y-108077009D01*
X160727920Y-108077009D02*
X160689824Y-108038913D01*
X160689824Y-108038913D02*
X160423158Y-108038913D01*
X160423158Y-108038913D02*
X160423158Y-108191294D01*
X160766015Y-107696056D02*
X159966015Y-107696056D01*
X159966015Y-107696056D02*
X159966015Y-107391294D01*
X159966015Y-107391294D02*
X160004110Y-107315104D01*
X160004110Y-107315104D02*
X160042205Y-107277009D01*
X160042205Y-107277009D02*
X160118396Y-107238913D01*
X160118396Y-107238913D02*
X160232681Y-107238913D01*
X160232681Y-107238913D02*
X160308872Y-107277009D01*
X160308872Y-107277009D02*
X160346967Y-107315104D01*
X160346967Y-107315104D02*
X160385062Y-107391294D01*
X160385062Y-107391294D02*
X160385062Y-107696056D01*
X160042205Y-106934152D02*
X160004110Y-106896056D01*
X160004110Y-106896056D02*
X159966015Y-106819866D01*
X159966015Y-106819866D02*
X159966015Y-106629390D01*
X159966015Y-106629390D02*
X160004110Y-106553199D01*
X160004110Y-106553199D02*
X160042205Y-106515104D01*
X160042205Y-106515104D02*
X160118396Y-106477009D01*
X160118396Y-106477009D02*
X160194586Y-106477009D01*
X160194586Y-106477009D02*
X160308872Y-106515104D01*
X160308872Y-106515104D02*
X160766015Y-106972247D01*
X160766015Y-106972247D02*
X160766015Y-106477009D01*
X160766015Y-105715104D02*
X160766015Y-106172247D01*
X160766015Y-105943675D02*
X159966015Y-105943675D01*
X159966015Y-105943675D02*
X160080300Y-106019866D01*
X160080300Y-106019866D02*
X160156491Y-106096056D01*
X160156491Y-106096056D02*
X160194586Y-106172247D01*
X147253310Y-110134152D02*
X147215215Y-110210342D01*
X147215215Y-110210342D02*
X147215215Y-110324628D01*
X147215215Y-110324628D02*
X147253310Y-110438914D01*
X147253310Y-110438914D02*
X147329500Y-110515104D01*
X147329500Y-110515104D02*
X147405691Y-110553199D01*
X147405691Y-110553199D02*
X147558072Y-110591295D01*
X147558072Y-110591295D02*
X147672358Y-110591295D01*
X147672358Y-110591295D02*
X147824739Y-110553199D01*
X147824739Y-110553199D02*
X147900929Y-110515104D01*
X147900929Y-110515104D02*
X147977120Y-110438914D01*
X147977120Y-110438914D02*
X148015215Y-110324628D01*
X148015215Y-110324628D02*
X148015215Y-110248437D01*
X148015215Y-110248437D02*
X147977120Y-110134152D01*
X147977120Y-110134152D02*
X147939024Y-110096056D01*
X147939024Y-110096056D02*
X147672358Y-110096056D01*
X147672358Y-110096056D02*
X147672358Y-110248437D01*
X148015215Y-109753199D02*
X147215215Y-109753199D01*
X147215215Y-109753199D02*
X147215215Y-109448437D01*
X147215215Y-109448437D02*
X147253310Y-109372247D01*
X147253310Y-109372247D02*
X147291405Y-109334152D01*
X147291405Y-109334152D02*
X147367596Y-109296056D01*
X147367596Y-109296056D02*
X147481881Y-109296056D01*
X147481881Y-109296056D02*
X147558072Y-109334152D01*
X147558072Y-109334152D02*
X147596167Y-109372247D01*
X147596167Y-109372247D02*
X147634262Y-109448437D01*
X147634262Y-109448437D02*
X147634262Y-109753199D01*
X147291405Y-108991295D02*
X147253310Y-108953199D01*
X147253310Y-108953199D02*
X147215215Y-108877009D01*
X147215215Y-108877009D02*
X147215215Y-108686533D01*
X147215215Y-108686533D02*
X147253310Y-108610342D01*
X147253310Y-108610342D02*
X147291405Y-108572247D01*
X147291405Y-108572247D02*
X147367596Y-108534152D01*
X147367596Y-108534152D02*
X147443786Y-108534152D01*
X147443786Y-108534152D02*
X147558072Y-108572247D01*
X147558072Y-108572247D02*
X148015215Y-109029390D01*
X148015215Y-109029390D02*
X148015215Y-108534152D01*
X147215215Y-108267485D02*
X147215215Y-107734151D01*
X147215215Y-107734151D02*
X148015215Y-108077009D01*
X148091405Y-107619866D02*
X148091405Y-107010342D01*
X147786643Y-106857961D02*
X147786643Y-106477008D01*
X148015215Y-106934151D02*
X147215215Y-106667484D01*
X147215215Y-106667484D02*
X148015215Y-106400818D01*
X148015215Y-105715104D02*
X148015215Y-106172247D01*
X148015215Y-105943675D02*
X147215215Y-105943675D01*
X147215215Y-105943675D02*
X147329500Y-106019866D01*
X147329500Y-106019866D02*
X147405691Y-106096056D01*
X147405691Y-106096056D02*
X147443786Y-106172247D01*
X172704110Y-108077009D02*
X172666015Y-108153199D01*
X172666015Y-108153199D02*
X172666015Y-108267485D01*
X172666015Y-108267485D02*
X172704110Y-108381771D01*
X172704110Y-108381771D02*
X172780300Y-108457961D01*
X172780300Y-108457961D02*
X172856491Y-108496056D01*
X172856491Y-108496056D02*
X173008872Y-108534152D01*
X173008872Y-108534152D02*
X173123158Y-108534152D01*
X173123158Y-108534152D02*
X173275539Y-108496056D01*
X173275539Y-108496056D02*
X173351729Y-108457961D01*
X173351729Y-108457961D02*
X173427920Y-108381771D01*
X173427920Y-108381771D02*
X173466015Y-108267485D01*
X173466015Y-108267485D02*
X173466015Y-108191294D01*
X173466015Y-108191294D02*
X173427920Y-108077009D01*
X173427920Y-108077009D02*
X173389824Y-108038913D01*
X173389824Y-108038913D02*
X173123158Y-108038913D01*
X173123158Y-108038913D02*
X173123158Y-108191294D01*
X173466015Y-107696056D02*
X172666015Y-107696056D01*
X172666015Y-107696056D02*
X172666015Y-107391294D01*
X172666015Y-107391294D02*
X172704110Y-107315104D01*
X172704110Y-107315104D02*
X172742205Y-107277009D01*
X172742205Y-107277009D02*
X172818396Y-107238913D01*
X172818396Y-107238913D02*
X172932681Y-107238913D01*
X172932681Y-107238913D02*
X173008872Y-107277009D01*
X173008872Y-107277009D02*
X173046967Y-107315104D01*
X173046967Y-107315104D02*
X173085062Y-107391294D01*
X173085062Y-107391294D02*
X173085062Y-107696056D01*
X173466015Y-106477009D02*
X173466015Y-106934152D01*
X173466015Y-106705580D02*
X172666015Y-106705580D01*
X172666015Y-106705580D02*
X172780300Y-106781771D01*
X172780300Y-106781771D02*
X172856491Y-106857961D01*
X172856491Y-106857961D02*
X172894586Y-106934152D01*
X172666015Y-106210342D02*
X172666015Y-105677008D01*
X172666015Y-105677008D02*
X173466015Y-106019866D01*
X142274910Y-110134152D02*
X142236815Y-110210342D01*
X142236815Y-110210342D02*
X142236815Y-110324628D01*
X142236815Y-110324628D02*
X142274910Y-110438914D01*
X142274910Y-110438914D02*
X142351100Y-110515104D01*
X142351100Y-110515104D02*
X142427291Y-110553199D01*
X142427291Y-110553199D02*
X142579672Y-110591295D01*
X142579672Y-110591295D02*
X142693958Y-110591295D01*
X142693958Y-110591295D02*
X142846339Y-110553199D01*
X142846339Y-110553199D02*
X142922529Y-110515104D01*
X142922529Y-110515104D02*
X142998720Y-110438914D01*
X142998720Y-110438914D02*
X143036815Y-110324628D01*
X143036815Y-110324628D02*
X143036815Y-110248437D01*
X143036815Y-110248437D02*
X142998720Y-110134152D01*
X142998720Y-110134152D02*
X142960624Y-110096056D01*
X142960624Y-110096056D02*
X142693958Y-110096056D01*
X142693958Y-110096056D02*
X142693958Y-110248437D01*
X143036815Y-109753199D02*
X142236815Y-109753199D01*
X142236815Y-109753199D02*
X142236815Y-109448437D01*
X142236815Y-109448437D02*
X142274910Y-109372247D01*
X142274910Y-109372247D02*
X142313005Y-109334152D01*
X142313005Y-109334152D02*
X142389196Y-109296056D01*
X142389196Y-109296056D02*
X142503481Y-109296056D01*
X142503481Y-109296056D02*
X142579672Y-109334152D01*
X142579672Y-109334152D02*
X142617767Y-109372247D01*
X142617767Y-109372247D02*
X142655862Y-109448437D01*
X142655862Y-109448437D02*
X142655862Y-109753199D01*
X142313005Y-108991295D02*
X142274910Y-108953199D01*
X142274910Y-108953199D02*
X142236815Y-108877009D01*
X142236815Y-108877009D02*
X142236815Y-108686533D01*
X142236815Y-108686533D02*
X142274910Y-108610342D01*
X142274910Y-108610342D02*
X142313005Y-108572247D01*
X142313005Y-108572247D02*
X142389196Y-108534152D01*
X142389196Y-108534152D02*
X142465386Y-108534152D01*
X142465386Y-108534152D02*
X142579672Y-108572247D01*
X142579672Y-108572247D02*
X143036815Y-109029390D01*
X143036815Y-109029390D02*
X143036815Y-108534152D01*
X142579672Y-108077009D02*
X142541577Y-108153199D01*
X142541577Y-108153199D02*
X142503481Y-108191294D01*
X142503481Y-108191294D02*
X142427291Y-108229390D01*
X142427291Y-108229390D02*
X142389196Y-108229390D01*
X142389196Y-108229390D02*
X142313005Y-108191294D01*
X142313005Y-108191294D02*
X142274910Y-108153199D01*
X142274910Y-108153199D02*
X142236815Y-108077009D01*
X142236815Y-108077009D02*
X142236815Y-107924628D01*
X142236815Y-107924628D02*
X142274910Y-107848437D01*
X142274910Y-107848437D02*
X142313005Y-107810342D01*
X142313005Y-107810342D02*
X142389196Y-107772247D01*
X142389196Y-107772247D02*
X142427291Y-107772247D01*
X142427291Y-107772247D02*
X142503481Y-107810342D01*
X142503481Y-107810342D02*
X142541577Y-107848437D01*
X142541577Y-107848437D02*
X142579672Y-107924628D01*
X142579672Y-107924628D02*
X142579672Y-108077009D01*
X142579672Y-108077009D02*
X142617767Y-108153199D01*
X142617767Y-108153199D02*
X142655862Y-108191294D01*
X142655862Y-108191294D02*
X142732053Y-108229390D01*
X142732053Y-108229390D02*
X142884434Y-108229390D01*
X142884434Y-108229390D02*
X142960624Y-108191294D01*
X142960624Y-108191294D02*
X142998720Y-108153199D01*
X142998720Y-108153199D02*
X143036815Y-108077009D01*
X143036815Y-108077009D02*
X143036815Y-107924628D01*
X143036815Y-107924628D02*
X142998720Y-107848437D01*
X142998720Y-107848437D02*
X142960624Y-107810342D01*
X142960624Y-107810342D02*
X142884434Y-107772247D01*
X142884434Y-107772247D02*
X142732053Y-107772247D01*
X142732053Y-107772247D02*
X142655862Y-107810342D01*
X142655862Y-107810342D02*
X142617767Y-107848437D01*
X142617767Y-107848437D02*
X142579672Y-107924628D01*
X143113005Y-107619866D02*
X143113005Y-107010342D01*
X142808243Y-106857961D02*
X142808243Y-106477008D01*
X143036815Y-106934151D02*
X142236815Y-106667484D01*
X142236815Y-106667484D02*
X143036815Y-106400818D01*
X142313005Y-106172247D02*
X142274910Y-106134151D01*
X142274910Y-106134151D02*
X142236815Y-106057961D01*
X142236815Y-106057961D02*
X142236815Y-105867485D01*
X142236815Y-105867485D02*
X142274910Y-105791294D01*
X142274910Y-105791294D02*
X142313005Y-105753199D01*
X142313005Y-105753199D02*
X142389196Y-105715104D01*
X142389196Y-105715104D02*
X142465386Y-105715104D01*
X142465386Y-105715104D02*
X142579672Y-105753199D01*
X142579672Y-105753199D02*
X143036815Y-106210342D01*
X143036815Y-106210342D02*
X143036815Y-105715104D01*
X176102095Y-71928571D02*
X176102095Y-72309523D01*
X176102095Y-72309523D02*
X176483047Y-72347619D01*
X176483047Y-72347619D02*
X176444952Y-72309523D01*
X176444952Y-72309523D02*
X176406857Y-72233333D01*
X176406857Y-72233333D02*
X176406857Y-72042857D01*
X176406857Y-72042857D02*
X176444952Y-71966666D01*
X176444952Y-71966666D02*
X176483047Y-71928571D01*
X176483047Y-71928571D02*
X176559238Y-71890476D01*
X176559238Y-71890476D02*
X176749714Y-71890476D01*
X176749714Y-71890476D02*
X176825904Y-71928571D01*
X176825904Y-71928571D02*
X176864000Y-71966666D01*
X176864000Y-71966666D02*
X176902095Y-72042857D01*
X176902095Y-72042857D02*
X176902095Y-72233333D01*
X176902095Y-72233333D02*
X176864000Y-72309523D01*
X176864000Y-72309523D02*
X176825904Y-72347619D01*
X176102095Y-71661904D02*
X176902095Y-71395237D01*
X176902095Y-71395237D02*
X176102095Y-71128571D01*
X176102095Y-70252380D02*
X176749714Y-70252380D01*
X176749714Y-70252380D02*
X176825904Y-70214285D01*
X176825904Y-70214285D02*
X176864000Y-70176190D01*
X176864000Y-70176190D02*
X176902095Y-70099999D01*
X176902095Y-70099999D02*
X176902095Y-69947618D01*
X176902095Y-69947618D02*
X176864000Y-69871428D01*
X176864000Y-69871428D02*
X176825904Y-69833333D01*
X176825904Y-69833333D02*
X176749714Y-69795237D01*
X176749714Y-69795237D02*
X176102095Y-69795237D01*
X176864000Y-69452381D02*
X176902095Y-69338095D01*
X176902095Y-69338095D02*
X176902095Y-69147619D01*
X176902095Y-69147619D02*
X176864000Y-69071428D01*
X176864000Y-69071428D02*
X176825904Y-69033333D01*
X176825904Y-69033333D02*
X176749714Y-68995238D01*
X176749714Y-68995238D02*
X176673523Y-68995238D01*
X176673523Y-68995238D02*
X176597333Y-69033333D01*
X176597333Y-69033333D02*
X176559238Y-69071428D01*
X176559238Y-69071428D02*
X176521142Y-69147619D01*
X176521142Y-69147619D02*
X176483047Y-69300000D01*
X176483047Y-69300000D02*
X176444952Y-69376190D01*
X176444952Y-69376190D02*
X176406857Y-69414285D01*
X176406857Y-69414285D02*
X176330666Y-69452381D01*
X176330666Y-69452381D02*
X176254476Y-69452381D01*
X176254476Y-69452381D02*
X176178285Y-69414285D01*
X176178285Y-69414285D02*
X176140190Y-69376190D01*
X176140190Y-69376190D02*
X176102095Y-69300000D01*
X176102095Y-69300000D02*
X176102095Y-69109523D01*
X176102095Y-69109523D02*
X176140190Y-68995238D01*
X176483047Y-68385714D02*
X176521142Y-68271428D01*
X176521142Y-68271428D02*
X176559238Y-68233333D01*
X176559238Y-68233333D02*
X176635428Y-68195237D01*
X176635428Y-68195237D02*
X176749714Y-68195237D01*
X176749714Y-68195237D02*
X176825904Y-68233333D01*
X176825904Y-68233333D02*
X176864000Y-68271428D01*
X176864000Y-68271428D02*
X176902095Y-68347618D01*
X176902095Y-68347618D02*
X176902095Y-68652380D01*
X176902095Y-68652380D02*
X176102095Y-68652380D01*
X176102095Y-68652380D02*
X176102095Y-68385714D01*
X176102095Y-68385714D02*
X176140190Y-68309523D01*
X176140190Y-68309523D02*
X176178285Y-68271428D01*
X176178285Y-68271428D02*
X176254476Y-68233333D01*
X176254476Y-68233333D02*
X176330666Y-68233333D01*
X176330666Y-68233333D02*
X176406857Y-68271428D01*
X176406857Y-68271428D02*
X176444952Y-68309523D01*
X176444952Y-68309523D02*
X176483047Y-68385714D01*
X176483047Y-68385714D02*
X176483047Y-68652380D01*
X176825904Y-66785713D02*
X176864000Y-66823809D01*
X176864000Y-66823809D02*
X176902095Y-66938094D01*
X176902095Y-66938094D02*
X176902095Y-67014285D01*
X176902095Y-67014285D02*
X176864000Y-67128571D01*
X176864000Y-67128571D02*
X176787809Y-67204761D01*
X176787809Y-67204761D02*
X176711619Y-67242856D01*
X176711619Y-67242856D02*
X176559238Y-67280952D01*
X176559238Y-67280952D02*
X176444952Y-67280952D01*
X176444952Y-67280952D02*
X176292571Y-67242856D01*
X176292571Y-67242856D02*
X176216380Y-67204761D01*
X176216380Y-67204761D02*
X176140190Y-67128571D01*
X176140190Y-67128571D02*
X176102095Y-67014285D01*
X176102095Y-67014285D02*
X176102095Y-66938094D01*
X176102095Y-66938094D02*
X176140190Y-66823809D01*
X176140190Y-66823809D02*
X176178285Y-66785713D01*
G36*
X158009840Y-116898191D02*
G01*
X158067781Y-116927161D01*
X158122847Y-116982227D01*
X158151495Y-117068170D01*
X158151495Y-117171475D01*
X157501495Y-117171475D01*
X157501495Y-117068169D01*
X157530142Y-116982226D01*
X157585206Y-116927162D01*
X157643145Y-116898192D01*
X157778587Y-116864332D01*
X157874406Y-116864332D01*
X158009840Y-116898191D01*
G37*
G36*
X158783186Y-119521833D02*
G01*
X156929614Y-119521833D01*
X156929614Y-118658824D01*
X157348380Y-118658824D01*
X157354918Y-118678438D01*
X157360738Y-118698259D01*
X157361844Y-118699217D01*
X157392162Y-118790174D01*
X157395985Y-118807746D01*
X157406824Y-118818585D01*
X157415571Y-118831170D01*
X157422117Y-118833878D01*
X157481097Y-118892858D01*
X157487542Y-118903709D01*
X157506040Y-118912957D01*
X157524165Y-118922855D01*
X157525625Y-118922750D01*
X157571482Y-118945678D01*
X157577416Y-118951989D01*
X157590792Y-118955333D01*
X157593074Y-118956474D01*
X157601213Y-118957938D01*
X157739187Y-118992433D01*
X157747330Y-118997666D01*
X157760118Y-118997666D01*
X157761622Y-118998042D01*
X157770868Y-118997666D01*
X157871295Y-118997666D01*
X157880464Y-119000768D01*
X157892872Y-118997666D01*
X157894420Y-118997666D01*
X157903290Y-118995061D01*
X158041250Y-118960571D01*
X158049863Y-118961501D01*
X158062195Y-118955334D01*
X158064670Y-118954716D01*
X158071802Y-118950530D01*
X158137339Y-118917762D01*
X158149670Y-118915080D01*
X158164291Y-118900458D01*
X158179415Y-118886391D01*
X158179777Y-118884972D01*
X158238576Y-118826174D01*
X158252587Y-118814894D01*
X158257434Y-118800352D01*
X158264780Y-118786900D01*
X158264274Y-118779831D01*
X158294672Y-118688636D01*
X158301495Y-118678021D01*
X158301495Y-118657341D01*
X158302241Y-118636702D01*
X158301495Y-118635443D01*
X158301495Y-118589210D01*
X158304610Y-118576983D01*
X158298072Y-118557369D01*
X158292252Y-118537548D01*
X158291145Y-118536589D01*
X158260827Y-118445633D01*
X158257005Y-118428062D01*
X158246166Y-118417223D01*
X158237419Y-118404637D01*
X158230871Y-118401928D01*
X158212904Y-118383961D01*
X158209378Y-118376239D01*
X158197635Y-118368692D01*
X158195713Y-118366770D01*
X158188602Y-118362887D01*
X158172326Y-118352427D01*
X158169446Y-118352427D01*
X158166919Y-118351047D01*
X158147630Y-118352427D01*
X157888998Y-118352427D01*
X157872514Y-118350057D01*
X157857361Y-118356976D01*
X157841378Y-118361670D01*
X157837641Y-118365982D01*
X157832450Y-118368353D01*
X157823442Y-118382369D01*
X157812536Y-118394956D01*
X157811724Y-118400602D01*
X157808638Y-118405405D01*
X157808638Y-118422067D01*
X157806268Y-118438551D01*
X157808638Y-118443740D01*
X157808638Y-118590590D01*
X157817881Y-118622068D01*
X157851167Y-118650910D01*
X157894762Y-118657178D01*
X157934826Y-118638882D01*
X157958638Y-118601830D01*
X157958638Y-118502427D01*
X158119238Y-118502427D01*
X158122847Y-118506036D01*
X158151495Y-118591979D01*
X158151495Y-118643829D01*
X158122847Y-118729772D01*
X158067783Y-118784834D01*
X158009842Y-118813805D01*
X157874403Y-118847666D01*
X157778584Y-118847666D01*
X157643148Y-118813806D01*
X157585206Y-118784835D01*
X157530142Y-118729771D01*
X157501495Y-118643827D01*
X157501495Y-118559418D01*
X157536494Y-118489420D01*
X157542304Y-118457132D01*
X157525431Y-118416449D01*
X157489241Y-118391346D01*
X157445225Y-118389794D01*
X157407356Y-118412285D01*
X157361218Y-118504561D01*
X157351495Y-118519691D01*
X157351495Y-118535021D01*
X157348781Y-118550104D01*
X157351495Y-118556647D01*
X157351495Y-118646596D01*
X157348380Y-118658824D01*
X156929614Y-118658824D01*
X156929614Y-118091654D01*
X157348651Y-118091654D01*
X157349424Y-118093611D01*
X157349125Y-118095694D01*
X157357461Y-118113949D01*
X157364838Y-118132615D01*
X157366546Y-118133843D01*
X157367421Y-118135758D01*
X157384305Y-118146608D01*
X157400601Y-118158323D01*
X157402703Y-118158432D01*
X157404473Y-118159570D01*
X157424542Y-118159570D01*
X157444585Y-118160614D01*
X157446412Y-118159570D01*
X158237277Y-118159570D01*
X158268755Y-118150327D01*
X158297597Y-118117041D01*
X158303865Y-118073446D01*
X158285569Y-118033382D01*
X158248517Y-118009570D01*
X157708912Y-118009570D01*
X158256069Y-117696908D01*
X158268755Y-117693184D01*
X158281894Y-117678020D01*
X158295812Y-117663553D01*
X158296219Y-117661487D01*
X158297597Y-117659898D01*
X158300452Y-117640037D01*
X158304339Y-117620343D01*
X158303565Y-117618385D01*
X158303865Y-117616303D01*
X158295528Y-117598047D01*
X158288152Y-117579382D01*
X158286443Y-117578153D01*
X158285569Y-117576239D01*
X158268684Y-117565388D01*
X158252389Y-117553674D01*
X158250286Y-117553564D01*
X158248517Y-117552427D01*
X158228448Y-117552427D01*
X158208405Y-117551383D01*
X158206578Y-117552427D01*
X157415713Y-117552427D01*
X157384235Y-117561670D01*
X157355393Y-117594956D01*
X157349125Y-117638551D01*
X157367421Y-117678615D01*
X157404473Y-117702427D01*
X157944078Y-117702427D01*
X157396920Y-118015088D01*
X157384235Y-118018813D01*
X157371095Y-118033976D01*
X157357178Y-118048444D01*
X157356770Y-118050509D01*
X157355393Y-118052099D01*
X157352537Y-118071959D01*
X157348651Y-118091654D01*
X156929614Y-118091654D01*
X156929614Y-117257599D01*
X157349125Y-117257599D01*
X157356044Y-117272751D01*
X157360738Y-117288735D01*
X157365050Y-117292471D01*
X157367421Y-117297663D01*
X157381437Y-117306670D01*
X157394024Y-117317577D01*
X157399670Y-117318388D01*
X157404473Y-117321475D01*
X157421135Y-117321475D01*
X157437619Y-117323845D01*
X157442809Y-117321475D01*
X158221135Y-117321475D01*
X158237619Y-117323845D01*
X158252771Y-117316925D01*
X158268755Y-117312232D01*
X158272491Y-117307919D01*
X158277683Y-117305549D01*
X158286690Y-117291532D01*
X158297597Y-117278946D01*
X158298408Y-117273299D01*
X158301495Y-117268497D01*
X158301495Y-117251834D01*
X158303865Y-117235351D01*
X158301495Y-117230161D01*
X158301495Y-117065401D01*
X158304610Y-117053174D01*
X158298071Y-117033559D01*
X158292252Y-117013739D01*
X158291145Y-117012780D01*
X158260827Y-116921823D01*
X158257005Y-116904252D01*
X158246165Y-116893412D01*
X158237419Y-116880828D01*
X158230872Y-116878120D01*
X158171890Y-116819138D01*
X158165447Y-116808289D01*
X158146942Y-116799036D01*
X158128823Y-116789143D01*
X158127363Y-116789247D01*
X158081507Y-116766319D01*
X158075574Y-116760009D01*
X158062197Y-116756664D01*
X158059916Y-116755524D01*
X158051775Y-116754059D01*
X157913802Y-116719564D01*
X157905660Y-116714332D01*
X157892872Y-116714332D01*
X157891368Y-116713956D01*
X157882122Y-116714332D01*
X157781695Y-116714332D01*
X157772526Y-116711230D01*
X157760118Y-116714332D01*
X157758570Y-116714332D01*
X157749699Y-116716936D01*
X157611740Y-116751426D01*
X157603128Y-116750497D01*
X157590796Y-116756662D01*
X157588320Y-116757282D01*
X157581182Y-116761469D01*
X157515651Y-116794235D01*
X157503319Y-116796918D01*
X157488691Y-116811545D01*
X157473574Y-116825607D01*
X157473211Y-116827025D01*
X157414412Y-116885824D01*
X157400403Y-116897104D01*
X157395555Y-116911645D01*
X157388210Y-116925098D01*
X157388715Y-116932165D01*
X157358317Y-117023361D01*
X157351495Y-117033977D01*
X157351495Y-117054656D01*
X157350749Y-117075296D01*
X157351495Y-117076554D01*
X157351495Y-117241115D01*
X157349125Y-117257599D01*
X156929614Y-117257599D01*
X156929614Y-116190166D01*
X158783186Y-116190166D01*
X158783186Y-119521833D01*
G37*
X162544110Y-108077009D02*
X162506015Y-108153199D01*
X162506015Y-108153199D02*
X162506015Y-108267485D01*
X162506015Y-108267485D02*
X162544110Y-108381771D01*
X162544110Y-108381771D02*
X162620300Y-108457961D01*
X162620300Y-108457961D02*
X162696491Y-108496056D01*
X162696491Y-108496056D02*
X162848872Y-108534152D01*
X162848872Y-108534152D02*
X162963158Y-108534152D01*
X162963158Y-108534152D02*
X163115539Y-108496056D01*
X163115539Y-108496056D02*
X163191729Y-108457961D01*
X163191729Y-108457961D02*
X163267920Y-108381771D01*
X163267920Y-108381771D02*
X163306015Y-108267485D01*
X163306015Y-108267485D02*
X163306015Y-108191294D01*
X163306015Y-108191294D02*
X163267920Y-108077009D01*
X163267920Y-108077009D02*
X163229824Y-108038913D01*
X163229824Y-108038913D02*
X162963158Y-108038913D01*
X162963158Y-108038913D02*
X162963158Y-108191294D01*
X163306015Y-107696056D02*
X162506015Y-107696056D01*
X162506015Y-107696056D02*
X162506015Y-107391294D01*
X162506015Y-107391294D02*
X162544110Y-107315104D01*
X162544110Y-107315104D02*
X162582205Y-107277009D01*
X162582205Y-107277009D02*
X162658396Y-107238913D01*
X162658396Y-107238913D02*
X162772681Y-107238913D01*
X162772681Y-107238913D02*
X162848872Y-107277009D01*
X162848872Y-107277009D02*
X162886967Y-107315104D01*
X162886967Y-107315104D02*
X162925062Y-107391294D01*
X162925062Y-107391294D02*
X162925062Y-107696056D01*
X162582205Y-106934152D02*
X162544110Y-106896056D01*
X162544110Y-106896056D02*
X162506015Y-106819866D01*
X162506015Y-106819866D02*
X162506015Y-106629390D01*
X162506015Y-106629390D02*
X162544110Y-106553199D01*
X162544110Y-106553199D02*
X162582205Y-106515104D01*
X162582205Y-106515104D02*
X162658396Y-106477009D01*
X162658396Y-106477009D02*
X162734586Y-106477009D01*
X162734586Y-106477009D02*
X162848872Y-106515104D01*
X162848872Y-106515104D02*
X163306015Y-106972247D01*
X163306015Y-106972247D02*
X163306015Y-106477009D01*
X162506015Y-105981770D02*
X162506015Y-105905580D01*
X162506015Y-105905580D02*
X162544110Y-105829389D01*
X162544110Y-105829389D02*
X162582205Y-105791294D01*
X162582205Y-105791294D02*
X162658396Y-105753199D01*
X162658396Y-105753199D02*
X162810777Y-105715104D01*
X162810777Y-105715104D02*
X163001253Y-105715104D01*
X163001253Y-105715104D02*
X163153634Y-105753199D01*
X163153634Y-105753199D02*
X163229824Y-105791294D01*
X163229824Y-105791294D02*
X163267920Y-105829389D01*
X163267920Y-105829389D02*
X163306015Y-105905580D01*
X163306015Y-105905580D02*
X163306015Y-105981770D01*
X163306015Y-105981770D02*
X163267920Y-106057961D01*
X163267920Y-106057961D02*
X163229824Y-106096056D01*
X163229824Y-106096056D02*
X163153634Y-106134151D01*
X163153634Y-106134151D02*
X163001253Y-106172247D01*
X163001253Y-106172247D02*
X162810777Y-106172247D01*
X162810777Y-106172247D02*
X162658396Y-106134151D01*
X162658396Y-106134151D02*
X162582205Y-106096056D01*
X162582205Y-106096056D02*
X162544110Y-106057961D01*
X162544110Y-106057961D02*
X162506015Y-105981770D01*
G36*
X132663560Y-106230191D02*
G01*
X132721501Y-106259161D01*
X132776567Y-106314227D01*
X132805215Y-106400170D01*
X132805215Y-106503475D01*
X132155215Y-106503475D01*
X132155215Y-106400169D01*
X132183862Y-106314226D01*
X132238926Y-106259162D01*
X132296865Y-106230192D01*
X132432307Y-106196332D01*
X132528126Y-106196332D01*
X132663560Y-106230191D01*
G37*
G36*
X133436906Y-108853833D02*
G01*
X131583334Y-108853833D01*
X131583334Y-107990824D01*
X132002100Y-107990824D01*
X132008638Y-108010438D01*
X132014458Y-108030259D01*
X132015564Y-108031217D01*
X132045882Y-108122174D01*
X132049705Y-108139746D01*
X132060544Y-108150585D01*
X132069291Y-108163170D01*
X132075837Y-108165878D01*
X132134817Y-108224858D01*
X132141262Y-108235709D01*
X132159760Y-108244957D01*
X132177885Y-108254855D01*
X132179345Y-108254750D01*
X132225202Y-108277678D01*
X132231136Y-108283989D01*
X132244512Y-108287333D01*
X132246794Y-108288474D01*
X132254933Y-108289938D01*
X132392907Y-108324433D01*
X132401050Y-108329666D01*
X132413838Y-108329666D01*
X132415342Y-108330042D01*
X132424588Y-108329666D01*
X132525015Y-108329666D01*
X132534184Y-108332768D01*
X132546592Y-108329666D01*
X132548140Y-108329666D01*
X132557010Y-108327061D01*
X132694970Y-108292571D01*
X132703583Y-108293501D01*
X132715915Y-108287334D01*
X132718390Y-108286716D01*
X132725522Y-108282530D01*
X132791059Y-108249762D01*
X132803390Y-108247080D01*
X132818011Y-108232458D01*
X132833135Y-108218391D01*
X132833497Y-108216972D01*
X132892296Y-108158174D01*
X132906307Y-108146894D01*
X132911154Y-108132352D01*
X132918500Y-108118900D01*
X132917994Y-108111831D01*
X132948392Y-108020636D01*
X132955215Y-108010021D01*
X132955214Y-107989341D01*
X132955961Y-107968702D01*
X132955215Y-107967443D01*
X132955215Y-107921210D01*
X132958330Y-107908983D01*
X132951792Y-107889369D01*
X132945972Y-107869548D01*
X132944865Y-107868589D01*
X132914547Y-107777633D01*
X132910725Y-107760062D01*
X132899886Y-107749223D01*
X132891139Y-107736637D01*
X132884591Y-107733928D01*
X132866624Y-107715961D01*
X132863098Y-107708239D01*
X132851355Y-107700692D01*
X132849433Y-107698770D01*
X132842322Y-107694887D01*
X132826046Y-107684427D01*
X132823166Y-107684427D01*
X132820639Y-107683047D01*
X132801350Y-107684427D01*
X132542718Y-107684427D01*
X132526234Y-107682057D01*
X132511081Y-107688976D01*
X132495098Y-107693670D01*
X132491361Y-107697982D01*
X132486170Y-107700353D01*
X132477162Y-107714369D01*
X132466256Y-107726956D01*
X132465444Y-107732602D01*
X132462358Y-107737405D01*
X132462358Y-107754067D01*
X132459988Y-107770551D01*
X132462358Y-107775740D01*
X132462358Y-107922590D01*
X132471601Y-107954068D01*
X132504887Y-107982910D01*
X132548482Y-107989178D01*
X132588546Y-107970882D01*
X132612358Y-107933830D01*
X132612358Y-107834427D01*
X132772958Y-107834427D01*
X132776567Y-107838036D01*
X132805215Y-107923979D01*
X132805215Y-107975828D01*
X132776567Y-108061772D01*
X132721503Y-108116834D01*
X132663562Y-108145805D01*
X132528123Y-108179666D01*
X132432304Y-108179666D01*
X132296868Y-108145806D01*
X132238926Y-108116835D01*
X132183862Y-108061771D01*
X132155215Y-107975827D01*
X132155215Y-107891418D01*
X132190214Y-107821420D01*
X132196024Y-107789132D01*
X132179151Y-107748449D01*
X132142961Y-107723346D01*
X132098945Y-107721794D01*
X132061076Y-107744285D01*
X132014938Y-107836561D01*
X132005215Y-107851691D01*
X132005215Y-107867021D01*
X132002501Y-107882104D01*
X132005214Y-107888647D01*
X132005215Y-107978596D01*
X132002100Y-107990824D01*
X131583334Y-107990824D01*
X131583334Y-107423654D01*
X132002371Y-107423654D01*
X132003144Y-107425611D01*
X132002845Y-107427694D01*
X132011181Y-107445949D01*
X132018558Y-107464615D01*
X132020266Y-107465843D01*
X132021141Y-107467758D01*
X132038025Y-107478608D01*
X132054321Y-107490323D01*
X132056423Y-107490432D01*
X132058193Y-107491570D01*
X132078262Y-107491570D01*
X132098305Y-107492614D01*
X132100132Y-107491570D01*
X132890997Y-107491570D01*
X132922475Y-107482327D01*
X132951317Y-107449041D01*
X132957585Y-107405446D01*
X132939289Y-107365382D01*
X132902237Y-107341570D01*
X132362632Y-107341570D01*
X132909789Y-107028908D01*
X132922475Y-107025184D01*
X132935614Y-107010020D01*
X132949532Y-106995553D01*
X132949939Y-106993487D01*
X132951317Y-106991898D01*
X132954172Y-106972037D01*
X132958059Y-106952343D01*
X132957285Y-106950385D01*
X132957585Y-106948303D01*
X132949248Y-106930047D01*
X132941872Y-106911382D01*
X132940163Y-106910153D01*
X132939289Y-106908239D01*
X132922404Y-106897388D01*
X132906109Y-106885674D01*
X132904006Y-106885564D01*
X132902237Y-106884427D01*
X132882168Y-106884427D01*
X132862125Y-106883383D01*
X132860298Y-106884427D01*
X132069433Y-106884427D01*
X132037955Y-106893670D01*
X132009113Y-106926956D01*
X132002845Y-106970551D01*
X132021141Y-107010615D01*
X132058193Y-107034427D01*
X132597798Y-107034427D01*
X132050640Y-107347088D01*
X132037955Y-107350813D01*
X132024815Y-107365976D01*
X132010898Y-107380444D01*
X132010490Y-107382509D01*
X132009113Y-107384099D01*
X132006257Y-107403959D01*
X132002371Y-107423654D01*
X131583334Y-107423654D01*
X131583334Y-106589599D01*
X132002845Y-106589599D01*
X132009764Y-106604751D01*
X132014458Y-106620735D01*
X132018770Y-106624471D01*
X132021141Y-106629663D01*
X132035157Y-106638670D01*
X132047744Y-106649577D01*
X132053390Y-106650388D01*
X132058193Y-106653475D01*
X132074855Y-106653475D01*
X132091339Y-106655845D01*
X132096529Y-106653475D01*
X132874855Y-106653475D01*
X132891339Y-106655845D01*
X132906491Y-106648925D01*
X132922475Y-106644232D01*
X132926211Y-106639919D01*
X132931403Y-106637549D01*
X132940410Y-106623532D01*
X132951317Y-106610946D01*
X132952128Y-106605299D01*
X132955215Y-106600497D01*
X132955215Y-106583834D01*
X132957585Y-106567351D01*
X132955215Y-106562161D01*
X132955215Y-106397401D01*
X132958330Y-106385174D01*
X132951791Y-106365559D01*
X132945972Y-106345739D01*
X132944865Y-106344780D01*
X132914547Y-106253823D01*
X132910725Y-106236252D01*
X132899885Y-106225412D01*
X132891139Y-106212828D01*
X132884592Y-106210120D01*
X132825610Y-106151138D01*
X132819167Y-106140289D01*
X132800662Y-106131036D01*
X132782543Y-106121143D01*
X132781083Y-106121247D01*
X132735227Y-106098319D01*
X132729294Y-106092009D01*
X132715917Y-106088664D01*
X132713636Y-106087524D01*
X132705495Y-106086059D01*
X132567522Y-106051564D01*
X132559380Y-106046332D01*
X132546592Y-106046332D01*
X132545088Y-106045956D01*
X132535842Y-106046332D01*
X132435415Y-106046332D01*
X132426246Y-106043230D01*
X132413838Y-106046332D01*
X132412290Y-106046332D01*
X132403419Y-106048936D01*
X132265460Y-106083426D01*
X132256848Y-106082497D01*
X132244516Y-106088662D01*
X132242040Y-106089282D01*
X132234902Y-106093469D01*
X132169371Y-106126235D01*
X132157039Y-106128918D01*
X132142411Y-106143545D01*
X132127294Y-106157607D01*
X132126931Y-106159025D01*
X132068132Y-106217824D01*
X132054123Y-106229104D01*
X132049275Y-106243645D01*
X132041930Y-106257098D01*
X132042435Y-106264165D01*
X132012037Y-106355361D01*
X132005215Y-106365977D01*
X132005215Y-106386656D01*
X132004469Y-106407296D01*
X132005215Y-106408554D01*
X132005215Y-106573115D01*
X132002845Y-106589599D01*
X131583334Y-106589599D01*
X131583334Y-105522166D01*
X133436906Y-105522166D01*
X133436906Y-108853833D01*
G37*
X162544590Y-118935333D02*
X162506495Y-119011523D01*
X162506495Y-119011523D02*
X162506495Y-119125809D01*
X162506495Y-119125809D02*
X162544590Y-119240095D01*
X162544590Y-119240095D02*
X162620780Y-119316285D01*
X162620780Y-119316285D02*
X162696971Y-119354380D01*
X162696971Y-119354380D02*
X162849352Y-119392476D01*
X162849352Y-119392476D02*
X162963638Y-119392476D01*
X162963638Y-119392476D02*
X163116019Y-119354380D01*
X163116019Y-119354380D02*
X163192209Y-119316285D01*
X163192209Y-119316285D02*
X163268400Y-119240095D01*
X163268400Y-119240095D02*
X163306495Y-119125809D01*
X163306495Y-119125809D02*
X163306495Y-119049618D01*
X163306495Y-119049618D02*
X163268400Y-118935333D01*
X163268400Y-118935333D02*
X163230304Y-118897237D01*
X163230304Y-118897237D02*
X162963638Y-118897237D01*
X162963638Y-118897237D02*
X162963638Y-119049618D01*
X163306495Y-118554380D02*
X162506495Y-118554380D01*
X162506495Y-118554380D02*
X162506495Y-118249618D01*
X162506495Y-118249618D02*
X162544590Y-118173428D01*
X162544590Y-118173428D02*
X162582685Y-118135333D01*
X162582685Y-118135333D02*
X162658876Y-118097237D01*
X162658876Y-118097237D02*
X162773161Y-118097237D01*
X162773161Y-118097237D02*
X162849352Y-118135333D01*
X162849352Y-118135333D02*
X162887447Y-118173428D01*
X162887447Y-118173428D02*
X162925542Y-118249618D01*
X162925542Y-118249618D02*
X162925542Y-118554380D01*
X163306495Y-117335333D02*
X163306495Y-117792476D01*
X163306495Y-117563904D02*
X162506495Y-117563904D01*
X162506495Y-117563904D02*
X162620780Y-117640095D01*
X162620780Y-117640095D02*
X162696971Y-117716285D01*
X162696971Y-117716285D02*
X162735066Y-117792476D01*
X163306495Y-116573428D02*
X163306495Y-117030571D01*
X163306495Y-116801999D02*
X162506495Y-116801999D01*
X162506495Y-116801999D02*
X162620780Y-116878190D01*
X162620780Y-116878190D02*
X162696971Y-116954380D01*
X162696971Y-116954380D02*
X162735066Y-117030571D01*
X134604590Y-118173428D02*
X134566495Y-118249618D01*
X134566495Y-118249618D02*
X134566495Y-118363904D01*
X134566495Y-118363904D02*
X134604590Y-118478190D01*
X134604590Y-118478190D02*
X134680780Y-118554380D01*
X134680780Y-118554380D02*
X134756971Y-118592475D01*
X134756971Y-118592475D02*
X134909352Y-118630571D01*
X134909352Y-118630571D02*
X135023638Y-118630571D01*
X135023638Y-118630571D02*
X135176019Y-118592475D01*
X135176019Y-118592475D02*
X135252209Y-118554380D01*
X135252209Y-118554380D02*
X135328400Y-118478190D01*
X135328400Y-118478190D02*
X135366495Y-118363904D01*
X135366495Y-118363904D02*
X135366495Y-118287713D01*
X135366495Y-118287713D02*
X135328400Y-118173428D01*
X135328400Y-118173428D02*
X135290304Y-118135332D01*
X135290304Y-118135332D02*
X135023638Y-118135332D01*
X135023638Y-118135332D02*
X135023638Y-118287713D01*
X135366495Y-117792475D02*
X134566495Y-117792475D01*
X134566495Y-117792475D02*
X134566495Y-117487713D01*
X134566495Y-117487713D02*
X134604590Y-117411523D01*
X134604590Y-117411523D02*
X134642685Y-117373428D01*
X134642685Y-117373428D02*
X134718876Y-117335332D01*
X134718876Y-117335332D02*
X134833161Y-117335332D01*
X134833161Y-117335332D02*
X134909352Y-117373428D01*
X134909352Y-117373428D02*
X134947447Y-117411523D01*
X134947447Y-117411523D02*
X134985542Y-117487713D01*
X134985542Y-117487713D02*
X134985542Y-117792475D01*
X134642685Y-117030571D02*
X134604590Y-116992475D01*
X134604590Y-116992475D02*
X134566495Y-116916285D01*
X134566495Y-116916285D02*
X134566495Y-116725809D01*
X134566495Y-116725809D02*
X134604590Y-116649618D01*
X134604590Y-116649618D02*
X134642685Y-116611523D01*
X134642685Y-116611523D02*
X134718876Y-116573428D01*
X134718876Y-116573428D02*
X134795066Y-116573428D01*
X134795066Y-116573428D02*
X134909352Y-116611523D01*
X134909352Y-116611523D02*
X135366495Y-117068666D01*
X135366495Y-117068666D02*
X135366495Y-116573428D01*
X129492815Y-108381770D02*
X130292815Y-108115103D01*
X130292815Y-108115103D02*
X129492815Y-107848437D01*
X130254720Y-107619866D02*
X130292815Y-107505580D01*
X130292815Y-107505580D02*
X130292815Y-107315104D01*
X130292815Y-107315104D02*
X130254720Y-107238913D01*
X130254720Y-107238913D02*
X130216624Y-107200818D01*
X130216624Y-107200818D02*
X130140434Y-107162723D01*
X130140434Y-107162723D02*
X130064243Y-107162723D01*
X130064243Y-107162723D02*
X129988053Y-107200818D01*
X129988053Y-107200818D02*
X129949958Y-107238913D01*
X129949958Y-107238913D02*
X129911862Y-107315104D01*
X129911862Y-107315104D02*
X129873767Y-107467485D01*
X129873767Y-107467485D02*
X129835672Y-107543675D01*
X129835672Y-107543675D02*
X129797577Y-107581770D01*
X129797577Y-107581770D02*
X129721386Y-107619866D01*
X129721386Y-107619866D02*
X129645196Y-107619866D01*
X129645196Y-107619866D02*
X129569005Y-107581770D01*
X129569005Y-107581770D02*
X129530910Y-107543675D01*
X129530910Y-107543675D02*
X129492815Y-107467485D01*
X129492815Y-107467485D02*
X129492815Y-107277008D01*
X129492815Y-107277008D02*
X129530910Y-107162723D01*
X129911862Y-106667484D02*
X130292815Y-106667484D01*
X129492815Y-106934151D02*
X129911862Y-106667484D01*
X129911862Y-106667484D02*
X129492815Y-106400818D01*
X130254720Y-106172247D02*
X130292815Y-106057961D01*
X130292815Y-106057961D02*
X130292815Y-105867485D01*
X130292815Y-105867485D02*
X130254720Y-105791294D01*
X130254720Y-105791294D02*
X130216624Y-105753199D01*
X130216624Y-105753199D02*
X130140434Y-105715104D01*
X130140434Y-105715104D02*
X130064243Y-105715104D01*
X130064243Y-105715104D02*
X129988053Y-105753199D01*
X129988053Y-105753199D02*
X129949958Y-105791294D01*
X129949958Y-105791294D02*
X129911862Y-105867485D01*
X129911862Y-105867485D02*
X129873767Y-106019866D01*
X129873767Y-106019866D02*
X129835672Y-106096056D01*
X129835672Y-106096056D02*
X129797577Y-106134151D01*
X129797577Y-106134151D02*
X129721386Y-106172247D01*
X129721386Y-106172247D02*
X129645196Y-106172247D01*
X129645196Y-106172247D02*
X129569005Y-106134151D01*
X129569005Y-106134151D02*
X129530910Y-106096056D01*
X129530910Y-106096056D02*
X129492815Y-106019866D01*
X129492815Y-106019866D02*
X129492815Y-105829389D01*
X129492815Y-105829389D02*
X129530910Y-105715104D01*
G36*
X145309840Y-116898191D02*
G01*
X145367781Y-116927161D01*
X145422847Y-116982227D01*
X145451495Y-117068170D01*
X145451495Y-117171475D01*
X144801495Y-117171475D01*
X144801495Y-117068169D01*
X144830142Y-116982226D01*
X144885206Y-116927162D01*
X144943145Y-116898192D01*
X145078587Y-116864332D01*
X145174406Y-116864332D01*
X145309840Y-116898191D01*
G37*
G36*
X146083186Y-119521833D02*
G01*
X144229614Y-119521833D01*
X144229614Y-118658824D01*
X144648380Y-118658824D01*
X144654918Y-118678438D01*
X144660738Y-118698259D01*
X144661844Y-118699217D01*
X144692162Y-118790174D01*
X144695985Y-118807746D01*
X144706824Y-118818585D01*
X144715571Y-118831170D01*
X144722117Y-118833878D01*
X144781097Y-118892858D01*
X144787542Y-118903709D01*
X144806040Y-118912957D01*
X144824165Y-118922855D01*
X144825625Y-118922750D01*
X144871482Y-118945678D01*
X144877416Y-118951989D01*
X144890792Y-118955333D01*
X144893074Y-118956474D01*
X144901213Y-118957938D01*
X145039187Y-118992433D01*
X145047330Y-118997666D01*
X145060118Y-118997666D01*
X145061622Y-118998042D01*
X145070868Y-118997666D01*
X145171295Y-118997666D01*
X145180464Y-119000768D01*
X145192872Y-118997666D01*
X145194420Y-118997666D01*
X145203290Y-118995061D01*
X145341250Y-118960571D01*
X145349863Y-118961501D01*
X145362195Y-118955334D01*
X145364670Y-118954716D01*
X145371802Y-118950530D01*
X145437339Y-118917762D01*
X145449670Y-118915080D01*
X145464291Y-118900458D01*
X145479415Y-118886391D01*
X145479777Y-118884972D01*
X145538576Y-118826174D01*
X145552587Y-118814894D01*
X145557434Y-118800352D01*
X145564780Y-118786900D01*
X145564274Y-118779831D01*
X145594672Y-118688636D01*
X145601495Y-118678021D01*
X145601495Y-118657341D01*
X145602241Y-118636702D01*
X145601495Y-118635443D01*
X145601495Y-118589210D01*
X145604610Y-118576983D01*
X145598072Y-118557369D01*
X145592252Y-118537548D01*
X145591145Y-118536589D01*
X145560827Y-118445633D01*
X145557005Y-118428062D01*
X145546166Y-118417223D01*
X145537419Y-118404637D01*
X145530871Y-118401928D01*
X145512904Y-118383961D01*
X145509378Y-118376239D01*
X145497635Y-118368692D01*
X145495713Y-118366770D01*
X145488602Y-118362887D01*
X145472326Y-118352427D01*
X145469446Y-118352427D01*
X145466919Y-118351047D01*
X145447630Y-118352427D01*
X145188998Y-118352427D01*
X145172514Y-118350057D01*
X145157361Y-118356976D01*
X145141378Y-118361670D01*
X145137641Y-118365982D01*
X145132450Y-118368353D01*
X145123442Y-118382369D01*
X145112536Y-118394956D01*
X145111724Y-118400602D01*
X145108638Y-118405405D01*
X145108638Y-118422067D01*
X145106268Y-118438551D01*
X145108638Y-118443740D01*
X145108638Y-118590590D01*
X145117881Y-118622068D01*
X145151167Y-118650910D01*
X145194762Y-118657178D01*
X145234826Y-118638882D01*
X145258638Y-118601830D01*
X145258638Y-118502427D01*
X145419238Y-118502427D01*
X145422847Y-118506036D01*
X145451495Y-118591979D01*
X145451495Y-118643829D01*
X145422847Y-118729772D01*
X145367783Y-118784834D01*
X145309842Y-118813805D01*
X145174403Y-118847666D01*
X145078584Y-118847666D01*
X144943148Y-118813806D01*
X144885206Y-118784835D01*
X144830142Y-118729771D01*
X144801495Y-118643827D01*
X144801495Y-118559418D01*
X144836494Y-118489420D01*
X144842304Y-118457132D01*
X144825431Y-118416449D01*
X144789241Y-118391346D01*
X144745225Y-118389794D01*
X144707356Y-118412285D01*
X144661218Y-118504561D01*
X144651495Y-118519691D01*
X144651495Y-118535021D01*
X144648781Y-118550104D01*
X144651495Y-118556647D01*
X144651495Y-118646596D01*
X144648380Y-118658824D01*
X144229614Y-118658824D01*
X144229614Y-118091654D01*
X144648651Y-118091654D01*
X144649424Y-118093611D01*
X144649125Y-118095694D01*
X144657461Y-118113949D01*
X144664838Y-118132615D01*
X144666546Y-118133843D01*
X144667421Y-118135758D01*
X144684305Y-118146608D01*
X144700601Y-118158323D01*
X144702703Y-118158432D01*
X144704473Y-118159570D01*
X144724542Y-118159570D01*
X144744585Y-118160614D01*
X144746412Y-118159570D01*
X145537277Y-118159570D01*
X145568755Y-118150327D01*
X145597597Y-118117041D01*
X145603865Y-118073446D01*
X145585569Y-118033382D01*
X145548517Y-118009570D01*
X145008912Y-118009570D01*
X145556069Y-117696908D01*
X145568755Y-117693184D01*
X145581894Y-117678020D01*
X145595812Y-117663553D01*
X145596219Y-117661487D01*
X145597597Y-117659898D01*
X145600452Y-117640037D01*
X145604339Y-117620343D01*
X145603565Y-117618385D01*
X145603865Y-117616303D01*
X145595528Y-117598047D01*
X145588152Y-117579382D01*
X145586443Y-117578153D01*
X145585569Y-117576239D01*
X145568684Y-117565388D01*
X145552389Y-117553674D01*
X145550286Y-117553564D01*
X145548517Y-117552427D01*
X145528448Y-117552427D01*
X145508405Y-117551383D01*
X145506578Y-117552427D01*
X144715713Y-117552427D01*
X144684235Y-117561670D01*
X144655393Y-117594956D01*
X144649125Y-117638551D01*
X144667421Y-117678615D01*
X144704473Y-117702427D01*
X145244078Y-117702427D01*
X144696920Y-118015088D01*
X144684235Y-118018813D01*
X144671095Y-118033976D01*
X144657178Y-118048444D01*
X144656770Y-118050509D01*
X144655393Y-118052099D01*
X144652537Y-118071959D01*
X144648651Y-118091654D01*
X144229614Y-118091654D01*
X144229614Y-117257599D01*
X144649125Y-117257599D01*
X144656044Y-117272751D01*
X144660738Y-117288735D01*
X144665050Y-117292471D01*
X144667421Y-117297663D01*
X144681437Y-117306670D01*
X144694024Y-117317577D01*
X144699670Y-117318388D01*
X144704473Y-117321475D01*
X144721135Y-117321475D01*
X144737619Y-117323845D01*
X144742809Y-117321475D01*
X145521135Y-117321475D01*
X145537619Y-117323845D01*
X145552771Y-117316925D01*
X145568755Y-117312232D01*
X145572491Y-117307919D01*
X145577683Y-117305549D01*
X145586690Y-117291532D01*
X145597597Y-117278946D01*
X145598408Y-117273299D01*
X145601495Y-117268497D01*
X145601495Y-117251834D01*
X145603865Y-117235351D01*
X145601495Y-117230161D01*
X145601495Y-117065401D01*
X145604610Y-117053174D01*
X145598071Y-117033559D01*
X145592252Y-117013739D01*
X145591145Y-117012780D01*
X145560827Y-116921823D01*
X145557005Y-116904252D01*
X145546165Y-116893412D01*
X145537419Y-116880828D01*
X145530872Y-116878120D01*
X145471890Y-116819138D01*
X145465447Y-116808289D01*
X145446942Y-116799036D01*
X145428823Y-116789143D01*
X145427363Y-116789247D01*
X145381507Y-116766319D01*
X145375574Y-116760009D01*
X145362197Y-116756664D01*
X145359916Y-116755524D01*
X145351775Y-116754059D01*
X145213802Y-116719564D01*
X145205660Y-116714332D01*
X145192872Y-116714332D01*
X145191368Y-116713956D01*
X145182122Y-116714332D01*
X145081695Y-116714332D01*
X145072526Y-116711230D01*
X145060118Y-116714332D01*
X145058570Y-116714332D01*
X145049699Y-116716936D01*
X144911740Y-116751426D01*
X144903128Y-116750497D01*
X144890796Y-116756662D01*
X144888320Y-116757282D01*
X144881182Y-116761469D01*
X144815651Y-116794235D01*
X144803319Y-116796918D01*
X144788691Y-116811545D01*
X144773574Y-116825607D01*
X144773211Y-116827025D01*
X144714412Y-116885824D01*
X144700403Y-116897104D01*
X144695555Y-116911645D01*
X144688210Y-116925098D01*
X144688715Y-116932165D01*
X144658317Y-117023361D01*
X144651495Y-117033977D01*
X144651495Y-117054656D01*
X144650749Y-117075296D01*
X144651495Y-117076554D01*
X144651495Y-117241115D01*
X144649125Y-117257599D01*
X144229614Y-117257599D01*
X144229614Y-116190166D01*
X146083186Y-116190166D01*
X146083186Y-119521833D01*
G37*
D11*
G36*
X129839718Y-66261135D02*
G01*
X129876721Y-66298138D01*
X129921428Y-66387552D01*
X129921428Y-66531017D01*
X129876721Y-66620431D01*
X129839716Y-66657436D01*
X129750304Y-66702142D01*
X129364285Y-66702142D01*
X129364285Y-66216428D01*
X129750303Y-66216428D01*
X129839718Y-66261135D01*
G37*
G36*
X133196861Y-66761135D02*
G01*
X133233864Y-66798138D01*
X133278570Y-66887552D01*
X133278571Y-67245304D01*
X133233864Y-67334717D01*
X133196859Y-67371722D01*
X133107447Y-67416428D01*
X132963981Y-67416428D01*
X132874567Y-67371721D01*
X132837562Y-67334716D01*
X132792857Y-67245303D01*
X132792856Y-66887551D01*
X132837563Y-66798138D01*
X132874567Y-66761134D01*
X132963981Y-66716428D01*
X133107446Y-66716428D01*
X133196861Y-66761135D01*
G37*
G36*
X139102483Y-66749660D02*
G01*
X139128658Y-66802011D01*
X138721429Y-66883457D01*
X138721429Y-66816123D01*
X138754660Y-66749660D01*
X138821126Y-66716428D01*
X139036018Y-66716428D01*
X139102483Y-66749660D01*
G37*
G36*
X141778572Y-66730562D02*
G01*
X141778572Y-67402294D01*
X141750305Y-67416428D01*
X141535410Y-67416428D01*
X141445995Y-67371721D01*
X141408991Y-67334716D01*
X141364286Y-67245303D01*
X141364286Y-66887551D01*
X141408992Y-66798138D01*
X141445996Y-66761134D01*
X141535410Y-66716428D01*
X141750304Y-66716428D01*
X141778572Y-66730562D01*
G37*
G36*
X143102483Y-66749660D02*
G01*
X143128658Y-66802011D01*
X142721429Y-66883457D01*
X142721429Y-66816123D01*
X142754660Y-66749660D01*
X142821126Y-66716428D01*
X143036018Y-66716428D01*
X143102483Y-66749660D01*
G37*
G36*
X126482575Y-66261135D02*
G01*
X126519578Y-66298138D01*
X126564285Y-66387552D01*
X126564285Y-66531017D01*
X126519578Y-66620432D01*
X126482573Y-66657436D01*
X126393161Y-66702142D01*
X126007142Y-66702142D01*
X126007142Y-66216428D01*
X126393160Y-66216428D01*
X126482575Y-66261135D01*
G37*
G36*
X149471428Y-68414286D02*
G01*
X124835714Y-68414286D01*
X124835714Y-66874391D01*
X125702400Y-66874391D01*
X125707142Y-66884774D01*
X125707142Y-67587996D01*
X125725626Y-67650948D01*
X125792199Y-67708633D01*
X125879391Y-67721170D01*
X125959518Y-67684577D01*
X126007142Y-67610472D01*
X126007142Y-67587996D01*
X127207142Y-67587996D01*
X127225626Y-67650948D01*
X127292199Y-67708633D01*
X127379391Y-67721170D01*
X127459518Y-67684577D01*
X127507142Y-67610472D01*
X127507142Y-66874391D01*
X129059543Y-66874391D01*
X129064284Y-66884774D01*
X129064285Y-67587996D01*
X129082769Y-67650948D01*
X129149342Y-67708633D01*
X129236534Y-67721170D01*
X129316661Y-67684577D01*
X129364285Y-67610472D01*
X129364285Y-67587996D01*
X130564285Y-67587996D01*
X130582769Y-67650948D01*
X130649342Y-67708633D01*
X130736534Y-67721170D01*
X130816661Y-67684577D01*
X130864285Y-67610472D01*
X130864285Y-66868924D01*
X131201713Y-66868924D01*
X131207143Y-66882016D01*
X131207142Y-67272637D01*
X131203282Y-67308401D01*
X131216989Y-67335815D01*
X131225627Y-67365234D01*
X131236338Y-67374515D01*
X131285996Y-67473831D01*
X131291361Y-67498493D01*
X131320566Y-67527698D01*
X131348738Y-67557984D01*
X131351578Y-67558710D01*
X131380635Y-67587767D01*
X131393524Y-67609467D01*
X131430473Y-67627941D01*
X131466769Y-67647761D01*
X131469693Y-67647551D01*
X131568551Y-67696980D01*
X131598813Y-67716428D01*
X131629465Y-67716428D01*
X131659639Y-67721858D01*
X131672731Y-67716428D01*
X131920498Y-67716428D01*
X131956258Y-67720289D01*
X131983673Y-67706581D01*
X132013091Y-67697944D01*
X132022372Y-67687232D01*
X132157802Y-67619519D01*
X132205842Y-67574834D01*
X132227665Y-67489491D01*
X132199885Y-67405898D01*
X132131322Y-67350594D01*
X132043742Y-67341139D01*
X131893162Y-67416428D01*
X131678267Y-67416428D01*
X131588853Y-67371721D01*
X131551848Y-67334716D01*
X131507143Y-67245303D01*
X131507143Y-66887551D01*
X131516456Y-66868924D01*
X132487427Y-66868924D01*
X132492857Y-66882016D01*
X132492857Y-67272637D01*
X132488996Y-67308401D01*
X132502703Y-67335815D01*
X132511341Y-67365234D01*
X132522052Y-67374515D01*
X132571710Y-67473831D01*
X132577075Y-67498493D01*
X132606280Y-67527698D01*
X132634452Y-67557984D01*
X132637292Y-67558710D01*
X132666349Y-67587767D01*
X132679238Y-67609467D01*
X132716187Y-67627941D01*
X132752483Y-67647761D01*
X132755407Y-67647551D01*
X132854265Y-67696980D01*
X132884527Y-67716428D01*
X132915179Y-67716428D01*
X132945353Y-67721858D01*
X132958445Y-67716428D01*
X133134781Y-67716428D01*
X133170544Y-67720289D01*
X133197958Y-67706581D01*
X133227377Y-67697944D01*
X133236658Y-67687232D01*
X133335974Y-67637574D01*
X133360636Y-67632210D01*
X133389847Y-67602998D01*
X133405243Y-67588677D01*
X135059543Y-67588677D01*
X135073383Y-67618983D01*
X135082769Y-67650948D01*
X135091394Y-67658422D01*
X135096136Y-67668804D01*
X135124163Y-67686816D01*
X135149342Y-67708633D01*
X135160639Y-67710257D01*
X135170241Y-67716428D01*
X135203554Y-67716428D01*
X135236534Y-67721170D01*
X135246917Y-67716428D01*
X135950139Y-67716428D01*
X136013091Y-67697944D01*
X136070776Y-67631371D01*
X136082241Y-67551634D01*
X136272939Y-67551634D01*
X136289648Y-67638123D01*
X136350463Y-67701850D01*
X136436076Y-67722581D01*
X136519307Y-67693734D01*
X136821428Y-67309216D01*
X137109663Y-67676061D01*
X137163091Y-67714141D01*
X137251078Y-67718370D01*
X137327384Y-67674359D01*
X137367781Y-67596081D01*
X137359445Y-67508387D01*
X137012191Y-67066427D01*
X137345559Y-66642142D01*
X137366937Y-66588677D01*
X137416687Y-66588677D01*
X137453280Y-66668804D01*
X137527385Y-66716428D01*
X137635714Y-66716428D01*
X137635714Y-67344066D01*
X137631853Y-67379830D01*
X137645560Y-67407245D01*
X137654198Y-67436662D01*
X137664909Y-67445943D01*
X137705888Y-67527901D01*
X137705683Y-67533730D01*
X137725404Y-67566934D01*
X137732624Y-67581373D01*
X137736376Y-67585407D01*
X137750667Y-67609467D01*
X137765790Y-67617028D01*
X137777310Y-67629413D01*
X137804426Y-67636346D01*
X137925694Y-67696980D01*
X137955956Y-67716428D01*
X137986608Y-67716428D01*
X138016782Y-67721858D01*
X138029874Y-67716428D01*
X138164425Y-67716428D01*
X138227377Y-67697944D01*
X138285062Y-67631371D01*
X138297599Y-67544179D01*
X138261006Y-67464052D01*
X138186901Y-67416428D01*
X138035410Y-67416428D01*
X137968946Y-67383196D01*
X137935714Y-67316731D01*
X137935714Y-66797496D01*
X138415999Y-66797496D01*
X138421429Y-66810588D01*
X138421429Y-67026797D01*
X138419249Y-67030635D01*
X138421429Y-67070532D01*
X138421429Y-67344069D01*
X138417568Y-67379829D01*
X138431275Y-67407244D01*
X138439913Y-67436662D01*
X138450624Y-67445943D01*
X138491603Y-67527902D01*
X138491398Y-67533731D01*
X138511119Y-67566935D01*
X138518338Y-67581373D01*
X138522090Y-67585407D01*
X138536381Y-67609468D01*
X138551504Y-67617029D01*
X138563023Y-67629413D01*
X138590140Y-67636347D01*
X138711411Y-67696981D01*
X138741671Y-67716428D01*
X138772323Y-67716428D01*
X138802497Y-67721858D01*
X138815589Y-67716428D01*
X139063353Y-67716428D01*
X139099116Y-67720289D01*
X139126530Y-67706581D01*
X139155949Y-67697944D01*
X139165230Y-67687232D01*
X139300659Y-67619519D01*
X139348699Y-67574833D01*
X139370522Y-67489491D01*
X139342742Y-67405897D01*
X139274178Y-67350594D01*
X139186599Y-67341139D01*
X139036019Y-67416428D01*
X138821124Y-67416428D01*
X138754660Y-67383196D01*
X138721429Y-67316732D01*
X138721429Y-67189398D01*
X139289867Y-67075710D01*
X139307964Y-67078313D01*
X139332201Y-67067244D01*
X139336282Y-67066428D01*
X139351746Y-67058318D01*
X139388091Y-67041720D01*
X139390477Y-67038006D01*
X139394386Y-67035957D01*
X139414118Y-67001220D01*
X139435715Y-66967615D01*
X139435715Y-66963201D01*
X139437895Y-66959364D01*
X139435715Y-66919466D01*
X139435715Y-66788788D01*
X139439576Y-66753025D01*
X139425867Y-66725609D01*
X139417231Y-66696194D01*
X139406519Y-66686912D01*
X139401089Y-66676053D01*
X139775811Y-66676053D01*
X139778571Y-66714643D01*
X139778571Y-67587996D01*
X139797055Y-67650948D01*
X139863628Y-67708633D01*
X139950820Y-67721170D01*
X140030947Y-67684577D01*
X140078571Y-67610472D01*
X140078571Y-66771417D01*
X140088853Y-66761134D01*
X140178267Y-66716428D01*
X140321732Y-66716428D01*
X140388197Y-66749660D01*
X140421429Y-66816123D01*
X140421429Y-67587996D01*
X140439913Y-67650948D01*
X140506486Y-67708633D01*
X140593678Y-67721170D01*
X140673805Y-67684577D01*
X140721429Y-67610472D01*
X140721429Y-66868924D01*
X141058856Y-66868924D01*
X141064286Y-66882016D01*
X141064286Y-67272637D01*
X141060425Y-67308401D01*
X141074132Y-67335815D01*
X141082770Y-67365234D01*
X141093481Y-67374515D01*
X141143139Y-67473831D01*
X141148504Y-67498493D01*
X141177709Y-67527698D01*
X141205881Y-67557984D01*
X141208721Y-67558710D01*
X141237778Y-67587767D01*
X141250667Y-67609467D01*
X141287616Y-67627941D01*
X141323912Y-67647761D01*
X141326836Y-67647551D01*
X141425694Y-67696980D01*
X141455956Y-67716428D01*
X141486608Y-67716428D01*
X141516782Y-67721858D01*
X141529874Y-67716428D01*
X141777641Y-67716428D01*
X141813401Y-67720289D01*
X141840816Y-67706581D01*
X141856086Y-67702097D01*
X141863629Y-67708633D01*
X141950821Y-67721170D01*
X142030948Y-67684577D01*
X142078572Y-67610472D01*
X142078572Y-67513878D01*
X142084808Y-67489491D01*
X142078572Y-67470726D01*
X142078572Y-66797496D01*
X142415999Y-66797496D01*
X142421429Y-66810588D01*
X142421429Y-67026797D01*
X142419249Y-67030635D01*
X142421429Y-67070532D01*
X142421429Y-67344069D01*
X142417568Y-67379829D01*
X142431275Y-67407244D01*
X142439913Y-67436662D01*
X142450624Y-67445943D01*
X142491603Y-67527902D01*
X142491398Y-67533731D01*
X142511119Y-67566935D01*
X142518338Y-67581373D01*
X142522090Y-67585407D01*
X142536381Y-67609468D01*
X142551504Y-67617029D01*
X142563023Y-67629413D01*
X142590140Y-67636347D01*
X142711411Y-67696981D01*
X142741671Y-67716428D01*
X142772323Y-67716428D01*
X142802497Y-67721858D01*
X142815589Y-67716428D01*
X143063353Y-67716428D01*
X143099116Y-67720289D01*
X143126530Y-67706581D01*
X143155949Y-67697944D01*
X143165230Y-67687232D01*
X143300659Y-67619519D01*
X143348699Y-67574833D01*
X143370522Y-67489491D01*
X143342742Y-67405897D01*
X143274178Y-67350594D01*
X143186599Y-67341139D01*
X143036019Y-67416428D01*
X142821124Y-67416428D01*
X142754660Y-67383196D01*
X142721429Y-67316732D01*
X142721429Y-67189398D01*
X143289867Y-67075710D01*
X143307964Y-67078313D01*
X143332201Y-67067244D01*
X143336282Y-67066428D01*
X143351746Y-67058318D01*
X143388091Y-67041720D01*
X143390477Y-67038006D01*
X143394386Y-67035957D01*
X143414118Y-67001220D01*
X143435715Y-66967615D01*
X143435715Y-66963201D01*
X143437895Y-66959364D01*
X143435715Y-66919466D01*
X143435715Y-66868923D01*
X143773141Y-66868923D01*
X143778571Y-66882015D01*
X143778571Y-67587996D01*
X143797055Y-67650948D01*
X143863628Y-67708633D01*
X143950820Y-67721170D01*
X144030947Y-67684577D01*
X144078571Y-67610472D01*
X144078571Y-66887553D01*
X144123278Y-66798138D01*
X144160282Y-66761134D01*
X144249696Y-66716428D01*
X144378711Y-66716428D01*
X144441663Y-66697944D01*
X144499348Y-66631371D01*
X144511885Y-66544179D01*
X144475292Y-66464052D01*
X144401187Y-66416428D01*
X144222361Y-66416428D01*
X144186597Y-66412567D01*
X144159181Y-66426275D01*
X144129766Y-66434912D01*
X144120484Y-66445623D01*
X144055633Y-66478049D01*
X143993514Y-66424223D01*
X143906322Y-66411686D01*
X143826195Y-66448279D01*
X143778571Y-66522384D01*
X143778571Y-66838751D01*
X143773141Y-66868923D01*
X143435715Y-66868923D01*
X143435715Y-66788788D01*
X143439576Y-66753025D01*
X143425867Y-66725609D01*
X143417231Y-66696194D01*
X143406519Y-66686912D01*
X143365540Y-66604956D01*
X143365746Y-66599127D01*
X143346018Y-66565913D01*
X143338804Y-66551484D01*
X143335053Y-66547452D01*
X143320762Y-66523390D01*
X143305638Y-66515828D01*
X143294119Y-66503444D01*
X143267003Y-66496510D01*
X143145738Y-66435878D01*
X143115473Y-66416428D01*
X143084820Y-66416428D01*
X143054648Y-66410998D01*
X143041556Y-66416428D01*
X142793791Y-66416428D01*
X142758027Y-66412567D01*
X142730611Y-66426274D01*
X142701195Y-66434912D01*
X142691913Y-66445623D01*
X142609955Y-66486602D01*
X142604127Y-66486397D01*
X142570922Y-66506118D01*
X142556484Y-66513338D01*
X142552449Y-66517090D01*
X142528390Y-66531381D01*
X142520828Y-66546504D01*
X142508444Y-66558024D01*
X142501510Y-66585140D01*
X142440874Y-66706411D01*
X142421429Y-66736670D01*
X142421429Y-66767321D01*
X142415999Y-66797496D01*
X142078572Y-66797496D01*
X142078572Y-66640520D01*
X142080032Y-66599127D01*
X142078572Y-66596668D01*
X142078572Y-66072078D01*
X145629484Y-66072078D01*
X146134830Y-67588119D01*
X146134219Y-67605022D01*
X146148490Y-67629100D01*
X146150232Y-67634324D01*
X146159441Y-67647575D01*
X146179134Y-67680799D01*
X146184346Y-67683411D01*
X146187675Y-67688200D01*
X146223358Y-67702961D01*
X146257888Y-67720265D01*
X146263687Y-67719644D01*
X146269073Y-67721872D01*
X146307070Y-67714999D01*
X146345474Y-67710888D01*
X146350014Y-67707232D01*
X146355755Y-67706194D01*
X146384015Y-67679858D01*
X146414089Y-67655646D01*
X146415932Y-67650114D01*
X146420198Y-67646140D01*
X146429730Y-67608722D01*
X146799134Y-66500510D01*
X147058050Y-66500510D01*
X147085830Y-66584103D01*
X147154394Y-66639406D01*
X147241973Y-66648861D01*
X147407400Y-66566146D01*
X147432064Y-66560781D01*
X147461284Y-66531560D01*
X147491555Y-66503404D01*
X147492281Y-66500563D01*
X147492856Y-66499988D01*
X147492856Y-67416428D01*
X147192717Y-67416428D01*
X147129765Y-67434912D01*
X147072080Y-67501485D01*
X147059543Y-67588677D01*
X147096136Y-67668804D01*
X147170241Y-67716428D01*
X147632125Y-67716428D01*
X147665105Y-67721170D01*
X147675488Y-67716428D01*
X148092996Y-67716428D01*
X148155948Y-67697944D01*
X148213633Y-67631371D01*
X148226170Y-67544179D01*
X148189577Y-67464052D01*
X148115472Y-67416428D01*
X147792856Y-67416428D01*
X147792856Y-66089284D01*
X147799167Y-66069055D01*
X147792856Y-66046144D01*
X147792856Y-66044860D01*
X147787131Y-66025364D01*
X147775773Y-65984130D01*
X147774757Y-65983219D01*
X147774372Y-65981908D01*
X147742042Y-65953894D01*
X147710179Y-65925333D01*
X147708829Y-65925115D01*
X147707799Y-65924223D01*
X147665491Y-65918139D01*
X147623211Y-65911334D01*
X147621959Y-65911880D01*
X147620607Y-65911686D01*
X147581664Y-65929470D01*
X147542480Y-65946576D01*
X147541723Y-65947711D01*
X147540480Y-65948279D01*
X147517334Y-65984294D01*
X147383431Y-66185149D01*
X147268288Y-66300292D01*
X147127912Y-66370482D01*
X147079872Y-66415167D01*
X147058050Y-66500510D01*
X146799134Y-66500510D01*
X146934837Y-66093401D01*
X146937209Y-66027834D01*
X146892294Y-65952057D01*
X146813541Y-65912591D01*
X146725954Y-65921968D01*
X146657339Y-65977210D01*
X146285713Y-67092086D01*
X145921196Y-65998533D01*
X145883753Y-65944656D01*
X145802355Y-65910984D01*
X145715673Y-65926663D01*
X145651230Y-65986716D01*
X145629484Y-66072078D01*
X142078572Y-66072078D01*
X142078572Y-66044860D01*
X142060088Y-65981908D01*
X141993515Y-65924223D01*
X141906323Y-65911686D01*
X141826196Y-65948279D01*
X141778572Y-66022384D01*
X141778572Y-66412732D01*
X141768933Y-66410998D01*
X141755841Y-66416428D01*
X141508075Y-66416428D01*
X141472311Y-66412567D01*
X141444895Y-66426275D01*
X141415480Y-66434912D01*
X141406198Y-66445623D01*
X141306883Y-66495282D01*
X141282222Y-66500647D01*
X141253007Y-66529861D01*
X141222730Y-66558024D01*
X141222003Y-66560864D01*
X141192947Y-66589919D01*
X141171247Y-66602809D01*
X141152766Y-66639769D01*
X141132954Y-66676053D01*
X141133163Y-66678976D01*
X141083731Y-66777839D01*
X141064286Y-66808098D01*
X141064286Y-66838749D01*
X141058856Y-66868924D01*
X140721429Y-66868924D01*
X140721429Y-66788788D01*
X140725290Y-66753025D01*
X140711581Y-66725609D01*
X140702945Y-66696194D01*
X140692233Y-66686912D01*
X140651254Y-66604956D01*
X140651460Y-66599127D01*
X140631732Y-66565913D01*
X140624518Y-66551484D01*
X140620767Y-66547452D01*
X140606476Y-66523390D01*
X140591352Y-66515828D01*
X140579833Y-66503444D01*
X140552717Y-66496510D01*
X140431452Y-66435878D01*
X140401187Y-66416428D01*
X140370534Y-66416428D01*
X140340362Y-66410998D01*
X140327270Y-66416428D01*
X140150932Y-66416428D01*
X140115168Y-66412567D01*
X140087752Y-66426275D01*
X140058337Y-66434912D01*
X140049055Y-66445623D01*
X140029497Y-66455402D01*
X139993514Y-66424223D01*
X139906322Y-66411686D01*
X139826195Y-66448279D01*
X139778571Y-66522384D01*
X139778571Y-66670998D01*
X139775811Y-66676053D01*
X139401089Y-66676053D01*
X139365540Y-66604956D01*
X139365746Y-66599127D01*
X139346018Y-66565913D01*
X139338804Y-66551484D01*
X139335053Y-66547452D01*
X139320762Y-66523390D01*
X139305638Y-66515828D01*
X139294119Y-66503444D01*
X139267003Y-66496510D01*
X139145738Y-66435878D01*
X139115473Y-66416428D01*
X139084820Y-66416428D01*
X139054648Y-66410998D01*
X139041556Y-66416428D01*
X138793791Y-66416428D01*
X138758027Y-66412567D01*
X138730611Y-66426274D01*
X138701195Y-66434912D01*
X138691913Y-66445623D01*
X138609955Y-66486602D01*
X138604127Y-66486397D01*
X138570922Y-66506118D01*
X138556484Y-66513338D01*
X138552449Y-66517090D01*
X138528390Y-66531381D01*
X138520828Y-66546504D01*
X138508444Y-66558024D01*
X138501510Y-66585140D01*
X138440874Y-66706411D01*
X138421429Y-66736670D01*
X138421429Y-66767321D01*
X138415999Y-66797496D01*
X137935714Y-66797496D01*
X137935714Y-66716428D01*
X138164425Y-66716428D01*
X138227377Y-66697944D01*
X138285062Y-66631371D01*
X138297599Y-66544179D01*
X138261006Y-66464052D01*
X138186901Y-66416428D01*
X137935714Y-66416428D01*
X137935714Y-66044860D01*
X137917230Y-65981908D01*
X137850657Y-65924223D01*
X137763465Y-65911686D01*
X137683338Y-65948279D01*
X137635714Y-66022384D01*
X137635714Y-66416428D01*
X137549861Y-66416428D01*
X137486909Y-66434912D01*
X137429224Y-66501485D01*
X137416687Y-66588677D01*
X137366937Y-66588677D01*
X137369918Y-66581222D01*
X137353209Y-66494733D01*
X137292394Y-66431006D01*
X137206781Y-66410275D01*
X137123550Y-66439122D01*
X136821428Y-66823639D01*
X136533194Y-66456795D01*
X136479766Y-66418715D01*
X136391779Y-66414486D01*
X136315473Y-66458497D01*
X136275076Y-66536775D01*
X136283412Y-66624469D01*
X136630665Y-67066428D01*
X136297298Y-67490714D01*
X136272939Y-67551634D01*
X136082241Y-67551634D01*
X136083313Y-67544179D01*
X136046720Y-67464052D01*
X135972615Y-67416428D01*
X135364285Y-67416428D01*
X135364285Y-66930714D01*
X135735853Y-66930714D01*
X135798805Y-66912230D01*
X135856490Y-66845657D01*
X135869027Y-66758465D01*
X135832434Y-66678338D01*
X135758329Y-66630714D01*
X135364285Y-66630714D01*
X135364285Y-66216428D01*
X135950139Y-66216428D01*
X136013091Y-66197944D01*
X136070776Y-66131371D01*
X136083313Y-66044179D01*
X136046720Y-65964052D01*
X135972615Y-65916428D01*
X135225016Y-65916428D01*
X135192036Y-65911686D01*
X135161729Y-65925526D01*
X135129765Y-65934912D01*
X135122290Y-65943537D01*
X135111909Y-65948279D01*
X135093896Y-65976306D01*
X135072080Y-66001485D01*
X135070455Y-66012782D01*
X135064285Y-66022384D01*
X135064285Y-66055697D01*
X135059543Y-66088677D01*
X135064285Y-66099060D01*
X135064285Y-66769983D01*
X135059543Y-66802963D01*
X135064285Y-66813346D01*
X135064285Y-67555697D01*
X135059543Y-67588677D01*
X133405243Y-67588677D01*
X133420127Y-67574833D01*
X133420853Y-67571992D01*
X133449910Y-67542935D01*
X133471610Y-67530047D01*
X133490084Y-67493097D01*
X133509904Y-67456802D01*
X133509694Y-67453877D01*
X133559123Y-67355019D01*
X133578571Y-67324758D01*
X133578571Y-67294106D01*
X133584001Y-67263932D01*
X133578571Y-67250839D01*
X133578571Y-66860218D01*
X133582432Y-66824455D01*
X133568724Y-66797040D01*
X133560087Y-66767622D01*
X133549375Y-66758340D01*
X133499717Y-66659022D01*
X133494352Y-66634362D01*
X133465144Y-66605154D01*
X133436976Y-66574872D01*
X133434135Y-66574145D01*
X133405077Y-66545088D01*
X133392190Y-66523390D01*
X133355240Y-66504915D01*
X133318944Y-66485096D01*
X133316020Y-66485305D01*
X133217166Y-66435878D01*
X133186901Y-66416428D01*
X133156248Y-66416428D01*
X133126076Y-66410998D01*
X133112984Y-66416428D01*
X132936646Y-66416428D01*
X132900882Y-66412567D01*
X132873466Y-66426275D01*
X132844051Y-66434912D01*
X132834769Y-66445623D01*
X132735454Y-66495282D01*
X132710793Y-66500647D01*
X132681578Y-66529861D01*
X132651301Y-66558024D01*
X132650574Y-66560864D01*
X132621518Y-66589919D01*
X132599818Y-66602809D01*
X132581337Y-66639769D01*
X132561525Y-66676053D01*
X132561734Y-66678976D01*
X132512302Y-66777839D01*
X132492857Y-66808098D01*
X132492857Y-66838749D01*
X132487427Y-66868924D01*
X131516456Y-66868924D01*
X131551849Y-66798138D01*
X131588853Y-66761134D01*
X131678267Y-66716428D01*
X131893161Y-66716428D01*
X132023638Y-66781667D01*
X132088210Y-66793287D01*
X132169578Y-66759540D01*
X132219784Y-66687160D01*
X132222889Y-66599127D01*
X132177905Y-66523390D01*
X132002873Y-66435873D01*
X131972615Y-66416428D01*
X131941964Y-66416428D01*
X131911790Y-66410998D01*
X131898698Y-66416428D01*
X131650932Y-66416428D01*
X131615168Y-66412567D01*
X131587752Y-66426275D01*
X131558337Y-66434912D01*
X131549055Y-66445623D01*
X131449740Y-66495282D01*
X131425079Y-66500647D01*
X131395864Y-66529861D01*
X131365587Y-66558024D01*
X131364860Y-66560864D01*
X131335804Y-66589919D01*
X131314104Y-66602809D01*
X131295623Y-66639769D01*
X131275811Y-66676053D01*
X131276020Y-66678976D01*
X131226588Y-66777839D01*
X131207143Y-66808098D01*
X131207143Y-66838749D01*
X131201713Y-66868924D01*
X130864285Y-66868924D01*
X130864285Y-66544860D01*
X130845801Y-66481908D01*
X130779228Y-66424223D01*
X130692036Y-66411686D01*
X130611909Y-66448279D01*
X130564285Y-66522384D01*
X130564285Y-67587996D01*
X129364285Y-67587996D01*
X129364285Y-67002142D01*
X129777638Y-67002142D01*
X129813401Y-67006003D01*
X129840815Y-66992295D01*
X129870234Y-66983658D01*
X129879515Y-66972946D01*
X129978831Y-66923288D01*
X130003493Y-66917924D01*
X130032704Y-66888712D01*
X130062984Y-66860547D01*
X130063710Y-66857706D01*
X130092767Y-66828649D01*
X130114467Y-66815761D01*
X130132941Y-66778811D01*
X130152761Y-66742516D01*
X130152551Y-66739591D01*
X130201980Y-66640733D01*
X130221428Y-66610472D01*
X130221427Y-66579820D01*
X130226858Y-66549646D01*
X130221428Y-66536553D01*
X130221428Y-66360218D01*
X130225289Y-66324455D01*
X130211581Y-66297040D01*
X130202944Y-66267622D01*
X130192232Y-66258340D01*
X130142574Y-66159022D01*
X130137209Y-66134362D01*
X130129551Y-66126704D01*
X130486922Y-66126704D01*
X130494004Y-66159261D01*
X130496382Y-66192491D01*
X130503220Y-66201626D01*
X130505647Y-66212779D01*
X130529203Y-66236335D01*
X130549171Y-66263009D01*
X130559865Y-66266997D01*
X130581146Y-66288278D01*
X130582769Y-66293805D01*
X130603867Y-66312086D01*
X130620597Y-66334436D01*
X130636510Y-66340371D01*
X130649342Y-66351490D01*
X130666148Y-66353906D01*
X130681053Y-66362045D01*
X130692435Y-66361230D01*
X130703131Y-66365220D01*
X130719724Y-66361610D01*
X130736534Y-66364027D01*
X130751983Y-66356971D01*
X130768917Y-66355760D01*
X130778052Y-66348921D01*
X130789206Y-66346495D01*
X130801211Y-66334489D01*
X130816661Y-66327434D01*
X130825842Y-66313146D01*
X130839436Y-66302971D01*
X130843424Y-66292277D01*
X130884188Y-66251514D01*
X130910866Y-66231544D01*
X130922510Y-66200323D01*
X130938474Y-66171089D01*
X130937659Y-66159705D01*
X130941649Y-66149010D01*
X130934566Y-66116452D01*
X130932190Y-66083226D01*
X130925350Y-66074089D01*
X130922924Y-66062935D01*
X130899366Y-66039377D01*
X130879401Y-66012706D01*
X130868705Y-66008716D01*
X130847423Y-65987434D01*
X130845801Y-65981908D01*
X130824700Y-65963624D01*
X130807971Y-65941276D01*
X130792059Y-65935341D01*
X130779228Y-65924223D01*
X130762422Y-65921806D01*
X130747516Y-65913667D01*
X130736130Y-65914481D01*
X130725437Y-65910493D01*
X130708844Y-65914102D01*
X130692036Y-65911686D01*
X130676588Y-65918740D01*
X130659653Y-65919952D01*
X130650514Y-65926792D01*
X130639362Y-65929219D01*
X130627357Y-65941224D01*
X130611909Y-65948279D01*
X130602729Y-65962563D01*
X130589133Y-65972741D01*
X130585143Y-65983438D01*
X130544379Y-66024202D01*
X130517705Y-66044170D01*
X130506061Y-66075388D01*
X130490096Y-66104627D01*
X130490910Y-66116010D01*
X130486922Y-66126704D01*
X130129551Y-66126704D01*
X130108001Y-66105154D01*
X130079833Y-66074872D01*
X130076992Y-66074145D01*
X130047934Y-66045088D01*
X130035047Y-66023390D01*
X129998097Y-66004915D01*
X129961801Y-65985096D01*
X129958877Y-65985305D01*
X129860023Y-65935878D01*
X129829758Y-65916428D01*
X129799105Y-65916428D01*
X129768933Y-65910998D01*
X129755841Y-65916428D01*
X129225016Y-65916428D01*
X129192036Y-65911686D01*
X129161729Y-65925526D01*
X129129765Y-65934912D01*
X129122290Y-65943537D01*
X129111909Y-65948279D01*
X129093896Y-65976306D01*
X129072080Y-66001485D01*
X129070455Y-66012782D01*
X129064285Y-66022384D01*
X129064285Y-66055697D01*
X129059543Y-66088677D01*
X129064284Y-66099060D01*
X129064285Y-66841411D01*
X129059543Y-66874391D01*
X127507142Y-66874391D01*
X127507142Y-66544860D01*
X127488658Y-66481908D01*
X127422085Y-66424223D01*
X127334893Y-66411686D01*
X127254766Y-66448279D01*
X127207142Y-66522384D01*
X127207142Y-67587996D01*
X126007142Y-67587996D01*
X126007142Y-67002142D01*
X126420495Y-67002142D01*
X126456258Y-67006003D01*
X126483672Y-66992295D01*
X126513091Y-66983658D01*
X126522372Y-66972946D01*
X126621688Y-66923288D01*
X126646350Y-66917924D01*
X126675561Y-66888712D01*
X126705841Y-66860547D01*
X126706567Y-66857706D01*
X126735624Y-66828649D01*
X126757324Y-66815761D01*
X126775798Y-66778811D01*
X126795618Y-66742516D01*
X126795408Y-66739591D01*
X126844837Y-66640733D01*
X126864285Y-66610472D01*
X126864285Y-66579820D01*
X126869715Y-66549646D01*
X126864285Y-66536553D01*
X126864285Y-66360218D01*
X126868146Y-66324455D01*
X126854438Y-66297040D01*
X126845801Y-66267622D01*
X126835089Y-66258340D01*
X126785431Y-66159022D01*
X126780066Y-66134362D01*
X126772408Y-66126704D01*
X127129779Y-66126704D01*
X127136861Y-66159261D01*
X127139239Y-66192491D01*
X127146077Y-66201626D01*
X127148504Y-66212779D01*
X127172060Y-66236335D01*
X127192028Y-66263009D01*
X127202722Y-66266997D01*
X127224003Y-66288278D01*
X127225626Y-66293805D01*
X127246724Y-66312086D01*
X127263454Y-66334436D01*
X127279367Y-66340371D01*
X127292199Y-66351490D01*
X127309005Y-66353906D01*
X127323910Y-66362045D01*
X127335292Y-66361230D01*
X127345988Y-66365220D01*
X127362581Y-66361610D01*
X127379391Y-66364027D01*
X127394840Y-66356971D01*
X127411774Y-66355760D01*
X127420909Y-66348921D01*
X127432063Y-66346495D01*
X127444068Y-66334489D01*
X127459518Y-66327434D01*
X127468699Y-66313146D01*
X127482293Y-66302971D01*
X127486281Y-66292277D01*
X127527045Y-66251514D01*
X127553723Y-66231544D01*
X127565367Y-66200323D01*
X127581331Y-66171089D01*
X127580516Y-66159705D01*
X127584506Y-66149010D01*
X127577423Y-66116452D01*
X127575047Y-66083226D01*
X127568207Y-66074089D01*
X127565781Y-66062935D01*
X127542223Y-66039377D01*
X127522258Y-66012706D01*
X127511562Y-66008716D01*
X127490280Y-65987434D01*
X127488658Y-65981908D01*
X127467557Y-65963624D01*
X127450828Y-65941276D01*
X127434916Y-65935341D01*
X127422085Y-65924223D01*
X127405279Y-65921806D01*
X127390373Y-65913667D01*
X127378987Y-65914481D01*
X127368294Y-65910493D01*
X127351701Y-65914102D01*
X127334893Y-65911686D01*
X127319445Y-65918740D01*
X127302510Y-65919952D01*
X127293371Y-65926792D01*
X127282219Y-65929219D01*
X127270214Y-65941224D01*
X127254766Y-65948279D01*
X127245586Y-65962563D01*
X127231990Y-65972741D01*
X127228000Y-65983438D01*
X127187236Y-66024202D01*
X127160562Y-66044170D01*
X127148918Y-66075388D01*
X127132953Y-66104627D01*
X127133767Y-66116010D01*
X127129779Y-66126704D01*
X126772408Y-66126704D01*
X126750858Y-66105154D01*
X126722690Y-66074872D01*
X126719849Y-66074145D01*
X126690791Y-66045088D01*
X126677904Y-66023390D01*
X126640954Y-66004915D01*
X126604658Y-65985096D01*
X126601734Y-65985305D01*
X126502880Y-65935878D01*
X126472615Y-65916428D01*
X126441962Y-65916428D01*
X126411790Y-65910998D01*
X126398698Y-65916428D01*
X125867873Y-65916428D01*
X125834893Y-65911686D01*
X125804586Y-65925526D01*
X125772622Y-65934912D01*
X125765147Y-65943537D01*
X125754766Y-65948279D01*
X125736753Y-65976306D01*
X125714937Y-66001485D01*
X125713312Y-66012782D01*
X125707142Y-66022384D01*
X125707142Y-66055697D01*
X125702400Y-66088677D01*
X125707142Y-66099060D01*
X125707142Y-66841411D01*
X125702400Y-66874391D01*
X124835714Y-66874391D01*
X124835714Y-64835714D01*
X149471428Y-64835714D01*
X149471428Y-68414286D01*
G37*
D10*
X154924590Y-118173428D02*
X154886495Y-118249618D01*
X154886495Y-118249618D02*
X154886495Y-118363904D01*
X154886495Y-118363904D02*
X154924590Y-118478190D01*
X154924590Y-118478190D02*
X155000780Y-118554380D01*
X155000780Y-118554380D02*
X155076971Y-118592475D01*
X155076971Y-118592475D02*
X155229352Y-118630571D01*
X155229352Y-118630571D02*
X155343638Y-118630571D01*
X155343638Y-118630571D02*
X155496019Y-118592475D01*
X155496019Y-118592475D02*
X155572209Y-118554380D01*
X155572209Y-118554380D02*
X155648400Y-118478190D01*
X155648400Y-118478190D02*
X155686495Y-118363904D01*
X155686495Y-118363904D02*
X155686495Y-118287713D01*
X155686495Y-118287713D02*
X155648400Y-118173428D01*
X155648400Y-118173428D02*
X155610304Y-118135332D01*
X155610304Y-118135332D02*
X155343638Y-118135332D01*
X155343638Y-118135332D02*
X155343638Y-118287713D01*
X155686495Y-117792475D02*
X154886495Y-117792475D01*
X154886495Y-117792475D02*
X154886495Y-117487713D01*
X154886495Y-117487713D02*
X154924590Y-117411523D01*
X154924590Y-117411523D02*
X154962685Y-117373428D01*
X154962685Y-117373428D02*
X155038876Y-117335332D01*
X155038876Y-117335332D02*
X155153161Y-117335332D01*
X155153161Y-117335332D02*
X155229352Y-117373428D01*
X155229352Y-117373428D02*
X155267447Y-117411523D01*
X155267447Y-117411523D02*
X155305542Y-117487713D01*
X155305542Y-117487713D02*
X155305542Y-117792475D01*
X155686495Y-116954380D02*
X155686495Y-116801999D01*
X155686495Y-116801999D02*
X155648400Y-116725809D01*
X155648400Y-116725809D02*
X155610304Y-116687713D01*
X155610304Y-116687713D02*
X155496019Y-116611523D01*
X155496019Y-116611523D02*
X155343638Y-116573428D01*
X155343638Y-116573428D02*
X155038876Y-116573428D01*
X155038876Y-116573428D02*
X154962685Y-116611523D01*
X154962685Y-116611523D02*
X154924590Y-116649618D01*
X154924590Y-116649618D02*
X154886495Y-116725809D01*
X154886495Y-116725809D02*
X154886495Y-116878190D01*
X154886495Y-116878190D02*
X154924590Y-116954380D01*
X154924590Y-116954380D02*
X154962685Y-116992475D01*
X154962685Y-116992475D02*
X155038876Y-117030571D01*
X155038876Y-117030571D02*
X155229352Y-117030571D01*
X155229352Y-117030571D02*
X155305542Y-116992475D01*
X155305542Y-116992475D02*
X155343638Y-116954380D01*
X155343638Y-116954380D02*
X155381733Y-116878190D01*
X155381733Y-116878190D02*
X155381733Y-116725809D01*
X155381733Y-116725809D02*
X155343638Y-116649618D01*
X155343638Y-116649618D02*
X155305542Y-116611523D01*
X155305542Y-116611523D02*
X155229352Y-116573428D01*
X150877619Y-72290476D02*
X150401428Y-72623809D01*
X150877619Y-72861904D02*
X149877619Y-72861904D01*
X149877619Y-72861904D02*
X149877619Y-72480952D01*
X149877619Y-72480952D02*
X149925238Y-72385714D01*
X149925238Y-72385714D02*
X149972857Y-72338095D01*
X149972857Y-72338095D02*
X150068095Y-72290476D01*
X150068095Y-72290476D02*
X150210952Y-72290476D01*
X150210952Y-72290476D02*
X150306190Y-72338095D01*
X150306190Y-72338095D02*
X150353809Y-72385714D01*
X150353809Y-72385714D02*
X150401428Y-72480952D01*
X150401428Y-72480952D02*
X150401428Y-72861904D01*
X150830000Y-71480952D02*
X150877619Y-71576190D01*
X150877619Y-71576190D02*
X150877619Y-71766666D01*
X150877619Y-71766666D02*
X150830000Y-71861904D01*
X150830000Y-71861904D02*
X150734761Y-71909523D01*
X150734761Y-71909523D02*
X150353809Y-71909523D01*
X150353809Y-71909523D02*
X150258571Y-71861904D01*
X150258571Y-71861904D02*
X150210952Y-71766666D01*
X150210952Y-71766666D02*
X150210952Y-71576190D01*
X150210952Y-71576190D02*
X150258571Y-71480952D01*
X150258571Y-71480952D02*
X150353809Y-71433333D01*
X150353809Y-71433333D02*
X150449047Y-71433333D01*
X150449047Y-71433333D02*
X150544285Y-71909523D01*
X150830000Y-71052380D02*
X150877619Y-70957142D01*
X150877619Y-70957142D02*
X150877619Y-70766666D01*
X150877619Y-70766666D02*
X150830000Y-70671428D01*
X150830000Y-70671428D02*
X150734761Y-70623809D01*
X150734761Y-70623809D02*
X150687142Y-70623809D01*
X150687142Y-70623809D02*
X150591904Y-70671428D01*
X150591904Y-70671428D02*
X150544285Y-70766666D01*
X150544285Y-70766666D02*
X150544285Y-70909523D01*
X150544285Y-70909523D02*
X150496666Y-71004761D01*
X150496666Y-71004761D02*
X150401428Y-71052380D01*
X150401428Y-71052380D02*
X150353809Y-71052380D01*
X150353809Y-71052380D02*
X150258571Y-71004761D01*
X150258571Y-71004761D02*
X150210952Y-70909523D01*
X150210952Y-70909523D02*
X150210952Y-70766666D01*
X150210952Y-70766666D02*
X150258571Y-70671428D01*
X150830000Y-69814285D02*
X150877619Y-69909523D01*
X150877619Y-69909523D02*
X150877619Y-70099999D01*
X150877619Y-70099999D02*
X150830000Y-70195237D01*
X150830000Y-70195237D02*
X150734761Y-70242856D01*
X150734761Y-70242856D02*
X150353809Y-70242856D01*
X150353809Y-70242856D02*
X150258571Y-70195237D01*
X150258571Y-70195237D02*
X150210952Y-70099999D01*
X150210952Y-70099999D02*
X150210952Y-69909523D01*
X150210952Y-69909523D02*
X150258571Y-69814285D01*
X150258571Y-69814285D02*
X150353809Y-69766666D01*
X150353809Y-69766666D02*
X150449047Y-69766666D01*
X150449047Y-69766666D02*
X150544285Y-70242856D01*
X150210952Y-69480951D02*
X150210952Y-69099999D01*
X149877619Y-69338094D02*
X150734761Y-69338094D01*
X150734761Y-69338094D02*
X150830000Y-69290475D01*
X150830000Y-69290475D02*
X150877619Y-69195237D01*
X150877619Y-69195237D02*
X150877619Y-69099999D01*
X175244590Y-118935333D02*
X175206495Y-119011523D01*
X175206495Y-119011523D02*
X175206495Y-119125809D01*
X175206495Y-119125809D02*
X175244590Y-119240095D01*
X175244590Y-119240095D02*
X175320780Y-119316285D01*
X175320780Y-119316285D02*
X175396971Y-119354380D01*
X175396971Y-119354380D02*
X175549352Y-119392476D01*
X175549352Y-119392476D02*
X175663638Y-119392476D01*
X175663638Y-119392476D02*
X175816019Y-119354380D01*
X175816019Y-119354380D02*
X175892209Y-119316285D01*
X175892209Y-119316285D02*
X175968400Y-119240095D01*
X175968400Y-119240095D02*
X176006495Y-119125809D01*
X176006495Y-119125809D02*
X176006495Y-119049618D01*
X176006495Y-119049618D02*
X175968400Y-118935333D01*
X175968400Y-118935333D02*
X175930304Y-118897237D01*
X175930304Y-118897237D02*
X175663638Y-118897237D01*
X175663638Y-118897237D02*
X175663638Y-119049618D01*
X176006495Y-118554380D02*
X175206495Y-118554380D01*
X175206495Y-118554380D02*
X175206495Y-118249618D01*
X175206495Y-118249618D02*
X175244590Y-118173428D01*
X175244590Y-118173428D02*
X175282685Y-118135333D01*
X175282685Y-118135333D02*
X175358876Y-118097237D01*
X175358876Y-118097237D02*
X175473161Y-118097237D01*
X175473161Y-118097237D02*
X175549352Y-118135333D01*
X175549352Y-118135333D02*
X175587447Y-118173428D01*
X175587447Y-118173428D02*
X175625542Y-118249618D01*
X175625542Y-118249618D02*
X175625542Y-118554380D01*
X176006495Y-117335333D02*
X176006495Y-117792476D01*
X176006495Y-117563904D02*
X175206495Y-117563904D01*
X175206495Y-117563904D02*
X175320780Y-117640095D01*
X175320780Y-117640095D02*
X175396971Y-117716285D01*
X175396971Y-117716285D02*
X175435066Y-117792476D01*
X175206495Y-116611523D02*
X175206495Y-116992475D01*
X175206495Y-116992475D02*
X175587447Y-117030571D01*
X175587447Y-117030571D02*
X175549352Y-116992475D01*
X175549352Y-116992475D02*
X175511257Y-116916285D01*
X175511257Y-116916285D02*
X175511257Y-116725809D01*
X175511257Y-116725809D02*
X175549352Y-116649618D01*
X175549352Y-116649618D02*
X175587447Y-116611523D01*
X175587447Y-116611523D02*
X175663638Y-116573428D01*
X175663638Y-116573428D02*
X175854114Y-116573428D01*
X175854114Y-116573428D02*
X175930304Y-116611523D01*
X175930304Y-116611523D02*
X175968400Y-116649618D01*
X175968400Y-116649618D02*
X176006495Y-116725809D01*
X176006495Y-116725809D02*
X176006495Y-116916285D01*
X176006495Y-116916285D02*
X175968400Y-116992475D01*
X175968400Y-116992475D02*
X175930304Y-117030571D01*
X166884523Y-74191904D02*
X167360713Y-74191904D01*
X166789285Y-74477619D02*
X167122618Y-73477619D01*
X167122618Y-73477619D02*
X167455951Y-74477619D01*
X168217856Y-73810952D02*
X168217856Y-74477619D01*
X167789285Y-73810952D02*
X167789285Y-74334761D01*
X167789285Y-74334761D02*
X167836904Y-74430000D01*
X167836904Y-74430000D02*
X167932142Y-74477619D01*
X167932142Y-74477619D02*
X168074999Y-74477619D01*
X168074999Y-74477619D02*
X168170237Y-74430000D01*
X168170237Y-74430000D02*
X168217856Y-74382380D01*
X168598809Y-74477619D02*
X169122618Y-73810952D01*
X168598809Y-73810952D02*
X169122618Y-74477619D01*
X170265476Y-74477619D02*
X170265476Y-73477619D01*
X170265476Y-73477619D02*
X170646428Y-73477619D01*
X170646428Y-73477619D02*
X170741666Y-73525238D01*
X170741666Y-73525238D02*
X170789285Y-73572857D01*
X170789285Y-73572857D02*
X170836904Y-73668095D01*
X170836904Y-73668095D02*
X170836904Y-73810952D01*
X170836904Y-73810952D02*
X170789285Y-73906190D01*
X170789285Y-73906190D02*
X170741666Y-73953809D01*
X170741666Y-73953809D02*
X170646428Y-74001428D01*
X170646428Y-74001428D02*
X170265476Y-74001428D01*
X171408333Y-74477619D02*
X171313095Y-74430000D01*
X171313095Y-74430000D02*
X171265476Y-74382380D01*
X171265476Y-74382380D02*
X171217857Y-74287142D01*
X171217857Y-74287142D02*
X171217857Y-74001428D01*
X171217857Y-74001428D02*
X171265476Y-73906190D01*
X171265476Y-73906190D02*
X171313095Y-73858571D01*
X171313095Y-73858571D02*
X171408333Y-73810952D01*
X171408333Y-73810952D02*
X171551190Y-73810952D01*
X171551190Y-73810952D02*
X171646428Y-73858571D01*
X171646428Y-73858571D02*
X171694047Y-73906190D01*
X171694047Y-73906190D02*
X171741666Y-74001428D01*
X171741666Y-74001428D02*
X171741666Y-74287142D01*
X171741666Y-74287142D02*
X171694047Y-74382380D01*
X171694047Y-74382380D02*
X171646428Y-74430000D01*
X171646428Y-74430000D02*
X171551190Y-74477619D01*
X171551190Y-74477619D02*
X171408333Y-74477619D01*
X172075000Y-73810952D02*
X172265476Y-74477619D01*
X172265476Y-74477619D02*
X172455952Y-74001428D01*
X172455952Y-74001428D02*
X172646428Y-74477619D01*
X172646428Y-74477619D02*
X172836904Y-73810952D01*
X173598809Y-74430000D02*
X173503571Y-74477619D01*
X173503571Y-74477619D02*
X173313095Y-74477619D01*
X173313095Y-74477619D02*
X173217857Y-74430000D01*
X173217857Y-74430000D02*
X173170238Y-74334761D01*
X173170238Y-74334761D02*
X173170238Y-73953809D01*
X173170238Y-73953809D02*
X173217857Y-73858571D01*
X173217857Y-73858571D02*
X173313095Y-73810952D01*
X173313095Y-73810952D02*
X173503571Y-73810952D01*
X173503571Y-73810952D02*
X173598809Y-73858571D01*
X173598809Y-73858571D02*
X173646428Y-73953809D01*
X173646428Y-73953809D02*
X173646428Y-74049047D01*
X173646428Y-74049047D02*
X173170238Y-74144285D01*
X174075000Y-74477619D02*
X174075000Y-73810952D01*
X174075000Y-74001428D02*
X174122619Y-73906190D01*
X174122619Y-73906190D02*
X174170238Y-73858571D01*
X174170238Y-73858571D02*
X174265476Y-73810952D01*
X174265476Y-73810952D02*
X174360714Y-73810952D01*
G36*
X170709360Y-106230191D02*
G01*
X170767301Y-106259161D01*
X170822367Y-106314227D01*
X170851015Y-106400170D01*
X170851015Y-106503475D01*
X170201015Y-106503475D01*
X170201015Y-106400169D01*
X170229662Y-106314226D01*
X170284726Y-106259162D01*
X170342665Y-106230192D01*
X170478107Y-106196332D01*
X170573926Y-106196332D01*
X170709360Y-106230191D01*
G37*
G36*
X171482706Y-108853833D02*
G01*
X169629134Y-108853833D01*
X169629134Y-107990824D01*
X170047900Y-107990824D01*
X170054438Y-108010438D01*
X170060258Y-108030259D01*
X170061364Y-108031217D01*
X170091682Y-108122174D01*
X170095505Y-108139746D01*
X170106344Y-108150585D01*
X170115091Y-108163170D01*
X170121637Y-108165878D01*
X170180617Y-108224858D01*
X170187062Y-108235709D01*
X170205560Y-108244957D01*
X170223685Y-108254855D01*
X170225145Y-108254750D01*
X170271002Y-108277678D01*
X170276936Y-108283989D01*
X170290312Y-108287333D01*
X170292594Y-108288474D01*
X170300733Y-108289938D01*
X170438707Y-108324433D01*
X170446850Y-108329666D01*
X170459638Y-108329666D01*
X170461142Y-108330042D01*
X170470388Y-108329666D01*
X170570815Y-108329666D01*
X170579984Y-108332768D01*
X170592392Y-108329666D01*
X170593940Y-108329666D01*
X170602810Y-108327061D01*
X170740770Y-108292571D01*
X170749383Y-108293501D01*
X170761715Y-108287334D01*
X170764190Y-108286716D01*
X170771322Y-108282530D01*
X170836859Y-108249762D01*
X170849190Y-108247080D01*
X170863811Y-108232458D01*
X170878935Y-108218391D01*
X170879297Y-108216972D01*
X170938096Y-108158174D01*
X170952107Y-108146894D01*
X170956954Y-108132352D01*
X170964300Y-108118900D01*
X170963794Y-108111831D01*
X170994192Y-108020636D01*
X171001015Y-108010021D01*
X171001015Y-107989341D01*
X171001761Y-107968702D01*
X171001015Y-107967443D01*
X171001015Y-107921210D01*
X171004130Y-107908983D01*
X170997592Y-107889369D01*
X170991772Y-107869548D01*
X170990665Y-107868589D01*
X170960347Y-107777633D01*
X170956525Y-107760062D01*
X170945686Y-107749223D01*
X170936939Y-107736637D01*
X170930391Y-107733928D01*
X170912424Y-107715961D01*
X170908898Y-107708239D01*
X170897155Y-107700692D01*
X170895233Y-107698770D01*
X170888122Y-107694887D01*
X170871846Y-107684427D01*
X170868966Y-107684427D01*
X170866439Y-107683047D01*
X170847150Y-107684427D01*
X170588518Y-107684427D01*
X170572034Y-107682057D01*
X170556881Y-107688976D01*
X170540898Y-107693670D01*
X170537161Y-107697982D01*
X170531970Y-107700353D01*
X170522962Y-107714369D01*
X170512056Y-107726956D01*
X170511244Y-107732602D01*
X170508158Y-107737405D01*
X170508158Y-107754067D01*
X170505788Y-107770551D01*
X170508158Y-107775740D01*
X170508158Y-107922590D01*
X170517401Y-107954068D01*
X170550687Y-107982910D01*
X170594282Y-107989178D01*
X170634346Y-107970882D01*
X170658158Y-107933830D01*
X170658158Y-107834427D01*
X170818758Y-107834427D01*
X170822367Y-107838036D01*
X170851015Y-107923979D01*
X170851015Y-107975828D01*
X170822367Y-108061772D01*
X170767303Y-108116834D01*
X170709362Y-108145805D01*
X170573923Y-108179666D01*
X170478104Y-108179666D01*
X170342668Y-108145806D01*
X170284726Y-108116835D01*
X170229662Y-108061771D01*
X170201015Y-107975827D01*
X170201015Y-107891418D01*
X170236014Y-107821420D01*
X170241824Y-107789132D01*
X170224951Y-107748449D01*
X170188761Y-107723346D01*
X170144745Y-107721794D01*
X170106876Y-107744285D01*
X170060738Y-107836561D01*
X170051015Y-107851691D01*
X170051015Y-107867021D01*
X170048301Y-107882104D01*
X170051015Y-107888647D01*
X170051015Y-107978596D01*
X170047900Y-107990824D01*
X169629134Y-107990824D01*
X169629134Y-107423654D01*
X170048171Y-107423654D01*
X170048944Y-107425611D01*
X170048645Y-107427694D01*
X170056981Y-107445949D01*
X170064358Y-107464615D01*
X170066066Y-107465843D01*
X170066941Y-107467758D01*
X170083825Y-107478608D01*
X170100121Y-107490323D01*
X170102223Y-107490432D01*
X170103993Y-107491570D01*
X170124062Y-107491570D01*
X170144105Y-107492614D01*
X170145932Y-107491570D01*
X170936797Y-107491570D01*
X170968275Y-107482327D01*
X170997117Y-107449041D01*
X171003385Y-107405446D01*
X170985089Y-107365382D01*
X170948037Y-107341570D01*
X170408432Y-107341570D01*
X170955589Y-107028908D01*
X170968275Y-107025184D01*
X170981414Y-107010020D01*
X170995332Y-106995553D01*
X170995739Y-106993487D01*
X170997117Y-106991898D01*
X170999972Y-106972037D01*
X171003859Y-106952343D01*
X171003085Y-106950385D01*
X171003385Y-106948303D01*
X170995048Y-106930047D01*
X170987672Y-106911382D01*
X170985963Y-106910153D01*
X170985089Y-106908239D01*
X170968204Y-106897388D01*
X170951909Y-106885674D01*
X170949806Y-106885564D01*
X170948037Y-106884427D01*
X170927968Y-106884427D01*
X170907925Y-106883383D01*
X170906098Y-106884427D01*
X170115233Y-106884427D01*
X170083755Y-106893670D01*
X170054913Y-106926956D01*
X170048645Y-106970551D01*
X170066941Y-107010615D01*
X170103993Y-107034427D01*
X170643598Y-107034427D01*
X170096440Y-107347088D01*
X170083755Y-107350813D01*
X170070615Y-107365976D01*
X170056698Y-107380444D01*
X170056290Y-107382509D01*
X170054913Y-107384099D01*
X170052057Y-107403959D01*
X170048171Y-107423654D01*
X169629134Y-107423654D01*
X169629134Y-106589599D01*
X170048645Y-106589599D01*
X170055564Y-106604751D01*
X170060258Y-106620735D01*
X170064570Y-106624471D01*
X170066941Y-106629663D01*
X170080957Y-106638670D01*
X170093544Y-106649577D01*
X170099190Y-106650388D01*
X170103993Y-106653475D01*
X170120655Y-106653475D01*
X170137139Y-106655845D01*
X170142329Y-106653475D01*
X170920655Y-106653475D01*
X170937139Y-106655845D01*
X170952291Y-106648925D01*
X170968275Y-106644232D01*
X170972011Y-106639919D01*
X170977203Y-106637549D01*
X170986210Y-106623532D01*
X170997117Y-106610946D01*
X170997928Y-106605299D01*
X171001015Y-106600497D01*
X171001015Y-106583834D01*
X171003385Y-106567351D01*
X171001015Y-106562161D01*
X171001015Y-106397401D01*
X171004130Y-106385174D01*
X170997591Y-106365559D01*
X170991772Y-106345739D01*
X170990665Y-106344780D01*
X170960347Y-106253823D01*
X170956525Y-106236252D01*
X170945685Y-106225412D01*
X170936939Y-106212828D01*
X170930392Y-106210120D01*
X170871410Y-106151138D01*
X170864967Y-106140289D01*
X170846462Y-106131036D01*
X170828343Y-106121143D01*
X170826883Y-106121247D01*
X170781027Y-106098319D01*
X170775094Y-106092009D01*
X170761717Y-106088664D01*
X170759436Y-106087524D01*
X170751295Y-106086059D01*
X170613322Y-106051564D01*
X170605180Y-106046332D01*
X170592392Y-106046332D01*
X170590888Y-106045956D01*
X170581642Y-106046332D01*
X170481215Y-106046332D01*
X170472046Y-106043230D01*
X170459638Y-106046332D01*
X170458090Y-106046332D01*
X170449219Y-106048936D01*
X170311260Y-106083426D01*
X170302648Y-106082497D01*
X170290316Y-106088662D01*
X170287840Y-106089282D01*
X170280702Y-106093469D01*
X170215171Y-106126235D01*
X170202839Y-106128918D01*
X170188211Y-106143545D01*
X170173094Y-106157607D01*
X170172731Y-106159025D01*
X170113932Y-106217824D01*
X170099923Y-106229104D01*
X170095075Y-106243645D01*
X170087730Y-106257098D01*
X170088235Y-106264165D01*
X170057837Y-106355361D01*
X170051015Y-106365977D01*
X170051015Y-106386656D01*
X170050269Y-106407296D01*
X170051015Y-106408554D01*
X170051015Y-106573115D01*
X170048645Y-106589599D01*
X169629134Y-106589599D01*
X169629134Y-105522166D01*
X171482706Y-105522166D01*
X171482706Y-108853833D01*
G37*
G36*
X170709840Y-116898191D02*
G01*
X170767781Y-116927161D01*
X170822847Y-116982227D01*
X170851495Y-117068170D01*
X170851495Y-117171475D01*
X170201495Y-117171475D01*
X170201495Y-117068169D01*
X170230142Y-116982226D01*
X170285206Y-116927162D01*
X170343145Y-116898192D01*
X170478587Y-116864332D01*
X170574406Y-116864332D01*
X170709840Y-116898191D01*
G37*
G36*
X171483186Y-119521833D02*
G01*
X169629614Y-119521833D01*
X169629614Y-118658824D01*
X170048380Y-118658824D01*
X170054918Y-118678438D01*
X170060738Y-118698259D01*
X170061844Y-118699217D01*
X170092162Y-118790174D01*
X170095985Y-118807746D01*
X170106824Y-118818585D01*
X170115571Y-118831170D01*
X170122117Y-118833878D01*
X170181097Y-118892858D01*
X170187542Y-118903709D01*
X170206040Y-118912957D01*
X170224165Y-118922855D01*
X170225625Y-118922750D01*
X170271482Y-118945678D01*
X170277416Y-118951989D01*
X170290792Y-118955333D01*
X170293074Y-118956474D01*
X170301213Y-118957938D01*
X170439187Y-118992433D01*
X170447330Y-118997666D01*
X170460118Y-118997666D01*
X170461622Y-118998042D01*
X170470868Y-118997666D01*
X170571295Y-118997666D01*
X170580464Y-119000768D01*
X170592872Y-118997666D01*
X170594420Y-118997666D01*
X170603290Y-118995061D01*
X170741250Y-118960571D01*
X170749863Y-118961501D01*
X170762195Y-118955334D01*
X170764670Y-118954716D01*
X170771802Y-118950530D01*
X170837339Y-118917762D01*
X170849670Y-118915080D01*
X170864291Y-118900458D01*
X170879415Y-118886391D01*
X170879777Y-118884972D01*
X170938576Y-118826174D01*
X170952587Y-118814894D01*
X170957434Y-118800352D01*
X170964780Y-118786900D01*
X170964274Y-118779831D01*
X170994672Y-118688636D01*
X171001495Y-118678021D01*
X171001495Y-118657341D01*
X171002241Y-118636702D01*
X171001495Y-118635443D01*
X171001495Y-118589210D01*
X171004610Y-118576983D01*
X170998072Y-118557369D01*
X170992252Y-118537548D01*
X170991145Y-118536589D01*
X170960827Y-118445633D01*
X170957005Y-118428062D01*
X170946166Y-118417223D01*
X170937419Y-118404637D01*
X170930871Y-118401928D01*
X170912904Y-118383961D01*
X170909378Y-118376239D01*
X170897635Y-118368692D01*
X170895713Y-118366770D01*
X170888602Y-118362887D01*
X170872326Y-118352427D01*
X170869446Y-118352427D01*
X170866919Y-118351047D01*
X170847630Y-118352427D01*
X170588998Y-118352427D01*
X170572514Y-118350057D01*
X170557361Y-118356976D01*
X170541378Y-118361670D01*
X170537641Y-118365982D01*
X170532450Y-118368353D01*
X170523442Y-118382369D01*
X170512536Y-118394956D01*
X170511724Y-118400602D01*
X170508638Y-118405405D01*
X170508638Y-118422067D01*
X170506268Y-118438551D01*
X170508638Y-118443740D01*
X170508638Y-118590590D01*
X170517881Y-118622068D01*
X170551167Y-118650910D01*
X170594762Y-118657178D01*
X170634826Y-118638882D01*
X170658638Y-118601830D01*
X170658638Y-118502427D01*
X170819238Y-118502427D01*
X170822847Y-118506036D01*
X170851495Y-118591979D01*
X170851495Y-118643829D01*
X170822847Y-118729772D01*
X170767783Y-118784834D01*
X170709842Y-118813805D01*
X170574403Y-118847666D01*
X170478584Y-118847666D01*
X170343148Y-118813806D01*
X170285206Y-118784835D01*
X170230142Y-118729771D01*
X170201495Y-118643827D01*
X170201495Y-118559418D01*
X170236494Y-118489420D01*
X170242304Y-118457132D01*
X170225431Y-118416449D01*
X170189241Y-118391346D01*
X170145225Y-118389794D01*
X170107356Y-118412285D01*
X170061218Y-118504561D01*
X170051495Y-118519691D01*
X170051495Y-118535021D01*
X170048781Y-118550104D01*
X170051495Y-118556647D01*
X170051495Y-118646596D01*
X170048380Y-118658824D01*
X169629614Y-118658824D01*
X169629614Y-118091654D01*
X170048651Y-118091654D01*
X170049424Y-118093611D01*
X170049125Y-118095694D01*
X170057461Y-118113949D01*
X170064838Y-118132615D01*
X170066546Y-118133843D01*
X170067421Y-118135758D01*
X170084305Y-118146608D01*
X170100601Y-118158323D01*
X170102703Y-118158432D01*
X170104473Y-118159570D01*
X170124542Y-118159570D01*
X170144585Y-118160614D01*
X170146412Y-118159570D01*
X170937277Y-118159570D01*
X170968755Y-118150327D01*
X170997597Y-118117041D01*
X171003865Y-118073446D01*
X170985569Y-118033382D01*
X170948517Y-118009570D01*
X170408912Y-118009570D01*
X170956069Y-117696908D01*
X170968755Y-117693184D01*
X170981894Y-117678020D01*
X170995812Y-117663553D01*
X170996219Y-117661487D01*
X170997597Y-117659898D01*
X171000452Y-117640037D01*
X171004339Y-117620343D01*
X171003565Y-117618385D01*
X171003865Y-117616303D01*
X170995528Y-117598047D01*
X170988152Y-117579382D01*
X170986443Y-117578153D01*
X170985569Y-117576239D01*
X170968684Y-117565388D01*
X170952389Y-117553674D01*
X170950286Y-117553564D01*
X170948517Y-117552427D01*
X170928448Y-117552427D01*
X170908405Y-117551383D01*
X170906578Y-117552427D01*
X170115713Y-117552427D01*
X170084235Y-117561670D01*
X170055393Y-117594956D01*
X170049125Y-117638551D01*
X170067421Y-117678615D01*
X170104473Y-117702427D01*
X170644078Y-117702427D01*
X170096920Y-118015088D01*
X170084235Y-118018813D01*
X170071095Y-118033976D01*
X170057178Y-118048444D01*
X170056770Y-118050509D01*
X170055393Y-118052099D01*
X170052537Y-118071959D01*
X170048651Y-118091654D01*
X169629614Y-118091654D01*
X169629614Y-117257599D01*
X170049125Y-117257599D01*
X170056044Y-117272751D01*
X170060738Y-117288735D01*
X170065050Y-117292471D01*
X170067421Y-117297663D01*
X170081437Y-117306670D01*
X170094024Y-117317577D01*
X170099670Y-117318388D01*
X170104473Y-117321475D01*
X170121135Y-117321475D01*
X170137619Y-117323845D01*
X170142809Y-117321475D01*
X170921135Y-117321475D01*
X170937619Y-117323845D01*
X170952771Y-117316925D01*
X170968755Y-117312232D01*
X170972491Y-117307919D01*
X170977683Y-117305549D01*
X170986690Y-117291532D01*
X170997597Y-117278946D01*
X170998408Y-117273299D01*
X171001495Y-117268497D01*
X171001495Y-117251834D01*
X171003865Y-117235351D01*
X171001495Y-117230161D01*
X171001495Y-117065401D01*
X171004610Y-117053174D01*
X170998071Y-117033559D01*
X170992252Y-117013739D01*
X170991145Y-117012780D01*
X170960827Y-116921823D01*
X170957005Y-116904252D01*
X170946165Y-116893412D01*
X170937419Y-116880828D01*
X170930872Y-116878120D01*
X170871890Y-116819138D01*
X170865447Y-116808289D01*
X170846942Y-116799036D01*
X170828823Y-116789143D01*
X170827363Y-116789247D01*
X170781507Y-116766319D01*
X170775574Y-116760009D01*
X170762197Y-116756664D01*
X170759916Y-116755524D01*
X170751775Y-116754059D01*
X170613802Y-116719564D01*
X170605660Y-116714332D01*
X170592872Y-116714332D01*
X170591368Y-116713956D01*
X170582122Y-116714332D01*
X170481695Y-116714332D01*
X170472526Y-116711230D01*
X170460118Y-116714332D01*
X170458570Y-116714332D01*
X170449699Y-116716936D01*
X170311740Y-116751426D01*
X170303128Y-116750497D01*
X170290796Y-116756662D01*
X170288320Y-116757282D01*
X170281182Y-116761469D01*
X170215651Y-116794235D01*
X170203319Y-116796918D01*
X170188691Y-116811545D01*
X170173574Y-116825607D01*
X170173211Y-116827025D01*
X170114412Y-116885824D01*
X170100403Y-116897104D01*
X170095555Y-116911645D01*
X170088210Y-116925098D01*
X170088715Y-116932165D01*
X170058317Y-117023361D01*
X170051495Y-117033977D01*
X170051495Y-117054656D01*
X170050749Y-117075296D01*
X170051495Y-117076554D01*
X170051495Y-117241115D01*
X170049125Y-117257599D01*
X169629614Y-117257599D01*
X169629614Y-116190166D01*
X171483186Y-116190166D01*
X171483186Y-119521833D01*
G37*
X154924110Y-108077009D02*
X154886015Y-108153199D01*
X154886015Y-108153199D02*
X154886015Y-108267485D01*
X154886015Y-108267485D02*
X154924110Y-108381771D01*
X154924110Y-108381771D02*
X155000300Y-108457961D01*
X155000300Y-108457961D02*
X155076491Y-108496056D01*
X155076491Y-108496056D02*
X155228872Y-108534152D01*
X155228872Y-108534152D02*
X155343158Y-108534152D01*
X155343158Y-108534152D02*
X155495539Y-108496056D01*
X155495539Y-108496056D02*
X155571729Y-108457961D01*
X155571729Y-108457961D02*
X155647920Y-108381771D01*
X155647920Y-108381771D02*
X155686015Y-108267485D01*
X155686015Y-108267485D02*
X155686015Y-108191294D01*
X155686015Y-108191294D02*
X155647920Y-108077009D01*
X155647920Y-108077009D02*
X155609824Y-108038913D01*
X155609824Y-108038913D02*
X155343158Y-108038913D01*
X155343158Y-108038913D02*
X155343158Y-108191294D01*
X155686015Y-107696056D02*
X154886015Y-107696056D01*
X154886015Y-107696056D02*
X154886015Y-107391294D01*
X154886015Y-107391294D02*
X154924110Y-107315104D01*
X154924110Y-107315104D02*
X154962205Y-107277009D01*
X154962205Y-107277009D02*
X155038396Y-107238913D01*
X155038396Y-107238913D02*
X155152681Y-107238913D01*
X155152681Y-107238913D02*
X155228872Y-107277009D01*
X155228872Y-107277009D02*
X155266967Y-107315104D01*
X155266967Y-107315104D02*
X155305062Y-107391294D01*
X155305062Y-107391294D02*
X155305062Y-107696056D01*
X154962205Y-106934152D02*
X154924110Y-106896056D01*
X154924110Y-106896056D02*
X154886015Y-106819866D01*
X154886015Y-106819866D02*
X154886015Y-106629390D01*
X154886015Y-106629390D02*
X154924110Y-106553199D01*
X154924110Y-106553199D02*
X154962205Y-106515104D01*
X154962205Y-106515104D02*
X155038396Y-106477009D01*
X155038396Y-106477009D02*
X155114586Y-106477009D01*
X155114586Y-106477009D02*
X155228872Y-106515104D01*
X155228872Y-106515104D02*
X155686015Y-106972247D01*
X155686015Y-106972247D02*
X155686015Y-106477009D01*
X154962205Y-106172247D02*
X154924110Y-106134151D01*
X154924110Y-106134151D02*
X154886015Y-106057961D01*
X154886015Y-106057961D02*
X154886015Y-105867485D01*
X154886015Y-105867485D02*
X154924110Y-105791294D01*
X154924110Y-105791294D02*
X154962205Y-105753199D01*
X154962205Y-105753199D02*
X155038396Y-105715104D01*
X155038396Y-105715104D02*
X155114586Y-105715104D01*
X155114586Y-105715104D02*
X155228872Y-105753199D01*
X155228872Y-105753199D02*
X155686015Y-106210342D01*
X155686015Y-106210342D02*
X155686015Y-105715104D01*
X178582619Y-97933371D02*
X178582619Y-97314324D01*
X178582619Y-97314324D02*
X178963571Y-97647657D01*
X178963571Y-97647657D02*
X178963571Y-97504800D01*
X178963571Y-97504800D02*
X179011190Y-97409562D01*
X179011190Y-97409562D02*
X179058809Y-97361943D01*
X179058809Y-97361943D02*
X179154047Y-97314324D01*
X179154047Y-97314324D02*
X179392142Y-97314324D01*
X179392142Y-97314324D02*
X179487380Y-97361943D01*
X179487380Y-97361943D02*
X179535000Y-97409562D01*
X179535000Y-97409562D02*
X179582619Y-97504800D01*
X179582619Y-97504800D02*
X179582619Y-97790514D01*
X179582619Y-97790514D02*
X179535000Y-97885752D01*
X179535000Y-97885752D02*
X179487380Y-97933371D01*
X178582619Y-97028609D02*
X179582619Y-96695276D01*
X179582619Y-96695276D02*
X178582619Y-96361943D01*
X178582619Y-96123847D02*
X178582619Y-95504800D01*
X178582619Y-95504800D02*
X178963571Y-95838133D01*
X178963571Y-95838133D02*
X178963571Y-95695276D01*
X178963571Y-95695276D02*
X179011190Y-95600038D01*
X179011190Y-95600038D02*
X179058809Y-95552419D01*
X179058809Y-95552419D02*
X179154047Y-95504800D01*
X179154047Y-95504800D02*
X179392142Y-95504800D01*
X179392142Y-95504800D02*
X179487380Y-95552419D01*
X179487380Y-95552419D02*
X179535000Y-95600038D01*
X179535000Y-95600038D02*
X179582619Y-95695276D01*
X179582619Y-95695276D02*
X179582619Y-95980990D01*
X179582619Y-95980990D02*
X179535000Y-96076228D01*
X179535000Y-96076228D02*
X179487380Y-96123847D01*
X153149415Y-107391293D02*
X152768462Y-107657960D01*
X153149415Y-107848436D02*
X152349415Y-107848436D01*
X152349415Y-107848436D02*
X152349415Y-107543674D01*
X152349415Y-107543674D02*
X152387510Y-107467484D01*
X152387510Y-107467484D02*
X152425605Y-107429389D01*
X152425605Y-107429389D02*
X152501796Y-107391293D01*
X152501796Y-107391293D02*
X152616081Y-107391293D01*
X152616081Y-107391293D02*
X152692272Y-107429389D01*
X152692272Y-107429389D02*
X152730367Y-107467484D01*
X152730367Y-107467484D02*
X152768462Y-107543674D01*
X152768462Y-107543674D02*
X152768462Y-107848436D01*
X152349415Y-107048436D02*
X152997034Y-107048436D01*
X152997034Y-107048436D02*
X153073224Y-107010341D01*
X153073224Y-107010341D02*
X153111320Y-106972246D01*
X153111320Y-106972246D02*
X153149415Y-106896055D01*
X153149415Y-106896055D02*
X153149415Y-106743674D01*
X153149415Y-106743674D02*
X153111320Y-106667484D01*
X153111320Y-106667484D02*
X153073224Y-106629389D01*
X153073224Y-106629389D02*
X152997034Y-106591293D01*
X152997034Y-106591293D02*
X152349415Y-106591293D01*
X153149415Y-106210341D02*
X152349415Y-106210341D01*
X152349415Y-106210341D02*
X153149415Y-105753198D01*
X153149415Y-105753198D02*
X152349415Y-105753198D01*
X139529415Y-108381770D02*
X140329415Y-108115103D01*
X140329415Y-108115103D02*
X139529415Y-107848437D01*
X140329415Y-107124627D02*
X139948462Y-107391294D01*
X140329415Y-107581770D02*
X139529415Y-107581770D01*
X139529415Y-107581770D02*
X139529415Y-107277008D01*
X139529415Y-107277008D02*
X139567510Y-107200818D01*
X139567510Y-107200818D02*
X139605605Y-107162723D01*
X139605605Y-107162723D02*
X139681796Y-107124627D01*
X139681796Y-107124627D02*
X139796081Y-107124627D01*
X139796081Y-107124627D02*
X139872272Y-107162723D01*
X139872272Y-107162723D02*
X139910367Y-107200818D01*
X139910367Y-107200818D02*
X139948462Y-107277008D01*
X139948462Y-107277008D02*
X139948462Y-107581770D01*
X139910367Y-106781770D02*
X139910367Y-106515104D01*
X140329415Y-106400818D02*
X140329415Y-106781770D01*
X140329415Y-106781770D02*
X139529415Y-106781770D01*
X139529415Y-106781770D02*
X139529415Y-106400818D01*
X139910367Y-105791294D02*
X139910367Y-106057960D01*
X140329415Y-106057960D02*
X139529415Y-106057960D01*
X139529415Y-106057960D02*
X139529415Y-105677008D01*
X175374276Y-88771304D02*
X175850466Y-88771304D01*
X175279038Y-89057019D02*
X175612371Y-88057019D01*
X175612371Y-88057019D02*
X175945704Y-89057019D01*
X176707609Y-88390352D02*
X176707609Y-89057019D01*
X176279038Y-88390352D02*
X176279038Y-88914161D01*
X176279038Y-88914161D02*
X176326657Y-89009400D01*
X176326657Y-89009400D02*
X176421895Y-89057019D01*
X176421895Y-89057019D02*
X176564752Y-89057019D01*
X176564752Y-89057019D02*
X176659990Y-89009400D01*
X176659990Y-89009400D02*
X176707609Y-88961780D01*
X177088562Y-89057019D02*
X177612371Y-88390352D01*
X177088562Y-88390352D02*
X177612371Y-89057019D01*
X178755229Y-89057019D02*
X178755229Y-88057019D01*
X178755229Y-88057019D02*
X179136181Y-88057019D01*
X179136181Y-88057019D02*
X179231419Y-88104638D01*
X179231419Y-88104638D02*
X179279038Y-88152257D01*
X179279038Y-88152257D02*
X179326657Y-88247495D01*
X179326657Y-88247495D02*
X179326657Y-88390352D01*
X179326657Y-88390352D02*
X179279038Y-88485590D01*
X179279038Y-88485590D02*
X179231419Y-88533209D01*
X179231419Y-88533209D02*
X179136181Y-88580828D01*
X179136181Y-88580828D02*
X178755229Y-88580828D01*
X179898086Y-89057019D02*
X179802848Y-89009400D01*
X179802848Y-89009400D02*
X179755229Y-88961780D01*
X179755229Y-88961780D02*
X179707610Y-88866542D01*
X179707610Y-88866542D02*
X179707610Y-88580828D01*
X179707610Y-88580828D02*
X179755229Y-88485590D01*
X179755229Y-88485590D02*
X179802848Y-88437971D01*
X179802848Y-88437971D02*
X179898086Y-88390352D01*
X179898086Y-88390352D02*
X180040943Y-88390352D01*
X180040943Y-88390352D02*
X180136181Y-88437971D01*
X180136181Y-88437971D02*
X180183800Y-88485590D01*
X180183800Y-88485590D02*
X180231419Y-88580828D01*
X180231419Y-88580828D02*
X180231419Y-88866542D01*
X180231419Y-88866542D02*
X180183800Y-88961780D01*
X180183800Y-88961780D02*
X180136181Y-89009400D01*
X180136181Y-89009400D02*
X180040943Y-89057019D01*
X180040943Y-89057019D02*
X179898086Y-89057019D01*
X180564753Y-88390352D02*
X180755229Y-89057019D01*
X180755229Y-89057019D02*
X180945705Y-88580828D01*
X180945705Y-88580828D02*
X181136181Y-89057019D01*
X181136181Y-89057019D02*
X181326657Y-88390352D01*
X182088562Y-89009400D02*
X181993324Y-89057019D01*
X181993324Y-89057019D02*
X181802848Y-89057019D01*
X181802848Y-89057019D02*
X181707610Y-89009400D01*
X181707610Y-89009400D02*
X181659991Y-88914161D01*
X181659991Y-88914161D02*
X181659991Y-88533209D01*
X181659991Y-88533209D02*
X181707610Y-88437971D01*
X181707610Y-88437971D02*
X181802848Y-88390352D01*
X181802848Y-88390352D02*
X181993324Y-88390352D01*
X181993324Y-88390352D02*
X182088562Y-88437971D01*
X182088562Y-88437971D02*
X182136181Y-88533209D01*
X182136181Y-88533209D02*
X182136181Y-88628447D01*
X182136181Y-88628447D02*
X181659991Y-88723685D01*
X182564753Y-89057019D02*
X182564753Y-88390352D01*
X182564753Y-88580828D02*
X182612372Y-88485590D01*
X182612372Y-88485590D02*
X182659991Y-88437971D01*
X182659991Y-88437971D02*
X182755229Y-88390352D01*
X182755229Y-88390352D02*
X182850467Y-88390352D01*
X139684590Y-118173428D02*
X139646495Y-118249618D01*
X139646495Y-118249618D02*
X139646495Y-118363904D01*
X139646495Y-118363904D02*
X139684590Y-118478190D01*
X139684590Y-118478190D02*
X139760780Y-118554380D01*
X139760780Y-118554380D02*
X139836971Y-118592475D01*
X139836971Y-118592475D02*
X139989352Y-118630571D01*
X139989352Y-118630571D02*
X140103638Y-118630571D01*
X140103638Y-118630571D02*
X140256019Y-118592475D01*
X140256019Y-118592475D02*
X140332209Y-118554380D01*
X140332209Y-118554380D02*
X140408400Y-118478190D01*
X140408400Y-118478190D02*
X140446495Y-118363904D01*
X140446495Y-118363904D02*
X140446495Y-118287713D01*
X140446495Y-118287713D02*
X140408400Y-118173428D01*
X140408400Y-118173428D02*
X140370304Y-118135332D01*
X140370304Y-118135332D02*
X140103638Y-118135332D01*
X140103638Y-118135332D02*
X140103638Y-118287713D01*
X140446495Y-117792475D02*
X139646495Y-117792475D01*
X139646495Y-117792475D02*
X139646495Y-117487713D01*
X139646495Y-117487713D02*
X139684590Y-117411523D01*
X139684590Y-117411523D02*
X139722685Y-117373428D01*
X139722685Y-117373428D02*
X139798876Y-117335332D01*
X139798876Y-117335332D02*
X139913161Y-117335332D01*
X139913161Y-117335332D02*
X139989352Y-117373428D01*
X139989352Y-117373428D02*
X140027447Y-117411523D01*
X140027447Y-117411523D02*
X140065542Y-117487713D01*
X140065542Y-117487713D02*
X140065542Y-117792475D01*
X139913161Y-116649618D02*
X140446495Y-116649618D01*
X139608400Y-116840094D02*
X140179828Y-117030571D01*
X140179828Y-117030571D02*
X140179828Y-116535332D01*
G36*
X176727545Y-96067240D02*
G01*
X176804535Y-96105735D01*
X176878647Y-96179847D01*
X176916819Y-96294360D01*
X176916819Y-96445285D01*
X176066819Y-96445285D01*
X176066819Y-96294360D01*
X176104990Y-96179846D01*
X176179102Y-96105734D01*
X176256088Y-96067240D01*
X176429624Y-96023857D01*
X176554012Y-96023857D01*
X176727545Y-96067240D01*
G37*
G36*
X177482057Y-99173857D02*
G01*
X175371343Y-99173857D01*
X175371343Y-98285015D01*
X175913704Y-98285015D01*
X175920241Y-98304627D01*
X175926062Y-98324450D01*
X175927168Y-98325408D01*
X175967010Y-98444934D01*
X175970833Y-98462508D01*
X175981673Y-98473348D01*
X175990419Y-98485932D01*
X175996964Y-98488639D01*
X176074994Y-98566669D01*
X176081438Y-98577519D01*
X176099939Y-98586769D01*
X176118061Y-98596665D01*
X176119521Y-98596560D01*
X176184424Y-98629012D01*
X176190359Y-98635324D01*
X176203736Y-98638668D01*
X176206016Y-98639808D01*
X176214148Y-98641271D01*
X176390226Y-98685290D01*
X176398368Y-98690523D01*
X176411156Y-98690523D01*
X176412660Y-98690899D01*
X176421906Y-98690523D01*
X176550904Y-98690523D01*
X176560073Y-98693625D01*
X176572481Y-98690523D01*
X176574029Y-98690523D01*
X176582898Y-98687918D01*
X176758953Y-98643904D01*
X176767567Y-98644835D01*
X176779900Y-98638668D01*
X176782373Y-98638050D01*
X176789500Y-98633867D01*
X176874090Y-98591572D01*
X176886422Y-98588890D01*
X176901051Y-98574260D01*
X176916167Y-98560201D01*
X176916529Y-98558782D01*
X176994378Y-98480934D01*
X177008387Y-98469656D01*
X177013234Y-98455114D01*
X177020580Y-98441662D01*
X177020074Y-98434593D01*
X177059997Y-98314826D01*
X177066819Y-98304212D01*
X177066819Y-98283532D01*
X177067565Y-98262893D01*
X177066819Y-98261634D01*
X177066819Y-98196353D01*
X177069934Y-98184126D01*
X177063394Y-98164506D01*
X177057576Y-98144692D01*
X177056469Y-98143733D01*
X177016626Y-98024201D01*
X177012804Y-98006633D01*
X177001966Y-97995795D01*
X176993219Y-97983209D01*
X176986670Y-97980500D01*
X176959180Y-97953010D01*
X176955654Y-97945288D01*
X176943911Y-97937741D01*
X176941988Y-97935818D01*
X176934876Y-97931934D01*
X176918602Y-97921476D01*
X176915721Y-97921476D01*
X176913194Y-97920096D01*
X176893905Y-97921476D01*
X176568607Y-97921476D01*
X176552123Y-97919106D01*
X176536970Y-97926025D01*
X176520987Y-97930719D01*
X176517250Y-97935031D01*
X176512059Y-97937402D01*
X176503051Y-97951418D01*
X176492145Y-97964005D01*
X176491333Y-97969651D01*
X176488247Y-97974454D01*
X176488247Y-97991116D01*
X176485877Y-98007600D01*
X176488247Y-98012789D01*
X176488247Y-98197734D01*
X176497490Y-98229212D01*
X176530776Y-98258054D01*
X176574371Y-98264322D01*
X176614435Y-98246026D01*
X176638247Y-98208974D01*
X176638247Y-98071476D01*
X176865515Y-98071476D01*
X176878647Y-98084608D01*
X176916819Y-98199122D01*
X176916819Y-98270019D01*
X176878647Y-98384534D01*
X176804533Y-98458646D01*
X176727547Y-98497139D01*
X176554013Y-98540523D01*
X176429624Y-98540523D01*
X176256091Y-98497139D01*
X176179102Y-98458645D01*
X176104990Y-98384533D01*
X176066819Y-98270018D01*
X176066819Y-98157038D01*
X176111342Y-98067993D01*
X176117152Y-98035704D01*
X176100279Y-97995021D01*
X176064089Y-97969919D01*
X176020073Y-97968366D01*
X175982204Y-97990857D01*
X175926542Y-98102181D01*
X175916819Y-98117311D01*
X175916819Y-98132641D01*
X175914105Y-98147724D01*
X175916819Y-98154267D01*
X175916818Y-98272787D01*
X175913704Y-98285015D01*
X175371343Y-98285015D01*
X175371343Y-97574988D01*
X175913975Y-97574988D01*
X175914748Y-97576945D01*
X175914449Y-97579028D01*
X175922785Y-97597283D01*
X175930162Y-97615949D01*
X175931870Y-97617177D01*
X175932745Y-97619092D01*
X175949629Y-97629942D01*
X175965925Y-97641657D01*
X175968027Y-97641766D01*
X175969797Y-97642904D01*
X175989866Y-97642904D01*
X176009909Y-97643948D01*
X176011736Y-97642904D01*
X177002601Y-97642904D01*
X177034079Y-97633661D01*
X177062921Y-97600375D01*
X177069189Y-97556780D01*
X177050893Y-97516716D01*
X177013841Y-97492904D01*
X176274236Y-97492904D01*
X177021393Y-97065957D01*
X177034079Y-97062233D01*
X177047218Y-97047069D01*
X177061136Y-97032602D01*
X177061543Y-97030536D01*
X177062921Y-97028947D01*
X177065776Y-97009086D01*
X177069663Y-96989392D01*
X177068889Y-96987434D01*
X177069189Y-96985352D01*
X177060852Y-96967096D01*
X177053476Y-96948431D01*
X177051767Y-96947202D01*
X177050893Y-96945288D01*
X177034008Y-96934437D01*
X177017713Y-96922723D01*
X177015610Y-96922613D01*
X177013841Y-96921476D01*
X176993772Y-96921476D01*
X176973729Y-96920432D01*
X176971902Y-96921476D01*
X175981037Y-96921476D01*
X175949559Y-96930719D01*
X175920717Y-96964005D01*
X175914449Y-97007600D01*
X175932745Y-97047664D01*
X175969797Y-97071476D01*
X176709402Y-97071476D01*
X175962244Y-97498422D01*
X175949559Y-97502147D01*
X175936419Y-97517310D01*
X175922502Y-97531778D01*
X175922094Y-97533843D01*
X175920717Y-97535433D01*
X175917861Y-97555293D01*
X175913975Y-97574988D01*
X175371343Y-97574988D01*
X175371343Y-96531409D01*
X175914449Y-96531409D01*
X175921368Y-96546561D01*
X175926062Y-96562545D01*
X175930374Y-96566281D01*
X175932745Y-96571473D01*
X175946761Y-96580480D01*
X175959348Y-96591387D01*
X175964994Y-96592198D01*
X175969797Y-96595285D01*
X175986459Y-96595285D01*
X176002943Y-96597655D01*
X176008133Y-96595285D01*
X176986459Y-96595285D01*
X177002943Y-96597655D01*
X177018095Y-96590735D01*
X177034079Y-96586042D01*
X177037815Y-96581729D01*
X177043007Y-96579359D01*
X177052014Y-96565342D01*
X177062921Y-96552756D01*
X177063732Y-96547109D01*
X177066819Y-96542307D01*
X177066818Y-96525644D01*
X177069189Y-96509161D01*
X177066819Y-96503971D01*
X177066819Y-96291591D01*
X177069934Y-96279364D01*
X177063394Y-96259744D01*
X177057576Y-96239930D01*
X177056469Y-96238971D01*
X177016627Y-96119442D01*
X177012805Y-96101872D01*
X177001966Y-96091033D01*
X176993219Y-96078447D01*
X176986671Y-96075738D01*
X176908642Y-95997710D01*
X176902199Y-95986861D01*
X176883694Y-95977608D01*
X176865575Y-95967715D01*
X176864115Y-95967819D01*
X176799211Y-95935367D01*
X176793277Y-95929056D01*
X176779899Y-95925711D01*
X176777620Y-95924572D01*
X176769487Y-95923108D01*
X176593410Y-95879089D01*
X176585269Y-95873857D01*
X176572481Y-95873857D01*
X176570977Y-95873481D01*
X176561731Y-95873857D01*
X176432733Y-95873857D01*
X176423564Y-95870755D01*
X176411156Y-95873857D01*
X176409608Y-95873857D01*
X176400738Y-95876461D01*
X176224681Y-95920475D01*
X176216070Y-95919546D01*
X176203739Y-95925711D01*
X176201264Y-95926330D01*
X176194125Y-95930517D01*
X176109545Y-95972807D01*
X176097215Y-95975490D01*
X176082595Y-95990109D01*
X176067470Y-96004179D01*
X176067107Y-96005597D01*
X175989258Y-96083446D01*
X175975251Y-96094724D01*
X175970403Y-96109265D01*
X175963058Y-96122718D01*
X175963563Y-96129785D01*
X175923641Y-96249552D01*
X175916819Y-96260168D01*
X175916819Y-96280847D01*
X175916073Y-96301487D01*
X175916819Y-96302745D01*
X175916818Y-96514925D01*
X175914449Y-96531409D01*
X175371343Y-96531409D01*
X175371343Y-95215524D01*
X177482057Y-95215524D01*
X177482057Y-99173857D01*
G37*
X129514590Y-118173428D02*
X129476495Y-118249618D01*
X129476495Y-118249618D02*
X129476495Y-118363904D01*
X129476495Y-118363904D02*
X129514590Y-118478190D01*
X129514590Y-118478190D02*
X129590780Y-118554380D01*
X129590780Y-118554380D02*
X129666971Y-118592475D01*
X129666971Y-118592475D02*
X129819352Y-118630571D01*
X129819352Y-118630571D02*
X129933638Y-118630571D01*
X129933638Y-118630571D02*
X130086019Y-118592475D01*
X130086019Y-118592475D02*
X130162209Y-118554380D01*
X130162209Y-118554380D02*
X130238400Y-118478190D01*
X130238400Y-118478190D02*
X130276495Y-118363904D01*
X130276495Y-118363904D02*
X130276495Y-118287713D01*
X130276495Y-118287713D02*
X130238400Y-118173428D01*
X130238400Y-118173428D02*
X130200304Y-118135332D01*
X130200304Y-118135332D02*
X129933638Y-118135332D01*
X129933638Y-118135332D02*
X129933638Y-118287713D01*
X130276495Y-117792475D02*
X129476495Y-117792475D01*
X129476495Y-117792475D02*
X129476495Y-117487713D01*
X129476495Y-117487713D02*
X129514590Y-117411523D01*
X129514590Y-117411523D02*
X129552685Y-117373428D01*
X129552685Y-117373428D02*
X129628876Y-117335332D01*
X129628876Y-117335332D02*
X129743161Y-117335332D01*
X129743161Y-117335332D02*
X129819352Y-117373428D01*
X129819352Y-117373428D02*
X129857447Y-117411523D01*
X129857447Y-117411523D02*
X129895542Y-117487713D01*
X129895542Y-117487713D02*
X129895542Y-117792475D01*
X130276495Y-116573428D02*
X130276495Y-117030571D01*
X130276495Y-116801999D02*
X129476495Y-116801999D01*
X129476495Y-116801999D02*
X129590780Y-116878190D01*
X129590780Y-116878190D02*
X129666971Y-116954380D01*
X129666971Y-116954380D02*
X129705066Y-117030571D01*
X160004590Y-118935333D02*
X159966495Y-119011523D01*
X159966495Y-119011523D02*
X159966495Y-119125809D01*
X159966495Y-119125809D02*
X160004590Y-119240095D01*
X160004590Y-119240095D02*
X160080780Y-119316285D01*
X160080780Y-119316285D02*
X160156971Y-119354380D01*
X160156971Y-119354380D02*
X160309352Y-119392476D01*
X160309352Y-119392476D02*
X160423638Y-119392476D01*
X160423638Y-119392476D02*
X160576019Y-119354380D01*
X160576019Y-119354380D02*
X160652209Y-119316285D01*
X160652209Y-119316285D02*
X160728400Y-119240095D01*
X160728400Y-119240095D02*
X160766495Y-119125809D01*
X160766495Y-119125809D02*
X160766495Y-119049618D01*
X160766495Y-119049618D02*
X160728400Y-118935333D01*
X160728400Y-118935333D02*
X160690304Y-118897237D01*
X160690304Y-118897237D02*
X160423638Y-118897237D01*
X160423638Y-118897237D02*
X160423638Y-119049618D01*
X160766495Y-118554380D02*
X159966495Y-118554380D01*
X159966495Y-118554380D02*
X159966495Y-118249618D01*
X159966495Y-118249618D02*
X160004590Y-118173428D01*
X160004590Y-118173428D02*
X160042685Y-118135333D01*
X160042685Y-118135333D02*
X160118876Y-118097237D01*
X160118876Y-118097237D02*
X160233161Y-118097237D01*
X160233161Y-118097237D02*
X160309352Y-118135333D01*
X160309352Y-118135333D02*
X160347447Y-118173428D01*
X160347447Y-118173428D02*
X160385542Y-118249618D01*
X160385542Y-118249618D02*
X160385542Y-118554380D01*
X160766495Y-117335333D02*
X160766495Y-117792476D01*
X160766495Y-117563904D02*
X159966495Y-117563904D01*
X159966495Y-117563904D02*
X160080780Y-117640095D01*
X160080780Y-117640095D02*
X160156971Y-117716285D01*
X160156971Y-117716285D02*
X160195066Y-117792476D01*
X159966495Y-116840094D02*
X159966495Y-116763904D01*
X159966495Y-116763904D02*
X160004590Y-116687713D01*
X160004590Y-116687713D02*
X160042685Y-116649618D01*
X160042685Y-116649618D02*
X160118876Y-116611523D01*
X160118876Y-116611523D02*
X160271257Y-116573428D01*
X160271257Y-116573428D02*
X160461733Y-116573428D01*
X160461733Y-116573428D02*
X160614114Y-116611523D01*
X160614114Y-116611523D02*
X160690304Y-116649618D01*
X160690304Y-116649618D02*
X160728400Y-116687713D01*
X160728400Y-116687713D02*
X160766495Y-116763904D01*
X160766495Y-116763904D02*
X160766495Y-116840094D01*
X160766495Y-116840094D02*
X160728400Y-116916285D01*
X160728400Y-116916285D02*
X160690304Y-116954380D01*
X160690304Y-116954380D02*
X160614114Y-116992475D01*
X160614114Y-116992475D02*
X160461733Y-117030571D01*
X160461733Y-117030571D02*
X160271257Y-117030571D01*
X160271257Y-117030571D02*
X160118876Y-116992475D01*
X160118876Y-116992475D02*
X160042685Y-116954380D01*
X160042685Y-116954380D02*
X160004590Y-116916285D01*
X160004590Y-116916285D02*
X159966495Y-116840094D01*
X149814590Y-118173428D02*
X149776495Y-118249618D01*
X149776495Y-118249618D02*
X149776495Y-118363904D01*
X149776495Y-118363904D02*
X149814590Y-118478190D01*
X149814590Y-118478190D02*
X149890780Y-118554380D01*
X149890780Y-118554380D02*
X149966971Y-118592475D01*
X149966971Y-118592475D02*
X150119352Y-118630571D01*
X150119352Y-118630571D02*
X150233638Y-118630571D01*
X150233638Y-118630571D02*
X150386019Y-118592475D01*
X150386019Y-118592475D02*
X150462209Y-118554380D01*
X150462209Y-118554380D02*
X150538400Y-118478190D01*
X150538400Y-118478190D02*
X150576495Y-118363904D01*
X150576495Y-118363904D02*
X150576495Y-118287713D01*
X150576495Y-118287713D02*
X150538400Y-118173428D01*
X150538400Y-118173428D02*
X150500304Y-118135332D01*
X150500304Y-118135332D02*
X150233638Y-118135332D01*
X150233638Y-118135332D02*
X150233638Y-118287713D01*
X150576495Y-117792475D02*
X149776495Y-117792475D01*
X149776495Y-117792475D02*
X149776495Y-117487713D01*
X149776495Y-117487713D02*
X149814590Y-117411523D01*
X149814590Y-117411523D02*
X149852685Y-117373428D01*
X149852685Y-117373428D02*
X149928876Y-117335332D01*
X149928876Y-117335332D02*
X150043161Y-117335332D01*
X150043161Y-117335332D02*
X150119352Y-117373428D01*
X150119352Y-117373428D02*
X150157447Y-117411523D01*
X150157447Y-117411523D02*
X150195542Y-117487713D01*
X150195542Y-117487713D02*
X150195542Y-117792475D01*
X149776495Y-117068666D02*
X149776495Y-116535332D01*
X149776495Y-116535332D02*
X150576495Y-116878190D01*
X172704590Y-118935333D02*
X172666495Y-119011523D01*
X172666495Y-119011523D02*
X172666495Y-119125809D01*
X172666495Y-119125809D02*
X172704590Y-119240095D01*
X172704590Y-119240095D02*
X172780780Y-119316285D01*
X172780780Y-119316285D02*
X172856971Y-119354380D01*
X172856971Y-119354380D02*
X173009352Y-119392476D01*
X173009352Y-119392476D02*
X173123638Y-119392476D01*
X173123638Y-119392476D02*
X173276019Y-119354380D01*
X173276019Y-119354380D02*
X173352209Y-119316285D01*
X173352209Y-119316285D02*
X173428400Y-119240095D01*
X173428400Y-119240095D02*
X173466495Y-119125809D01*
X173466495Y-119125809D02*
X173466495Y-119049618D01*
X173466495Y-119049618D02*
X173428400Y-118935333D01*
X173428400Y-118935333D02*
X173390304Y-118897237D01*
X173390304Y-118897237D02*
X173123638Y-118897237D01*
X173123638Y-118897237D02*
X173123638Y-119049618D01*
X173466495Y-118554380D02*
X172666495Y-118554380D01*
X172666495Y-118554380D02*
X172666495Y-118249618D01*
X172666495Y-118249618D02*
X172704590Y-118173428D01*
X172704590Y-118173428D02*
X172742685Y-118135333D01*
X172742685Y-118135333D02*
X172818876Y-118097237D01*
X172818876Y-118097237D02*
X172933161Y-118097237D01*
X172933161Y-118097237D02*
X173009352Y-118135333D01*
X173009352Y-118135333D02*
X173047447Y-118173428D01*
X173047447Y-118173428D02*
X173085542Y-118249618D01*
X173085542Y-118249618D02*
X173085542Y-118554380D01*
X173466495Y-117335333D02*
X173466495Y-117792476D01*
X173466495Y-117563904D02*
X172666495Y-117563904D01*
X172666495Y-117563904D02*
X172780780Y-117640095D01*
X172780780Y-117640095D02*
X172856971Y-117716285D01*
X172856971Y-117716285D02*
X172895066Y-117792476D01*
X172933161Y-116649618D02*
X173466495Y-116649618D01*
X172628400Y-116840094D02*
X173199828Y-117030571D01*
X173199828Y-117030571D02*
X173199828Y-116535332D01*
X149844110Y-110134152D02*
X149806015Y-110210342D01*
X149806015Y-110210342D02*
X149806015Y-110324628D01*
X149806015Y-110324628D02*
X149844110Y-110438914D01*
X149844110Y-110438914D02*
X149920300Y-110515104D01*
X149920300Y-110515104D02*
X149996491Y-110553199D01*
X149996491Y-110553199D02*
X150148872Y-110591295D01*
X150148872Y-110591295D02*
X150263158Y-110591295D01*
X150263158Y-110591295D02*
X150415539Y-110553199D01*
X150415539Y-110553199D02*
X150491729Y-110515104D01*
X150491729Y-110515104D02*
X150567920Y-110438914D01*
X150567920Y-110438914D02*
X150606015Y-110324628D01*
X150606015Y-110324628D02*
X150606015Y-110248437D01*
X150606015Y-110248437D02*
X150567920Y-110134152D01*
X150567920Y-110134152D02*
X150529824Y-110096056D01*
X150529824Y-110096056D02*
X150263158Y-110096056D01*
X150263158Y-110096056D02*
X150263158Y-110248437D01*
X150606015Y-109753199D02*
X149806015Y-109753199D01*
X149806015Y-109753199D02*
X149806015Y-109448437D01*
X149806015Y-109448437D02*
X149844110Y-109372247D01*
X149844110Y-109372247D02*
X149882205Y-109334152D01*
X149882205Y-109334152D02*
X149958396Y-109296056D01*
X149958396Y-109296056D02*
X150072681Y-109296056D01*
X150072681Y-109296056D02*
X150148872Y-109334152D01*
X150148872Y-109334152D02*
X150186967Y-109372247D01*
X150186967Y-109372247D02*
X150225062Y-109448437D01*
X150225062Y-109448437D02*
X150225062Y-109753199D01*
X149882205Y-108991295D02*
X149844110Y-108953199D01*
X149844110Y-108953199D02*
X149806015Y-108877009D01*
X149806015Y-108877009D02*
X149806015Y-108686533D01*
X149806015Y-108686533D02*
X149844110Y-108610342D01*
X149844110Y-108610342D02*
X149882205Y-108572247D01*
X149882205Y-108572247D02*
X149958396Y-108534152D01*
X149958396Y-108534152D02*
X150034586Y-108534152D01*
X150034586Y-108534152D02*
X150148872Y-108572247D01*
X150148872Y-108572247D02*
X150606015Y-109029390D01*
X150606015Y-109029390D02*
X150606015Y-108534152D01*
X149806015Y-107848437D02*
X149806015Y-108000818D01*
X149806015Y-108000818D02*
X149844110Y-108077009D01*
X149844110Y-108077009D02*
X149882205Y-108115104D01*
X149882205Y-108115104D02*
X149996491Y-108191294D01*
X149996491Y-108191294D02*
X150148872Y-108229390D01*
X150148872Y-108229390D02*
X150453634Y-108229390D01*
X150453634Y-108229390D02*
X150529824Y-108191294D01*
X150529824Y-108191294D02*
X150567920Y-108153199D01*
X150567920Y-108153199D02*
X150606015Y-108077009D01*
X150606015Y-108077009D02*
X150606015Y-107924628D01*
X150606015Y-107924628D02*
X150567920Y-107848437D01*
X150567920Y-107848437D02*
X150529824Y-107810342D01*
X150529824Y-107810342D02*
X150453634Y-107772247D01*
X150453634Y-107772247D02*
X150263158Y-107772247D01*
X150263158Y-107772247D02*
X150186967Y-107810342D01*
X150186967Y-107810342D02*
X150148872Y-107848437D01*
X150148872Y-107848437D02*
X150110777Y-107924628D01*
X150110777Y-107924628D02*
X150110777Y-108077009D01*
X150110777Y-108077009D02*
X150148872Y-108153199D01*
X150148872Y-108153199D02*
X150186967Y-108191294D01*
X150186967Y-108191294D02*
X150263158Y-108229390D01*
X150682205Y-107619866D02*
X150682205Y-107010342D01*
X150377443Y-106857961D02*
X150377443Y-106477008D01*
X150606015Y-106934151D02*
X149806015Y-106667484D01*
X149806015Y-106667484D02*
X150606015Y-106400818D01*
X149806015Y-105981770D02*
X149806015Y-105905580D01*
X149806015Y-105905580D02*
X149844110Y-105829389D01*
X149844110Y-105829389D02*
X149882205Y-105791294D01*
X149882205Y-105791294D02*
X149958396Y-105753199D01*
X149958396Y-105753199D02*
X150110777Y-105715104D01*
X150110777Y-105715104D02*
X150301253Y-105715104D01*
X150301253Y-105715104D02*
X150453634Y-105753199D01*
X150453634Y-105753199D02*
X150529824Y-105791294D01*
X150529824Y-105791294D02*
X150567920Y-105829389D01*
X150567920Y-105829389D02*
X150606015Y-105905580D01*
X150606015Y-105905580D02*
X150606015Y-105981770D01*
X150606015Y-105981770D02*
X150567920Y-106057961D01*
X150567920Y-106057961D02*
X150529824Y-106096056D01*
X150529824Y-106096056D02*
X150453634Y-106134151D01*
X150453634Y-106134151D02*
X150301253Y-106172247D01*
X150301253Y-106172247D02*
X150110777Y-106172247D01*
X150110777Y-106172247D02*
X149958396Y-106134151D01*
X149958396Y-106134151D02*
X149882205Y-106096056D01*
X149882205Y-106096056D02*
X149844110Y-106057961D01*
X149844110Y-106057961D02*
X149806015Y-105981770D01*
X126984590Y-118173428D02*
X126946495Y-118249618D01*
X126946495Y-118249618D02*
X126946495Y-118363904D01*
X126946495Y-118363904D02*
X126984590Y-118478190D01*
X126984590Y-118478190D02*
X127060780Y-118554380D01*
X127060780Y-118554380D02*
X127136971Y-118592475D01*
X127136971Y-118592475D02*
X127289352Y-118630571D01*
X127289352Y-118630571D02*
X127403638Y-118630571D01*
X127403638Y-118630571D02*
X127556019Y-118592475D01*
X127556019Y-118592475D02*
X127632209Y-118554380D01*
X127632209Y-118554380D02*
X127708400Y-118478190D01*
X127708400Y-118478190D02*
X127746495Y-118363904D01*
X127746495Y-118363904D02*
X127746495Y-118287713D01*
X127746495Y-118287713D02*
X127708400Y-118173428D01*
X127708400Y-118173428D02*
X127670304Y-118135332D01*
X127670304Y-118135332D02*
X127403638Y-118135332D01*
X127403638Y-118135332D02*
X127403638Y-118287713D01*
X127746495Y-117792475D02*
X126946495Y-117792475D01*
X126946495Y-117792475D02*
X126946495Y-117487713D01*
X126946495Y-117487713D02*
X126984590Y-117411523D01*
X126984590Y-117411523D02*
X127022685Y-117373428D01*
X127022685Y-117373428D02*
X127098876Y-117335332D01*
X127098876Y-117335332D02*
X127213161Y-117335332D01*
X127213161Y-117335332D02*
X127289352Y-117373428D01*
X127289352Y-117373428D02*
X127327447Y-117411523D01*
X127327447Y-117411523D02*
X127365542Y-117487713D01*
X127365542Y-117487713D02*
X127365542Y-117792475D01*
X126946495Y-116840094D02*
X126946495Y-116763904D01*
X126946495Y-116763904D02*
X126984590Y-116687713D01*
X126984590Y-116687713D02*
X127022685Y-116649618D01*
X127022685Y-116649618D02*
X127098876Y-116611523D01*
X127098876Y-116611523D02*
X127251257Y-116573428D01*
X127251257Y-116573428D02*
X127441733Y-116573428D01*
X127441733Y-116573428D02*
X127594114Y-116611523D01*
X127594114Y-116611523D02*
X127670304Y-116649618D01*
X127670304Y-116649618D02*
X127708400Y-116687713D01*
X127708400Y-116687713D02*
X127746495Y-116763904D01*
X127746495Y-116763904D02*
X127746495Y-116840094D01*
X127746495Y-116840094D02*
X127708400Y-116916285D01*
X127708400Y-116916285D02*
X127670304Y-116954380D01*
X127670304Y-116954380D02*
X127594114Y-116992475D01*
X127594114Y-116992475D02*
X127441733Y-117030571D01*
X127441733Y-117030571D02*
X127251257Y-117030571D01*
X127251257Y-117030571D02*
X127098876Y-116992475D01*
X127098876Y-116992475D02*
X127022685Y-116954380D01*
X127022685Y-116954380D02*
X126984590Y-116916285D01*
X126984590Y-116916285D02*
X126946495Y-116840094D01*
X135001047Y-106934151D02*
X135001047Y-106667485D01*
X135420095Y-106553199D02*
X135420095Y-106934151D01*
X135420095Y-106934151D02*
X134620095Y-106934151D01*
X134620095Y-106934151D02*
X134620095Y-106553199D01*
X135420095Y-106210341D02*
X134620095Y-106210341D01*
X134620095Y-106210341D02*
X135420095Y-105753198D01*
X135420095Y-105753198D02*
X134620095Y-105753198D01*
X142224590Y-118173428D02*
X142186495Y-118249618D01*
X142186495Y-118249618D02*
X142186495Y-118363904D01*
X142186495Y-118363904D02*
X142224590Y-118478190D01*
X142224590Y-118478190D02*
X142300780Y-118554380D01*
X142300780Y-118554380D02*
X142376971Y-118592475D01*
X142376971Y-118592475D02*
X142529352Y-118630571D01*
X142529352Y-118630571D02*
X142643638Y-118630571D01*
X142643638Y-118630571D02*
X142796019Y-118592475D01*
X142796019Y-118592475D02*
X142872209Y-118554380D01*
X142872209Y-118554380D02*
X142948400Y-118478190D01*
X142948400Y-118478190D02*
X142986495Y-118363904D01*
X142986495Y-118363904D02*
X142986495Y-118287713D01*
X142986495Y-118287713D02*
X142948400Y-118173428D01*
X142948400Y-118173428D02*
X142910304Y-118135332D01*
X142910304Y-118135332D02*
X142643638Y-118135332D01*
X142643638Y-118135332D02*
X142643638Y-118287713D01*
X142986495Y-117792475D02*
X142186495Y-117792475D01*
X142186495Y-117792475D02*
X142186495Y-117487713D01*
X142186495Y-117487713D02*
X142224590Y-117411523D01*
X142224590Y-117411523D02*
X142262685Y-117373428D01*
X142262685Y-117373428D02*
X142338876Y-117335332D01*
X142338876Y-117335332D02*
X142453161Y-117335332D01*
X142453161Y-117335332D02*
X142529352Y-117373428D01*
X142529352Y-117373428D02*
X142567447Y-117411523D01*
X142567447Y-117411523D02*
X142605542Y-117487713D01*
X142605542Y-117487713D02*
X142605542Y-117792475D01*
X142186495Y-116611523D02*
X142186495Y-116992475D01*
X142186495Y-116992475D02*
X142567447Y-117030571D01*
X142567447Y-117030571D02*
X142529352Y-116992475D01*
X142529352Y-116992475D02*
X142491257Y-116916285D01*
X142491257Y-116916285D02*
X142491257Y-116725809D01*
X142491257Y-116725809D02*
X142529352Y-116649618D01*
X142529352Y-116649618D02*
X142567447Y-116611523D01*
X142567447Y-116611523D02*
X142643638Y-116573428D01*
X142643638Y-116573428D02*
X142834114Y-116573428D01*
X142834114Y-116573428D02*
X142910304Y-116611523D01*
X142910304Y-116611523D02*
X142948400Y-116649618D01*
X142948400Y-116649618D02*
X142986495Y-116725809D01*
X142986495Y-116725809D02*
X142986495Y-116916285D01*
X142986495Y-116916285D02*
X142948400Y-116992475D01*
X142948400Y-116992475D02*
X142910304Y-117030571D01*
X167624590Y-118935333D02*
X167586495Y-119011523D01*
X167586495Y-119011523D02*
X167586495Y-119125809D01*
X167586495Y-119125809D02*
X167624590Y-119240095D01*
X167624590Y-119240095D02*
X167700780Y-119316285D01*
X167700780Y-119316285D02*
X167776971Y-119354380D01*
X167776971Y-119354380D02*
X167929352Y-119392476D01*
X167929352Y-119392476D02*
X168043638Y-119392476D01*
X168043638Y-119392476D02*
X168196019Y-119354380D01*
X168196019Y-119354380D02*
X168272209Y-119316285D01*
X168272209Y-119316285D02*
X168348400Y-119240095D01*
X168348400Y-119240095D02*
X168386495Y-119125809D01*
X168386495Y-119125809D02*
X168386495Y-119049618D01*
X168386495Y-119049618D02*
X168348400Y-118935333D01*
X168348400Y-118935333D02*
X168310304Y-118897237D01*
X168310304Y-118897237D02*
X168043638Y-118897237D01*
X168043638Y-118897237D02*
X168043638Y-119049618D01*
X168386495Y-118554380D02*
X167586495Y-118554380D01*
X167586495Y-118554380D02*
X167586495Y-118249618D01*
X167586495Y-118249618D02*
X167624590Y-118173428D01*
X167624590Y-118173428D02*
X167662685Y-118135333D01*
X167662685Y-118135333D02*
X167738876Y-118097237D01*
X167738876Y-118097237D02*
X167853161Y-118097237D01*
X167853161Y-118097237D02*
X167929352Y-118135333D01*
X167929352Y-118135333D02*
X167967447Y-118173428D01*
X167967447Y-118173428D02*
X168005542Y-118249618D01*
X168005542Y-118249618D02*
X168005542Y-118554380D01*
X168386495Y-117335333D02*
X168386495Y-117792476D01*
X168386495Y-117563904D02*
X167586495Y-117563904D01*
X167586495Y-117563904D02*
X167700780Y-117640095D01*
X167700780Y-117640095D02*
X167776971Y-117716285D01*
X167776971Y-117716285D02*
X167815066Y-117792476D01*
X167586495Y-117068666D02*
X167586495Y-116573428D01*
X167586495Y-116573428D02*
X167891257Y-116840094D01*
X167891257Y-116840094D02*
X167891257Y-116725809D01*
X167891257Y-116725809D02*
X167929352Y-116649618D01*
X167929352Y-116649618D02*
X167967447Y-116611523D01*
X167967447Y-116611523D02*
X168043638Y-116573428D01*
X168043638Y-116573428D02*
X168234114Y-116573428D01*
X168234114Y-116573428D02*
X168310304Y-116611523D01*
X168310304Y-116611523D02*
X168348400Y-116649618D01*
X168348400Y-116649618D02*
X168386495Y-116725809D01*
X168386495Y-116725809D02*
X168386495Y-116954380D01*
X168386495Y-116954380D02*
X168348400Y-117030571D01*
X168348400Y-117030571D02*
X168310304Y-117068666D01*
X181427419Y-96599943D02*
X181427419Y-97076133D01*
X181427419Y-97076133D02*
X181903609Y-97123752D01*
X181903609Y-97123752D02*
X181855990Y-97076133D01*
X181855990Y-97076133D02*
X181808371Y-96980895D01*
X181808371Y-96980895D02*
X181808371Y-96742800D01*
X181808371Y-96742800D02*
X181855990Y-96647562D01*
X181855990Y-96647562D02*
X181903609Y-96599943D01*
X181903609Y-96599943D02*
X181998847Y-96552324D01*
X181998847Y-96552324D02*
X182236942Y-96552324D01*
X182236942Y-96552324D02*
X182332180Y-96599943D01*
X182332180Y-96599943D02*
X182379800Y-96647562D01*
X182379800Y-96647562D02*
X182427419Y-96742800D01*
X182427419Y-96742800D02*
X182427419Y-96980895D01*
X182427419Y-96980895D02*
X182379800Y-97076133D01*
X182379800Y-97076133D02*
X182332180Y-97123752D01*
X181427419Y-96266609D02*
X182427419Y-95933276D01*
X182427419Y-95933276D02*
X181427419Y-95599943D01*
X126949415Y-108572246D02*
X127749415Y-108305579D01*
X127749415Y-108305579D02*
X126949415Y-108038913D01*
X127330367Y-107505580D02*
X127368462Y-107391294D01*
X127368462Y-107391294D02*
X127406558Y-107353199D01*
X127406558Y-107353199D02*
X127482748Y-107315103D01*
X127482748Y-107315103D02*
X127597034Y-107315103D01*
X127597034Y-107315103D02*
X127673224Y-107353199D01*
X127673224Y-107353199D02*
X127711320Y-107391294D01*
X127711320Y-107391294D02*
X127749415Y-107467484D01*
X127749415Y-107467484D02*
X127749415Y-107772246D01*
X127749415Y-107772246D02*
X126949415Y-107772246D01*
X126949415Y-107772246D02*
X126949415Y-107505580D01*
X126949415Y-107505580D02*
X126987510Y-107429389D01*
X126987510Y-107429389D02*
X127025605Y-107391294D01*
X127025605Y-107391294D02*
X127101796Y-107353199D01*
X127101796Y-107353199D02*
X127177986Y-107353199D01*
X127177986Y-107353199D02*
X127254177Y-107391294D01*
X127254177Y-107391294D02*
X127292272Y-107429389D01*
X127292272Y-107429389D02*
X127330367Y-107505580D01*
X127330367Y-107505580D02*
X127330367Y-107772246D01*
X126949415Y-106972246D02*
X127597034Y-106972246D01*
X127597034Y-106972246D02*
X127673224Y-106934151D01*
X127673224Y-106934151D02*
X127711320Y-106896056D01*
X127711320Y-106896056D02*
X127749415Y-106819865D01*
X127749415Y-106819865D02*
X127749415Y-106667484D01*
X127749415Y-106667484D02*
X127711320Y-106591294D01*
X127711320Y-106591294D02*
X127673224Y-106553199D01*
X127673224Y-106553199D02*
X127597034Y-106515103D01*
X127597034Y-106515103D02*
X126949415Y-106515103D01*
X127711320Y-106172247D02*
X127749415Y-106057961D01*
X127749415Y-106057961D02*
X127749415Y-105867485D01*
X127749415Y-105867485D02*
X127711320Y-105791294D01*
X127711320Y-105791294D02*
X127673224Y-105753199D01*
X127673224Y-105753199D02*
X127597034Y-105715104D01*
X127597034Y-105715104D02*
X127520843Y-105715104D01*
X127520843Y-105715104D02*
X127444653Y-105753199D01*
X127444653Y-105753199D02*
X127406558Y-105791294D01*
X127406558Y-105791294D02*
X127368462Y-105867485D01*
X127368462Y-105867485D02*
X127330367Y-106019866D01*
X127330367Y-106019866D02*
X127292272Y-106096056D01*
X127292272Y-106096056D02*
X127254177Y-106134151D01*
X127254177Y-106134151D02*
X127177986Y-106172247D01*
X127177986Y-106172247D02*
X127101796Y-106172247D01*
X127101796Y-106172247D02*
X127025605Y-106134151D01*
X127025605Y-106134151D02*
X126987510Y-106096056D01*
X126987510Y-106096056D02*
X126949415Y-106019866D01*
X126949415Y-106019866D02*
X126949415Y-105829389D01*
X126949415Y-105829389D02*
X126987510Y-105715104D01*
X147304590Y-118173428D02*
X147266495Y-118249618D01*
X147266495Y-118249618D02*
X147266495Y-118363904D01*
X147266495Y-118363904D02*
X147304590Y-118478190D01*
X147304590Y-118478190D02*
X147380780Y-118554380D01*
X147380780Y-118554380D02*
X147456971Y-118592475D01*
X147456971Y-118592475D02*
X147609352Y-118630571D01*
X147609352Y-118630571D02*
X147723638Y-118630571D01*
X147723638Y-118630571D02*
X147876019Y-118592475D01*
X147876019Y-118592475D02*
X147952209Y-118554380D01*
X147952209Y-118554380D02*
X148028400Y-118478190D01*
X148028400Y-118478190D02*
X148066495Y-118363904D01*
X148066495Y-118363904D02*
X148066495Y-118287713D01*
X148066495Y-118287713D02*
X148028400Y-118173428D01*
X148028400Y-118173428D02*
X147990304Y-118135332D01*
X147990304Y-118135332D02*
X147723638Y-118135332D01*
X147723638Y-118135332D02*
X147723638Y-118287713D01*
X148066495Y-117792475D02*
X147266495Y-117792475D01*
X147266495Y-117792475D02*
X147266495Y-117487713D01*
X147266495Y-117487713D02*
X147304590Y-117411523D01*
X147304590Y-117411523D02*
X147342685Y-117373428D01*
X147342685Y-117373428D02*
X147418876Y-117335332D01*
X147418876Y-117335332D02*
X147533161Y-117335332D01*
X147533161Y-117335332D02*
X147609352Y-117373428D01*
X147609352Y-117373428D02*
X147647447Y-117411523D01*
X147647447Y-117411523D02*
X147685542Y-117487713D01*
X147685542Y-117487713D02*
X147685542Y-117792475D01*
X147266495Y-116649618D02*
X147266495Y-116801999D01*
X147266495Y-116801999D02*
X147304590Y-116878190D01*
X147304590Y-116878190D02*
X147342685Y-116916285D01*
X147342685Y-116916285D02*
X147456971Y-116992475D01*
X147456971Y-116992475D02*
X147609352Y-117030571D01*
X147609352Y-117030571D02*
X147914114Y-117030571D01*
X147914114Y-117030571D02*
X147990304Y-116992475D01*
X147990304Y-116992475D02*
X148028400Y-116954380D01*
X148028400Y-116954380D02*
X148066495Y-116878190D01*
X148066495Y-116878190D02*
X148066495Y-116725809D01*
X148066495Y-116725809D02*
X148028400Y-116649618D01*
X148028400Y-116649618D02*
X147990304Y-116611523D01*
X147990304Y-116611523D02*
X147914114Y-116573428D01*
X147914114Y-116573428D02*
X147723638Y-116573428D01*
X147723638Y-116573428D02*
X147647447Y-116611523D01*
X147647447Y-116611523D02*
X147609352Y-116649618D01*
X147609352Y-116649618D02*
X147571257Y-116725809D01*
X147571257Y-116725809D02*
X147571257Y-116878190D01*
X147571257Y-116878190D02*
X147609352Y-116954380D01*
X147609352Y-116954380D02*
X147647447Y-116992475D01*
X147647447Y-116992475D02*
X147723638Y-117030571D01*
X165033310Y-108077009D02*
X164995215Y-108153199D01*
X164995215Y-108153199D02*
X164995215Y-108267485D01*
X164995215Y-108267485D02*
X165033310Y-108381771D01*
X165033310Y-108381771D02*
X165109500Y-108457961D01*
X165109500Y-108457961D02*
X165185691Y-108496056D01*
X165185691Y-108496056D02*
X165338072Y-108534152D01*
X165338072Y-108534152D02*
X165452358Y-108534152D01*
X165452358Y-108534152D02*
X165604739Y-108496056D01*
X165604739Y-108496056D02*
X165680929Y-108457961D01*
X165680929Y-108457961D02*
X165757120Y-108381771D01*
X165757120Y-108381771D02*
X165795215Y-108267485D01*
X165795215Y-108267485D02*
X165795215Y-108191294D01*
X165795215Y-108191294D02*
X165757120Y-108077009D01*
X165757120Y-108077009D02*
X165719024Y-108038913D01*
X165719024Y-108038913D02*
X165452358Y-108038913D01*
X165452358Y-108038913D02*
X165452358Y-108191294D01*
X165795215Y-107696056D02*
X164995215Y-107696056D01*
X164995215Y-107696056D02*
X164995215Y-107391294D01*
X164995215Y-107391294D02*
X165033310Y-107315104D01*
X165033310Y-107315104D02*
X165071405Y-107277009D01*
X165071405Y-107277009D02*
X165147596Y-107238913D01*
X165147596Y-107238913D02*
X165261881Y-107238913D01*
X165261881Y-107238913D02*
X165338072Y-107277009D01*
X165338072Y-107277009D02*
X165376167Y-107315104D01*
X165376167Y-107315104D02*
X165414262Y-107391294D01*
X165414262Y-107391294D02*
X165414262Y-107696056D01*
X165795215Y-106477009D02*
X165795215Y-106934152D01*
X165795215Y-106705580D02*
X164995215Y-106705580D01*
X164995215Y-106705580D02*
X165109500Y-106781771D01*
X165109500Y-106781771D02*
X165185691Y-106857961D01*
X165185691Y-106857961D02*
X165223786Y-106934152D01*
X165795215Y-106096056D02*
X165795215Y-105943675D01*
X165795215Y-105943675D02*
X165757120Y-105867485D01*
X165757120Y-105867485D02*
X165719024Y-105829389D01*
X165719024Y-105829389D02*
X165604739Y-105753199D01*
X165604739Y-105753199D02*
X165452358Y-105715104D01*
X165452358Y-105715104D02*
X165147596Y-105715104D01*
X165147596Y-105715104D02*
X165071405Y-105753199D01*
X165071405Y-105753199D02*
X165033310Y-105791294D01*
X165033310Y-105791294D02*
X164995215Y-105867485D01*
X164995215Y-105867485D02*
X164995215Y-106019866D01*
X164995215Y-106019866D02*
X165033310Y-106096056D01*
X165033310Y-106096056D02*
X165071405Y-106134151D01*
X165071405Y-106134151D02*
X165147596Y-106172247D01*
X165147596Y-106172247D02*
X165338072Y-106172247D01*
X165338072Y-106172247D02*
X165414262Y-106134151D01*
X165414262Y-106134151D02*
X165452358Y-106096056D01*
X165452358Y-106096056D02*
X165490453Y-106019866D01*
X165490453Y-106019866D02*
X165490453Y-105867485D01*
X165490453Y-105867485D02*
X165452358Y-105791294D01*
X165452358Y-105791294D02*
X165414262Y-105753199D01*
X165414262Y-105753199D02*
X165338072Y-105715104D01*
X175247510Y-108077009D02*
X175209415Y-108153199D01*
X175209415Y-108153199D02*
X175209415Y-108267485D01*
X175209415Y-108267485D02*
X175247510Y-108381771D01*
X175247510Y-108381771D02*
X175323700Y-108457961D01*
X175323700Y-108457961D02*
X175399891Y-108496056D01*
X175399891Y-108496056D02*
X175552272Y-108534152D01*
X175552272Y-108534152D02*
X175666558Y-108534152D01*
X175666558Y-108534152D02*
X175818939Y-108496056D01*
X175818939Y-108496056D02*
X175895129Y-108457961D01*
X175895129Y-108457961D02*
X175971320Y-108381771D01*
X175971320Y-108381771D02*
X176009415Y-108267485D01*
X176009415Y-108267485D02*
X176009415Y-108191294D01*
X176009415Y-108191294D02*
X175971320Y-108077009D01*
X175971320Y-108077009D02*
X175933224Y-108038913D01*
X175933224Y-108038913D02*
X175666558Y-108038913D01*
X175666558Y-108038913D02*
X175666558Y-108191294D01*
X176009415Y-107696056D02*
X175209415Y-107696056D01*
X175209415Y-107696056D02*
X175209415Y-107391294D01*
X175209415Y-107391294D02*
X175247510Y-107315104D01*
X175247510Y-107315104D02*
X175285605Y-107277009D01*
X175285605Y-107277009D02*
X175361796Y-107238913D01*
X175361796Y-107238913D02*
X175476081Y-107238913D01*
X175476081Y-107238913D02*
X175552272Y-107277009D01*
X175552272Y-107277009D02*
X175590367Y-107315104D01*
X175590367Y-107315104D02*
X175628462Y-107391294D01*
X175628462Y-107391294D02*
X175628462Y-107696056D01*
X176009415Y-106477009D02*
X176009415Y-106934152D01*
X176009415Y-106705580D02*
X175209415Y-106705580D01*
X175209415Y-106705580D02*
X175323700Y-106781771D01*
X175323700Y-106781771D02*
X175399891Y-106857961D01*
X175399891Y-106857961D02*
X175437986Y-106934152D01*
X175209415Y-105791294D02*
X175209415Y-105943675D01*
X175209415Y-105943675D02*
X175247510Y-106019866D01*
X175247510Y-106019866D02*
X175285605Y-106057961D01*
X175285605Y-106057961D02*
X175399891Y-106134151D01*
X175399891Y-106134151D02*
X175552272Y-106172247D01*
X175552272Y-106172247D02*
X175857034Y-106172247D01*
X175857034Y-106172247D02*
X175933224Y-106134151D01*
X175933224Y-106134151D02*
X175971320Y-106096056D01*
X175971320Y-106096056D02*
X176009415Y-106019866D01*
X176009415Y-106019866D02*
X176009415Y-105867485D01*
X176009415Y-105867485D02*
X175971320Y-105791294D01*
X175971320Y-105791294D02*
X175933224Y-105753199D01*
X175933224Y-105753199D02*
X175857034Y-105715104D01*
X175857034Y-105715104D02*
X175666558Y-105715104D01*
X175666558Y-105715104D02*
X175590367Y-105753199D01*
X175590367Y-105753199D02*
X175552272Y-105791294D01*
X175552272Y-105791294D02*
X175514177Y-105867485D01*
X175514177Y-105867485D02*
X175514177Y-106019866D01*
X175514177Y-106019866D02*
X175552272Y-106096056D01*
X175552272Y-106096056D02*
X175590367Y-106134151D01*
X175590367Y-106134151D02*
X175666558Y-106172247D01*
G36*
X157958560Y-106230191D02*
G01*
X158016501Y-106259161D01*
X158071567Y-106314227D01*
X158100215Y-106400170D01*
X158100215Y-106503475D01*
X157450215Y-106503475D01*
X157450215Y-106400169D01*
X157478862Y-106314226D01*
X157533926Y-106259162D01*
X157591865Y-106230192D01*
X157727307Y-106196332D01*
X157823126Y-106196332D01*
X157958560Y-106230191D01*
G37*
G36*
X158731906Y-108853833D02*
G01*
X156878334Y-108853833D01*
X156878334Y-107990824D01*
X157297100Y-107990824D01*
X157303638Y-108010438D01*
X157309458Y-108030259D01*
X157310564Y-108031217D01*
X157340882Y-108122174D01*
X157344705Y-108139746D01*
X157355544Y-108150585D01*
X157364291Y-108163170D01*
X157370837Y-108165878D01*
X157429817Y-108224858D01*
X157436262Y-108235709D01*
X157454760Y-108244957D01*
X157472885Y-108254855D01*
X157474345Y-108254750D01*
X157520202Y-108277678D01*
X157526136Y-108283989D01*
X157539512Y-108287333D01*
X157541794Y-108288474D01*
X157549933Y-108289938D01*
X157687907Y-108324433D01*
X157696050Y-108329666D01*
X157708838Y-108329666D01*
X157710342Y-108330042D01*
X157719588Y-108329666D01*
X157820015Y-108329666D01*
X157829184Y-108332768D01*
X157841592Y-108329666D01*
X157843140Y-108329666D01*
X157852010Y-108327061D01*
X157989970Y-108292571D01*
X157998583Y-108293501D01*
X158010915Y-108287334D01*
X158013390Y-108286716D01*
X158020522Y-108282530D01*
X158086059Y-108249762D01*
X158098390Y-108247080D01*
X158113011Y-108232458D01*
X158128135Y-108218391D01*
X158128497Y-108216972D01*
X158187296Y-108158174D01*
X158201307Y-108146894D01*
X158206154Y-108132352D01*
X158213500Y-108118900D01*
X158212994Y-108111831D01*
X158243392Y-108020636D01*
X158250215Y-108010021D01*
X158250215Y-107989341D01*
X158250961Y-107968702D01*
X158250215Y-107967443D01*
X158250215Y-107921210D01*
X158253330Y-107908983D01*
X158246792Y-107889369D01*
X158240972Y-107869548D01*
X158239865Y-107868589D01*
X158209547Y-107777633D01*
X158205725Y-107760062D01*
X158194886Y-107749223D01*
X158186139Y-107736637D01*
X158179591Y-107733928D01*
X158161624Y-107715961D01*
X158158098Y-107708239D01*
X158146355Y-107700692D01*
X158144433Y-107698770D01*
X158137322Y-107694887D01*
X158121046Y-107684427D01*
X158118166Y-107684427D01*
X158115639Y-107683047D01*
X158096350Y-107684427D01*
X157837718Y-107684427D01*
X157821234Y-107682057D01*
X157806081Y-107688976D01*
X157790098Y-107693670D01*
X157786361Y-107697982D01*
X157781170Y-107700353D01*
X157772162Y-107714369D01*
X157761256Y-107726956D01*
X157760444Y-107732602D01*
X157757358Y-107737405D01*
X157757358Y-107754067D01*
X157754988Y-107770551D01*
X157757358Y-107775740D01*
X157757358Y-107922590D01*
X157766601Y-107954068D01*
X157799887Y-107982910D01*
X157843482Y-107989178D01*
X157883546Y-107970882D01*
X157907358Y-107933830D01*
X157907358Y-107834427D01*
X158067958Y-107834427D01*
X158071567Y-107838036D01*
X158100215Y-107923979D01*
X158100215Y-107975829D01*
X158071567Y-108061772D01*
X158016503Y-108116834D01*
X157958562Y-108145805D01*
X157823123Y-108179666D01*
X157727304Y-108179666D01*
X157591868Y-108145806D01*
X157533926Y-108116835D01*
X157478862Y-108061771D01*
X157450215Y-107975827D01*
X157450215Y-107891418D01*
X157485214Y-107821420D01*
X157491024Y-107789132D01*
X157474151Y-107748449D01*
X157437961Y-107723346D01*
X157393945Y-107721794D01*
X157356076Y-107744285D01*
X157309938Y-107836561D01*
X157300215Y-107851691D01*
X157300215Y-107867021D01*
X157297501Y-107882104D01*
X157300215Y-107888647D01*
X157300215Y-107978596D01*
X157297100Y-107990824D01*
X156878334Y-107990824D01*
X156878334Y-107423654D01*
X157297371Y-107423654D01*
X157298144Y-107425611D01*
X157297845Y-107427694D01*
X157306181Y-107445949D01*
X157313558Y-107464615D01*
X157315266Y-107465843D01*
X157316141Y-107467758D01*
X157333025Y-107478608D01*
X157349321Y-107490323D01*
X157351423Y-107490432D01*
X157353193Y-107491570D01*
X157373262Y-107491570D01*
X157393305Y-107492614D01*
X157395132Y-107491570D01*
X158185997Y-107491570D01*
X158217475Y-107482327D01*
X158246317Y-107449041D01*
X158252585Y-107405446D01*
X158234289Y-107365382D01*
X158197237Y-107341570D01*
X157657632Y-107341570D01*
X158204789Y-107028908D01*
X158217475Y-107025184D01*
X158230614Y-107010020D01*
X158244532Y-106995553D01*
X158244939Y-106993487D01*
X158246317Y-106991898D01*
X158249172Y-106972037D01*
X158253059Y-106952343D01*
X158252285Y-106950385D01*
X158252585Y-106948303D01*
X158244248Y-106930047D01*
X158236872Y-106911382D01*
X158235163Y-106910153D01*
X158234289Y-106908239D01*
X158217404Y-106897388D01*
X158201109Y-106885674D01*
X158199006Y-106885564D01*
X158197237Y-106884427D01*
X158177168Y-106884427D01*
X158157125Y-106883383D01*
X158155298Y-106884427D01*
X157364433Y-106884427D01*
X157332955Y-106893670D01*
X157304113Y-106926956D01*
X157297845Y-106970551D01*
X157316141Y-107010615D01*
X157353193Y-107034427D01*
X157892798Y-107034427D01*
X157345640Y-107347088D01*
X157332955Y-107350813D01*
X157319815Y-107365976D01*
X157305898Y-107380444D01*
X157305490Y-107382509D01*
X157304113Y-107384099D01*
X157301257Y-107403959D01*
X157297371Y-107423654D01*
X156878334Y-107423654D01*
X156878334Y-106589599D01*
X157297845Y-106589599D01*
X157304764Y-106604751D01*
X157309458Y-106620735D01*
X157313770Y-106624471D01*
X157316141Y-106629663D01*
X157330157Y-106638670D01*
X157342744Y-106649577D01*
X157348390Y-106650388D01*
X157353193Y-106653475D01*
X157369855Y-106653475D01*
X157386339Y-106655845D01*
X157391529Y-106653475D01*
X158169855Y-106653475D01*
X158186339Y-106655845D01*
X158201491Y-106648925D01*
X158217475Y-106644232D01*
X158221211Y-106639919D01*
X158226403Y-106637549D01*
X158235410Y-106623532D01*
X158246317Y-106610946D01*
X158247128Y-106605299D01*
X158250215Y-106600497D01*
X158250215Y-106583834D01*
X158252585Y-106567351D01*
X158250215Y-106562161D01*
X158250215Y-106397401D01*
X158253330Y-106385174D01*
X158246791Y-106365559D01*
X158240972Y-106345739D01*
X158239865Y-106344780D01*
X158209547Y-106253823D01*
X158205725Y-106236252D01*
X158194885Y-106225412D01*
X158186139Y-106212828D01*
X158179592Y-106210120D01*
X158120610Y-106151138D01*
X158114167Y-106140289D01*
X158095662Y-106131036D01*
X158077543Y-106121143D01*
X158076083Y-106121247D01*
X158030227Y-106098319D01*
X158024294Y-106092009D01*
X158010917Y-106088664D01*
X158008636Y-106087524D01*
X158000495Y-106086059D01*
X157862522Y-106051564D01*
X157854380Y-106046332D01*
X157841592Y-106046332D01*
X157840088Y-106045956D01*
X157830842Y-106046332D01*
X157730415Y-106046332D01*
X157721246Y-106043230D01*
X157708838Y-106046332D01*
X157707290Y-106046332D01*
X157698419Y-106048936D01*
X157560460Y-106083426D01*
X157551848Y-106082497D01*
X157539516Y-106088662D01*
X157537040Y-106089282D01*
X157529902Y-106093469D01*
X157464371Y-106126235D01*
X157452039Y-106128918D01*
X157437411Y-106143545D01*
X157422294Y-106157607D01*
X157421931Y-106159025D01*
X157363132Y-106217824D01*
X157349123Y-106229104D01*
X157344275Y-106243645D01*
X157336930Y-106257098D01*
X157337435Y-106264165D01*
X157307037Y-106355361D01*
X157300215Y-106365977D01*
X157300215Y-106386656D01*
X157299469Y-106407296D01*
X157300215Y-106408554D01*
X157300215Y-106573115D01*
X157297845Y-106589599D01*
X156878334Y-106589599D01*
X156878334Y-105522166D01*
X158731906Y-105522166D01*
X158731906Y-108853833D01*
G37*
X167420910Y-108077009D02*
X167382815Y-108153199D01*
X167382815Y-108153199D02*
X167382815Y-108267485D01*
X167382815Y-108267485D02*
X167420910Y-108381771D01*
X167420910Y-108381771D02*
X167497100Y-108457961D01*
X167497100Y-108457961D02*
X167573291Y-108496056D01*
X167573291Y-108496056D02*
X167725672Y-108534152D01*
X167725672Y-108534152D02*
X167839958Y-108534152D01*
X167839958Y-108534152D02*
X167992339Y-108496056D01*
X167992339Y-108496056D02*
X168068529Y-108457961D01*
X168068529Y-108457961D02*
X168144720Y-108381771D01*
X168144720Y-108381771D02*
X168182815Y-108267485D01*
X168182815Y-108267485D02*
X168182815Y-108191294D01*
X168182815Y-108191294D02*
X168144720Y-108077009D01*
X168144720Y-108077009D02*
X168106624Y-108038913D01*
X168106624Y-108038913D02*
X167839958Y-108038913D01*
X167839958Y-108038913D02*
X167839958Y-108191294D01*
X168182815Y-107696056D02*
X167382815Y-107696056D01*
X167382815Y-107696056D02*
X167382815Y-107391294D01*
X167382815Y-107391294D02*
X167420910Y-107315104D01*
X167420910Y-107315104D02*
X167459005Y-107277009D01*
X167459005Y-107277009D02*
X167535196Y-107238913D01*
X167535196Y-107238913D02*
X167649481Y-107238913D01*
X167649481Y-107238913D02*
X167725672Y-107277009D01*
X167725672Y-107277009D02*
X167763767Y-107315104D01*
X167763767Y-107315104D02*
X167801862Y-107391294D01*
X167801862Y-107391294D02*
X167801862Y-107696056D01*
X168182815Y-106477009D02*
X168182815Y-106934152D01*
X168182815Y-106705580D02*
X167382815Y-106705580D01*
X167382815Y-106705580D02*
X167497100Y-106781771D01*
X167497100Y-106781771D02*
X167573291Y-106857961D01*
X167573291Y-106857961D02*
X167611386Y-106934152D01*
X167725672Y-106019866D02*
X167687577Y-106096056D01*
X167687577Y-106096056D02*
X167649481Y-106134151D01*
X167649481Y-106134151D02*
X167573291Y-106172247D01*
X167573291Y-106172247D02*
X167535196Y-106172247D01*
X167535196Y-106172247D02*
X167459005Y-106134151D01*
X167459005Y-106134151D02*
X167420910Y-106096056D01*
X167420910Y-106096056D02*
X167382815Y-106019866D01*
X167382815Y-106019866D02*
X167382815Y-105867485D01*
X167382815Y-105867485D02*
X167420910Y-105791294D01*
X167420910Y-105791294D02*
X167459005Y-105753199D01*
X167459005Y-105753199D02*
X167535196Y-105715104D01*
X167535196Y-105715104D02*
X167573291Y-105715104D01*
X167573291Y-105715104D02*
X167649481Y-105753199D01*
X167649481Y-105753199D02*
X167687577Y-105791294D01*
X167687577Y-105791294D02*
X167725672Y-105867485D01*
X167725672Y-105867485D02*
X167725672Y-106019866D01*
X167725672Y-106019866D02*
X167763767Y-106096056D01*
X167763767Y-106096056D02*
X167801862Y-106134151D01*
X167801862Y-106134151D02*
X167878053Y-106172247D01*
X167878053Y-106172247D02*
X168030434Y-106172247D01*
X168030434Y-106172247D02*
X168106624Y-106134151D01*
X168106624Y-106134151D02*
X168144720Y-106096056D01*
X168144720Y-106096056D02*
X168182815Y-106019866D01*
X168182815Y-106019866D02*
X168182815Y-105867485D01*
X168182815Y-105867485D02*
X168144720Y-105791294D01*
X168144720Y-105791294D02*
X168106624Y-105753199D01*
X168106624Y-105753199D02*
X168030434Y-105715104D01*
X168030434Y-105715104D02*
X167878053Y-105715104D01*
X167878053Y-105715104D02*
X167801862Y-105753199D01*
X167801862Y-105753199D02*
X167763767Y-105791294D01*
X167763767Y-105791294D02*
X167725672Y-105867485D01*
G36*
X132609840Y-116898191D02*
G01*
X132667781Y-116927161D01*
X132722847Y-116982227D01*
X132751495Y-117068170D01*
X132751495Y-117171475D01*
X132101495Y-117171475D01*
X132101495Y-117068168D01*
X132130142Y-116982226D01*
X132185206Y-116927162D01*
X132243145Y-116898192D01*
X132378587Y-116864332D01*
X132474406Y-116864332D01*
X132609840Y-116898191D01*
G37*
G36*
X133383186Y-119521833D02*
G01*
X131529614Y-119521833D01*
X131529614Y-118658824D01*
X131948380Y-118658824D01*
X131954918Y-118678438D01*
X131960738Y-118698259D01*
X131961844Y-118699217D01*
X131992162Y-118790174D01*
X131995985Y-118807746D01*
X132006824Y-118818585D01*
X132015571Y-118831170D01*
X132022117Y-118833878D01*
X132081097Y-118892858D01*
X132087542Y-118903709D01*
X132106040Y-118912957D01*
X132124165Y-118922855D01*
X132125625Y-118922750D01*
X132171482Y-118945678D01*
X132177416Y-118951989D01*
X132190792Y-118955333D01*
X132193074Y-118956474D01*
X132201213Y-118957938D01*
X132339187Y-118992433D01*
X132347330Y-118997666D01*
X132360118Y-118997666D01*
X132361622Y-118998042D01*
X132370868Y-118997666D01*
X132471295Y-118997666D01*
X132480464Y-119000768D01*
X132492872Y-118997666D01*
X132494420Y-118997666D01*
X132503290Y-118995061D01*
X132641250Y-118960571D01*
X132649863Y-118961501D01*
X132662195Y-118955334D01*
X132664670Y-118954716D01*
X132671802Y-118950530D01*
X132737339Y-118917762D01*
X132749670Y-118915080D01*
X132764291Y-118900458D01*
X132779415Y-118886391D01*
X132779777Y-118884972D01*
X132838576Y-118826174D01*
X132852587Y-118814894D01*
X132857434Y-118800352D01*
X132864780Y-118786900D01*
X132864274Y-118779831D01*
X132894672Y-118688636D01*
X132901495Y-118678021D01*
X132901494Y-118657341D01*
X132902241Y-118636702D01*
X132901495Y-118635443D01*
X132901495Y-118589210D01*
X132904610Y-118576983D01*
X132898072Y-118557369D01*
X132892252Y-118537548D01*
X132891145Y-118536589D01*
X132860827Y-118445633D01*
X132857005Y-118428062D01*
X132846166Y-118417223D01*
X132837419Y-118404637D01*
X132830871Y-118401928D01*
X132812904Y-118383961D01*
X132809378Y-118376239D01*
X132797635Y-118368692D01*
X132795713Y-118366770D01*
X132788602Y-118362887D01*
X132772326Y-118352427D01*
X132769446Y-118352427D01*
X132766919Y-118351047D01*
X132747630Y-118352427D01*
X132488998Y-118352427D01*
X132472514Y-118350057D01*
X132457361Y-118356976D01*
X132441378Y-118361670D01*
X132437641Y-118365982D01*
X132432450Y-118368353D01*
X132423442Y-118382369D01*
X132412536Y-118394956D01*
X132411724Y-118400602D01*
X132408638Y-118405405D01*
X132408638Y-118422067D01*
X132406268Y-118438551D01*
X132408638Y-118443740D01*
X132408638Y-118590590D01*
X132417881Y-118622068D01*
X132451167Y-118650910D01*
X132494762Y-118657178D01*
X132534826Y-118638882D01*
X132558638Y-118601830D01*
X132558638Y-118502427D01*
X132719238Y-118502427D01*
X132722847Y-118506036D01*
X132751495Y-118591979D01*
X132751494Y-118643829D01*
X132722847Y-118729772D01*
X132667783Y-118784834D01*
X132609842Y-118813805D01*
X132474403Y-118847666D01*
X132378584Y-118847666D01*
X132243148Y-118813806D01*
X132185206Y-118784835D01*
X132130142Y-118729771D01*
X132101495Y-118643827D01*
X132101495Y-118559418D01*
X132136494Y-118489420D01*
X132142304Y-118457132D01*
X132125431Y-118416449D01*
X132089241Y-118391346D01*
X132045225Y-118389794D01*
X132007356Y-118412285D01*
X131961218Y-118504561D01*
X131951495Y-118519691D01*
X131951495Y-118535021D01*
X131948781Y-118550104D01*
X131951495Y-118556647D01*
X131951494Y-118646596D01*
X131948380Y-118658824D01*
X131529614Y-118658824D01*
X131529614Y-118091654D01*
X131948651Y-118091654D01*
X131949424Y-118093611D01*
X131949125Y-118095694D01*
X131957461Y-118113949D01*
X131964838Y-118132615D01*
X131966546Y-118133843D01*
X131967421Y-118135758D01*
X131984305Y-118146608D01*
X132000601Y-118158323D01*
X132002703Y-118158432D01*
X132004473Y-118159570D01*
X132024542Y-118159570D01*
X132044585Y-118160614D01*
X132046412Y-118159570D01*
X132837277Y-118159570D01*
X132868755Y-118150327D01*
X132897597Y-118117041D01*
X132903865Y-118073446D01*
X132885569Y-118033382D01*
X132848517Y-118009570D01*
X132308912Y-118009570D01*
X132856069Y-117696908D01*
X132868755Y-117693184D01*
X132881894Y-117678020D01*
X132895812Y-117663553D01*
X132896219Y-117661487D01*
X132897597Y-117659898D01*
X132900452Y-117640037D01*
X132904339Y-117620343D01*
X132903565Y-117618385D01*
X132903865Y-117616303D01*
X132895528Y-117598047D01*
X132888152Y-117579382D01*
X132886443Y-117578153D01*
X132885569Y-117576239D01*
X132868684Y-117565388D01*
X132852389Y-117553674D01*
X132850286Y-117553564D01*
X132848517Y-117552427D01*
X132828448Y-117552427D01*
X132808405Y-117551383D01*
X132806578Y-117552427D01*
X132015713Y-117552427D01*
X131984235Y-117561670D01*
X131955393Y-117594956D01*
X131949125Y-117638551D01*
X131967421Y-117678615D01*
X132004473Y-117702427D01*
X132544078Y-117702427D01*
X131996920Y-118015088D01*
X131984235Y-118018813D01*
X131971095Y-118033976D01*
X131957178Y-118048444D01*
X131956770Y-118050509D01*
X131955393Y-118052099D01*
X131952537Y-118071959D01*
X131948651Y-118091654D01*
X131529614Y-118091654D01*
X131529614Y-117257599D01*
X131949125Y-117257599D01*
X131956044Y-117272751D01*
X131960738Y-117288735D01*
X131965050Y-117292471D01*
X131967421Y-117297663D01*
X131981437Y-117306670D01*
X131994024Y-117317577D01*
X131999670Y-117318388D01*
X132004473Y-117321475D01*
X132021135Y-117321475D01*
X132037619Y-117323845D01*
X132042809Y-117321475D01*
X132821135Y-117321475D01*
X132837619Y-117323845D01*
X132852771Y-117316925D01*
X132868755Y-117312232D01*
X132872491Y-117307919D01*
X132877683Y-117305549D01*
X132886690Y-117291532D01*
X132897597Y-117278946D01*
X132898408Y-117273299D01*
X132901495Y-117268497D01*
X132901495Y-117251834D01*
X132903865Y-117235351D01*
X132901495Y-117230161D01*
X132901495Y-117065401D01*
X132904610Y-117053174D01*
X132898071Y-117033559D01*
X132892252Y-117013739D01*
X132891145Y-117012780D01*
X132860827Y-116921823D01*
X132857005Y-116904252D01*
X132846165Y-116893412D01*
X132837419Y-116880828D01*
X132830872Y-116878120D01*
X132771890Y-116819138D01*
X132765447Y-116808289D01*
X132746942Y-116799036D01*
X132728823Y-116789143D01*
X132727363Y-116789247D01*
X132681507Y-116766319D01*
X132675574Y-116760009D01*
X132662197Y-116756664D01*
X132659916Y-116755524D01*
X132651775Y-116754059D01*
X132513802Y-116719564D01*
X132505660Y-116714332D01*
X132492872Y-116714332D01*
X132491368Y-116713956D01*
X132482122Y-116714332D01*
X132381695Y-116714332D01*
X132372526Y-116711230D01*
X132360118Y-116714332D01*
X132358570Y-116714332D01*
X132349699Y-116716936D01*
X132211740Y-116751426D01*
X132203128Y-116750497D01*
X132190796Y-116756662D01*
X132188320Y-116757282D01*
X132181182Y-116761469D01*
X132115651Y-116794235D01*
X132103319Y-116796918D01*
X132088691Y-116811545D01*
X132073574Y-116825607D01*
X132073211Y-116827025D01*
X132014412Y-116885824D01*
X132000403Y-116897104D01*
X131995555Y-116911645D01*
X131988210Y-116925098D01*
X131988715Y-116932165D01*
X131958317Y-117023361D01*
X131951495Y-117033977D01*
X131951495Y-117054656D01*
X131950749Y-117075296D01*
X131951495Y-117076554D01*
X131951495Y-117241115D01*
X131949125Y-117257599D01*
X131529614Y-117257599D01*
X131529614Y-116190166D01*
X133383186Y-116190166D01*
X133383186Y-119521833D01*
G37*
X165084590Y-118935333D02*
X165046495Y-119011523D01*
X165046495Y-119011523D02*
X165046495Y-119125809D01*
X165046495Y-119125809D02*
X165084590Y-119240095D01*
X165084590Y-119240095D02*
X165160780Y-119316285D01*
X165160780Y-119316285D02*
X165236971Y-119354380D01*
X165236971Y-119354380D02*
X165389352Y-119392476D01*
X165389352Y-119392476D02*
X165503638Y-119392476D01*
X165503638Y-119392476D02*
X165656019Y-119354380D01*
X165656019Y-119354380D02*
X165732209Y-119316285D01*
X165732209Y-119316285D02*
X165808400Y-119240095D01*
X165808400Y-119240095D02*
X165846495Y-119125809D01*
X165846495Y-119125809D02*
X165846495Y-119049618D01*
X165846495Y-119049618D02*
X165808400Y-118935333D01*
X165808400Y-118935333D02*
X165770304Y-118897237D01*
X165770304Y-118897237D02*
X165503638Y-118897237D01*
X165503638Y-118897237D02*
X165503638Y-119049618D01*
X165846495Y-118554380D02*
X165046495Y-118554380D01*
X165046495Y-118554380D02*
X165046495Y-118249618D01*
X165046495Y-118249618D02*
X165084590Y-118173428D01*
X165084590Y-118173428D02*
X165122685Y-118135333D01*
X165122685Y-118135333D02*
X165198876Y-118097237D01*
X165198876Y-118097237D02*
X165313161Y-118097237D01*
X165313161Y-118097237D02*
X165389352Y-118135333D01*
X165389352Y-118135333D02*
X165427447Y-118173428D01*
X165427447Y-118173428D02*
X165465542Y-118249618D01*
X165465542Y-118249618D02*
X165465542Y-118554380D01*
X165846495Y-117335333D02*
X165846495Y-117792476D01*
X165846495Y-117563904D02*
X165046495Y-117563904D01*
X165046495Y-117563904D02*
X165160780Y-117640095D01*
X165160780Y-117640095D02*
X165236971Y-117716285D01*
X165236971Y-117716285D02*
X165275066Y-117792476D01*
X165122685Y-117030571D02*
X165084590Y-116992475D01*
X165084590Y-116992475D02*
X165046495Y-116916285D01*
X165046495Y-116916285D02*
X165046495Y-116725809D01*
X165046495Y-116725809D02*
X165084590Y-116649618D01*
X165084590Y-116649618D02*
X165122685Y-116611523D01*
X165122685Y-116611523D02*
X165198876Y-116573428D01*
X165198876Y-116573428D02*
X165275066Y-116573428D01*
X165275066Y-116573428D02*
X165389352Y-116611523D01*
X165389352Y-116611523D02*
X165846495Y-117068666D01*
X165846495Y-117068666D02*
X165846495Y-116573428D01*
X145180843Y-108534151D02*
X145180843Y-108153198D01*
X145409415Y-108610341D02*
X144609415Y-108343674D01*
X144609415Y-108343674D02*
X145409415Y-108077008D01*
X144647510Y-107391294D02*
X144609415Y-107467484D01*
X144609415Y-107467484D02*
X144609415Y-107581770D01*
X144609415Y-107581770D02*
X144647510Y-107696056D01*
X144647510Y-107696056D02*
X144723700Y-107772246D01*
X144723700Y-107772246D02*
X144799891Y-107810341D01*
X144799891Y-107810341D02*
X144952272Y-107848437D01*
X144952272Y-107848437D02*
X145066558Y-107848437D01*
X145066558Y-107848437D02*
X145218939Y-107810341D01*
X145218939Y-107810341D02*
X145295129Y-107772246D01*
X145295129Y-107772246D02*
X145371320Y-107696056D01*
X145371320Y-107696056D02*
X145409415Y-107581770D01*
X145409415Y-107581770D02*
X145409415Y-107505579D01*
X145409415Y-107505579D02*
X145371320Y-107391294D01*
X145371320Y-107391294D02*
X145333224Y-107353198D01*
X145333224Y-107353198D02*
X145066558Y-107353198D01*
X145066558Y-107353198D02*
X145066558Y-107505579D01*
X145409415Y-107010341D02*
X144609415Y-107010341D01*
X144609415Y-107010341D02*
X145409415Y-106553198D01*
X145409415Y-106553198D02*
X144609415Y-106553198D01*
X145409415Y-106172246D02*
X144609415Y-106172246D01*
X144609415Y-106172246D02*
X144609415Y-105981770D01*
X144609415Y-105981770D02*
X144647510Y-105867484D01*
X144647510Y-105867484D02*
X144723700Y-105791294D01*
X144723700Y-105791294D02*
X144799891Y-105753199D01*
X144799891Y-105753199D02*
X144952272Y-105715103D01*
X144952272Y-105715103D02*
X145066558Y-105715103D01*
X145066558Y-105715103D02*
X145218939Y-105753199D01*
X145218939Y-105753199D02*
X145295129Y-105791294D01*
X145295129Y-105791294D02*
X145371320Y-105867484D01*
X145371320Y-105867484D02*
X145409415Y-105981770D01*
X145409415Y-105981770D02*
X145409415Y-106172246D01*
X152384590Y-118173428D02*
X152346495Y-118249618D01*
X152346495Y-118249618D02*
X152346495Y-118363904D01*
X152346495Y-118363904D02*
X152384590Y-118478190D01*
X152384590Y-118478190D02*
X152460780Y-118554380D01*
X152460780Y-118554380D02*
X152536971Y-118592475D01*
X152536971Y-118592475D02*
X152689352Y-118630571D01*
X152689352Y-118630571D02*
X152803638Y-118630571D01*
X152803638Y-118630571D02*
X152956019Y-118592475D01*
X152956019Y-118592475D02*
X153032209Y-118554380D01*
X153032209Y-118554380D02*
X153108400Y-118478190D01*
X153108400Y-118478190D02*
X153146495Y-118363904D01*
X153146495Y-118363904D02*
X153146495Y-118287713D01*
X153146495Y-118287713D02*
X153108400Y-118173428D01*
X153108400Y-118173428D02*
X153070304Y-118135332D01*
X153070304Y-118135332D02*
X152803638Y-118135332D01*
X152803638Y-118135332D02*
X152803638Y-118287713D01*
X153146495Y-117792475D02*
X152346495Y-117792475D01*
X152346495Y-117792475D02*
X152346495Y-117487713D01*
X152346495Y-117487713D02*
X152384590Y-117411523D01*
X152384590Y-117411523D02*
X152422685Y-117373428D01*
X152422685Y-117373428D02*
X152498876Y-117335332D01*
X152498876Y-117335332D02*
X152613161Y-117335332D01*
X152613161Y-117335332D02*
X152689352Y-117373428D01*
X152689352Y-117373428D02*
X152727447Y-117411523D01*
X152727447Y-117411523D02*
X152765542Y-117487713D01*
X152765542Y-117487713D02*
X152765542Y-117792475D01*
X152689352Y-116878190D02*
X152651257Y-116954380D01*
X152651257Y-116954380D02*
X152613161Y-116992475D01*
X152613161Y-116992475D02*
X152536971Y-117030571D01*
X152536971Y-117030571D02*
X152498876Y-117030571D01*
X152498876Y-117030571D02*
X152422685Y-116992475D01*
X152422685Y-116992475D02*
X152384590Y-116954380D01*
X152384590Y-116954380D02*
X152346495Y-116878190D01*
X152346495Y-116878190D02*
X152346495Y-116725809D01*
X152346495Y-116725809D02*
X152384590Y-116649618D01*
X152384590Y-116649618D02*
X152422685Y-116611523D01*
X152422685Y-116611523D02*
X152498876Y-116573428D01*
X152498876Y-116573428D02*
X152536971Y-116573428D01*
X152536971Y-116573428D02*
X152613161Y-116611523D01*
X152613161Y-116611523D02*
X152651257Y-116649618D01*
X152651257Y-116649618D02*
X152689352Y-116725809D01*
X152689352Y-116725809D02*
X152689352Y-116878190D01*
X152689352Y-116878190D02*
X152727447Y-116954380D01*
X152727447Y-116954380D02*
X152765542Y-116992475D01*
X152765542Y-116992475D02*
X152841733Y-117030571D01*
X152841733Y-117030571D02*
X152994114Y-117030571D01*
X152994114Y-117030571D02*
X153070304Y-116992475D01*
X153070304Y-116992475D02*
X153108400Y-116954380D01*
X153108400Y-116954380D02*
X153146495Y-116878190D01*
X153146495Y-116878190D02*
X153146495Y-116725809D01*
X153146495Y-116725809D02*
X153108400Y-116649618D01*
X153108400Y-116649618D02*
X153070304Y-116611523D01*
X153070304Y-116611523D02*
X152994114Y-116573428D01*
X152994114Y-116573428D02*
X152841733Y-116573428D01*
X152841733Y-116573428D02*
X152765542Y-116611523D01*
X152765542Y-116611523D02*
X152727447Y-116649618D01*
X152727447Y-116649618D02*
X152689352Y-116725809D01*
X137144590Y-118173428D02*
X137106495Y-118249618D01*
X137106495Y-118249618D02*
X137106495Y-118363904D01*
X137106495Y-118363904D02*
X137144590Y-118478190D01*
X137144590Y-118478190D02*
X137220780Y-118554380D01*
X137220780Y-118554380D02*
X137296971Y-118592475D01*
X137296971Y-118592475D02*
X137449352Y-118630571D01*
X137449352Y-118630571D02*
X137563638Y-118630571D01*
X137563638Y-118630571D02*
X137716019Y-118592475D01*
X137716019Y-118592475D02*
X137792209Y-118554380D01*
X137792209Y-118554380D02*
X137868400Y-118478190D01*
X137868400Y-118478190D02*
X137906495Y-118363904D01*
X137906495Y-118363904D02*
X137906495Y-118287713D01*
X137906495Y-118287713D02*
X137868400Y-118173428D01*
X137868400Y-118173428D02*
X137830304Y-118135332D01*
X137830304Y-118135332D02*
X137563638Y-118135332D01*
X137563638Y-118135332D02*
X137563638Y-118287713D01*
X137906495Y-117792475D02*
X137106495Y-117792475D01*
X137106495Y-117792475D02*
X137106495Y-117487713D01*
X137106495Y-117487713D02*
X137144590Y-117411523D01*
X137144590Y-117411523D02*
X137182685Y-117373428D01*
X137182685Y-117373428D02*
X137258876Y-117335332D01*
X137258876Y-117335332D02*
X137373161Y-117335332D01*
X137373161Y-117335332D02*
X137449352Y-117373428D01*
X137449352Y-117373428D02*
X137487447Y-117411523D01*
X137487447Y-117411523D02*
X137525542Y-117487713D01*
X137525542Y-117487713D02*
X137525542Y-117792475D01*
X137106495Y-117068666D02*
X137106495Y-116573428D01*
X137106495Y-116573428D02*
X137411257Y-116840094D01*
X137411257Y-116840094D02*
X137411257Y-116725809D01*
X137411257Y-116725809D02*
X137449352Y-116649618D01*
X137449352Y-116649618D02*
X137487447Y-116611523D01*
X137487447Y-116611523D02*
X137563638Y-116573428D01*
X137563638Y-116573428D02*
X137754114Y-116573428D01*
X137754114Y-116573428D02*
X137830304Y-116611523D01*
X137830304Y-116611523D02*
X137868400Y-116649618D01*
X137868400Y-116649618D02*
X137906495Y-116725809D01*
X137906495Y-116725809D02*
X137906495Y-116954380D01*
X137906495Y-116954380D02*
X137868400Y-117030571D01*
X137868400Y-117030571D02*
X137830304Y-117068666D01*
X137243415Y-107657961D02*
X137243415Y-107162723D01*
X137243415Y-107162723D02*
X137548177Y-107429389D01*
X137548177Y-107429389D02*
X137548177Y-107315104D01*
X137548177Y-107315104D02*
X137586272Y-107238913D01*
X137586272Y-107238913D02*
X137624367Y-107200818D01*
X137624367Y-107200818D02*
X137700558Y-107162723D01*
X137700558Y-107162723D02*
X137891034Y-107162723D01*
X137891034Y-107162723D02*
X137967224Y-107200818D01*
X137967224Y-107200818D02*
X138005320Y-107238913D01*
X138005320Y-107238913D02*
X138043415Y-107315104D01*
X138043415Y-107315104D02*
X138043415Y-107543675D01*
X138043415Y-107543675D02*
X138005320Y-107619866D01*
X138005320Y-107619866D02*
X137967224Y-107657961D01*
X137243415Y-106934151D02*
X138043415Y-106667484D01*
X138043415Y-106667484D02*
X137243415Y-106400818D01*
X137243415Y-106210342D02*
X137243415Y-105715104D01*
X137243415Y-105715104D02*
X137548177Y-105981770D01*
X137548177Y-105981770D02*
X137548177Y-105867485D01*
X137548177Y-105867485D02*
X137586272Y-105791294D01*
X137586272Y-105791294D02*
X137624367Y-105753199D01*
X137624367Y-105753199D02*
X137700558Y-105715104D01*
X137700558Y-105715104D02*
X137891034Y-105715104D01*
X137891034Y-105715104D02*
X137967224Y-105753199D01*
X137967224Y-105753199D02*
X138005320Y-105791294D01*
X138005320Y-105791294D02*
X138043415Y-105867485D01*
X138043415Y-105867485D02*
X138043415Y-106096056D01*
X138043415Y-106096056D02*
X138005320Y-106172247D01*
X138005320Y-106172247D02*
X137967224Y-106210342D01*
%TO.C,D1*%
X162168095Y-69115475D02*
X161368095Y-69115475D01*
X161368095Y-69115475D02*
X161368095Y-68924999D01*
X161368095Y-68924999D02*
X161406190Y-68810713D01*
X161406190Y-68810713D02*
X161482380Y-68734523D01*
X161482380Y-68734523D02*
X161558571Y-68696428D01*
X161558571Y-68696428D02*
X161710952Y-68658332D01*
X161710952Y-68658332D02*
X161825238Y-68658332D01*
X161825238Y-68658332D02*
X161977619Y-68696428D01*
X161977619Y-68696428D02*
X162053809Y-68734523D01*
X162053809Y-68734523D02*
X162130000Y-68810713D01*
X162130000Y-68810713D02*
X162168095Y-68924999D01*
X162168095Y-68924999D02*
X162168095Y-69115475D01*
X162168095Y-67896428D02*
X162168095Y-68353571D01*
X162168095Y-68124999D02*
X161368095Y-68124999D01*
X161368095Y-68124999D02*
X161482380Y-68201190D01*
X161482380Y-68201190D02*
X161558571Y-68277380D01*
X161558571Y-68277380D02*
X161596666Y-68353571D01*
%TO.C,C2*%
X171570667Y-84621904D02*
X171532571Y-84660000D01*
X171532571Y-84660000D02*
X171418286Y-84698095D01*
X171418286Y-84698095D02*
X171342095Y-84698095D01*
X171342095Y-84698095D02*
X171227809Y-84660000D01*
X171227809Y-84660000D02*
X171151619Y-84583809D01*
X171151619Y-84583809D02*
X171113524Y-84507619D01*
X171113524Y-84507619D02*
X171075428Y-84355238D01*
X171075428Y-84355238D02*
X171075428Y-84240952D01*
X171075428Y-84240952D02*
X171113524Y-84088571D01*
X171113524Y-84088571D02*
X171151619Y-84012380D01*
X171151619Y-84012380D02*
X171227809Y-83936190D01*
X171227809Y-83936190D02*
X171342095Y-83898095D01*
X171342095Y-83898095D02*
X171418286Y-83898095D01*
X171418286Y-83898095D02*
X171532571Y-83936190D01*
X171532571Y-83936190D02*
X171570667Y-83974285D01*
X171875428Y-83974285D02*
X171913524Y-83936190D01*
X171913524Y-83936190D02*
X171989714Y-83898095D01*
X171989714Y-83898095D02*
X172180190Y-83898095D01*
X172180190Y-83898095D02*
X172256381Y-83936190D01*
X172256381Y-83936190D02*
X172294476Y-83974285D01*
X172294476Y-83974285D02*
X172332571Y-84050476D01*
X172332571Y-84050476D02*
X172332571Y-84126666D01*
X172332571Y-84126666D02*
X172294476Y-84240952D01*
X172294476Y-84240952D02*
X171837333Y-84698095D01*
X171837333Y-84698095D02*
X172332571Y-84698095D01*
%TO.C,R1*%
X162270095Y-73383332D02*
X161889142Y-73649999D01*
X162270095Y-73840475D02*
X161470095Y-73840475D01*
X161470095Y-73840475D02*
X161470095Y-73535713D01*
X161470095Y-73535713D02*
X161508190Y-73459523D01*
X161508190Y-73459523D02*
X161546285Y-73421428D01*
X161546285Y-73421428D02*
X161622476Y-73383332D01*
X161622476Y-73383332D02*
X161736761Y-73383332D01*
X161736761Y-73383332D02*
X161812952Y-73421428D01*
X161812952Y-73421428D02*
X161851047Y-73459523D01*
X161851047Y-73459523D02*
X161889142Y-73535713D01*
X161889142Y-73535713D02*
X161889142Y-73840475D01*
X162270095Y-72621428D02*
X162270095Y-73078571D01*
X162270095Y-72849999D02*
X161470095Y-72849999D01*
X161470095Y-72849999D02*
X161584380Y-72926190D01*
X161584380Y-72926190D02*
X161660571Y-73002380D01*
X161660571Y-73002380D02*
X161698666Y-73078571D01*
%TO.C,A1*%
X146547123Y-87185428D02*
X146547123Y-86804475D01*
X146775695Y-87261618D02*
X145975695Y-86994951D01*
X145975695Y-86994951D02*
X146775695Y-86728285D01*
X146775695Y-86042571D02*
X146775695Y-86499714D01*
X146775695Y-86271142D02*
X145975695Y-86271142D01*
X145975695Y-86271142D02*
X146089980Y-86347333D01*
X146089980Y-86347333D02*
X146166171Y-86423523D01*
X146166171Y-86423523D02*
X146204266Y-86499714D01*
X124545695Y-91841619D02*
X124545695Y-92651142D01*
X124545695Y-92651142D02*
X124593314Y-92746380D01*
X124593314Y-92746380D02*
X124640933Y-92794000D01*
X124640933Y-92794000D02*
X124736171Y-92841619D01*
X124736171Y-92841619D02*
X124926647Y-92841619D01*
X124926647Y-92841619D02*
X125021885Y-92794000D01*
X125021885Y-92794000D02*
X125069504Y-92746380D01*
X125069504Y-92746380D02*
X125117123Y-92651142D01*
X125117123Y-92651142D02*
X125117123Y-91841619D01*
X125545695Y-92794000D02*
X125688552Y-92841619D01*
X125688552Y-92841619D02*
X125926647Y-92841619D01*
X125926647Y-92841619D02*
X126021885Y-92794000D01*
X126021885Y-92794000D02*
X126069504Y-92746380D01*
X126069504Y-92746380D02*
X126117123Y-92651142D01*
X126117123Y-92651142D02*
X126117123Y-92555904D01*
X126117123Y-92555904D02*
X126069504Y-92460666D01*
X126069504Y-92460666D02*
X126021885Y-92413047D01*
X126021885Y-92413047D02*
X125926647Y-92365428D01*
X125926647Y-92365428D02*
X125736171Y-92317809D01*
X125736171Y-92317809D02*
X125640933Y-92270190D01*
X125640933Y-92270190D02*
X125593314Y-92222571D01*
X125593314Y-92222571D02*
X125545695Y-92127333D01*
X125545695Y-92127333D02*
X125545695Y-92032095D01*
X125545695Y-92032095D02*
X125593314Y-91936857D01*
X125593314Y-91936857D02*
X125640933Y-91889238D01*
X125640933Y-91889238D02*
X125736171Y-91841619D01*
X125736171Y-91841619D02*
X125974266Y-91841619D01*
X125974266Y-91841619D02*
X126117123Y-91889238D01*
X126879028Y-92317809D02*
X127021885Y-92365428D01*
X127021885Y-92365428D02*
X127069504Y-92413047D01*
X127069504Y-92413047D02*
X127117123Y-92508285D01*
X127117123Y-92508285D02*
X127117123Y-92651142D01*
X127117123Y-92651142D02*
X127069504Y-92746380D01*
X127069504Y-92746380D02*
X127021885Y-92794000D01*
X127021885Y-92794000D02*
X126926647Y-92841619D01*
X126926647Y-92841619D02*
X126545695Y-92841619D01*
X126545695Y-92841619D02*
X126545695Y-91841619D01*
X126545695Y-91841619D02*
X126879028Y-91841619D01*
X126879028Y-91841619D02*
X126974266Y-91889238D01*
X126974266Y-91889238D02*
X127021885Y-91936857D01*
X127021885Y-91936857D02*
X127069504Y-92032095D01*
X127069504Y-92032095D02*
X127069504Y-92127333D01*
X127069504Y-92127333D02*
X127021885Y-92222571D01*
X127021885Y-92222571D02*
X126974266Y-92270190D01*
X126974266Y-92270190D02*
X126879028Y-92317809D01*
X126879028Y-92317809D02*
X126545695Y-92317809D01*
%TO.C,D2*%
X127425524Y-88000095D02*
X127425524Y-87200095D01*
X127425524Y-87200095D02*
X127616000Y-87200095D01*
X127616000Y-87200095D02*
X127730286Y-87238190D01*
X127730286Y-87238190D02*
X127806476Y-87314380D01*
X127806476Y-87314380D02*
X127844571Y-87390571D01*
X127844571Y-87390571D02*
X127882667Y-87542952D01*
X127882667Y-87542952D02*
X127882667Y-87657238D01*
X127882667Y-87657238D02*
X127844571Y-87809619D01*
X127844571Y-87809619D02*
X127806476Y-87885809D01*
X127806476Y-87885809D02*
X127730286Y-87962000D01*
X127730286Y-87962000D02*
X127616000Y-88000095D01*
X127616000Y-88000095D02*
X127425524Y-88000095D01*
X128187428Y-87276285D02*
X128225524Y-87238190D01*
X128225524Y-87238190D02*
X128301714Y-87200095D01*
X128301714Y-87200095D02*
X128492190Y-87200095D01*
X128492190Y-87200095D02*
X128568381Y-87238190D01*
X128568381Y-87238190D02*
X128606476Y-87276285D01*
X128606476Y-87276285D02*
X128644571Y-87352476D01*
X128644571Y-87352476D02*
X128644571Y-87428666D01*
X128644571Y-87428666D02*
X128606476Y-87542952D01*
X128606476Y-87542952D02*
X128149333Y-88000095D01*
X128149333Y-88000095D02*
X128644571Y-88000095D01*
%TO.C,U1*%
X174190476Y-79170095D02*
X174190476Y-79817714D01*
X174190476Y-79817714D02*
X174228571Y-79893904D01*
X174228571Y-79893904D02*
X174266666Y-79932000D01*
X174266666Y-79932000D02*
X174342857Y-79970095D01*
X174342857Y-79970095D02*
X174495238Y-79970095D01*
X174495238Y-79970095D02*
X174571428Y-79932000D01*
X174571428Y-79932000D02*
X174609523Y-79893904D01*
X174609523Y-79893904D02*
X174647619Y-79817714D01*
X174647619Y-79817714D02*
X174647619Y-79170095D01*
X175447618Y-79970095D02*
X174990475Y-79970095D01*
X175219047Y-79970095D02*
X175219047Y-79170095D01*
X175219047Y-79170095D02*
X175142856Y-79284380D01*
X175142856Y-79284380D02*
X175066666Y-79360571D01*
X175066666Y-79360571D02*
X174990475Y-79398666D01*
%TO.C,C1*%
X181730667Y-76239904D02*
X181692571Y-76278000D01*
X181692571Y-76278000D02*
X181578286Y-76316095D01*
X181578286Y-76316095D02*
X181502095Y-76316095D01*
X181502095Y-76316095D02*
X181387809Y-76278000D01*
X181387809Y-76278000D02*
X181311619Y-76201809D01*
X181311619Y-76201809D02*
X181273524Y-76125619D01*
X181273524Y-76125619D02*
X181235428Y-75973238D01*
X181235428Y-75973238D02*
X181235428Y-75858952D01*
X181235428Y-75858952D02*
X181273524Y-75706571D01*
X181273524Y-75706571D02*
X181311619Y-75630380D01*
X181311619Y-75630380D02*
X181387809Y-75554190D01*
X181387809Y-75554190D02*
X181502095Y-75516095D01*
X181502095Y-75516095D02*
X181578286Y-75516095D01*
X181578286Y-75516095D02*
X181692571Y-75554190D01*
X181692571Y-75554190D02*
X181730667Y-75592285D01*
X182492571Y-76316095D02*
X182035428Y-76316095D01*
X182264000Y-76316095D02*
X182264000Y-75516095D01*
X182264000Y-75516095D02*
X182187809Y-75630380D01*
X182187809Y-75630380D02*
X182111619Y-75706571D01*
X182111619Y-75706571D02*
X182035428Y-75744666D01*
D12*
%TO.C,D1*%
X164510000Y-66665000D02*
X162590000Y-66665000D01*
X162590000Y-66665000D02*
X162590000Y-69525000D01*
X164510000Y-69525000D02*
X164510000Y-66665000D01*
%TO.C,C2*%
X174471000Y-84045248D02*
X174471000Y-84567752D01*
X173001000Y-84045248D02*
X173001000Y-84567752D01*
%TO.C,R1*%
X162815000Y-73477064D02*
X162815000Y-73022936D01*
X164285000Y-73477064D02*
X164285000Y-73022936D01*
%TO.C,A1*%
X123545600Y-96834000D02*
X171865600Y-96834000D01*
X123545600Y-96834000D02*
X123545600Y-94174000D01*
X171865600Y-96834000D02*
X171865600Y-94174000D01*
X120945600Y-95504000D02*
X120945600Y-94174000D01*
X120945600Y-94174000D02*
X122275600Y-94174000D01*
X123545600Y-94174000D02*
X171865600Y-94174000D01*
D10*
X124107600Y-92364000D02*
X122707600Y-92364000D01*
D12*
X171865600Y-79054000D02*
X171865600Y-76394000D01*
X120945600Y-78994000D02*
X171865600Y-79054000D01*
X120945600Y-78994000D02*
X120945600Y-76394000D01*
X120945600Y-76394000D02*
X123545600Y-76394000D01*
X123545600Y-76394000D02*
X171865600Y-76394000D01*
D10*
X122707600Y-92964000D02*
X121907600Y-92364000D01*
X122707600Y-91764000D01*
X122707600Y-92964000D01*
G36*
X122707600Y-92964000D02*
G01*
X121907600Y-92364000D01*
X122707600Y-91764000D01*
X122707600Y-92964000D01*
G37*
D12*
%TO.C,J3*%
X175250800Y-94954400D02*
X182990800Y-94954400D01*
X175250800Y-94954400D02*
X175250800Y-92354400D01*
X182990800Y-94954400D02*
X182990800Y-89754400D01*
X175250800Y-92354400D02*
X177850800Y-92354400D01*
X177850800Y-92354400D02*
X177850800Y-89754400D01*
X175250800Y-91084400D02*
X175250800Y-89754400D01*
X175250800Y-89754400D02*
X176580800Y-89754400D01*
X177850800Y-89754400D02*
X182990800Y-89754400D01*
%TO.C,J5*%
X128679320Y-105063600D02*
X176999320Y-105063600D01*
X128679320Y-105063600D02*
X128679320Y-102403600D01*
X176999320Y-105063600D02*
X176999320Y-102403600D01*
X126079320Y-103733600D02*
X126079320Y-102403600D01*
X126079320Y-102403600D02*
X127409320Y-102403600D01*
X128679320Y-102403600D02*
X176999320Y-102403600D01*
%TO.C,D2*%
X126730000Y-85420000D02*
X124730000Y-85420000D01*
X126730000Y-85420000D02*
X126730000Y-89280000D01*
X124730000Y-85420000D02*
X124730000Y-89280000D01*
%TO.C,J4*%
X128679320Y-115680800D02*
X176999320Y-115680800D01*
X128679320Y-115680800D02*
X128679320Y-113020800D01*
X176999320Y-115680800D02*
X176999320Y-113020800D01*
X126079320Y-114350800D02*
X126079320Y-113020800D01*
X126079320Y-113020800D02*
X127409320Y-113020800D01*
X128679320Y-113020800D02*
X176999320Y-113020800D01*
%TO.C,J2*%
X139740000Y-70659250D02*
X139740000Y-71989250D01*
X138410000Y-70659250D02*
X139740000Y-70659250D01*
X137140000Y-70659250D02*
X134540000Y-70659250D01*
X137140000Y-70659250D02*
X137140000Y-73319250D01*
X134540000Y-70659250D02*
X134540000Y-73319250D01*
X137140000Y-73319250D02*
X134540000Y-73319250D01*
D13*
%TO.C,J1*%
X166218000Y-65688000D02*
X175158000Y-65688000D01*
X166218000Y-66838000D02*
X166218000Y-65688000D01*
X175158000Y-65688000D02*
X175158000Y-66838000D01*
D12*
%TO.C,U1*%
X182810000Y-78062500D02*
X182810000Y-84072500D01*
X175990000Y-80312500D02*
X175990000Y-84072500D01*
X182810000Y-84072500D02*
X181550000Y-84072500D01*
X175990000Y-84072500D02*
X177250000Y-84072500D01*
%TO.C,C1*%
X179098752Y-76681000D02*
X178576248Y-76681000D01*
X179098752Y-75211000D02*
X178576248Y-75211000D01*
%TO.C,SW1*%
X155603200Y-67214800D02*
X154103200Y-67214800D01*
X151603200Y-68464800D02*
X151603200Y-72964800D01*
X158103200Y-72964800D02*
X158103200Y-68464800D01*
X154103200Y-74214800D02*
X155603200Y-74214800D01*
%TD*%
M02*
