%TF.GenerationSoftware,KiCad,Pcbnew,7.0.2*%
%TF.CreationDate,2023-10-08T18:29:29-07:00*%
%TF.ProjectId,Pi Pico Extender,50692050-6963-46f2-9045-7874656e6465,rev?*%
%TF.SameCoordinates,Original*%
%TF.FileFunction,Copper,L2,Bot*%
%TF.FilePolarity,Positive*%
%FSLAX46Y46*%
G04 Gerber Fmt 4.6, Leading zero omitted, Abs format (unit mm)*
G04 Created by KiCad (PCBNEW 7.0.2) date 2023-10-08 18:29:29*
%MOMM*%
%LPD*%
G01*
G04 APERTURE LIST*
%TA.AperFunction,ComponentPad*%
%ADD10R,1.700000X1.700000*%
%TD*%
%TA.AperFunction,ComponentPad*%
%ADD11O,1.700000X1.700000*%
%TD*%
%TA.AperFunction,ComponentPad*%
%ADD12C,1.700000*%
%TD*%
%TA.AperFunction,ComponentPad*%
%ADD13O,0.800000X1.600000*%
%TD*%
%TA.AperFunction,ComponentPad*%
%ADD14C,2.000000*%
%TD*%
%TA.AperFunction,ViaPad*%
%ADD15C,0.800000*%
%TD*%
%TA.AperFunction,Conductor*%
%ADD16C,0.250000*%
%TD*%
%TA.AperFunction,Conductor*%
%ADD17C,0.381000*%
%TD*%
G04 APERTURE END LIST*
D10*
%TO.P,A1,1,GPIO0*%
%TO.N,Net-(A1-GPIO0)*%
X122275600Y-95504000D03*
D11*
%TO.P,A1,2,GPIO1*%
%TO.N,Net-(A1-GPIO1)*%
X124815600Y-95504000D03*
%TO.P,A1,3,GND*%
%TO.N,GND*%
X127355600Y-95504000D03*
%TO.P,A1,4,GPIO2*%
%TO.N,Net-(A1-GPIO2)*%
X129895600Y-95504000D03*
%TO.P,A1,5,GPIO3*%
%TO.N,Net-(A1-GPIO3)*%
X132435600Y-95504000D03*
%TO.P,A1,6,GPIO4*%
%TO.N,Net-(A1-GPIO4)*%
X134975600Y-95504000D03*
%TO.P,A1,7,GPIO5*%
%TO.N,Net-(A1-GPIO5)*%
X137515600Y-95504000D03*
%TO.P,A1,8,GND*%
%TO.N,GND*%
X140055600Y-95504000D03*
%TO.P,A1,9,GPIO6*%
%TO.N,Net-(A1-GPIO6)*%
X142595600Y-95504000D03*
%TO.P,A1,10,GPIO7*%
%TO.N,Net-(A1-GPIO7)*%
X145135600Y-95504000D03*
%TO.P,A1,11,GPIO8*%
%TO.N,Net-(A1-GPIO8)*%
X147675600Y-95504000D03*
%TO.P,A1,12,GPIO9*%
%TO.N,Net-(A1-GPIO9)*%
X150215600Y-95504000D03*
%TO.P,A1,13,GND*%
%TO.N,GND*%
X152755600Y-95504000D03*
%TO.P,A1,14,GPIO10*%
%TO.N,Net-(A1-GPIO10)*%
X155295600Y-95504000D03*
%TO.P,A1,15,GPIO11*%
%TO.N,Net-(A1-GPIO11)*%
X157835600Y-95504000D03*
%TO.P,A1,16,GPIO12*%
%TO.N,Net-(A1-GPIO12)*%
X160375600Y-95504000D03*
%TO.P,A1,17,GPIO13*%
%TO.N,Net-(A1-GPIO13)*%
X162915600Y-95504000D03*
%TO.P,A1,18,GND*%
%TO.N,GND*%
X165455600Y-95504000D03*
%TO.P,A1,19,GPIO14*%
%TO.N,Net-(A1-GPIO14)*%
X167995600Y-95504000D03*
%TO.P,A1,20,GPIO15*%
%TO.N,Net-(A1-GPIO15)*%
X170535600Y-95504000D03*
%TO.P,A1,21,GPIO16*%
%TO.N,Net-(A1-GPIO16)*%
X170535600Y-77724000D03*
%TO.P,A1,22,GPIO17*%
%TO.N,Net-(A1-GPIO17)*%
X167995600Y-77724000D03*
%TO.P,A1,23,GND*%
%TO.N,GND*%
X165455600Y-77724000D03*
%TO.P,A1,24,GPIO18*%
%TO.N,Net-(A1-GPIO18)*%
X162915600Y-77724000D03*
%TO.P,A1,25,GPIO19*%
%TO.N,Net-(A1-GPIO19)*%
X160375600Y-77724000D03*
%TO.P,A1,26,GPIO20*%
%TO.N,Net-(A1-GPIO20)*%
X157835600Y-77724000D03*
%TO.P,A1,27,GPIO21*%
%TO.N,Net-(A1-GPIO21)*%
X155295600Y-77724000D03*
%TO.P,A1,28,GND*%
%TO.N,GND*%
X152755600Y-77724000D03*
%TO.P,A1,29,GPIO22*%
%TO.N,Net-(A1-GPIO22)*%
X150215600Y-77724000D03*
%TO.P,A1,30,RUN*%
%TO.N,/run*%
X147675600Y-77724000D03*
%TO.P,A1,31,GPIO26_A0*%
%TO.N,Net-(A1-GPIO26_A0)*%
X145135600Y-77724000D03*
%TO.P,A1,32,GPIO27_A1*%
%TO.N,Net-(A1-GPIO27_A1)*%
X142595600Y-77724000D03*
%TO.P,A1,33,AGND*%
%TO.N,Net-(A1-AGND)*%
X140055600Y-77724000D03*
%TO.P,A1,34,GPIO28_A2*%
%TO.N,Net-(A1-GPIO28_A2)*%
X137515600Y-77724000D03*
%TO.P,A1,35,ADC_VREF*%
%TO.N,Net-(A1-ADC_VREF)*%
X134975600Y-77724000D03*
%TO.P,A1,36,3V3*%
%TO.N,/3V3*%
X132435600Y-77724000D03*
%TO.P,A1,37,3V3_EN*%
%TO.N,Net-(A1-3V3_EN)*%
X129895600Y-77724000D03*
%TO.P,A1,38,GND*%
%TO.N,GND*%
X127355600Y-77724000D03*
%TO.P,A1,39,VSYS*%
%TO.N,Net-(A1-VSYS)*%
X124815600Y-77724000D03*
D12*
%TO.P,A1,40,VBUS*%
%TO.N,VBUS*%
X122275600Y-77724000D03*
%TD*%
D10*
%TO.P,J3,1,Pin_1*%
%TO.N,GND*%
X176580800Y-91084400D03*
D11*
%TO.P,J3,2,Pin_2*%
X176580800Y-93624400D03*
%TO.P,J3,3,Pin_3*%
%TO.N,/aux_3V3*%
X179120800Y-91084400D03*
%TO.P,J3,4,Pin_4*%
X179120800Y-93624400D03*
%TO.P,J3,5,Pin_5*%
%TO.N,/aux_5V*%
X181660800Y-91084400D03*
%TO.P,J3,6,Pin_6*%
X181660800Y-93624400D03*
%TD*%
D10*
%TO.P,J5,1,Pin_1*%
%TO.N,VBUS*%
X127409320Y-103733600D03*
D11*
%TO.P,J5,2,Pin_2*%
%TO.N,Net-(D2-A)*%
X129949320Y-103733600D03*
%TO.P,J5,3,Pin_3*%
%TO.N,GND*%
X132489320Y-103733600D03*
%TO.P,J5,4,Pin_4*%
%TO.N,Net-(A1-3V3_EN)*%
X135029320Y-103733600D03*
%TO.P,J5,5,Pin_5*%
%TO.N,/3V3*%
X137569320Y-103733600D03*
%TO.P,J5,6,Pin_6*%
%TO.N,Net-(A1-ADC_VREF)*%
X140109320Y-103733600D03*
%TO.P,J5,7,Pin_7*%
%TO.N,Net-(A1-GPIO28_A2)*%
X142649320Y-103733600D03*
%TO.P,J5,8,Pin_8*%
%TO.N,Net-(A1-AGND)*%
X145189320Y-103733600D03*
%TO.P,J5,9,Pin_9*%
%TO.N,Net-(A1-GPIO27_A1)*%
X147729320Y-103733600D03*
%TO.P,J5,10,Pin_10*%
%TO.N,Net-(A1-GPIO26_A0)*%
X150269320Y-103733600D03*
%TO.P,J5,11,Pin_11*%
%TO.N,/run*%
X152809320Y-103733600D03*
%TO.P,J5,12,Pin_12*%
%TO.N,Net-(A1-GPIO22)*%
X155349320Y-103733600D03*
%TO.P,J5,13,Pin_13*%
%TO.N,GND*%
X157889320Y-103733600D03*
%TO.P,J5,14,Pin_14*%
%TO.N,Net-(A1-GPIO21)*%
X160429320Y-103733600D03*
%TO.P,J5,15,Pin_15*%
%TO.N,Net-(A1-GPIO20)*%
X162969320Y-103733600D03*
%TO.P,J5,16,Pin_16*%
%TO.N,Net-(A1-GPIO19)*%
X165509320Y-103733600D03*
%TO.P,J5,17,Pin_17*%
%TO.N,Net-(A1-GPIO18)*%
X168049320Y-103733600D03*
%TO.P,J5,18,Pin_18*%
%TO.N,GND*%
X170589320Y-103733600D03*
%TO.P,J5,19,Pin_19*%
%TO.N,Net-(A1-GPIO17)*%
X173129320Y-103733600D03*
%TO.P,J5,20,Pin_20*%
%TO.N,Net-(A1-GPIO16)*%
X175669320Y-103733600D03*
%TD*%
D10*
%TO.P,J4,1,Pin_1*%
%TO.N,Net-(A1-GPIO0)*%
X127409320Y-114350800D03*
D11*
%TO.P,J4,2,Pin_2*%
%TO.N,Net-(A1-GPIO1)*%
X129949320Y-114350800D03*
%TO.P,J4,3,Pin_3*%
%TO.N,GND*%
X132489320Y-114350800D03*
%TO.P,J4,4,Pin_4*%
%TO.N,Net-(A1-GPIO2)*%
X135029320Y-114350800D03*
%TO.P,J4,5,Pin_5*%
%TO.N,Net-(A1-GPIO3)*%
X137569320Y-114350800D03*
%TO.P,J4,6,Pin_6*%
%TO.N,Net-(A1-GPIO4)*%
X140109320Y-114350800D03*
%TO.P,J4,7,Pin_7*%
%TO.N,Net-(A1-GPIO5)*%
X142649320Y-114350800D03*
%TO.P,J4,8,Pin_8*%
%TO.N,GND*%
X145189320Y-114350800D03*
%TO.P,J4,9,Pin_9*%
%TO.N,Net-(A1-GPIO6)*%
X147729320Y-114350800D03*
%TO.P,J4,10,Pin_10*%
%TO.N,Net-(A1-GPIO7)*%
X150269320Y-114350800D03*
%TO.P,J4,11,Pin_11*%
%TO.N,Net-(A1-GPIO8)*%
X152809320Y-114350800D03*
%TO.P,J4,12,Pin_12*%
%TO.N,Net-(A1-GPIO9)*%
X155349320Y-114350800D03*
%TO.P,J4,13,Pin_13*%
%TO.N,GND*%
X157889320Y-114350800D03*
%TO.P,J4,14,Pin_14*%
%TO.N,Net-(A1-GPIO10)*%
X160429320Y-114350800D03*
%TO.P,J4,15,Pin_15*%
%TO.N,Net-(A1-GPIO11)*%
X162969320Y-114350800D03*
%TO.P,J4,16,Pin_16*%
%TO.N,Net-(A1-GPIO12)*%
X165509320Y-114350800D03*
%TO.P,J4,17,Pin_17*%
%TO.N,Net-(A1-GPIO13)*%
X168049320Y-114350800D03*
%TO.P,J4,18,Pin_18*%
%TO.N,GND*%
X170589320Y-114350800D03*
%TO.P,J4,19,Pin_19*%
%TO.N,Net-(A1-GPIO14)*%
X173129320Y-114350800D03*
%TO.P,J4,20,Pin_20*%
%TO.N,Net-(A1-GPIO15)*%
X175669320Y-114350800D03*
%TD*%
D10*
%TO.P,J2,1,Pin_1*%
%TO.N,Net-(J1-VBUS_B)*%
X138410000Y-71989250D03*
D11*
%TO.P,J2,2,Pin_2*%
%TO.N,VBUS*%
X135870000Y-71989250D03*
%TD*%
D13*
%TO.P,J1,S1,S1*%
%TO.N,GND*%
X166368000Y-72088000D03*
%TO.P,J1,S2,S2*%
X175008000Y-72088000D03*
%TO.P,J1,S3,S3*%
X166368000Y-68288000D03*
%TO.P,J1,S4,S4*%
X175008000Y-68288000D03*
%TD*%
D14*
%TO.P,SW1,1*%
%TO.N,GND*%
X157103200Y-67464800D03*
X157103200Y-73964800D03*
%TO.P,SW1,2*%
%TO.N,/run*%
X152603200Y-67464800D03*
X152603200Y-73964800D03*
%TD*%
D15*
%TO.N,GND*%
X127800000Y-70200000D03*
X166800000Y-86639000D03*
X155400000Y-109800000D03*
X141200000Y-98200000D03*
X120904000Y-86639000D03*
X169200000Y-99400000D03*
X131200000Y-109800000D03*
X181600000Y-109800000D03*
X138600000Y-86639000D03*
X143400000Y-111600000D03*
X139200000Y-74600000D03*
X169400000Y-109800000D03*
X123000000Y-112200000D03*
X129200000Y-99400000D03*
X151384000Y-86639000D03*
X152800000Y-100000000D03*
%TO.N,Net-(A1-GPIO22)*%
X151892000Y-83820000D03*
%TO.N,/run*%
X150495000Y-83820000D03*
%TO.N,Net-(D2-A)*%
X125730000Y-90170000D03*
%TD*%
D16*
%TO.N,Net-(A1-GPIO22)*%
X156470600Y-88398600D02*
X156470600Y-102612320D01*
X151892000Y-83820000D02*
X156470600Y-88398600D01*
X156470600Y-102612320D02*
X155349320Y-103733600D01*
%TO.N,/run*%
X153930600Y-87255600D02*
X150495000Y-83820000D01*
X152809320Y-103733600D02*
X153930600Y-102612320D01*
X153930600Y-102612320D02*
X153930600Y-87255600D01*
D17*
%TO.N,VBUS*%
X127409320Y-103733600D02*
X123575100Y-99899380D01*
X123575100Y-79023500D02*
X122275600Y-77724000D01*
X123575100Y-99899380D02*
X123575100Y-79023500D01*
D16*
%TO.N,Net-(D2-A)*%
X126180600Y-99964880D02*
X126180600Y-90620600D01*
X129949320Y-103733600D02*
X126180600Y-99964880D01*
X126180600Y-90620600D02*
X125730000Y-90170000D01*
%TD*%
%TA.AperFunction,Conductor*%
%TO.N,GND*%
G36*
X153005600Y-96834633D02*
G01*
X153149007Y-96796209D01*
X153218857Y-96797872D01*
X153276719Y-96837035D01*
X153304223Y-96901263D01*
X153305100Y-96915984D01*
X153305100Y-102301865D01*
X153285415Y-102368904D01*
X153268781Y-102389546D01*
X153264966Y-102393361D01*
X153203643Y-102426846D01*
X153145193Y-102425455D01*
X153044728Y-102398536D01*
X152809319Y-102377940D01*
X152573912Y-102398536D01*
X152345656Y-102459697D01*
X152131490Y-102559565D01*
X151937918Y-102695105D01*
X151770825Y-102862198D01*
X151640895Y-103047759D01*
X151586318Y-103091384D01*
X151516820Y-103098578D01*
X151454465Y-103067055D01*
X151437745Y-103047759D01*
X151357569Y-102933256D01*
X151307815Y-102862199D01*
X151140721Y-102695105D01*
X150947150Y-102559565D01*
X150732983Y-102459697D01*
X150671821Y-102443309D01*
X150504727Y-102398536D01*
X150269319Y-102377940D01*
X150033912Y-102398536D01*
X149805656Y-102459697D01*
X149591490Y-102559565D01*
X149397918Y-102695105D01*
X149230825Y-102862198D01*
X149100895Y-103047759D01*
X149046318Y-103091384D01*
X148976820Y-103098578D01*
X148914465Y-103067055D01*
X148897745Y-103047759D01*
X148817569Y-102933256D01*
X148767815Y-102862199D01*
X148600721Y-102695105D01*
X148407150Y-102559565D01*
X148192983Y-102459697D01*
X148131822Y-102443309D01*
X147964727Y-102398536D01*
X147729320Y-102377940D01*
X147493912Y-102398536D01*
X147265656Y-102459697D01*
X147051490Y-102559565D01*
X146857918Y-102695105D01*
X146690825Y-102862198D01*
X146560895Y-103047759D01*
X146506318Y-103091384D01*
X146436820Y-103098578D01*
X146374465Y-103067055D01*
X146357745Y-103047759D01*
X146277569Y-102933256D01*
X146227815Y-102862199D01*
X146060721Y-102695105D01*
X145867150Y-102559565D01*
X145652983Y-102459697D01*
X145591821Y-102443309D01*
X145424727Y-102398536D01*
X145189320Y-102377940D01*
X144953912Y-102398536D01*
X144725656Y-102459697D01*
X144511490Y-102559565D01*
X144317918Y-102695105D01*
X144150825Y-102862198D01*
X144020895Y-103047759D01*
X143966318Y-103091384D01*
X143896820Y-103098578D01*
X143834465Y-103067055D01*
X143817745Y-103047759D01*
X143737569Y-102933256D01*
X143687815Y-102862199D01*
X143520721Y-102695105D01*
X143327150Y-102559565D01*
X143112983Y-102459697D01*
X143051821Y-102443309D01*
X142884727Y-102398536D01*
X142649320Y-102377940D01*
X142413912Y-102398536D01*
X142185656Y-102459697D01*
X141971490Y-102559565D01*
X141777918Y-102695105D01*
X141610825Y-102862198D01*
X141480895Y-103047759D01*
X141426318Y-103091384D01*
X141356820Y-103098578D01*
X141294465Y-103067055D01*
X141277745Y-103047759D01*
X141197569Y-102933256D01*
X141147815Y-102862199D01*
X140980721Y-102695105D01*
X140787150Y-102559565D01*
X140572983Y-102459697D01*
X140511821Y-102443309D01*
X140344727Y-102398536D01*
X140109320Y-102377940D01*
X139873912Y-102398536D01*
X139645656Y-102459697D01*
X139431490Y-102559565D01*
X139237918Y-102695105D01*
X139070825Y-102862198D01*
X138940895Y-103047759D01*
X138886318Y-103091384D01*
X138816820Y-103098578D01*
X138754465Y-103067055D01*
X138737745Y-103047759D01*
X138657569Y-102933256D01*
X138607815Y-102862199D01*
X138440721Y-102695105D01*
X138247150Y-102559565D01*
X138032983Y-102459697D01*
X137971821Y-102443309D01*
X137804727Y-102398536D01*
X137569319Y-102377940D01*
X137333912Y-102398536D01*
X137105656Y-102459697D01*
X136891490Y-102559565D01*
X136697918Y-102695105D01*
X136530825Y-102862198D01*
X136400895Y-103047759D01*
X136346318Y-103091384D01*
X136276820Y-103098578D01*
X136214465Y-103067055D01*
X136197745Y-103047759D01*
X136117569Y-102933256D01*
X136067815Y-102862199D01*
X135900721Y-102695105D01*
X135707150Y-102559565D01*
X135492983Y-102459697D01*
X135431821Y-102443309D01*
X135264727Y-102398536D01*
X135029320Y-102377940D01*
X134793912Y-102398536D01*
X134565656Y-102459697D01*
X134351490Y-102559565D01*
X134157918Y-102695105D01*
X133990828Y-102862195D01*
X133990825Y-102862198D01*
X133990825Y-102862199D01*
X133941071Y-102933256D01*
X133860589Y-103048196D01*
X133806012Y-103091820D01*
X133736513Y-103099013D01*
X133674159Y-103067491D01*
X133657439Y-103048195D01*
X133527429Y-102862521D01*
X133360401Y-102695493D01*
X133166896Y-102559999D01*
X132952812Y-102460169D01*
X132739319Y-102402964D01*
X132739319Y-103298098D01*
X132631635Y-103248920D01*
X132525083Y-103233600D01*
X132453557Y-103233600D01*
X132347005Y-103248920D01*
X132239319Y-103298098D01*
X132239320Y-102402964D01*
X132239319Y-102402964D01*
X132025827Y-102460169D01*
X131811741Y-102560000D01*
X131618241Y-102695490D01*
X131451213Y-102862518D01*
X131321200Y-103048196D01*
X131266623Y-103091820D01*
X131197124Y-103099013D01*
X131134770Y-103067491D01*
X131118050Y-103048195D01*
X131037569Y-102933256D01*
X130987815Y-102862199D01*
X130820721Y-102695105D01*
X130627150Y-102559565D01*
X130412983Y-102459697D01*
X130351822Y-102443309D01*
X130184727Y-102398536D01*
X129949320Y-102377940D01*
X129713913Y-102398536D01*
X129613446Y-102425456D01*
X129543596Y-102423793D01*
X129493672Y-102393362D01*
X126842419Y-99742108D01*
X126808934Y-99680785D01*
X126806100Y-99654427D01*
X126806100Y-96915984D01*
X126825785Y-96848945D01*
X126878589Y-96803190D01*
X126947747Y-96793246D01*
X126962193Y-96796209D01*
X127105600Y-96834634D01*
X127105600Y-95939501D01*
X127213285Y-95988680D01*
X127319837Y-96004000D01*
X127391363Y-96004000D01*
X127497915Y-95988680D01*
X127605600Y-95939501D01*
X127605600Y-96834633D01*
X127819090Y-96777430D01*
X128033176Y-96677600D01*
X128226681Y-96542106D01*
X128393709Y-96375078D01*
X128523719Y-96189405D01*
X128578296Y-96145780D01*
X128647794Y-96138586D01*
X128710149Y-96170109D01*
X128726865Y-96189400D01*
X128857105Y-96375401D01*
X129024199Y-96542495D01*
X129217770Y-96678035D01*
X129431937Y-96777903D01*
X129643659Y-96834633D01*
X129660192Y-96839063D01*
X129895599Y-96859659D01*
X129895599Y-96859658D01*
X129895600Y-96859659D01*
X130131008Y-96839063D01*
X130359263Y-96777903D01*
X130573430Y-96678035D01*
X130767001Y-96542495D01*
X130934095Y-96375401D01*
X131064026Y-96189839D01*
X131118602Y-96146216D01*
X131188100Y-96139022D01*
X131250455Y-96170545D01*
X131267171Y-96189837D01*
X131397105Y-96375401D01*
X131564199Y-96542495D01*
X131757770Y-96678035D01*
X131971937Y-96777903D01*
X132200192Y-96839063D01*
X132435600Y-96859659D01*
X132671008Y-96839063D01*
X132899263Y-96777903D01*
X133113430Y-96678035D01*
X133307001Y-96542495D01*
X133474095Y-96375401D01*
X133604026Y-96189839D01*
X133658602Y-96146216D01*
X133728100Y-96139022D01*
X133790455Y-96170545D01*
X133807171Y-96189837D01*
X133937105Y-96375401D01*
X134104199Y-96542495D01*
X134297770Y-96678035D01*
X134511937Y-96777903D01*
X134740192Y-96839063D01*
X134975600Y-96859659D01*
X135211008Y-96839063D01*
X135439263Y-96777903D01*
X135653430Y-96678035D01*
X135847001Y-96542495D01*
X136014095Y-96375401D01*
X136144026Y-96189839D01*
X136198602Y-96146216D01*
X136268100Y-96139022D01*
X136330455Y-96170545D01*
X136347171Y-96189837D01*
X136477105Y-96375401D01*
X136644199Y-96542495D01*
X136837770Y-96678035D01*
X137051937Y-96777903D01*
X137263659Y-96834633D01*
X137280192Y-96839063D01*
X137515599Y-96859659D01*
X137515599Y-96859658D01*
X137515600Y-96859659D01*
X137751008Y-96839063D01*
X137979263Y-96777903D01*
X138193430Y-96678035D01*
X138387001Y-96542495D01*
X138554095Y-96375401D01*
X138684332Y-96189403D01*
X138738907Y-96145780D01*
X138808405Y-96138586D01*
X138870760Y-96170109D01*
X138887480Y-96189404D01*
X139017493Y-96375081D01*
X139184518Y-96542106D01*
X139378023Y-96677600D01*
X139592109Y-96777430D01*
X139805600Y-96834634D01*
X139805600Y-95939501D01*
X139913285Y-95988680D01*
X140019837Y-96004000D01*
X140091363Y-96004000D01*
X140197915Y-95988680D01*
X140305600Y-95939501D01*
X140305600Y-96834633D01*
X140519090Y-96777430D01*
X140733176Y-96677600D01*
X140926681Y-96542106D01*
X141093709Y-96375078D01*
X141223719Y-96189405D01*
X141278296Y-96145780D01*
X141347794Y-96138586D01*
X141410149Y-96170109D01*
X141426865Y-96189400D01*
X141557105Y-96375401D01*
X141724199Y-96542495D01*
X141917770Y-96678035D01*
X142131937Y-96777903D01*
X142343659Y-96834633D01*
X142360192Y-96839063D01*
X142595599Y-96859659D01*
X142595599Y-96859658D01*
X142595600Y-96859659D01*
X142831008Y-96839063D01*
X143059263Y-96777903D01*
X143273430Y-96678035D01*
X143467001Y-96542495D01*
X143634095Y-96375401D01*
X143764026Y-96189839D01*
X143818602Y-96146216D01*
X143888100Y-96139022D01*
X143950455Y-96170545D01*
X143967171Y-96189837D01*
X144097105Y-96375401D01*
X144264199Y-96542495D01*
X144457770Y-96678035D01*
X144671937Y-96777903D01*
X144900192Y-96839063D01*
X145135600Y-96859659D01*
X145371008Y-96839063D01*
X145599263Y-96777903D01*
X145813430Y-96678035D01*
X146007001Y-96542495D01*
X146174095Y-96375401D01*
X146304026Y-96189839D01*
X146358602Y-96146216D01*
X146428100Y-96139022D01*
X146490455Y-96170545D01*
X146507171Y-96189837D01*
X146637105Y-96375401D01*
X146804199Y-96542495D01*
X146997770Y-96678035D01*
X147211937Y-96777903D01*
X147440192Y-96839063D01*
X147675600Y-96859659D01*
X147911008Y-96839063D01*
X148139263Y-96777903D01*
X148353430Y-96678035D01*
X148547001Y-96542495D01*
X148714095Y-96375401D01*
X148844026Y-96189839D01*
X148898602Y-96146216D01*
X148968100Y-96139022D01*
X149030455Y-96170545D01*
X149047171Y-96189837D01*
X149177105Y-96375401D01*
X149344199Y-96542495D01*
X149537770Y-96678035D01*
X149751937Y-96777903D01*
X149963659Y-96834633D01*
X149980192Y-96839063D01*
X150215599Y-96859659D01*
X150215599Y-96859658D01*
X150215600Y-96859659D01*
X150451008Y-96839063D01*
X150679263Y-96777903D01*
X150893430Y-96678035D01*
X151087001Y-96542495D01*
X151254095Y-96375401D01*
X151384332Y-96189403D01*
X151438907Y-96145780D01*
X151508405Y-96138586D01*
X151570760Y-96170109D01*
X151587480Y-96189404D01*
X151717493Y-96375081D01*
X151884518Y-96542106D01*
X152078023Y-96677600D01*
X152292109Y-96777430D01*
X152505600Y-96834634D01*
X152505600Y-95939501D01*
X152613285Y-95988680D01*
X152719837Y-96004000D01*
X152791363Y-96004000D01*
X152897915Y-95988680D01*
X153005600Y-95939501D01*
X153005600Y-96834633D01*
G37*
%TD.AperFunction*%
%TA.AperFunction,Conductor*%
G36*
X176830800Y-93188898D02*
G01*
X176723115Y-93139720D01*
X176616563Y-93124400D01*
X176545037Y-93124400D01*
X176438485Y-93139720D01*
X176330800Y-93188898D01*
X176330800Y-91519901D01*
X176438485Y-91569080D01*
X176545037Y-91584400D01*
X176616563Y-91584400D01*
X176723115Y-91569080D01*
X176830800Y-91519901D01*
X176830800Y-93188898D01*
G37*
%TD.AperFunction*%
%TA.AperFunction,Conductor*%
G36*
X181012563Y-65275349D02*
G01*
X181142639Y-65282167D01*
X181323234Y-65292310D01*
X181335635Y-65293637D01*
X181484989Y-65317294D01*
X181644643Y-65344422D01*
X181655936Y-65346889D01*
X181806040Y-65387110D01*
X181958496Y-65431033D01*
X181968568Y-65434410D01*
X182114058Y-65490259D01*
X182116924Y-65491402D01*
X182261075Y-65551112D01*
X182269898Y-65555180D01*
X182353100Y-65597574D01*
X182409390Y-65626255D01*
X182413077Y-65628213D01*
X182548857Y-65703257D01*
X182556410Y-65707789D01*
X182688031Y-65793265D01*
X182692251Y-65796130D01*
X182818474Y-65885690D01*
X182824740Y-65890443D01*
X182946905Y-65989370D01*
X182951467Y-65993252D01*
X183055218Y-66085970D01*
X183066736Y-66096263D01*
X183071790Y-66101041D01*
X183182957Y-66212208D01*
X183187735Y-66217262D01*
X183290734Y-66332517D01*
X183294635Y-66337101D01*
X183379670Y-66442110D01*
X183393550Y-66459251D01*
X183398314Y-66465532D01*
X183487868Y-66591747D01*
X183490733Y-66595967D01*
X183576209Y-66727588D01*
X183580741Y-66735141D01*
X183655785Y-66870921D01*
X183657743Y-66874608D01*
X183728816Y-67014096D01*
X183732892Y-67022937D01*
X183792561Y-67166988D01*
X183793764Y-67170005D01*
X183849582Y-67315417D01*
X183852971Y-67325525D01*
X183896893Y-67477975D01*
X183937109Y-67628060D01*
X183939578Y-67639365D01*
X183966715Y-67799071D01*
X183990359Y-67948344D01*
X183991690Y-67960784D01*
X184001833Y-68141389D01*
X184008650Y-68271437D01*
X184008820Y-68277927D01*
X184008820Y-118271435D01*
X184008650Y-118277924D01*
X184001831Y-118408047D01*
X183991694Y-118588568D01*
X183990363Y-118601006D01*
X183968155Y-118741227D01*
X183966731Y-118750221D01*
X183954892Y-118819904D01*
X183939585Y-118909991D01*
X183937113Y-118921306D01*
X183896908Y-119071358D01*
X183852977Y-119223844D01*
X183849592Y-119233938D01*
X183793774Y-119379347D01*
X183792571Y-119382361D01*
X183732900Y-119526422D01*
X183728823Y-119535266D01*
X183657768Y-119674717D01*
X183655812Y-119678402D01*
X183580746Y-119814223D01*
X183576212Y-119821778D01*
X183490738Y-119953393D01*
X183487874Y-119957612D01*
X183398333Y-120083809D01*
X183393569Y-120090090D01*
X183294646Y-120212248D01*
X183290738Y-120216840D01*
X183187753Y-120332077D01*
X183182975Y-120337131D01*
X183071798Y-120448306D01*
X183066744Y-120453085D01*
X182951484Y-120556085D01*
X182946893Y-120559991D01*
X182824744Y-120658903D01*
X182818462Y-120663667D01*
X182692268Y-120753203D01*
X182688049Y-120756068D01*
X182556418Y-120841548D01*
X182548863Y-120846081D01*
X182413066Y-120921130D01*
X182409381Y-120923086D01*
X182269908Y-120994149D01*
X182261065Y-120998226D01*
X182117000Y-121057897D01*
X182113984Y-121059100D01*
X181968587Y-121114909D01*
X181958477Y-121118298D01*
X181806022Y-121162216D01*
X181655943Y-121202428D01*
X181644637Y-121204896D01*
X181484884Y-121232037D01*
X181335618Y-121255674D01*
X181323203Y-121257003D01*
X181151737Y-121266660D01*
X181103472Y-121269188D01*
X181011416Y-121274010D01*
X181004938Y-121274180D01*
X122012565Y-121274180D01*
X122006076Y-121274010D01*
X121875952Y-121267191D01*
X121695428Y-121257054D01*
X121682984Y-121255722D01*
X121533704Y-121232079D01*
X121374003Y-121204945D01*
X121362688Y-121202473D01*
X121212644Y-121162271D01*
X121060145Y-121118338D01*
X121050051Y-121114953D01*
X120904665Y-121059145D01*
X120901650Y-121057942D01*
X120757561Y-120998259D01*
X120748729Y-120994188D01*
X120609231Y-120923110D01*
X120605574Y-120921169D01*
X120605503Y-120921130D01*
X120574308Y-120903889D01*
X120469774Y-120846115D01*
X120462220Y-120841582D01*
X120330573Y-120756090D01*
X120326368Y-120753235D01*
X120200159Y-120663685D01*
X120193889Y-120658929D01*
X120071736Y-120560012D01*
X120067144Y-120556105D01*
X119951900Y-120453116D01*
X119946846Y-120448338D01*
X119835660Y-120337152D01*
X119830882Y-120332098D01*
X119727893Y-120216854D01*
X119723986Y-120212262D01*
X119686147Y-120165535D01*
X119625069Y-120090109D01*
X119620321Y-120083850D01*
X119530749Y-119957610D01*
X119527908Y-119953425D01*
X119442416Y-119821778D01*
X119437883Y-119814224D01*
X119362803Y-119678375D01*
X119360911Y-119674812D01*
X119289800Y-119535248D01*
X119285745Y-119526451D01*
X119226044Y-119382318D01*
X119224859Y-119379347D01*
X119169044Y-119233943D01*
X119165662Y-119223857D01*
X119121729Y-119071358D01*
X119081519Y-118921289D01*
X119079056Y-118910012D01*
X119051918Y-118750283D01*
X119046859Y-118718339D01*
X119028274Y-118600993D01*
X119026946Y-118588582D01*
X119016809Y-118408047D01*
X119009990Y-118277924D01*
X119009820Y-118271436D01*
X119009820Y-117774680D01*
X120903871Y-117774680D01*
X120923637Y-118025829D01*
X120982446Y-118270790D01*
X121030650Y-118387165D01*
X121078854Y-118503539D01*
X121210484Y-118718339D01*
X121374096Y-118909904D01*
X121565661Y-119073516D01*
X121780461Y-119205146D01*
X122013209Y-119301553D01*
X122258172Y-119360363D01*
X122446438Y-119375180D01*
X122448883Y-119375180D01*
X122569757Y-119375180D01*
X122572202Y-119375180D01*
X122760468Y-119360363D01*
X123005431Y-119301553D01*
X123238179Y-119205146D01*
X123452979Y-119073516D01*
X123644544Y-118909904D01*
X123808156Y-118718339D01*
X123939786Y-118503539D01*
X124036193Y-118270791D01*
X124095003Y-118025828D01*
X124114769Y-117774680D01*
X178903871Y-117774680D01*
X178923637Y-118025829D01*
X178982446Y-118270790D01*
X179030650Y-118387165D01*
X179078854Y-118503539D01*
X179210484Y-118718339D01*
X179374096Y-118909904D01*
X179565661Y-119073516D01*
X179780461Y-119205146D01*
X180013209Y-119301553D01*
X180258172Y-119360363D01*
X180446438Y-119375180D01*
X180448883Y-119375180D01*
X180569757Y-119375180D01*
X180572202Y-119375180D01*
X180760468Y-119360363D01*
X181005431Y-119301553D01*
X181238179Y-119205146D01*
X181452979Y-119073516D01*
X181644544Y-118909904D01*
X181808156Y-118718339D01*
X181939786Y-118503539D01*
X182036193Y-118270791D01*
X182095003Y-118025828D01*
X182114769Y-117774680D01*
X182095003Y-117523532D01*
X182036193Y-117278569D01*
X181939786Y-117045821D01*
X181808156Y-116831021D01*
X181644544Y-116639456D01*
X181452979Y-116475844D01*
X181238179Y-116344214D01*
X181121804Y-116296010D01*
X181005430Y-116247806D01*
X180760469Y-116188997D01*
X180574636Y-116174371D01*
X180574621Y-116174370D01*
X180572202Y-116174180D01*
X180446438Y-116174180D01*
X180444019Y-116174370D01*
X180444003Y-116174371D01*
X180258170Y-116188997D01*
X180013209Y-116247806D01*
X179780459Y-116344215D01*
X179565662Y-116475843D01*
X179374096Y-116639456D01*
X179210483Y-116831022D01*
X179078855Y-117045819D01*
X178982446Y-117278569D01*
X178923637Y-117523530D01*
X178903871Y-117774680D01*
X124114769Y-117774680D01*
X124095003Y-117523532D01*
X124036193Y-117278569D01*
X123939786Y-117045821D01*
X123808156Y-116831021D01*
X123644544Y-116639456D01*
X123452979Y-116475844D01*
X123238179Y-116344214D01*
X123121804Y-116296010D01*
X123005430Y-116247806D01*
X122760469Y-116188997D01*
X122574636Y-116174371D01*
X122574621Y-116174370D01*
X122572202Y-116174180D01*
X122446438Y-116174180D01*
X122444019Y-116174370D01*
X122444003Y-116174371D01*
X122258170Y-116188997D01*
X122013209Y-116247806D01*
X121780459Y-116344215D01*
X121565662Y-116475843D01*
X121374096Y-116639456D01*
X121210483Y-116831022D01*
X121078855Y-117045819D01*
X120982446Y-117278569D01*
X120923637Y-117523530D01*
X120903871Y-117774680D01*
X119009820Y-117774680D01*
X119009820Y-115245378D01*
X126058820Y-115245378D01*
X126058821Y-115248672D01*
X126059173Y-115251952D01*
X126059174Y-115251959D01*
X126065229Y-115308284D01*
X126090376Y-115375706D01*
X126115524Y-115443131D01*
X126201774Y-115558346D01*
X126316989Y-115644596D01*
X126451837Y-115694891D01*
X126511447Y-115701300D01*
X128307192Y-115701299D01*
X128366803Y-115694891D01*
X128501651Y-115644596D01*
X128616866Y-115558346D01*
X128703116Y-115443131D01*
X128752130Y-115311716D01*
X128794001Y-115255783D01*
X128859466Y-115231366D01*
X128927739Y-115246218D01*
X128955993Y-115267369D01*
X129077919Y-115389295D01*
X129271490Y-115524835D01*
X129485657Y-115624703D01*
X129713912Y-115685863D01*
X129949320Y-115706459D01*
X130184728Y-115685863D01*
X130412983Y-115624703D01*
X130627150Y-115524835D01*
X130820721Y-115389295D01*
X130987815Y-115222201D01*
X131118052Y-115036203D01*
X131172627Y-114992580D01*
X131242125Y-114985386D01*
X131304480Y-115016909D01*
X131321200Y-115036204D01*
X131451213Y-115221881D01*
X131618238Y-115388906D01*
X131811743Y-115524400D01*
X132025829Y-115624230D01*
X132239320Y-115681434D01*
X132239319Y-114786301D01*
X132347005Y-114835480D01*
X132453557Y-114850800D01*
X132525083Y-114850800D01*
X132631635Y-114835480D01*
X132739319Y-114786301D01*
X132739319Y-115681433D01*
X132952811Y-115624230D01*
X133166896Y-115524400D01*
X133360401Y-115388906D01*
X133527429Y-115221878D01*
X133657439Y-115036205D01*
X133712016Y-114992580D01*
X133781514Y-114985386D01*
X133843869Y-115016909D01*
X133860585Y-115036200D01*
X133990825Y-115222201D01*
X134157919Y-115389295D01*
X134351490Y-115524835D01*
X134565657Y-115624703D01*
X134793912Y-115685863D01*
X135029320Y-115706459D01*
X135264728Y-115685863D01*
X135492983Y-115624703D01*
X135707150Y-115524835D01*
X135900721Y-115389295D01*
X136067815Y-115222201D01*
X136197746Y-115036639D01*
X136252322Y-114993016D01*
X136321820Y-114985822D01*
X136384175Y-115017345D01*
X136400891Y-115036637D01*
X136530825Y-115222201D01*
X136697919Y-115389295D01*
X136891490Y-115524835D01*
X137105657Y-115624703D01*
X137317379Y-115681433D01*
X137333912Y-115685863D01*
X137569319Y-115706459D01*
X137569319Y-115706458D01*
X137569320Y-115706459D01*
X137804728Y-115685863D01*
X138032983Y-115624703D01*
X138247150Y-115524835D01*
X138440721Y-115389295D01*
X138607815Y-115222201D01*
X138737746Y-115036639D01*
X138792322Y-114993016D01*
X138861820Y-114985822D01*
X138924175Y-115017345D01*
X138940891Y-115036637D01*
X139070825Y-115222201D01*
X139237919Y-115389295D01*
X139431490Y-115524835D01*
X139645657Y-115624703D01*
X139873912Y-115685863D01*
X140109320Y-115706459D01*
X140344728Y-115685863D01*
X140572983Y-115624703D01*
X140787150Y-115524835D01*
X140980721Y-115389295D01*
X141147815Y-115222201D01*
X141277746Y-115036639D01*
X141332322Y-114993016D01*
X141401820Y-114985822D01*
X141464175Y-115017345D01*
X141480891Y-115036637D01*
X141610825Y-115222201D01*
X141777919Y-115389295D01*
X141971490Y-115524835D01*
X142185657Y-115624703D01*
X142413912Y-115685863D01*
X142649320Y-115706459D01*
X142884728Y-115685863D01*
X143112983Y-115624703D01*
X143327150Y-115524835D01*
X143520721Y-115389295D01*
X143687815Y-115222201D01*
X143818052Y-115036203D01*
X143872627Y-114992580D01*
X143942125Y-114985386D01*
X144004480Y-115016909D01*
X144021200Y-115036204D01*
X144151213Y-115221881D01*
X144318238Y-115388906D01*
X144511743Y-115524400D01*
X144725829Y-115624230D01*
X144939320Y-115681434D01*
X144939320Y-114786301D01*
X145047005Y-114835480D01*
X145153557Y-114850800D01*
X145225083Y-114850800D01*
X145331635Y-114835480D01*
X145439320Y-114786301D01*
X145439320Y-115681433D01*
X145652810Y-115624230D01*
X145866896Y-115524400D01*
X146060401Y-115388906D01*
X146227429Y-115221878D01*
X146357439Y-115036205D01*
X146412016Y-114992580D01*
X146481514Y-114985386D01*
X146543869Y-115016909D01*
X146560585Y-115036200D01*
X146690825Y-115222201D01*
X146857919Y-115389295D01*
X147051490Y-115524835D01*
X147265657Y-115624703D01*
X147493912Y-115685863D01*
X147729320Y-115706459D01*
X147964728Y-115685863D01*
X148192983Y-115624703D01*
X148407150Y-115524835D01*
X148600721Y-115389295D01*
X148767815Y-115222201D01*
X148897746Y-115036639D01*
X148952322Y-114993016D01*
X149021820Y-114985822D01*
X149084175Y-115017345D01*
X149100891Y-115036637D01*
X149230825Y-115222201D01*
X149397919Y-115389295D01*
X149591490Y-115524835D01*
X149805657Y-115624703D01*
X150017379Y-115681433D01*
X150033912Y-115685863D01*
X150269319Y-115706459D01*
X150269319Y-115706458D01*
X150269320Y-115706459D01*
X150504728Y-115685863D01*
X150732983Y-115624703D01*
X150947150Y-115524835D01*
X151140721Y-115389295D01*
X151307815Y-115222201D01*
X151437746Y-115036639D01*
X151492322Y-114993016D01*
X151561820Y-114985822D01*
X151624175Y-115017345D01*
X151640891Y-115036637D01*
X151770825Y-115222201D01*
X151937919Y-115389295D01*
X152131490Y-115524835D01*
X152345657Y-115624703D01*
X152573912Y-115685863D01*
X152809320Y-115706459D01*
X153044728Y-115685863D01*
X153272983Y-115624703D01*
X153487150Y-115524835D01*
X153680721Y-115389295D01*
X153847815Y-115222201D01*
X153977746Y-115036639D01*
X154032322Y-114993017D01*
X154101821Y-114985824D01*
X154164175Y-115017346D01*
X154180891Y-115036637D01*
X154310825Y-115222201D01*
X154477919Y-115389295D01*
X154671490Y-115524835D01*
X154885657Y-115624703D01*
X155097379Y-115681433D01*
X155113912Y-115685863D01*
X155349319Y-115706459D01*
X155349319Y-115706458D01*
X155349320Y-115706459D01*
X155584728Y-115685863D01*
X155812983Y-115624703D01*
X156027150Y-115524835D01*
X156220721Y-115389295D01*
X156387815Y-115222201D01*
X156518052Y-115036203D01*
X156572627Y-114992580D01*
X156642125Y-114985386D01*
X156704480Y-115016909D01*
X156721200Y-115036204D01*
X156851213Y-115221881D01*
X157018238Y-115388906D01*
X157211743Y-115524400D01*
X157425829Y-115624230D01*
X157639320Y-115681434D01*
X157639320Y-114786301D01*
X157747005Y-114835480D01*
X157853557Y-114850800D01*
X157925083Y-114850800D01*
X158031635Y-114835480D01*
X158139320Y-114786301D01*
X158139320Y-115681433D01*
X158352810Y-115624230D01*
X158566896Y-115524400D01*
X158760401Y-115388906D01*
X158927429Y-115221878D01*
X159057439Y-115036205D01*
X159112016Y-114992580D01*
X159181514Y-114985386D01*
X159243869Y-115016909D01*
X159260585Y-115036200D01*
X159390825Y-115222201D01*
X159557919Y-115389295D01*
X159751490Y-115524835D01*
X159965657Y-115624703D01*
X160193912Y-115685863D01*
X160429320Y-115706459D01*
X160664728Y-115685863D01*
X160892983Y-115624703D01*
X161107150Y-115524835D01*
X161300721Y-115389295D01*
X161467815Y-115222201D01*
X161597746Y-115036639D01*
X161652322Y-114993016D01*
X161721820Y-114985822D01*
X161784175Y-115017345D01*
X161800891Y-115036637D01*
X161930825Y-115222201D01*
X162097919Y-115389295D01*
X162291490Y-115524835D01*
X162505657Y-115624703D01*
X162733912Y-115685863D01*
X162969320Y-115706459D01*
X163204728Y-115685863D01*
X163432983Y-115624703D01*
X163647150Y-115524835D01*
X163840721Y-115389295D01*
X164007815Y-115222201D01*
X164137746Y-115036639D01*
X164192322Y-114993016D01*
X164261820Y-114985822D01*
X164324175Y-115017345D01*
X164340891Y-115036637D01*
X164470825Y-115222201D01*
X164637919Y-115389295D01*
X164831490Y-115524835D01*
X165045657Y-115624703D01*
X165273912Y-115685863D01*
X165509320Y-115706459D01*
X165744728Y-115685863D01*
X165972983Y-115624703D01*
X166187150Y-115524835D01*
X166380721Y-115389295D01*
X166547815Y-115222201D01*
X166677746Y-115036639D01*
X166732322Y-114993016D01*
X166801820Y-114985822D01*
X166864175Y-115017345D01*
X166880891Y-115036637D01*
X167010825Y-115222201D01*
X167177919Y-115389295D01*
X167371490Y-115524835D01*
X167585657Y-115624703D01*
X167797379Y-115681433D01*
X167813912Y-115685863D01*
X168049319Y-115706459D01*
X168049319Y-115706458D01*
X168049320Y-115706459D01*
X168284728Y-115685863D01*
X168512983Y-115624703D01*
X168727150Y-115524835D01*
X168920721Y-115389295D01*
X169087815Y-115222201D01*
X169218052Y-115036203D01*
X169272627Y-114992580D01*
X169342125Y-114985386D01*
X169404480Y-115016909D01*
X169421200Y-115036204D01*
X169551213Y-115221881D01*
X169718238Y-115388906D01*
X169911743Y-115524400D01*
X170125829Y-115624230D01*
X170339320Y-115681434D01*
X170339320Y-114786301D01*
X170447005Y-114835480D01*
X170553557Y-114850800D01*
X170625083Y-114850800D01*
X170731635Y-114835480D01*
X170839320Y-114786301D01*
X170839320Y-115681433D01*
X171052810Y-115624230D01*
X171266896Y-115524400D01*
X171460401Y-115388906D01*
X171627429Y-115221878D01*
X171757439Y-115036205D01*
X171812016Y-114992580D01*
X171881514Y-114985386D01*
X171943869Y-115016909D01*
X171960585Y-115036200D01*
X172090825Y-115222201D01*
X172257919Y-115389295D01*
X172451490Y-115524835D01*
X172665657Y-115624703D01*
X172877379Y-115681433D01*
X172893912Y-115685863D01*
X173129319Y-115706459D01*
X173129319Y-115706458D01*
X173129320Y-115706459D01*
X173364728Y-115685863D01*
X173592983Y-115624703D01*
X173807150Y-115524835D01*
X174000721Y-115389295D01*
X174167815Y-115222201D01*
X174297746Y-115036639D01*
X174352322Y-114993017D01*
X174421821Y-114985824D01*
X174484175Y-115017346D01*
X174500891Y-115036637D01*
X174630825Y-115222201D01*
X174797919Y-115389295D01*
X174991490Y-115524835D01*
X175205657Y-115624703D01*
X175433912Y-115685863D01*
X175669320Y-115706459D01*
X175904728Y-115685863D01*
X176132983Y-115624703D01*
X176347150Y-115524835D01*
X176540721Y-115389295D01*
X176707815Y-115222201D01*
X176843355Y-115028630D01*
X176943223Y-114814463D01*
X177004383Y-114586208D01*
X177024979Y-114350800D01*
X177004383Y-114115392D01*
X176943223Y-113887137D01*
X176843355Y-113672971D01*
X176707815Y-113479399D01*
X176540721Y-113312305D01*
X176347150Y-113176765D01*
X176132983Y-113076897D01*
X176071821Y-113060509D01*
X175904727Y-113015736D01*
X175669320Y-112995140D01*
X175433912Y-113015736D01*
X175205656Y-113076897D01*
X174991490Y-113176765D01*
X174797918Y-113312305D01*
X174630825Y-113479398D01*
X174500895Y-113664959D01*
X174446318Y-113708584D01*
X174376820Y-113715778D01*
X174314465Y-113684255D01*
X174297745Y-113664959D01*
X174167814Y-113479398D01*
X174000724Y-113312308D01*
X174000721Y-113312305D01*
X173807150Y-113176765D01*
X173592983Y-113076897D01*
X173531821Y-113060509D01*
X173364727Y-113015736D01*
X173129319Y-112995140D01*
X172893912Y-113015736D01*
X172665656Y-113076897D01*
X172451490Y-113176765D01*
X172257918Y-113312305D01*
X172090828Y-113479395D01*
X171960589Y-113665396D01*
X171906012Y-113709020D01*
X171836513Y-113716213D01*
X171774159Y-113684691D01*
X171757439Y-113665395D01*
X171627429Y-113479721D01*
X171460401Y-113312693D01*
X171266896Y-113177199D01*
X171052812Y-113077369D01*
X170839320Y-113020164D01*
X170839320Y-113915298D01*
X170731635Y-113866120D01*
X170625083Y-113850800D01*
X170553557Y-113850800D01*
X170447005Y-113866120D01*
X170339320Y-113915298D01*
X170339320Y-113020164D01*
X170339319Y-113020164D01*
X170125827Y-113077369D01*
X169911741Y-113177200D01*
X169718241Y-113312690D01*
X169551213Y-113479718D01*
X169421200Y-113665396D01*
X169366623Y-113709020D01*
X169297124Y-113716213D01*
X169234770Y-113684691D01*
X169218050Y-113665395D01*
X169087814Y-113479398D01*
X168920724Y-113312308D01*
X168920721Y-113312305D01*
X168727150Y-113176765D01*
X168512983Y-113076897D01*
X168451822Y-113060509D01*
X168284727Y-113015736D01*
X168049320Y-112995140D01*
X167813912Y-113015736D01*
X167585656Y-113076897D01*
X167371490Y-113176765D01*
X167177918Y-113312305D01*
X167010825Y-113479398D01*
X166880895Y-113664959D01*
X166826318Y-113708584D01*
X166756820Y-113715778D01*
X166694465Y-113684255D01*
X166677745Y-113664959D01*
X166547814Y-113479398D01*
X166380724Y-113312308D01*
X166380721Y-113312305D01*
X166187150Y-113176765D01*
X165972983Y-113076897D01*
X165911822Y-113060509D01*
X165744727Y-113015736D01*
X165509320Y-112995140D01*
X165273912Y-113015736D01*
X165045656Y-113076897D01*
X164831490Y-113176765D01*
X164637918Y-113312305D01*
X164470825Y-113479398D01*
X164340895Y-113664959D01*
X164286318Y-113708584D01*
X164216820Y-113715778D01*
X164154465Y-113684255D01*
X164137745Y-113664959D01*
X164007814Y-113479398D01*
X163840724Y-113312308D01*
X163840721Y-113312305D01*
X163647150Y-113176765D01*
X163432983Y-113076897D01*
X163371822Y-113060509D01*
X163204727Y-113015736D01*
X162969319Y-112995140D01*
X162733912Y-113015736D01*
X162505656Y-113076897D01*
X162291490Y-113176765D01*
X162097918Y-113312305D01*
X161930825Y-113479398D01*
X161800895Y-113664959D01*
X161746318Y-113708584D01*
X161676820Y-113715778D01*
X161614465Y-113684255D01*
X161597745Y-113664959D01*
X161467814Y-113479398D01*
X161300724Y-113312308D01*
X161300723Y-113312308D01*
X161300721Y-113312305D01*
X161107150Y-113176765D01*
X160892983Y-113076897D01*
X160831822Y-113060509D01*
X160664727Y-113015736D01*
X160429320Y-112995140D01*
X160193912Y-113015736D01*
X159965656Y-113076897D01*
X159751490Y-113176765D01*
X159557918Y-113312305D01*
X159390828Y-113479395D01*
X159260589Y-113665396D01*
X159206012Y-113709020D01*
X159136513Y-113716213D01*
X159074159Y-113684691D01*
X159057439Y-113665395D01*
X158927429Y-113479721D01*
X158760401Y-113312693D01*
X158566896Y-113177199D01*
X158352812Y-113077369D01*
X158139320Y-113020164D01*
X158139320Y-113915298D01*
X158031635Y-113866120D01*
X157925083Y-113850800D01*
X157853557Y-113850800D01*
X157747005Y-113866120D01*
X157639320Y-113915298D01*
X157639320Y-113020164D01*
X157639319Y-113020164D01*
X157425827Y-113077369D01*
X157211741Y-113177200D01*
X157018241Y-113312690D01*
X156851213Y-113479718D01*
X156721200Y-113665396D01*
X156666623Y-113709020D01*
X156597124Y-113716213D01*
X156534770Y-113684691D01*
X156518050Y-113665395D01*
X156387814Y-113479398D01*
X156220724Y-113312308D01*
X156220721Y-113312305D01*
X156027150Y-113176765D01*
X155812983Y-113076897D01*
X155751821Y-113060509D01*
X155584727Y-113015736D01*
X155349319Y-112995140D01*
X155113912Y-113015736D01*
X154885656Y-113076897D01*
X154671490Y-113176765D01*
X154477918Y-113312305D01*
X154310825Y-113479398D01*
X154180895Y-113664959D01*
X154126318Y-113708584D01*
X154056820Y-113715778D01*
X153994465Y-113684255D01*
X153977745Y-113664959D01*
X153847814Y-113479398D01*
X153680724Y-113312308D01*
X153680721Y-113312305D01*
X153487150Y-113176765D01*
X153272983Y-113076897D01*
X153211822Y-113060509D01*
X153044727Y-113015736D01*
X152809320Y-112995140D01*
X152573912Y-113015736D01*
X152345656Y-113076897D01*
X152131490Y-113176765D01*
X151937918Y-113312305D01*
X151770825Y-113479398D01*
X151640895Y-113664959D01*
X151586318Y-113708584D01*
X151516820Y-113715778D01*
X151454465Y-113684255D01*
X151437745Y-113664959D01*
X151307814Y-113479398D01*
X151140724Y-113312308D01*
X151140721Y-113312305D01*
X150947150Y-113176765D01*
X150732983Y-113076897D01*
X150671821Y-113060509D01*
X150504727Y-113015736D01*
X150269319Y-112995140D01*
X150033912Y-113015736D01*
X149805656Y-113076897D01*
X149591490Y-113176765D01*
X149397918Y-113312305D01*
X149230825Y-113479398D01*
X149100895Y-113664959D01*
X149046318Y-113708584D01*
X148976820Y-113715778D01*
X148914465Y-113684255D01*
X148897745Y-113664959D01*
X148767814Y-113479398D01*
X148600724Y-113312308D01*
X148600721Y-113312305D01*
X148407150Y-113176765D01*
X148192983Y-113076897D01*
X148131822Y-113060509D01*
X147964727Y-113015736D01*
X147729320Y-112995140D01*
X147493912Y-113015736D01*
X147265656Y-113076897D01*
X147051490Y-113176765D01*
X146857918Y-113312305D01*
X146690828Y-113479395D01*
X146560589Y-113665396D01*
X146506012Y-113709020D01*
X146436513Y-113716213D01*
X146374159Y-113684691D01*
X146357439Y-113665395D01*
X146227429Y-113479721D01*
X146060401Y-113312693D01*
X145866896Y-113177199D01*
X145652812Y-113077369D01*
X145439320Y-113020164D01*
X145439320Y-113915298D01*
X145331635Y-113866120D01*
X145225083Y-113850800D01*
X145153557Y-113850800D01*
X145047005Y-113866120D01*
X144939320Y-113915298D01*
X144939320Y-113020164D01*
X144939319Y-113020164D01*
X144725827Y-113077369D01*
X144511741Y-113177200D01*
X144318241Y-113312690D01*
X144151213Y-113479718D01*
X144021200Y-113665396D01*
X143966623Y-113709020D01*
X143897124Y-113716213D01*
X143834770Y-113684691D01*
X143818050Y-113665395D01*
X143687814Y-113479398D01*
X143520724Y-113312308D01*
X143520721Y-113312305D01*
X143327150Y-113176765D01*
X143112983Y-113076897D01*
X143051822Y-113060509D01*
X142884727Y-113015736D01*
X142649320Y-112995140D01*
X142413912Y-113015736D01*
X142185656Y-113076897D01*
X141971490Y-113176765D01*
X141777918Y-113312305D01*
X141610825Y-113479398D01*
X141480895Y-113664959D01*
X141426318Y-113708584D01*
X141356820Y-113715778D01*
X141294465Y-113684255D01*
X141277745Y-113664959D01*
X141147814Y-113479398D01*
X140980724Y-113312308D01*
X140980721Y-113312305D01*
X140787150Y-113176765D01*
X140572983Y-113076897D01*
X140511821Y-113060509D01*
X140344727Y-113015736D01*
X140109319Y-112995140D01*
X139873912Y-113015736D01*
X139645656Y-113076897D01*
X139431490Y-113176765D01*
X139237918Y-113312305D01*
X139070825Y-113479398D01*
X138940895Y-113664959D01*
X138886318Y-113708584D01*
X138816820Y-113715778D01*
X138754465Y-113684255D01*
X138737745Y-113664959D01*
X138607814Y-113479398D01*
X138440724Y-113312308D01*
X138440723Y-113312308D01*
X138440721Y-113312305D01*
X138247150Y-113176765D01*
X138032983Y-113076897D01*
X137971822Y-113060509D01*
X137804727Y-113015736D01*
X137569319Y-112995140D01*
X137333912Y-113015736D01*
X137105656Y-113076897D01*
X136891490Y-113176765D01*
X136697918Y-113312305D01*
X136530825Y-113479398D01*
X136400895Y-113664959D01*
X136346318Y-113708584D01*
X136276820Y-113715778D01*
X136214465Y-113684255D01*
X136197745Y-113664959D01*
X136067814Y-113479398D01*
X135900724Y-113312308D01*
X135900721Y-113312305D01*
X135707150Y-113176765D01*
X135492983Y-113076897D01*
X135431821Y-113060509D01*
X135264727Y-113015736D01*
X135029320Y-112995140D01*
X134793912Y-113015736D01*
X134565656Y-113076897D01*
X134351490Y-113176765D01*
X134157918Y-113312305D01*
X133990828Y-113479395D01*
X133860589Y-113665396D01*
X133806012Y-113709020D01*
X133736513Y-113716213D01*
X133674159Y-113684691D01*
X133657439Y-113665395D01*
X133527429Y-113479721D01*
X133360401Y-113312693D01*
X133166896Y-113177199D01*
X132952812Y-113077369D01*
X132739319Y-113020164D01*
X132739319Y-113915298D01*
X132631635Y-113866120D01*
X132525083Y-113850800D01*
X132453557Y-113850800D01*
X132347005Y-113866120D01*
X132239319Y-113915298D01*
X132239320Y-113020164D01*
X132239319Y-113020164D01*
X132025827Y-113077369D01*
X131811741Y-113177200D01*
X131618241Y-113312690D01*
X131451213Y-113479718D01*
X131321200Y-113665396D01*
X131266623Y-113709020D01*
X131197124Y-113716213D01*
X131134770Y-113684691D01*
X131118050Y-113665395D01*
X130987814Y-113479398D01*
X130820724Y-113312308D01*
X130820721Y-113312305D01*
X130627150Y-113176765D01*
X130412983Y-113076897D01*
X130351822Y-113060509D01*
X130184727Y-113015736D01*
X129949320Y-112995140D01*
X129713912Y-113015736D01*
X129485656Y-113076897D01*
X129271490Y-113176765D01*
X129077921Y-113312303D01*
X128955993Y-113434231D01*
X128894670Y-113467715D01*
X128824978Y-113462731D01*
X128769045Y-113420859D01*
X128752130Y-113389882D01*
X128723339Y-113312690D01*
X128703116Y-113258469D01*
X128616866Y-113143254D01*
X128501651Y-113057004D01*
X128366803Y-113006709D01*
X128307193Y-113000300D01*
X128303870Y-113000300D01*
X126514759Y-113000300D01*
X126514740Y-113000300D01*
X126511448Y-113000301D01*
X126508168Y-113000653D01*
X126508160Y-113000654D01*
X126451835Y-113006709D01*
X126316989Y-113057004D01*
X126201774Y-113143254D01*
X126115524Y-113258468D01*
X126095300Y-113312693D01*
X126065229Y-113393317D01*
X126058820Y-113452927D01*
X126058820Y-113456248D01*
X126058820Y-113456249D01*
X126058820Y-115245360D01*
X126058820Y-115245378D01*
X119009820Y-115245378D01*
X119009820Y-77723999D01*
X120919940Y-77723999D01*
X120940536Y-77959407D01*
X120966096Y-78054798D01*
X121001697Y-78187663D01*
X121101565Y-78401830D01*
X121237105Y-78595401D01*
X121404199Y-78762495D01*
X121597770Y-78898035D01*
X121811937Y-78997903D01*
X122040192Y-79059063D01*
X122275600Y-79079659D01*
X122511008Y-79059063D01*
X122538415Y-79051719D01*
X122608263Y-79053380D01*
X122658191Y-79083812D01*
X122847781Y-79273402D01*
X122881266Y-79334725D01*
X122884100Y-79361083D01*
X122884099Y-94029500D01*
X122864414Y-94096539D01*
X122811610Y-94142294D01*
X122760099Y-94153500D01*
X121381039Y-94153500D01*
X121381020Y-94153500D01*
X121377728Y-94153501D01*
X121374448Y-94153853D01*
X121374440Y-94153854D01*
X121318115Y-94159909D01*
X121183269Y-94210204D01*
X121068054Y-94296454D01*
X120981804Y-94411668D01*
X120950424Y-94495804D01*
X120931509Y-94546517D01*
X120925100Y-94606127D01*
X120925100Y-94609448D01*
X120925100Y-94609449D01*
X120925100Y-96398560D01*
X120925100Y-96398578D01*
X120925101Y-96401872D01*
X120931509Y-96461483D01*
X120981804Y-96596331D01*
X121068054Y-96711546D01*
X121183269Y-96797796D01*
X121318117Y-96848091D01*
X121377727Y-96854500D01*
X122760100Y-96854499D01*
X122827139Y-96874184D01*
X122872894Y-96926987D01*
X122884100Y-96978499D01*
X122884099Y-99874754D01*
X122883873Y-99882239D01*
X122880294Y-99941407D01*
X122890979Y-99999712D01*
X122892106Y-100007115D01*
X122899252Y-100065963D01*
X122902743Y-100075168D01*
X122908768Y-100096780D01*
X122910542Y-100106463D01*
X122934872Y-100160523D01*
X122937730Y-100167424D01*
X122937842Y-100167717D01*
X122958756Y-100222862D01*
X122964349Y-100230965D01*
X122975373Y-100250512D01*
X122979411Y-100259484D01*
X123015963Y-100306139D01*
X123020403Y-100312173D01*
X123054079Y-100360962D01*
X123098452Y-100400273D01*
X123103905Y-100405407D01*
X126022501Y-103324002D01*
X126055986Y-103385325D01*
X126058820Y-103411683D01*
X126058820Y-104628160D01*
X126058820Y-104628178D01*
X126058821Y-104631472D01*
X126059173Y-104634752D01*
X126059174Y-104634759D01*
X126065229Y-104691084D01*
X126090376Y-104758506D01*
X126115524Y-104825931D01*
X126201774Y-104941146D01*
X126316989Y-105027396D01*
X126451837Y-105077691D01*
X126511447Y-105084100D01*
X128307192Y-105084099D01*
X128366803Y-105077691D01*
X128501651Y-105027396D01*
X128616866Y-104941146D01*
X128703116Y-104825931D01*
X128752130Y-104694516D01*
X128794001Y-104638583D01*
X128859466Y-104614166D01*
X128927739Y-104629018D01*
X128955993Y-104650169D01*
X129077919Y-104772095D01*
X129271490Y-104907635D01*
X129485657Y-105007503D01*
X129713912Y-105068663D01*
X129949320Y-105089259D01*
X130184728Y-105068663D01*
X130412983Y-105007503D01*
X130627150Y-104907635D01*
X130820721Y-104772095D01*
X130987815Y-104605001D01*
X131118052Y-104419003D01*
X131172627Y-104375380D01*
X131242125Y-104368186D01*
X131304480Y-104399709D01*
X131321200Y-104419004D01*
X131451213Y-104604681D01*
X131618238Y-104771706D01*
X131811743Y-104907200D01*
X132025829Y-105007030D01*
X132239320Y-105064234D01*
X132239319Y-104169101D01*
X132347005Y-104218280D01*
X132453557Y-104233600D01*
X132525083Y-104233600D01*
X132631635Y-104218280D01*
X132739319Y-104169101D01*
X132739319Y-105064233D01*
X132952811Y-105007030D01*
X133166896Y-104907200D01*
X133360401Y-104771706D01*
X133527429Y-104604678D01*
X133657439Y-104419005D01*
X133712016Y-104375380D01*
X133781514Y-104368186D01*
X133843869Y-104399709D01*
X133860585Y-104419000D01*
X133990825Y-104605001D01*
X134157919Y-104772095D01*
X134351490Y-104907635D01*
X134565657Y-105007503D01*
X134793912Y-105068663D01*
X135029320Y-105089259D01*
X135264728Y-105068663D01*
X135492983Y-105007503D01*
X135707150Y-104907635D01*
X135900721Y-104772095D01*
X136067815Y-104605001D01*
X136197746Y-104419439D01*
X136252322Y-104375816D01*
X136321820Y-104368622D01*
X136384175Y-104400145D01*
X136400891Y-104419437D01*
X136530825Y-104605001D01*
X136697919Y-104772095D01*
X136891490Y-104907635D01*
X137105657Y-105007503D01*
X137317379Y-105064233D01*
X137333912Y-105068663D01*
X137569319Y-105089259D01*
X137569319Y-105089258D01*
X137569320Y-105089259D01*
X137804728Y-105068663D01*
X138032983Y-105007503D01*
X138247150Y-104907635D01*
X138440721Y-104772095D01*
X138607815Y-104605001D01*
X138737746Y-104419439D01*
X138792322Y-104375816D01*
X138861820Y-104368622D01*
X138924175Y-104400145D01*
X138940891Y-104419437D01*
X139070825Y-104605001D01*
X139237919Y-104772095D01*
X139431490Y-104907635D01*
X139645657Y-105007503D01*
X139857379Y-105064233D01*
X139873912Y-105068663D01*
X140109319Y-105089259D01*
X140109319Y-105089258D01*
X140109320Y-105089259D01*
X140344728Y-105068663D01*
X140572983Y-105007503D01*
X140787150Y-104907635D01*
X140980721Y-104772095D01*
X141147815Y-104605001D01*
X141277746Y-104419439D01*
X141332322Y-104375816D01*
X141401820Y-104368622D01*
X141464175Y-104400145D01*
X141480891Y-104419437D01*
X141610825Y-104605001D01*
X141777919Y-104772095D01*
X141971490Y-104907635D01*
X142185657Y-105007503D01*
X142413912Y-105068663D01*
X142649320Y-105089259D01*
X142884728Y-105068663D01*
X143112983Y-105007503D01*
X143327150Y-104907635D01*
X143520721Y-104772095D01*
X143687815Y-104605001D01*
X143817746Y-104419439D01*
X143872322Y-104375816D01*
X143941820Y-104368622D01*
X144004175Y-104400145D01*
X144020891Y-104419437D01*
X144150825Y-104605001D01*
X144317919Y-104772095D01*
X144511490Y-104907635D01*
X144725657Y-105007503D01*
X144953912Y-105068663D01*
X145189320Y-105089259D01*
X145424728Y-105068663D01*
X145652983Y-105007503D01*
X145867150Y-104907635D01*
X146060721Y-104772095D01*
X146227815Y-104605001D01*
X146357746Y-104419439D01*
X146412322Y-104375816D01*
X146481820Y-104368622D01*
X146544175Y-104400145D01*
X146560891Y-104419437D01*
X146690825Y-104605001D01*
X146857919Y-104772095D01*
X147051490Y-104907635D01*
X147265657Y-105007503D01*
X147493912Y-105068663D01*
X147729320Y-105089259D01*
X147964728Y-105068663D01*
X148192983Y-105007503D01*
X148407150Y-104907635D01*
X148600721Y-104772095D01*
X148767815Y-104605001D01*
X148897746Y-104419439D01*
X148952322Y-104375816D01*
X149021820Y-104368622D01*
X149084175Y-104400145D01*
X149100891Y-104419437D01*
X149230825Y-104605001D01*
X149397919Y-104772095D01*
X149591490Y-104907635D01*
X149805657Y-105007503D01*
X150017379Y-105064233D01*
X150033912Y-105068663D01*
X150269319Y-105089259D01*
X150269319Y-105089258D01*
X150269320Y-105089259D01*
X150504728Y-105068663D01*
X150732983Y-105007503D01*
X150947150Y-104907635D01*
X151140721Y-104772095D01*
X151307815Y-104605001D01*
X151437746Y-104419439D01*
X151492322Y-104375816D01*
X151561820Y-104368622D01*
X151624175Y-104400145D01*
X151640891Y-104419437D01*
X151770825Y-104605001D01*
X151937919Y-104772095D01*
X152131490Y-104907635D01*
X152345657Y-105007503D01*
X152573912Y-105068663D01*
X152809320Y-105089259D01*
X153044728Y-105068663D01*
X153272983Y-105007503D01*
X153487150Y-104907635D01*
X153680721Y-104772095D01*
X153847815Y-104605001D01*
X153977746Y-104419439D01*
X154032322Y-104375816D01*
X154101820Y-104368622D01*
X154164175Y-104400145D01*
X154180891Y-104419437D01*
X154310825Y-104605001D01*
X154477919Y-104772095D01*
X154671490Y-104907635D01*
X154885657Y-105007503D01*
X155113912Y-105068663D01*
X155349320Y-105089259D01*
X155584728Y-105068663D01*
X155812983Y-105007503D01*
X156027150Y-104907635D01*
X156220721Y-104772095D01*
X156387815Y-104605001D01*
X156518052Y-104419003D01*
X156572627Y-104375380D01*
X156642125Y-104368186D01*
X156704480Y-104399709D01*
X156721200Y-104419004D01*
X156851213Y-104604681D01*
X157018238Y-104771706D01*
X157211743Y-104907200D01*
X157425829Y-105007030D01*
X157639320Y-105064234D01*
X157639320Y-104169101D01*
X157747005Y-104218280D01*
X157853557Y-104233600D01*
X157925083Y-104233600D01*
X158031635Y-104218280D01*
X158139320Y-104169101D01*
X158139320Y-105064233D01*
X158352810Y-105007030D01*
X158566896Y-104907200D01*
X158760401Y-104771706D01*
X158927429Y-104604678D01*
X159057439Y-104419005D01*
X159112016Y-104375380D01*
X159181514Y-104368186D01*
X159243869Y-104399709D01*
X159260585Y-104419000D01*
X159390825Y-104605001D01*
X159557919Y-104772095D01*
X159751490Y-104907635D01*
X159965657Y-105007503D01*
X160193912Y-105068663D01*
X160429320Y-105089259D01*
X160664728Y-105068663D01*
X160892983Y-105007503D01*
X161107150Y-104907635D01*
X161300721Y-104772095D01*
X161467815Y-104605001D01*
X161597746Y-104419439D01*
X161652322Y-104375816D01*
X161721820Y-104368622D01*
X161784175Y-104400145D01*
X161800891Y-104419437D01*
X161930825Y-104605001D01*
X162097919Y-104772095D01*
X162291490Y-104907635D01*
X162505657Y-105007503D01*
X162717379Y-105064233D01*
X162733912Y-105068663D01*
X162969319Y-105089259D01*
X162969319Y-105089258D01*
X162969320Y-105089259D01*
X163204728Y-105068663D01*
X163432983Y-105007503D01*
X163647150Y-104907635D01*
X163840721Y-104772095D01*
X164007815Y-104605001D01*
X164137746Y-104419439D01*
X164192322Y-104375816D01*
X164261820Y-104368622D01*
X164324175Y-104400145D01*
X164340891Y-104419437D01*
X164470825Y-104605001D01*
X164637919Y-104772095D01*
X164831490Y-104907635D01*
X165045657Y-105007503D01*
X165273912Y-105068663D01*
X165509320Y-105089259D01*
X165744728Y-105068663D01*
X165972983Y-105007503D01*
X166187150Y-104907635D01*
X166380721Y-104772095D01*
X166547815Y-104605001D01*
X166677746Y-104419439D01*
X166732322Y-104375816D01*
X166801820Y-104368622D01*
X166864175Y-104400145D01*
X166880891Y-104419437D01*
X167010825Y-104605001D01*
X167177919Y-104772095D01*
X167371490Y-104907635D01*
X167585657Y-105007503D01*
X167813912Y-105068663D01*
X168049320Y-105089259D01*
X168284728Y-105068663D01*
X168512983Y-105007503D01*
X168727150Y-104907635D01*
X168920721Y-104772095D01*
X169087815Y-104605001D01*
X169218052Y-104419003D01*
X169272627Y-104375380D01*
X169342125Y-104368186D01*
X169404480Y-104399709D01*
X169421200Y-104419004D01*
X169551213Y-104604681D01*
X169718238Y-104771706D01*
X169911743Y-104907200D01*
X170125829Y-105007030D01*
X170339320Y-105064234D01*
X170339320Y-104169101D01*
X170447005Y-104218280D01*
X170553557Y-104233600D01*
X170625083Y-104233600D01*
X170731635Y-104218280D01*
X170839320Y-104169101D01*
X170839320Y-105064233D01*
X171052810Y-105007030D01*
X171266896Y-104907200D01*
X171460401Y-104771706D01*
X171627429Y-104604678D01*
X171757439Y-104419005D01*
X171812016Y-104375380D01*
X171881514Y-104368186D01*
X171943869Y-104399709D01*
X171960585Y-104419000D01*
X172090825Y-104605001D01*
X172257919Y-104772095D01*
X172451490Y-104907635D01*
X172665657Y-105007503D01*
X172877379Y-105064233D01*
X172893912Y-105068663D01*
X173129319Y-105089259D01*
X173129319Y-105089258D01*
X173129320Y-105089259D01*
X173364728Y-105068663D01*
X173592983Y-105007503D01*
X173807150Y-104907635D01*
X174000721Y-104772095D01*
X174167815Y-104605001D01*
X174297746Y-104419439D01*
X174352322Y-104375817D01*
X174421821Y-104368624D01*
X174484175Y-104400146D01*
X174500891Y-104419437D01*
X174630825Y-104605001D01*
X174797919Y-104772095D01*
X174991490Y-104907635D01*
X175205657Y-105007503D01*
X175417379Y-105064233D01*
X175433912Y-105068663D01*
X175669319Y-105089259D01*
X175669319Y-105089258D01*
X175669320Y-105089259D01*
X175904728Y-105068663D01*
X176132983Y-105007503D01*
X176347150Y-104907635D01*
X176540721Y-104772095D01*
X176707815Y-104605001D01*
X176843355Y-104411430D01*
X176943223Y-104197263D01*
X177004383Y-103969008D01*
X177024979Y-103733600D01*
X177004383Y-103498192D01*
X176943223Y-103269937D01*
X176843355Y-103055771D01*
X176707815Y-102862199D01*
X176540721Y-102695105D01*
X176347150Y-102559565D01*
X176132983Y-102459697D01*
X176071821Y-102443309D01*
X175904727Y-102398536D01*
X175669320Y-102377940D01*
X175433912Y-102398536D01*
X175205656Y-102459697D01*
X174991490Y-102559565D01*
X174797918Y-102695105D01*
X174630825Y-102862198D01*
X174500895Y-103047759D01*
X174446318Y-103091384D01*
X174376820Y-103098578D01*
X174314465Y-103067055D01*
X174297745Y-103047759D01*
X174217569Y-102933256D01*
X174167815Y-102862199D01*
X174000721Y-102695105D01*
X173807150Y-102559565D01*
X173592983Y-102459697D01*
X173531821Y-102443309D01*
X173364727Y-102398536D01*
X173129319Y-102377940D01*
X172893912Y-102398536D01*
X172665656Y-102459697D01*
X172451490Y-102559565D01*
X172257918Y-102695105D01*
X172090828Y-102862195D01*
X172090825Y-102862198D01*
X172090825Y-102862199D01*
X172041071Y-102933256D01*
X171960589Y-103048196D01*
X171906012Y-103091820D01*
X171836513Y-103099013D01*
X171774159Y-103067491D01*
X171757439Y-103048195D01*
X171627429Y-102862521D01*
X171460401Y-102695493D01*
X171266896Y-102559999D01*
X171052812Y-102460169D01*
X170839320Y-102402964D01*
X170839320Y-103298098D01*
X170731635Y-103248920D01*
X170625083Y-103233600D01*
X170553557Y-103233600D01*
X170447005Y-103248920D01*
X170339320Y-103298098D01*
X170339320Y-102402964D01*
X170339319Y-102402964D01*
X170125827Y-102460169D01*
X169911741Y-102560000D01*
X169718241Y-102695490D01*
X169551213Y-102862518D01*
X169421200Y-103048196D01*
X169366623Y-103091820D01*
X169297124Y-103099013D01*
X169234770Y-103067491D01*
X169218050Y-103048195D01*
X169137569Y-102933256D01*
X169087815Y-102862199D01*
X168920721Y-102695105D01*
X168727150Y-102559565D01*
X168512983Y-102459697D01*
X168451822Y-102443309D01*
X168284727Y-102398536D01*
X168049320Y-102377940D01*
X167813912Y-102398536D01*
X167585656Y-102459697D01*
X167371490Y-102559565D01*
X167177918Y-102695105D01*
X167010825Y-102862198D01*
X166880895Y-103047759D01*
X166826318Y-103091384D01*
X166756820Y-103098578D01*
X166694465Y-103067055D01*
X166677745Y-103047759D01*
X166597569Y-102933256D01*
X166547815Y-102862199D01*
X166380721Y-102695105D01*
X166187150Y-102559565D01*
X165972983Y-102459697D01*
X165911821Y-102443309D01*
X165744727Y-102398536D01*
X165509320Y-102377940D01*
X165273912Y-102398536D01*
X165045656Y-102459697D01*
X164831490Y-102559565D01*
X164637918Y-102695105D01*
X164470825Y-102862198D01*
X164340895Y-103047759D01*
X164286318Y-103091384D01*
X164216820Y-103098578D01*
X164154465Y-103067055D01*
X164137745Y-103047759D01*
X164057569Y-102933256D01*
X164007815Y-102862199D01*
X163840721Y-102695105D01*
X163647150Y-102559565D01*
X163432983Y-102459697D01*
X163371822Y-102443309D01*
X163204727Y-102398536D01*
X162969320Y-102377940D01*
X162733912Y-102398536D01*
X162505656Y-102459697D01*
X162291490Y-102559565D01*
X162097918Y-102695105D01*
X161930825Y-102862198D01*
X161800895Y-103047759D01*
X161746318Y-103091384D01*
X161676820Y-103098578D01*
X161614465Y-103067055D01*
X161597745Y-103047759D01*
X161517569Y-102933256D01*
X161467815Y-102862199D01*
X161300721Y-102695105D01*
X161107150Y-102559565D01*
X160892983Y-102459697D01*
X160831821Y-102443309D01*
X160664727Y-102398536D01*
X160429320Y-102377940D01*
X160193912Y-102398536D01*
X159965656Y-102459697D01*
X159751490Y-102559565D01*
X159557918Y-102695105D01*
X159390828Y-102862195D01*
X159390825Y-102862198D01*
X159390825Y-102862199D01*
X159341071Y-102933256D01*
X159260589Y-103048196D01*
X159206012Y-103091820D01*
X159136513Y-103099013D01*
X159074159Y-103067491D01*
X159057439Y-103048195D01*
X158927429Y-102862521D01*
X158760401Y-102695493D01*
X158566896Y-102559999D01*
X158352812Y-102460169D01*
X158139320Y-102402964D01*
X158139320Y-103298098D01*
X158031635Y-103248920D01*
X157925083Y-103233600D01*
X157853557Y-103233600D01*
X157747005Y-103248920D01*
X157639320Y-103298098D01*
X157639320Y-102402964D01*
X157639319Y-102402964D01*
X157425826Y-102460169D01*
X157272505Y-102531665D01*
X157203427Y-102542157D01*
X157139643Y-102513637D01*
X157101404Y-102455161D01*
X157096100Y-102419283D01*
X157096100Y-96843918D01*
X157115785Y-96776879D01*
X157168589Y-96731124D01*
X157237747Y-96721180D01*
X157272499Y-96731534D01*
X157371937Y-96777903D01*
X157600192Y-96839063D01*
X157835600Y-96859659D01*
X158071008Y-96839063D01*
X158299263Y-96777903D01*
X158513430Y-96678035D01*
X158707001Y-96542495D01*
X158874095Y-96375401D01*
X159004026Y-96189839D01*
X159058602Y-96146216D01*
X159128100Y-96139022D01*
X159190455Y-96170545D01*
X159207171Y-96189837D01*
X159337105Y-96375401D01*
X159504199Y-96542495D01*
X159697770Y-96678035D01*
X159911937Y-96777903D01*
X160123659Y-96834633D01*
X160140192Y-96839063D01*
X160375599Y-96859659D01*
X160375599Y-96859658D01*
X160375600Y-96859659D01*
X160611008Y-96839063D01*
X160839263Y-96777903D01*
X161053430Y-96678035D01*
X161247001Y-96542495D01*
X161414095Y-96375401D01*
X161544026Y-96189839D01*
X161598602Y-96146216D01*
X161668100Y-96139022D01*
X161730455Y-96170545D01*
X161747171Y-96189837D01*
X161877105Y-96375401D01*
X162044199Y-96542495D01*
X162237770Y-96678035D01*
X162451937Y-96777903D01*
X162680192Y-96839063D01*
X162915600Y-96859659D01*
X163151008Y-96839063D01*
X163379263Y-96777903D01*
X163593430Y-96678035D01*
X163787001Y-96542495D01*
X163954095Y-96375401D01*
X164084332Y-96189403D01*
X164138907Y-96145780D01*
X164208405Y-96138586D01*
X164270760Y-96170109D01*
X164287480Y-96189404D01*
X164417493Y-96375081D01*
X164584518Y-96542106D01*
X164778023Y-96677600D01*
X164992109Y-96777430D01*
X165205600Y-96834634D01*
X165205600Y-95939501D01*
X165313285Y-95988680D01*
X165419837Y-96004000D01*
X165491363Y-96004000D01*
X165597915Y-95988680D01*
X165705600Y-95939501D01*
X165705600Y-96834633D01*
X165919090Y-96777430D01*
X166133176Y-96677600D01*
X166326681Y-96542106D01*
X166493709Y-96375078D01*
X166623719Y-96189405D01*
X166678296Y-96145780D01*
X166747794Y-96138586D01*
X166810149Y-96170109D01*
X166826865Y-96189400D01*
X166957105Y-96375401D01*
X167124199Y-96542495D01*
X167317770Y-96678035D01*
X167531937Y-96777903D01*
X167760192Y-96839063D01*
X167995600Y-96859659D01*
X168231008Y-96839063D01*
X168459263Y-96777903D01*
X168673430Y-96678035D01*
X168867001Y-96542495D01*
X169034095Y-96375401D01*
X169164026Y-96189839D01*
X169218602Y-96146216D01*
X169288100Y-96139022D01*
X169350455Y-96170545D01*
X169367171Y-96189837D01*
X169497105Y-96375401D01*
X169664199Y-96542495D01*
X169857770Y-96678035D01*
X170071937Y-96777903D01*
X170300192Y-96839063D01*
X170535600Y-96859659D01*
X170771008Y-96839063D01*
X170999263Y-96777903D01*
X171213430Y-96678035D01*
X171407001Y-96542495D01*
X171574095Y-96375401D01*
X171709635Y-96181830D01*
X171809503Y-95967663D01*
X171870663Y-95739408D01*
X171891259Y-95504000D01*
X171870663Y-95268592D01*
X171809503Y-95040337D01*
X171709635Y-94826171D01*
X171574095Y-94632599D01*
X171407001Y-94465505D01*
X171213430Y-94329965D01*
X170999263Y-94230097D01*
X170929006Y-94211272D01*
X170771007Y-94168936D01*
X170535600Y-94148340D01*
X170300192Y-94168936D01*
X170071936Y-94230097D01*
X169857770Y-94329965D01*
X169664198Y-94465505D01*
X169497105Y-94632598D01*
X169367175Y-94818159D01*
X169312598Y-94861784D01*
X169243100Y-94868978D01*
X169180745Y-94837455D01*
X169164025Y-94818159D01*
X169055308Y-94662895D01*
X169034095Y-94632599D01*
X168867001Y-94465505D01*
X168673430Y-94329965D01*
X168459263Y-94230097D01*
X168389006Y-94211272D01*
X168231007Y-94168936D01*
X167995600Y-94148340D01*
X167760192Y-94168936D01*
X167531936Y-94230097D01*
X167317770Y-94329965D01*
X167124198Y-94465505D01*
X166957108Y-94632595D01*
X166957107Y-94632597D01*
X166957105Y-94632599D01*
X166935892Y-94662895D01*
X166826869Y-94818596D01*
X166772292Y-94862220D01*
X166702793Y-94869413D01*
X166640439Y-94837891D01*
X166623719Y-94818595D01*
X166493709Y-94632921D01*
X166326681Y-94465893D01*
X166133176Y-94330399D01*
X165919092Y-94230569D01*
X165705600Y-94173364D01*
X165705600Y-95068498D01*
X165597915Y-95019320D01*
X165491363Y-95004000D01*
X165419837Y-95004000D01*
X165313285Y-95019320D01*
X165205600Y-95068498D01*
X165205600Y-94173364D01*
X165205599Y-94173364D01*
X164992107Y-94230569D01*
X164778021Y-94330400D01*
X164584521Y-94465890D01*
X164417493Y-94632918D01*
X164287480Y-94818596D01*
X164232903Y-94862220D01*
X164163404Y-94869413D01*
X164101050Y-94837891D01*
X164084330Y-94818595D01*
X163954095Y-94632599D01*
X163787001Y-94465505D01*
X163593430Y-94329965D01*
X163379263Y-94230097D01*
X163309006Y-94211272D01*
X163151007Y-94168936D01*
X162915599Y-94148340D01*
X162680192Y-94168936D01*
X162451936Y-94230097D01*
X162237770Y-94329965D01*
X162044198Y-94465505D01*
X161877105Y-94632598D01*
X161747175Y-94818159D01*
X161692598Y-94861784D01*
X161623100Y-94868978D01*
X161560745Y-94837455D01*
X161544025Y-94818159D01*
X161435308Y-94662895D01*
X161414095Y-94632599D01*
X161247001Y-94465505D01*
X161053430Y-94329965D01*
X160839263Y-94230097D01*
X160769006Y-94211272D01*
X160611007Y-94168936D01*
X160375599Y-94148340D01*
X160140192Y-94168936D01*
X159911936Y-94230097D01*
X159697770Y-94329965D01*
X159504198Y-94465505D01*
X159337105Y-94632598D01*
X159207175Y-94818159D01*
X159152598Y-94861784D01*
X159083100Y-94868978D01*
X159020745Y-94837455D01*
X159004025Y-94818159D01*
X158895308Y-94662895D01*
X158874095Y-94632599D01*
X158707001Y-94465505D01*
X158513430Y-94329965D01*
X158299263Y-94230097D01*
X158229006Y-94211272D01*
X158071007Y-94168936D01*
X157835600Y-94148340D01*
X157600192Y-94168936D01*
X157371936Y-94230097D01*
X157272505Y-94276463D01*
X157203428Y-94286955D01*
X157139644Y-94258435D01*
X157101404Y-94199959D01*
X157096100Y-94164081D01*
X157096100Y-91978918D01*
X175230800Y-91978918D01*
X175231154Y-91985532D01*
X175237200Y-92041771D01*
X175287447Y-92176489D01*
X175373611Y-92291588D01*
X175488710Y-92377752D01*
X175620787Y-92427014D01*
X175676720Y-92468886D01*
X175701137Y-92534350D01*
X175686285Y-92602623D01*
X175665135Y-92630877D01*
X175542688Y-92753324D01*
X175407200Y-92946821D01*
X175307369Y-93160907D01*
X175250164Y-93374399D01*
X175250164Y-93374400D01*
X176147114Y-93374400D01*
X176121307Y-93414556D01*
X176080800Y-93552511D01*
X176080800Y-93696289D01*
X176121307Y-93834244D01*
X176147114Y-93874400D01*
X175250164Y-93874400D01*
X175307369Y-94087892D01*
X175407199Y-94301976D01*
X175542693Y-94495481D01*
X175709718Y-94662506D01*
X175903223Y-94798000D01*
X176117309Y-94897830D01*
X176330800Y-94955034D01*
X176330800Y-94059901D01*
X176438485Y-94109080D01*
X176545037Y-94124400D01*
X176616563Y-94124400D01*
X176723115Y-94109080D01*
X176830800Y-94059901D01*
X176830800Y-94955033D01*
X177044290Y-94897830D01*
X177258376Y-94798000D01*
X177451881Y-94662506D01*
X177618909Y-94495478D01*
X177748919Y-94309805D01*
X177803496Y-94266180D01*
X177872994Y-94258986D01*
X177935349Y-94290509D01*
X177952065Y-94309800D01*
X178082305Y-94495801D01*
X178249399Y-94662895D01*
X178442970Y-94798435D01*
X178657137Y-94898303D01*
X178885392Y-94959463D01*
X179120800Y-94980059D01*
X179356208Y-94959463D01*
X179584463Y-94898303D01*
X179798630Y-94798435D01*
X179992201Y-94662895D01*
X180159295Y-94495801D01*
X180289226Y-94310239D01*
X180343802Y-94266617D01*
X180413301Y-94259424D01*
X180475655Y-94290946D01*
X180492371Y-94310237D01*
X180622305Y-94495801D01*
X180789399Y-94662895D01*
X180982970Y-94798435D01*
X181197137Y-94898303D01*
X181408859Y-94955033D01*
X181425392Y-94959463D01*
X181660799Y-94980059D01*
X181660799Y-94980058D01*
X181660800Y-94980059D01*
X181896208Y-94959463D01*
X182124463Y-94898303D01*
X182338630Y-94798435D01*
X182532201Y-94662895D01*
X182699295Y-94495801D01*
X182834835Y-94302230D01*
X182934703Y-94088063D01*
X182995863Y-93859808D01*
X183016459Y-93624400D01*
X182995863Y-93388992D01*
X182934703Y-93160737D01*
X182834835Y-92946571D01*
X182699295Y-92752999D01*
X182532201Y-92585905D01*
X182346639Y-92455973D01*
X182303016Y-92401398D01*
X182295822Y-92331900D01*
X182327345Y-92269545D01*
X182346637Y-92252828D01*
X182532201Y-92122895D01*
X182699295Y-91955801D01*
X182834835Y-91762230D01*
X182934703Y-91548063D01*
X182995863Y-91319808D01*
X183016459Y-91084400D01*
X182995863Y-90848992D01*
X182934703Y-90620737D01*
X182834835Y-90406571D01*
X182699295Y-90212999D01*
X182532201Y-90045905D01*
X182338630Y-89910365D01*
X182124463Y-89810497D01*
X182051874Y-89791047D01*
X181896207Y-89749336D01*
X181660800Y-89728740D01*
X181425392Y-89749336D01*
X181197136Y-89810497D01*
X180982970Y-89910365D01*
X180789398Y-90045905D01*
X180622305Y-90212998D01*
X180492375Y-90398559D01*
X180437798Y-90442184D01*
X180368300Y-90449378D01*
X180305945Y-90417855D01*
X180289225Y-90398559D01*
X180257303Y-90352970D01*
X180159295Y-90212999D01*
X179992201Y-90045905D01*
X179798630Y-89910365D01*
X179584463Y-89810497D01*
X179511874Y-89791047D01*
X179356207Y-89749336D01*
X179120799Y-89728740D01*
X178885392Y-89749336D01*
X178657136Y-89810497D01*
X178442970Y-89910365D01*
X178249401Y-90045903D01*
X178127085Y-90168219D01*
X178065762Y-90201703D01*
X177996070Y-90196719D01*
X177940137Y-90154847D01*
X177923222Y-90123871D01*
X177874152Y-89992311D01*
X177787988Y-89877211D01*
X177672889Y-89791047D01*
X177538171Y-89740800D01*
X177481932Y-89734754D01*
X177475318Y-89734400D01*
X176830800Y-89734400D01*
X176830800Y-90648898D01*
X176723115Y-90599720D01*
X176616563Y-90584400D01*
X176545037Y-90584400D01*
X176438485Y-90599720D01*
X176330800Y-90648898D01*
X176330800Y-89734400D01*
X175686282Y-89734400D01*
X175679667Y-89734754D01*
X175623428Y-89740800D01*
X175488710Y-89791047D01*
X175373611Y-89877211D01*
X175287447Y-89992310D01*
X175237200Y-90127028D01*
X175231154Y-90183267D01*
X175230800Y-90189881D01*
X175230800Y-90834400D01*
X176147114Y-90834400D01*
X176121307Y-90874556D01*
X176080800Y-91012511D01*
X176080800Y-91156289D01*
X176121307Y-91294244D01*
X176147114Y-91334400D01*
X175230800Y-91334400D01*
X175230800Y-91978918D01*
X157096100Y-91978918D01*
X157096100Y-88481339D01*
X157098363Y-88460838D01*
X157096161Y-88390744D01*
X157096100Y-88386850D01*
X157096100Y-88363144D01*
X157096100Y-88359250D01*
X157095598Y-88355281D01*
X157094680Y-88343624D01*
X157093309Y-88299973D01*
X157087720Y-88280740D01*
X157083774Y-88261682D01*
X157081264Y-88241808D01*
X157065188Y-88201206D01*
X157061404Y-88190152D01*
X157049219Y-88148213D01*
X157049218Y-88148212D01*
X157049218Y-88148210D01*
X157039017Y-88130961D01*
X157030460Y-88113495D01*
X157023086Y-88094868D01*
X156997413Y-88059532D01*
X156991002Y-88049772D01*
X156968769Y-88012178D01*
X156954606Y-87998015D01*
X156941969Y-87983220D01*
X156930195Y-87967014D01*
X156930194Y-87967013D01*
X156896535Y-87939168D01*
X156887905Y-87931314D01*
X152830960Y-83874369D01*
X152797475Y-83813046D01*
X152795323Y-83799668D01*
X152777674Y-83631744D01*
X152719179Y-83451716D01*
X152719179Y-83451715D01*
X152624533Y-83287783D01*
X152497870Y-83147110D01*
X152344730Y-83035848D01*
X152171802Y-82958855D01*
X151986648Y-82919500D01*
X151986646Y-82919500D01*
X151797354Y-82919500D01*
X151797352Y-82919500D01*
X151612197Y-82958855D01*
X151439269Y-83035848D01*
X151286127Y-83147112D01*
X151285647Y-83147646D01*
X151283977Y-83148674D01*
X151275585Y-83154772D01*
X151275119Y-83154131D01*
X151226160Y-83184293D01*
X151156303Y-83182960D01*
X151111741Y-83154322D01*
X151111415Y-83154772D01*
X151103552Y-83149059D01*
X151101353Y-83147646D01*
X151100872Y-83147112D01*
X150947730Y-83035848D01*
X150774802Y-82958855D01*
X150589648Y-82919500D01*
X150589646Y-82919500D01*
X150400354Y-82919500D01*
X150400352Y-82919500D01*
X150215197Y-82958855D01*
X150042269Y-83035848D01*
X149889129Y-83147110D01*
X149762466Y-83287783D01*
X149667820Y-83451715D01*
X149609326Y-83631742D01*
X149589540Y-83820000D01*
X149609326Y-84008257D01*
X149667820Y-84188284D01*
X149762466Y-84352216D01*
X149889129Y-84492889D01*
X150042269Y-84604151D01*
X150215197Y-84681144D01*
X150400352Y-84720500D01*
X150400354Y-84720500D01*
X150459548Y-84720500D01*
X150526587Y-84740185D01*
X150547229Y-84756818D01*
X153268782Y-87478372D01*
X153302266Y-87539693D01*
X153305100Y-87566051D01*
X153305100Y-94092015D01*
X153285415Y-94159054D01*
X153232611Y-94204809D01*
X153163453Y-94214753D01*
X153149006Y-94211790D01*
X153005600Y-94173364D01*
X153005600Y-95068498D01*
X152897915Y-95019320D01*
X152791363Y-95004000D01*
X152719837Y-95004000D01*
X152613285Y-95019320D01*
X152505600Y-95068498D01*
X152505600Y-94173364D01*
X152505599Y-94173364D01*
X152292107Y-94230569D01*
X152078021Y-94330400D01*
X151884521Y-94465890D01*
X151717493Y-94632918D01*
X151587480Y-94818596D01*
X151532903Y-94862220D01*
X151463404Y-94869413D01*
X151401050Y-94837891D01*
X151384330Y-94818595D01*
X151254095Y-94632599D01*
X151087001Y-94465505D01*
X150893430Y-94329965D01*
X150679263Y-94230097D01*
X150609006Y-94211272D01*
X150451007Y-94168936D01*
X150215599Y-94148340D01*
X149980192Y-94168936D01*
X149751936Y-94230097D01*
X149537770Y-94329965D01*
X149344198Y-94465505D01*
X149177105Y-94632598D01*
X149047175Y-94818159D01*
X148992598Y-94861784D01*
X148923100Y-94868978D01*
X148860745Y-94837455D01*
X148844025Y-94818159D01*
X148735308Y-94662895D01*
X148714095Y-94632599D01*
X148547001Y-94465505D01*
X148353430Y-94329965D01*
X148139263Y-94230097D01*
X148069006Y-94211272D01*
X147911007Y-94168936D01*
X147675600Y-94148340D01*
X147440192Y-94168936D01*
X147211936Y-94230097D01*
X146997770Y-94329965D01*
X146804198Y-94465505D01*
X146637105Y-94632598D01*
X146507175Y-94818159D01*
X146452598Y-94861784D01*
X146383100Y-94868978D01*
X146320745Y-94837455D01*
X146304025Y-94818159D01*
X146195308Y-94662895D01*
X146174095Y-94632599D01*
X146007001Y-94465505D01*
X145813430Y-94329965D01*
X145599263Y-94230097D01*
X145529006Y-94211272D01*
X145371007Y-94168936D01*
X145135600Y-94148340D01*
X144900192Y-94168936D01*
X144671936Y-94230097D01*
X144457770Y-94329965D01*
X144264198Y-94465505D01*
X144097105Y-94632598D01*
X143967175Y-94818159D01*
X143912598Y-94861784D01*
X143843100Y-94868978D01*
X143780745Y-94837455D01*
X143764025Y-94818159D01*
X143655308Y-94662895D01*
X143634095Y-94632599D01*
X143467001Y-94465505D01*
X143273430Y-94329965D01*
X143059263Y-94230097D01*
X142989006Y-94211272D01*
X142831007Y-94168936D01*
X142595600Y-94148340D01*
X142360192Y-94168936D01*
X142131936Y-94230097D01*
X141917770Y-94329965D01*
X141724198Y-94465505D01*
X141557108Y-94632595D01*
X141557107Y-94632597D01*
X141557105Y-94632599D01*
X141535892Y-94662895D01*
X141426869Y-94818596D01*
X141372292Y-94862220D01*
X141302793Y-94869413D01*
X141240439Y-94837891D01*
X141223719Y-94818595D01*
X141093709Y-94632921D01*
X140926681Y-94465893D01*
X140733176Y-94330399D01*
X140519092Y-94230569D01*
X140305600Y-94173364D01*
X140305600Y-95068498D01*
X140197915Y-95019320D01*
X140091363Y-95004000D01*
X140019837Y-95004000D01*
X139913285Y-95019320D01*
X139805600Y-95068498D01*
X139805600Y-94173364D01*
X139805599Y-94173364D01*
X139592107Y-94230569D01*
X139378021Y-94330400D01*
X139184521Y-94465890D01*
X139017493Y-94632918D01*
X138887480Y-94818596D01*
X138832903Y-94862220D01*
X138763404Y-94869413D01*
X138701050Y-94837891D01*
X138684330Y-94818595D01*
X138554095Y-94632599D01*
X138387001Y-94465505D01*
X138193430Y-94329965D01*
X137979263Y-94230097D01*
X137909006Y-94211272D01*
X137751007Y-94168936D01*
X137515599Y-94148340D01*
X137280192Y-94168936D01*
X137051936Y-94230097D01*
X136837770Y-94329965D01*
X136644198Y-94465505D01*
X136477105Y-94632598D01*
X136347175Y-94818159D01*
X136292598Y-94861784D01*
X136223100Y-94868978D01*
X136160745Y-94837455D01*
X136144025Y-94818159D01*
X136035308Y-94662895D01*
X136014095Y-94632599D01*
X135847001Y-94465505D01*
X135653430Y-94329965D01*
X135439263Y-94230097D01*
X135369006Y-94211272D01*
X135211007Y-94168936D01*
X134975600Y-94148340D01*
X134740192Y-94168936D01*
X134511936Y-94230097D01*
X134297770Y-94329965D01*
X134104198Y-94465505D01*
X133937105Y-94632598D01*
X133807175Y-94818159D01*
X133752598Y-94861784D01*
X133683100Y-94868978D01*
X133620745Y-94837455D01*
X133604025Y-94818159D01*
X133495308Y-94662895D01*
X133474095Y-94632599D01*
X133307001Y-94465505D01*
X133113430Y-94329965D01*
X132899263Y-94230097D01*
X132829006Y-94211272D01*
X132671007Y-94168936D01*
X132435600Y-94148340D01*
X132200192Y-94168936D01*
X131971936Y-94230097D01*
X131757770Y-94329965D01*
X131564198Y-94465505D01*
X131397108Y-94632595D01*
X131397107Y-94632597D01*
X131397105Y-94632599D01*
X131375892Y-94662895D01*
X131267174Y-94818160D01*
X131212597Y-94861785D01*
X131143098Y-94868977D01*
X131080744Y-94837455D01*
X131064029Y-94818164D01*
X130934095Y-94632599D01*
X130767001Y-94465505D01*
X130573430Y-94329965D01*
X130359263Y-94230097D01*
X130289006Y-94211272D01*
X130131007Y-94168936D01*
X129895599Y-94148340D01*
X129660192Y-94168936D01*
X129431936Y-94230097D01*
X129217770Y-94329965D01*
X129024198Y-94465505D01*
X128857108Y-94632595D01*
X128857107Y-94632597D01*
X128857105Y-94632599D01*
X128835892Y-94662895D01*
X128726869Y-94818596D01*
X128672292Y-94862220D01*
X128602793Y-94869413D01*
X128540439Y-94837891D01*
X128523719Y-94818595D01*
X128393709Y-94632921D01*
X128226681Y-94465893D01*
X128033176Y-94330399D01*
X127819092Y-94230569D01*
X127605600Y-94173364D01*
X127605600Y-95068498D01*
X127497915Y-95019320D01*
X127391363Y-95004000D01*
X127319837Y-95004000D01*
X127213285Y-95019320D01*
X127105600Y-95068498D01*
X127105600Y-94173364D01*
X127105599Y-94173364D01*
X126962194Y-94211790D01*
X126892344Y-94210127D01*
X126834481Y-94170965D01*
X126806977Y-94106736D01*
X126806100Y-94092015D01*
X126806100Y-92401398D01*
X126806100Y-90703333D01*
X126808364Y-90682837D01*
X126806161Y-90612712D01*
X126806100Y-90608818D01*
X126806100Y-90585141D01*
X126806100Y-90581250D01*
X126805598Y-90577283D01*
X126804681Y-90565627D01*
X126803822Y-90538284D01*
X126803310Y-90521973D01*
X126797718Y-90502726D01*
X126793774Y-90483685D01*
X126791264Y-90463808D01*
X126775179Y-90423183D01*
X126771408Y-90412168D01*
X126759218Y-90370210D01*
X126749014Y-90352955D01*
X126740461Y-90335495D01*
X126733086Y-90316869D01*
X126733086Y-90316868D01*
X126707408Y-90281525D01*
X126701001Y-90271771D01*
X126678769Y-90234179D01*
X126668960Y-90224370D01*
X126635475Y-90163047D01*
X126633323Y-90149671D01*
X126615674Y-89981744D01*
X126557179Y-89801716D01*
X126557179Y-89801715D01*
X126462533Y-89637783D01*
X126335870Y-89497110D01*
X126182730Y-89385848D01*
X126009802Y-89308855D01*
X125824648Y-89269500D01*
X125824646Y-89269500D01*
X125635354Y-89269500D01*
X125635352Y-89269500D01*
X125450197Y-89308855D01*
X125277269Y-89385848D01*
X125124129Y-89497110D01*
X124997466Y-89637783D01*
X124902820Y-89801715D01*
X124844326Y-89981742D01*
X124824540Y-90170000D01*
X124844326Y-90358257D01*
X124902820Y-90538284D01*
X124997466Y-90702216D01*
X125124129Y-90842889D01*
X125277269Y-90954151D01*
X125393168Y-91005752D01*
X125450197Y-91031144D01*
X125456879Y-91032564D01*
X125518361Y-91065757D01*
X125552138Y-91126919D01*
X125555099Y-91153855D01*
X125555099Y-94164080D01*
X125535414Y-94231119D01*
X125482610Y-94276874D01*
X125413452Y-94286818D01*
X125378695Y-94276462D01*
X125279265Y-94230097D01*
X125051007Y-94168936D01*
X124815599Y-94148340D01*
X124580192Y-94168936D01*
X124422193Y-94211272D01*
X124352343Y-94209609D01*
X124294481Y-94170446D01*
X124266977Y-94106218D01*
X124266100Y-94091497D01*
X124266100Y-79136502D01*
X124285785Y-79069463D01*
X124338589Y-79023708D01*
X124407747Y-79013764D01*
X124422176Y-79016723D01*
X124580192Y-79059063D01*
X124699062Y-79069463D01*
X124815599Y-79079659D01*
X124815599Y-79079658D01*
X124815600Y-79079659D01*
X125051008Y-79059063D01*
X125279263Y-78997903D01*
X125493430Y-78898035D01*
X125687001Y-78762495D01*
X125854095Y-78595401D01*
X125984332Y-78409403D01*
X126038907Y-78365780D01*
X126108405Y-78358586D01*
X126170760Y-78390109D01*
X126187480Y-78409404D01*
X126317493Y-78595081D01*
X126484518Y-78762106D01*
X126678023Y-78897600D01*
X126892109Y-78997430D01*
X127105600Y-79054634D01*
X127105600Y-78159501D01*
X127213285Y-78208680D01*
X127319837Y-78224000D01*
X127391363Y-78224000D01*
X127497915Y-78208680D01*
X127605600Y-78159501D01*
X127605600Y-79054633D01*
X127819090Y-78997430D01*
X128033176Y-78897600D01*
X128226681Y-78762106D01*
X128393709Y-78595078D01*
X128523719Y-78409405D01*
X128578296Y-78365780D01*
X128647794Y-78358586D01*
X128710149Y-78390109D01*
X128726865Y-78409400D01*
X128857105Y-78595401D01*
X129024199Y-78762495D01*
X129217770Y-78898035D01*
X129431937Y-78997903D01*
X129643659Y-79054633D01*
X129660192Y-79059063D01*
X129895599Y-79079659D01*
X129895599Y-79079658D01*
X129895600Y-79079659D01*
X130131008Y-79059063D01*
X130359263Y-78997903D01*
X130573430Y-78898035D01*
X130767001Y-78762495D01*
X130934095Y-78595401D01*
X131064027Y-78409838D01*
X131118601Y-78366216D01*
X131188099Y-78359022D01*
X131250454Y-78390545D01*
X131267172Y-78409838D01*
X131397105Y-78595401D01*
X131564199Y-78762495D01*
X131757770Y-78898035D01*
X131971937Y-78997903D01*
X132200192Y-79059063D01*
X132435600Y-79079659D01*
X132671008Y-79059063D01*
X132899263Y-78997903D01*
X133113430Y-78898035D01*
X133307001Y-78762495D01*
X133474095Y-78595401D01*
X133604026Y-78409839D01*
X133658602Y-78366216D01*
X133728100Y-78359022D01*
X133790455Y-78390545D01*
X133807171Y-78409837D01*
X133937105Y-78595401D01*
X134104199Y-78762495D01*
X134297770Y-78898035D01*
X134511937Y-78997903D01*
X134740192Y-79059063D01*
X134975600Y-79079659D01*
X135211008Y-79059063D01*
X135439263Y-78997903D01*
X135653430Y-78898035D01*
X135847001Y-78762495D01*
X136014095Y-78595401D01*
X136144027Y-78409838D01*
X136198601Y-78366216D01*
X136268099Y-78359022D01*
X136330454Y-78390545D01*
X136347172Y-78409838D01*
X136477105Y-78595401D01*
X136644199Y-78762495D01*
X136837770Y-78898035D01*
X137051937Y-78997903D01*
X137280192Y-79059063D01*
X137515600Y-79079659D01*
X137751008Y-79059063D01*
X137979263Y-78997903D01*
X138193430Y-78898035D01*
X138387001Y-78762495D01*
X138554095Y-78595401D01*
X138684026Y-78409839D01*
X138738602Y-78366216D01*
X138808100Y-78359022D01*
X138870455Y-78390545D01*
X138887171Y-78409837D01*
X139017105Y-78595401D01*
X139184199Y-78762495D01*
X139377770Y-78898035D01*
X139591937Y-78997903D01*
X139803659Y-79054633D01*
X139820192Y-79059063D01*
X140055599Y-79079659D01*
X140055599Y-79079658D01*
X140055600Y-79079659D01*
X140291008Y-79059063D01*
X140519263Y-78997903D01*
X140733430Y-78898035D01*
X140927001Y-78762495D01*
X141094095Y-78595401D01*
X141224027Y-78409838D01*
X141278601Y-78366216D01*
X141348099Y-78359022D01*
X141410454Y-78390545D01*
X141427172Y-78409838D01*
X141557105Y-78595401D01*
X141724199Y-78762495D01*
X141917770Y-78898035D01*
X142131937Y-78997903D01*
X142360192Y-79059063D01*
X142595600Y-79079659D01*
X142831008Y-79059063D01*
X143059263Y-78997903D01*
X143273430Y-78898035D01*
X143467001Y-78762495D01*
X143634095Y-78595401D01*
X143764026Y-78409839D01*
X143818602Y-78366216D01*
X143888100Y-78359022D01*
X143950455Y-78390545D01*
X143967171Y-78409837D01*
X144097105Y-78595401D01*
X144264199Y-78762495D01*
X144457770Y-78898035D01*
X144671937Y-78997903D01*
X144900192Y-79059063D01*
X145135600Y-79079659D01*
X145371008Y-79059063D01*
X145599263Y-78997903D01*
X145813430Y-78898035D01*
X146007001Y-78762495D01*
X146174095Y-78595401D01*
X146304027Y-78409838D01*
X146358601Y-78366216D01*
X146428099Y-78359022D01*
X146490454Y-78390545D01*
X146507172Y-78409838D01*
X146637105Y-78595401D01*
X146804199Y-78762495D01*
X146997770Y-78898035D01*
X147211937Y-78997903D01*
X147440192Y-79059063D01*
X147675600Y-79079659D01*
X147911008Y-79059063D01*
X148139263Y-78997903D01*
X148353430Y-78898035D01*
X148547001Y-78762495D01*
X148714095Y-78595401D01*
X148844026Y-78409839D01*
X148898602Y-78366216D01*
X148968100Y-78359022D01*
X149030455Y-78390545D01*
X149047171Y-78409837D01*
X149177105Y-78595401D01*
X149344199Y-78762495D01*
X149537770Y-78898035D01*
X149751937Y-78997903D01*
X149980192Y-79059063D01*
X150215600Y-79079659D01*
X150451008Y-79059063D01*
X150679263Y-78997903D01*
X150893430Y-78898035D01*
X151087001Y-78762495D01*
X151254095Y-78595401D01*
X151384332Y-78409403D01*
X151438907Y-78365780D01*
X151508405Y-78358586D01*
X151570760Y-78390109D01*
X151587480Y-78409404D01*
X151717493Y-78595081D01*
X151884518Y-78762106D01*
X152078023Y-78897600D01*
X152292109Y-78997430D01*
X152505600Y-79054634D01*
X152505600Y-78159501D01*
X152613285Y-78208680D01*
X152719837Y-78224000D01*
X152791363Y-78224000D01*
X152897915Y-78208680D01*
X153005600Y-78159501D01*
X153005600Y-79054633D01*
X153219090Y-78997430D01*
X153433176Y-78897600D01*
X153626681Y-78762106D01*
X153793709Y-78595078D01*
X153923719Y-78409405D01*
X153978296Y-78365780D01*
X154047794Y-78358586D01*
X154110149Y-78390109D01*
X154126865Y-78409400D01*
X154257105Y-78595401D01*
X154424199Y-78762495D01*
X154617770Y-78898035D01*
X154831937Y-78997903D01*
X155060192Y-79059063D01*
X155295600Y-79079659D01*
X155531008Y-79059063D01*
X155759263Y-78997903D01*
X155973430Y-78898035D01*
X156167001Y-78762495D01*
X156334095Y-78595401D01*
X156464027Y-78409838D01*
X156518601Y-78366216D01*
X156588099Y-78359022D01*
X156650454Y-78390545D01*
X156667172Y-78409838D01*
X156797105Y-78595401D01*
X156964199Y-78762495D01*
X157157770Y-78898035D01*
X157371937Y-78997903D01*
X157600192Y-79059063D01*
X157835600Y-79079659D01*
X158071008Y-79059063D01*
X158299263Y-78997903D01*
X158513430Y-78898035D01*
X158707001Y-78762495D01*
X158874095Y-78595401D01*
X159004026Y-78409839D01*
X159058602Y-78366216D01*
X159128100Y-78359022D01*
X159190455Y-78390545D01*
X159207171Y-78409837D01*
X159337105Y-78595401D01*
X159504199Y-78762495D01*
X159697770Y-78898035D01*
X159911937Y-78997903D01*
X160140192Y-79059063D01*
X160375600Y-79079659D01*
X160611008Y-79059063D01*
X160839263Y-78997903D01*
X161053430Y-78898035D01*
X161247001Y-78762495D01*
X161414095Y-78595401D01*
X161544027Y-78409838D01*
X161598601Y-78366216D01*
X161668099Y-78359022D01*
X161730454Y-78390545D01*
X161747172Y-78409838D01*
X161877105Y-78595401D01*
X162044199Y-78762495D01*
X162237770Y-78898035D01*
X162451937Y-78997903D01*
X162663659Y-79054633D01*
X162680192Y-79059063D01*
X162915599Y-79079659D01*
X162915599Y-79079658D01*
X162915600Y-79079659D01*
X163151008Y-79059063D01*
X163379263Y-78997903D01*
X163593430Y-78898035D01*
X163787001Y-78762495D01*
X163954095Y-78595401D01*
X164084332Y-78409403D01*
X164138907Y-78365780D01*
X164208405Y-78358586D01*
X164270760Y-78390109D01*
X164287480Y-78409404D01*
X164417493Y-78595081D01*
X164584518Y-78762106D01*
X164778023Y-78897600D01*
X164992109Y-78997430D01*
X165205600Y-79054634D01*
X165205600Y-78159501D01*
X165313285Y-78208680D01*
X165419837Y-78224000D01*
X165491363Y-78224000D01*
X165597915Y-78208680D01*
X165705600Y-78159501D01*
X165705600Y-79054633D01*
X165919090Y-78997430D01*
X166133176Y-78897600D01*
X166326681Y-78762106D01*
X166493709Y-78595078D01*
X166623719Y-78409405D01*
X166678296Y-78365780D01*
X166747794Y-78358586D01*
X166810149Y-78390109D01*
X166826865Y-78409400D01*
X166957105Y-78595401D01*
X167124199Y-78762495D01*
X167317770Y-78898035D01*
X167531937Y-78997903D01*
X167760192Y-79059063D01*
X167995600Y-79079659D01*
X168231008Y-79059063D01*
X168459263Y-78997903D01*
X168673430Y-78898035D01*
X168867001Y-78762495D01*
X169034095Y-78595401D01*
X169164026Y-78409839D01*
X169218602Y-78366216D01*
X169288100Y-78359022D01*
X169350455Y-78390545D01*
X169367171Y-78409837D01*
X169497105Y-78595401D01*
X169664199Y-78762495D01*
X169857770Y-78898035D01*
X170071937Y-78997903D01*
X170300192Y-79059063D01*
X170535600Y-79079659D01*
X170771008Y-79059063D01*
X170999263Y-78997903D01*
X171213430Y-78898035D01*
X171407001Y-78762495D01*
X171574095Y-78595401D01*
X171709635Y-78401830D01*
X171809503Y-78187663D01*
X171870663Y-77959408D01*
X171891259Y-77724000D01*
X171870663Y-77488592D01*
X171809503Y-77260337D01*
X171709635Y-77046171D01*
X171574095Y-76852599D01*
X171407001Y-76685505D01*
X171213430Y-76549965D01*
X170999263Y-76450097D01*
X170938102Y-76433709D01*
X170771007Y-76388936D01*
X170535600Y-76368340D01*
X170300192Y-76388936D01*
X170071936Y-76450097D01*
X169857770Y-76549965D01*
X169664198Y-76685505D01*
X169497105Y-76852598D01*
X169367175Y-77038159D01*
X169312598Y-77081784D01*
X169243100Y-77088978D01*
X169180745Y-77057455D01*
X169164025Y-77038159D01*
X169034094Y-76852598D01*
X168867004Y-76685508D01*
X168867003Y-76685508D01*
X168867001Y-76685505D01*
X168673430Y-76549965D01*
X168459263Y-76450097D01*
X168398102Y-76433709D01*
X168231007Y-76388936D01*
X167995600Y-76368340D01*
X167760192Y-76388936D01*
X167531936Y-76450097D01*
X167317770Y-76549965D01*
X167124198Y-76685505D01*
X166957108Y-76852595D01*
X166826869Y-77038596D01*
X166772292Y-77082220D01*
X166702793Y-77089413D01*
X166640439Y-77057891D01*
X166623719Y-77038595D01*
X166493709Y-76852921D01*
X166326681Y-76685893D01*
X166133176Y-76550399D01*
X165919092Y-76450569D01*
X165705600Y-76393364D01*
X165705600Y-77288498D01*
X165597915Y-77239320D01*
X165491363Y-77224000D01*
X165419837Y-77224000D01*
X165313285Y-77239320D01*
X165205600Y-77288498D01*
X165205600Y-76393364D01*
X165205599Y-76393364D01*
X164992107Y-76450569D01*
X164778021Y-76550400D01*
X164584521Y-76685890D01*
X164417493Y-76852918D01*
X164287480Y-77038596D01*
X164232903Y-77082220D01*
X164163404Y-77089413D01*
X164101050Y-77057891D01*
X164084330Y-77038595D01*
X163954095Y-76852599D01*
X163787001Y-76685505D01*
X163593430Y-76549965D01*
X163379263Y-76450097D01*
X163318101Y-76433709D01*
X163151007Y-76388936D01*
X162915599Y-76368340D01*
X162680192Y-76388936D01*
X162451936Y-76450097D01*
X162237770Y-76549965D01*
X162044198Y-76685505D01*
X161877105Y-76852598D01*
X161747175Y-77038159D01*
X161692598Y-77081784D01*
X161623100Y-77088978D01*
X161560745Y-77057455D01*
X161544025Y-77038159D01*
X161414094Y-76852598D01*
X161247004Y-76685508D01*
X161247001Y-76685505D01*
X161053430Y-76549965D01*
X160839263Y-76450097D01*
X160778101Y-76433709D01*
X160611007Y-76388936D01*
X160375600Y-76368340D01*
X160140192Y-76388936D01*
X159911936Y-76450097D01*
X159697770Y-76549965D01*
X159504198Y-76685505D01*
X159337108Y-76852595D01*
X159207174Y-77038160D01*
X159152597Y-77081785D01*
X159083098Y-77088977D01*
X159020744Y-77057455D01*
X159004029Y-77038164D01*
X158874095Y-76852599D01*
X158707001Y-76685505D01*
X158513430Y-76549965D01*
X158299263Y-76450097D01*
X158238101Y-76433709D01*
X158071007Y-76388936D01*
X157835600Y-76368340D01*
X157600192Y-76388936D01*
X157371936Y-76450097D01*
X157157770Y-76549965D01*
X156964198Y-76685505D01*
X156797105Y-76852598D01*
X156667175Y-77038159D01*
X156612598Y-77081784D01*
X156543100Y-77088978D01*
X156480745Y-77057455D01*
X156464025Y-77038159D01*
X156334094Y-76852598D01*
X156167004Y-76685508D01*
X156167003Y-76685508D01*
X156167001Y-76685505D01*
X155973430Y-76549965D01*
X155759263Y-76450097D01*
X155698101Y-76433709D01*
X155531007Y-76388936D01*
X155295600Y-76368340D01*
X155060192Y-76388936D01*
X154831936Y-76450097D01*
X154617770Y-76549965D01*
X154424198Y-76685505D01*
X154257108Y-76852595D01*
X154126869Y-77038596D01*
X154072292Y-77082220D01*
X154002793Y-77089413D01*
X153940439Y-77057891D01*
X153923719Y-77038595D01*
X153793709Y-76852921D01*
X153626681Y-76685893D01*
X153433176Y-76550399D01*
X153219092Y-76450569D01*
X153005600Y-76393364D01*
X153005600Y-77288498D01*
X152897915Y-77239320D01*
X152791363Y-77224000D01*
X152719837Y-77224000D01*
X152613285Y-77239320D01*
X152505600Y-77288498D01*
X152505600Y-76393364D01*
X152505599Y-76393364D01*
X152292107Y-76450569D01*
X152078021Y-76550400D01*
X151884521Y-76685890D01*
X151717493Y-76852918D01*
X151587480Y-77038596D01*
X151532903Y-77082220D01*
X151463404Y-77089413D01*
X151401050Y-77057891D01*
X151384330Y-77038595D01*
X151254095Y-76852599D01*
X151087001Y-76685505D01*
X150893430Y-76549965D01*
X150679263Y-76450097D01*
X150618102Y-76433709D01*
X150451007Y-76388936D01*
X150215600Y-76368340D01*
X149980192Y-76388936D01*
X149751936Y-76450097D01*
X149537770Y-76549965D01*
X149344198Y-76685505D01*
X149177108Y-76852595D01*
X149047174Y-77038160D01*
X148992597Y-77081785D01*
X148923098Y-77088977D01*
X148860744Y-77057455D01*
X148844029Y-77038164D01*
X148714095Y-76852599D01*
X148547001Y-76685505D01*
X148353430Y-76549965D01*
X148139263Y-76450097D01*
X148078102Y-76433709D01*
X147911007Y-76388936D01*
X147675600Y-76368340D01*
X147440192Y-76388936D01*
X147211936Y-76450097D01*
X146997770Y-76549965D01*
X146804198Y-76685505D01*
X146637105Y-76852598D01*
X146507175Y-77038159D01*
X146452598Y-77081784D01*
X146383100Y-77088978D01*
X146320745Y-77057455D01*
X146304025Y-77038159D01*
X146174094Y-76852598D01*
X146007004Y-76685508D01*
X146007001Y-76685505D01*
X145813430Y-76549965D01*
X145599263Y-76450097D01*
X145538102Y-76433709D01*
X145371007Y-76388936D01*
X145135600Y-76368340D01*
X144900192Y-76388936D01*
X144671936Y-76450097D01*
X144457770Y-76549965D01*
X144264198Y-76685505D01*
X144097105Y-76852598D01*
X143967175Y-77038159D01*
X143912598Y-77081784D01*
X143843100Y-77088978D01*
X143780745Y-77057455D01*
X143764025Y-77038159D01*
X143634094Y-76852598D01*
X143467004Y-76685508D01*
X143467003Y-76685508D01*
X143467001Y-76685505D01*
X143273430Y-76549965D01*
X143059263Y-76450097D01*
X142998101Y-76433709D01*
X142831007Y-76388936D01*
X142595599Y-76368340D01*
X142360192Y-76388936D01*
X142131936Y-76450097D01*
X141917770Y-76549965D01*
X141724198Y-76685505D01*
X141557105Y-76852598D01*
X141427175Y-77038159D01*
X141372598Y-77081784D01*
X141303100Y-77088978D01*
X141240745Y-77057455D01*
X141224025Y-77038159D01*
X141094094Y-76852598D01*
X140927004Y-76685508D01*
X140927001Y-76685505D01*
X140733430Y-76549965D01*
X140519263Y-76450097D01*
X140458101Y-76433709D01*
X140291007Y-76388936D01*
X140055599Y-76368340D01*
X139820192Y-76388936D01*
X139591936Y-76450097D01*
X139377770Y-76549965D01*
X139184198Y-76685505D01*
X139017105Y-76852598D01*
X138887175Y-77038159D01*
X138832598Y-77081784D01*
X138763100Y-77088978D01*
X138700745Y-77057455D01*
X138684025Y-77038159D01*
X138554094Y-76852598D01*
X138387004Y-76685508D01*
X138387001Y-76685505D01*
X138193430Y-76549965D01*
X137979263Y-76450097D01*
X137918101Y-76433709D01*
X137751007Y-76388936D01*
X137515600Y-76368340D01*
X137280192Y-76388936D01*
X137051936Y-76450097D01*
X136837770Y-76549965D01*
X136644198Y-76685505D01*
X136477105Y-76852598D01*
X136347175Y-77038159D01*
X136292598Y-77081784D01*
X136223100Y-77088978D01*
X136160745Y-77057455D01*
X136144025Y-77038159D01*
X136014094Y-76852598D01*
X135847004Y-76685508D01*
X135847001Y-76685505D01*
X135653430Y-76549965D01*
X135439263Y-76450097D01*
X135378101Y-76433709D01*
X135211007Y-76388936D01*
X134975600Y-76368340D01*
X134740192Y-76388936D01*
X134511936Y-76450097D01*
X134297770Y-76549965D01*
X134104198Y-76685505D01*
X133937105Y-76852598D01*
X133807175Y-77038159D01*
X133752598Y-77081784D01*
X133683100Y-77088978D01*
X133620745Y-77057455D01*
X133604025Y-77038159D01*
X133474094Y-76852598D01*
X133307004Y-76685508D01*
X133307003Y-76685508D01*
X133307001Y-76685505D01*
X133113430Y-76549965D01*
X132899263Y-76450097D01*
X132838102Y-76433709D01*
X132671007Y-76388936D01*
X132435600Y-76368340D01*
X132200192Y-76388936D01*
X131971936Y-76450097D01*
X131757770Y-76549965D01*
X131564198Y-76685505D01*
X131397108Y-76852595D01*
X131267174Y-77038160D01*
X131212597Y-77081785D01*
X131143098Y-77088977D01*
X131080744Y-77057455D01*
X131064029Y-77038164D01*
X130934095Y-76852599D01*
X130767001Y-76685505D01*
X130573430Y-76549965D01*
X130359263Y-76450097D01*
X130298102Y-76433709D01*
X130131007Y-76388936D01*
X129895599Y-76368340D01*
X129660192Y-76388936D01*
X129431936Y-76450097D01*
X129217770Y-76549965D01*
X129024198Y-76685505D01*
X128857108Y-76852595D01*
X128726869Y-77038596D01*
X128672292Y-77082220D01*
X128602793Y-77089413D01*
X128540439Y-77057891D01*
X128523719Y-77038595D01*
X128393709Y-76852921D01*
X128226681Y-76685893D01*
X128033176Y-76550399D01*
X127819092Y-76450569D01*
X127605600Y-76393364D01*
X127605600Y-77288498D01*
X127497915Y-77239320D01*
X127391363Y-77224000D01*
X127319837Y-77224000D01*
X127213285Y-77239320D01*
X127105600Y-77288498D01*
X127105600Y-76393364D01*
X127105599Y-76393364D01*
X126892107Y-76450569D01*
X126678021Y-76550400D01*
X126484521Y-76685890D01*
X126317493Y-76852918D01*
X126187480Y-77038596D01*
X126132903Y-77082220D01*
X126063404Y-77089413D01*
X126001050Y-77057891D01*
X125984330Y-77038595D01*
X125854095Y-76852599D01*
X125687001Y-76685505D01*
X125493430Y-76549965D01*
X125279263Y-76450097D01*
X125218102Y-76433709D01*
X125051007Y-76388936D01*
X124815600Y-76368340D01*
X124580192Y-76388936D01*
X124351936Y-76450097D01*
X124137770Y-76549965D01*
X123944198Y-76685505D01*
X123777105Y-76852598D01*
X123647175Y-77038159D01*
X123592598Y-77081784D01*
X123523100Y-77088978D01*
X123460745Y-77057455D01*
X123444025Y-77038159D01*
X123314094Y-76852598D01*
X123147004Y-76685508D01*
X123147003Y-76685508D01*
X123147001Y-76685505D01*
X122953430Y-76549965D01*
X122739263Y-76450097D01*
X122678101Y-76433709D01*
X122511007Y-76388936D01*
X122275600Y-76368340D01*
X122040192Y-76388936D01*
X121811936Y-76450097D01*
X121597770Y-76549965D01*
X121404198Y-76685505D01*
X121237105Y-76852598D01*
X121101565Y-77046170D01*
X121001697Y-77260336D01*
X120940536Y-77488592D01*
X120919940Y-77723999D01*
X119009820Y-77723999D01*
X119009820Y-73964800D01*
X151097556Y-73964800D01*
X151118091Y-74212616D01*
X151118091Y-74212619D01*
X151118092Y-74212621D01*
X151179137Y-74453681D01*
X151224160Y-74556323D01*
X151279025Y-74681404D01*
X151279027Y-74681407D01*
X151415036Y-74889585D01*
X151583456Y-75072538D01*
X151583459Y-75072540D01*
X151779685Y-75225270D01*
X151779687Y-75225271D01*
X151779691Y-75225274D01*
X151998390Y-75343628D01*
X152233586Y-75424371D01*
X152478865Y-75465300D01*
X152727535Y-75465300D01*
X152972814Y-75424371D01*
X153208010Y-75343628D01*
X153426709Y-75225274D01*
X153622944Y-75072538D01*
X153791364Y-74889585D01*
X153927373Y-74681407D01*
X154027263Y-74453681D01*
X154088308Y-74212621D01*
X154108843Y-73964800D01*
X154108843Y-73964799D01*
X155598058Y-73964799D01*
X155618586Y-74212532D01*
X155679613Y-74453521D01*
X155779468Y-74681170D01*
X155879763Y-74834682D01*
X155879764Y-74834682D01*
X156577270Y-74137176D01*
X156580084Y-74150715D01*
X156649642Y-74284956D01*
X156752838Y-74395452D01*
X156882019Y-74474009D01*
X156933202Y-74488349D01*
X156233142Y-75188409D01*
X156233142Y-75188410D01*
X156279966Y-75224855D01*
X156498593Y-75343168D01*
X156733706Y-75423883D01*
X156978907Y-75464800D01*
X157227493Y-75464800D01*
X157472693Y-75423883D01*
X157707806Y-75343168D01*
X157926433Y-75224853D01*
X157973256Y-75188409D01*
X157274768Y-74489921D01*
X157391658Y-74439149D01*
X157508939Y-74343734D01*
X157596128Y-74220215D01*
X157626554Y-74134602D01*
X158326634Y-74834682D01*
X158426930Y-74681169D01*
X158526786Y-74453521D01*
X158587813Y-74212532D01*
X158608341Y-73964800D01*
X158587813Y-73717067D01*
X158526786Y-73476078D01*
X158426930Y-73248430D01*
X158326634Y-73094916D01*
X157629129Y-73792422D01*
X157626316Y-73778885D01*
X157556758Y-73644644D01*
X157453562Y-73534148D01*
X157324381Y-73455591D01*
X157273197Y-73441250D01*
X157973257Y-72741190D01*
X157973256Y-72741188D01*
X157926435Y-72704747D01*
X157707806Y-72586431D01*
X157549028Y-72531922D01*
X165468000Y-72531922D01*
X165468338Y-72538383D01*
X165482818Y-72676152D01*
X165541280Y-72856079D01*
X165635873Y-73019920D01*
X165762467Y-73160515D01*
X165915517Y-73271714D01*
X166088353Y-73348664D01*
X166118000Y-73354965D01*
X166118000Y-72554110D01*
X166142457Y-72593610D01*
X166231962Y-72661201D01*
X166339840Y-72691895D01*
X166451521Y-72681546D01*
X166551922Y-72631552D01*
X166618000Y-72559069D01*
X166618000Y-73354965D01*
X166647646Y-73348664D01*
X166820478Y-73271716D01*
X166973535Y-73160513D01*
X167100126Y-73019920D01*
X167194719Y-72856079D01*
X167253181Y-72676152D01*
X167267661Y-72538383D01*
X167268000Y-72531922D01*
X174108000Y-72531922D01*
X174108338Y-72538383D01*
X174122818Y-72676152D01*
X174181280Y-72856079D01*
X174275873Y-73019920D01*
X174402467Y-73160515D01*
X174555517Y-73271714D01*
X174728353Y-73348664D01*
X174758000Y-73354965D01*
X174758000Y-72554110D01*
X174782457Y-72593610D01*
X174871962Y-72661201D01*
X174979840Y-72691895D01*
X175091521Y-72681546D01*
X175191922Y-72631552D01*
X175258000Y-72559069D01*
X175258000Y-73354965D01*
X175287646Y-73348664D01*
X175460478Y-73271716D01*
X175613535Y-73160513D01*
X175740126Y-73019920D01*
X175834719Y-72856079D01*
X175893181Y-72676152D01*
X175907661Y-72538383D01*
X175908000Y-72531922D01*
X175908000Y-72338000D01*
X175308000Y-72338000D01*
X175308000Y-71838000D01*
X175908000Y-71838000D01*
X175908000Y-71644077D01*
X175907661Y-71637616D01*
X175893181Y-71499847D01*
X175834719Y-71319920D01*
X175740126Y-71156079D01*
X175613532Y-71015484D01*
X175460482Y-70904285D01*
X175287646Y-70827335D01*
X175258000Y-70821033D01*
X175258000Y-71621889D01*
X175233543Y-71582390D01*
X175144038Y-71514799D01*
X175036160Y-71484105D01*
X174924479Y-71494454D01*
X174824078Y-71544448D01*
X174757999Y-71616930D01*
X174757999Y-70821033D01*
X174728353Y-70827335D01*
X174555521Y-70904283D01*
X174402464Y-71015486D01*
X174275873Y-71156079D01*
X174181280Y-71319920D01*
X174122818Y-71499847D01*
X174108338Y-71637616D01*
X174108000Y-71644077D01*
X174108000Y-71838000D01*
X174708000Y-71838000D01*
X174708000Y-72338000D01*
X174108000Y-72338000D01*
X174108000Y-72531922D01*
X167268000Y-72531922D01*
X167268000Y-72338000D01*
X166668000Y-72338000D01*
X166668000Y-71838000D01*
X167268000Y-71838000D01*
X167268000Y-71644077D01*
X167267661Y-71637616D01*
X167253181Y-71499847D01*
X167194719Y-71319920D01*
X167100126Y-71156079D01*
X166973532Y-71015484D01*
X166820482Y-70904285D01*
X166647646Y-70827335D01*
X166618000Y-70821033D01*
X166618000Y-71621889D01*
X166593543Y-71582390D01*
X166504038Y-71514799D01*
X166396160Y-71484105D01*
X166284479Y-71494454D01*
X166184078Y-71544448D01*
X166118000Y-71616930D01*
X166118000Y-70821033D01*
X166088353Y-70827335D01*
X165915521Y-70904283D01*
X165762464Y-71015486D01*
X165635873Y-71156079D01*
X165541280Y-71319920D01*
X165482818Y-71499847D01*
X165468338Y-71637616D01*
X165468000Y-71644077D01*
X165468000Y-71838000D01*
X166068000Y-71838000D01*
X166068000Y-72338000D01*
X165468000Y-72338000D01*
X165468000Y-72531922D01*
X157549028Y-72531922D01*
X157472693Y-72505716D01*
X157227493Y-72464800D01*
X156978907Y-72464800D01*
X156733706Y-72505716D01*
X156498593Y-72586431D01*
X156279964Y-72704746D01*
X156233142Y-72741188D01*
X156233142Y-72741190D01*
X156931631Y-73439678D01*
X156814742Y-73490451D01*
X156697461Y-73585866D01*
X156610272Y-73709385D01*
X156579845Y-73794997D01*
X155879764Y-73094916D01*
X155779466Y-73248434D01*
X155679613Y-73476078D01*
X155618586Y-73717067D01*
X155598058Y-73964799D01*
X154108843Y-73964799D01*
X154088308Y-73716979D01*
X154027263Y-73475919D01*
X153927373Y-73248193D01*
X153791364Y-73040015D01*
X153622944Y-72857062D01*
X153600812Y-72839836D01*
X153426714Y-72704329D01*
X153426710Y-72704326D01*
X153426709Y-72704326D01*
X153208010Y-72585972D01*
X153208006Y-72585970D01*
X153208005Y-72585970D01*
X152972815Y-72505229D01*
X152727535Y-72464300D01*
X152478865Y-72464300D01*
X152233584Y-72505229D01*
X151998394Y-72585970D01*
X151779685Y-72704329D01*
X151583459Y-72857059D01*
X151583456Y-72857061D01*
X151583456Y-72857062D01*
X151538572Y-72905819D01*
X151415037Y-73040014D01*
X151279025Y-73248195D01*
X151238866Y-73339750D01*
X151179137Y-73475919D01*
X151144867Y-73611247D01*
X151118091Y-73716983D01*
X151097556Y-73964800D01*
X119009820Y-73964800D01*
X119009820Y-71989250D01*
X134514340Y-71989250D01*
X134534936Y-72224657D01*
X134579709Y-72391751D01*
X134596097Y-72452913D01*
X134695965Y-72667080D01*
X134831505Y-72860651D01*
X134998599Y-73027745D01*
X135192170Y-73163285D01*
X135406337Y-73263153D01*
X135634592Y-73324312D01*
X135634592Y-73324313D01*
X135869999Y-73344909D01*
X135869999Y-73344908D01*
X135870000Y-73344909D01*
X136105408Y-73324313D01*
X136333663Y-73263153D01*
X136547830Y-73163285D01*
X136741401Y-73027745D01*
X136863329Y-72905816D01*
X136924648Y-72872334D01*
X136994340Y-72877318D01*
X137050274Y-72919189D01*
X137067189Y-72950166D01*
X137116204Y-73081581D01*
X137202454Y-73196796D01*
X137317669Y-73283046D01*
X137452517Y-73333341D01*
X137512127Y-73339750D01*
X139307872Y-73339749D01*
X139367483Y-73333341D01*
X139502331Y-73283046D01*
X139617546Y-73196796D01*
X139703796Y-73081581D01*
X139754091Y-72946733D01*
X139760500Y-72887123D01*
X139760499Y-71091378D01*
X139754091Y-71031767D01*
X139703796Y-70896919D01*
X139617546Y-70781704D01*
X139502331Y-70695454D01*
X139367483Y-70645159D01*
X139307873Y-70638750D01*
X139304550Y-70638750D01*
X137515439Y-70638750D01*
X137515420Y-70638750D01*
X137512128Y-70638751D01*
X137508848Y-70639103D01*
X137508840Y-70639104D01*
X137452515Y-70645159D01*
X137317669Y-70695454D01*
X137202454Y-70781704D01*
X137116204Y-70896919D01*
X137067189Y-71028333D01*
X137025317Y-71084266D01*
X136959852Y-71108683D01*
X136891580Y-71093831D01*
X136863326Y-71072680D01*
X136741404Y-70950758D01*
X136741401Y-70950755D01*
X136547830Y-70815215D01*
X136333663Y-70715347D01*
X136272501Y-70698959D01*
X136105407Y-70654186D01*
X135869999Y-70633590D01*
X135634592Y-70654186D01*
X135406336Y-70715347D01*
X135192170Y-70815215D01*
X134998598Y-70950755D01*
X134831505Y-71117848D01*
X134695965Y-71311420D01*
X134596097Y-71525586D01*
X134534936Y-71753842D01*
X134514340Y-71989250D01*
X119009820Y-71989250D01*
X119009820Y-68774680D01*
X120903871Y-68774680D01*
X120923637Y-69025829D01*
X120982446Y-69270790D01*
X121019611Y-69360513D01*
X121078854Y-69503539D01*
X121210484Y-69718339D01*
X121374096Y-69909904D01*
X121565661Y-70073516D01*
X121780461Y-70205146D01*
X122013209Y-70301553D01*
X122258172Y-70360363D01*
X122446438Y-70375180D01*
X122448883Y-70375180D01*
X122569757Y-70375180D01*
X122572202Y-70375180D01*
X122760468Y-70360363D01*
X123005431Y-70301553D01*
X123238179Y-70205146D01*
X123452979Y-70073516D01*
X123644544Y-69909904D01*
X123808156Y-69718339D01*
X123939786Y-69503539D01*
X124036193Y-69270791D01*
X124095003Y-69025828D01*
X124114769Y-68774680D01*
X124095003Y-68523532D01*
X124036193Y-68278569D01*
X123939786Y-68045821D01*
X123808156Y-67831021D01*
X123644544Y-67639456D01*
X123452979Y-67475844D01*
X123434955Y-67464799D01*
X151097556Y-67464799D01*
X151118091Y-67712616D01*
X151118091Y-67712619D01*
X151118092Y-67712621D01*
X151179137Y-67953681D01*
X151216122Y-68037999D01*
X151279025Y-68181404D01*
X151279027Y-68181407D01*
X151415036Y-68389585D01*
X151583456Y-68572538D01*
X151583459Y-68572540D01*
X151779685Y-68725270D01*
X151779687Y-68725271D01*
X151779691Y-68725274D01*
X151998390Y-68843628D01*
X152233586Y-68924371D01*
X152478865Y-68965300D01*
X152727535Y-68965300D01*
X152972814Y-68924371D01*
X153208010Y-68843628D01*
X153426709Y-68725274D01*
X153622944Y-68572538D01*
X153791364Y-68389585D01*
X153927373Y-68181407D01*
X154027263Y-67953681D01*
X154088308Y-67712621D01*
X154108843Y-67464800D01*
X155598058Y-67464800D01*
X155618586Y-67712532D01*
X155679613Y-67953521D01*
X155779468Y-68181170D01*
X155879763Y-68334682D01*
X155879764Y-68334682D01*
X156577270Y-67637176D01*
X156580084Y-67650715D01*
X156649642Y-67784956D01*
X156752838Y-67895452D01*
X156882019Y-67974009D01*
X156933202Y-67988349D01*
X156233142Y-68688409D01*
X156233142Y-68688410D01*
X156279966Y-68724855D01*
X156498593Y-68843168D01*
X156733706Y-68923883D01*
X156978907Y-68964800D01*
X157227493Y-68964800D01*
X157472693Y-68923883D01*
X157707806Y-68843168D01*
X157913371Y-68731922D01*
X165468000Y-68731922D01*
X165468338Y-68738383D01*
X165482818Y-68876152D01*
X165541280Y-69056079D01*
X165635873Y-69219920D01*
X165762467Y-69360515D01*
X165915517Y-69471714D01*
X166088353Y-69548664D01*
X166118000Y-69554965D01*
X166118000Y-68754110D01*
X166142457Y-68793610D01*
X166231962Y-68861201D01*
X166339840Y-68891895D01*
X166451521Y-68881546D01*
X166551922Y-68831552D01*
X166618000Y-68759069D01*
X166618000Y-69554965D01*
X166647646Y-69548664D01*
X166820478Y-69471716D01*
X166973535Y-69360513D01*
X167100126Y-69219920D01*
X167194719Y-69056079D01*
X167253181Y-68876152D01*
X167267661Y-68738383D01*
X167268000Y-68731922D01*
X174108000Y-68731922D01*
X174108338Y-68738383D01*
X174122818Y-68876152D01*
X174181280Y-69056079D01*
X174275873Y-69219920D01*
X174402467Y-69360515D01*
X174555517Y-69471714D01*
X174728353Y-69548664D01*
X174758000Y-69554965D01*
X174758000Y-68754110D01*
X174782457Y-68793610D01*
X174871962Y-68861201D01*
X174979840Y-68891895D01*
X175091521Y-68881546D01*
X175191922Y-68831552D01*
X175258000Y-68759069D01*
X175258000Y-69554965D01*
X175287646Y-69548664D01*
X175460478Y-69471716D01*
X175613535Y-69360513D01*
X175740126Y-69219920D01*
X175834719Y-69056079D01*
X175893181Y-68876152D01*
X175903846Y-68774680D01*
X178903871Y-68774680D01*
X178923637Y-69025829D01*
X178982446Y-69270790D01*
X179019611Y-69360513D01*
X179078854Y-69503539D01*
X179210484Y-69718339D01*
X179374096Y-69909904D01*
X179565661Y-70073516D01*
X179780461Y-70205146D01*
X180013209Y-70301553D01*
X180258172Y-70360363D01*
X180446438Y-70375180D01*
X180448883Y-70375180D01*
X180569757Y-70375180D01*
X180572202Y-70375180D01*
X180760468Y-70360363D01*
X181005431Y-70301553D01*
X181238179Y-70205146D01*
X181452979Y-70073516D01*
X181644544Y-69909904D01*
X181808156Y-69718339D01*
X181939786Y-69503539D01*
X182036193Y-69270791D01*
X182095003Y-69025828D01*
X182114769Y-68774680D01*
X182095003Y-68523532D01*
X182036193Y-68278569D01*
X181939786Y-68045821D01*
X181808156Y-67831021D01*
X181644544Y-67639456D01*
X181452979Y-67475844D01*
X181238179Y-67344214D01*
X181121804Y-67296010D01*
X181005430Y-67247806D01*
X180760469Y-67188997D01*
X180574636Y-67174371D01*
X180574621Y-67174370D01*
X180572202Y-67174180D01*
X180446438Y-67174180D01*
X180444019Y-67174370D01*
X180444003Y-67174371D01*
X180258170Y-67188997D01*
X180013209Y-67247806D01*
X179780459Y-67344215D01*
X179565662Y-67475843D01*
X179374096Y-67639456D01*
X179210483Y-67831022D01*
X179078855Y-68045819D01*
X178982446Y-68278569D01*
X178923637Y-68523530D01*
X178903871Y-68774680D01*
X175903846Y-68774680D01*
X175907661Y-68738383D01*
X175908000Y-68731922D01*
X175908000Y-68538000D01*
X175308000Y-68538000D01*
X175308000Y-68038000D01*
X175908000Y-68038000D01*
X175908000Y-67844077D01*
X175907661Y-67837616D01*
X175893181Y-67699847D01*
X175834719Y-67519920D01*
X175740126Y-67356079D01*
X175613532Y-67215484D01*
X175460482Y-67104285D01*
X175287646Y-67027335D01*
X175258000Y-67021033D01*
X175258000Y-67821889D01*
X175233543Y-67782390D01*
X175144038Y-67714799D01*
X175036160Y-67684105D01*
X174924479Y-67694454D01*
X174824078Y-67744448D01*
X174757999Y-67816930D01*
X174757999Y-67021033D01*
X174728353Y-67027335D01*
X174555521Y-67104283D01*
X174402464Y-67215486D01*
X174275873Y-67356079D01*
X174181280Y-67519920D01*
X174122818Y-67699847D01*
X174108338Y-67837616D01*
X174108000Y-67844077D01*
X174108000Y-68038000D01*
X174708000Y-68038000D01*
X174708000Y-68538000D01*
X174108000Y-68538000D01*
X174108000Y-68731922D01*
X167268000Y-68731922D01*
X167268000Y-68538000D01*
X166668000Y-68538000D01*
X166668000Y-68038000D01*
X167268000Y-68038000D01*
X167268000Y-67844077D01*
X167267661Y-67837616D01*
X167253181Y-67699847D01*
X167194719Y-67519920D01*
X167100126Y-67356079D01*
X166973532Y-67215484D01*
X166820482Y-67104285D01*
X166647646Y-67027335D01*
X166618000Y-67021033D01*
X166618000Y-67821889D01*
X166593543Y-67782390D01*
X166504038Y-67714799D01*
X166396160Y-67684105D01*
X166284479Y-67694454D01*
X166184078Y-67744448D01*
X166118000Y-67816930D01*
X166118000Y-67021033D01*
X166088353Y-67027335D01*
X165915521Y-67104283D01*
X165762464Y-67215486D01*
X165635873Y-67356079D01*
X165541280Y-67519920D01*
X165482818Y-67699847D01*
X165468338Y-67837616D01*
X165468000Y-67844077D01*
X165468000Y-68038000D01*
X166068000Y-68038000D01*
X166068000Y-68538000D01*
X165468000Y-68538000D01*
X165468000Y-68731922D01*
X157913371Y-68731922D01*
X157926433Y-68724853D01*
X157973256Y-68688409D01*
X157274768Y-67989921D01*
X157391658Y-67939149D01*
X157508939Y-67843734D01*
X157596128Y-67720215D01*
X157626554Y-67634602D01*
X158326634Y-68334682D01*
X158426930Y-68181169D01*
X158526786Y-67953521D01*
X158587813Y-67712532D01*
X158608341Y-67464799D01*
X158587813Y-67217067D01*
X158526786Y-66976078D01*
X158426930Y-66748430D01*
X158326634Y-66594916D01*
X157629129Y-67292422D01*
X157626316Y-67278885D01*
X157556758Y-67144644D01*
X157453562Y-67034148D01*
X157324381Y-66955591D01*
X157273197Y-66941250D01*
X157973257Y-66241190D01*
X157973256Y-66241188D01*
X157926435Y-66204747D01*
X157707806Y-66086431D01*
X157472693Y-66005716D01*
X157227493Y-65964800D01*
X156978907Y-65964800D01*
X156733706Y-66005716D01*
X156498593Y-66086431D01*
X156279964Y-66204746D01*
X156233142Y-66241188D01*
X156233142Y-66241190D01*
X156931631Y-66939678D01*
X156814742Y-66990451D01*
X156697461Y-67085866D01*
X156610272Y-67209385D01*
X156579845Y-67294997D01*
X155879764Y-66594916D01*
X155779466Y-66748434D01*
X155679613Y-66976078D01*
X155618586Y-67217067D01*
X155598058Y-67464800D01*
X154108843Y-67464800D01*
X154088308Y-67216979D01*
X154027263Y-66975919D01*
X153927373Y-66748193D01*
X153791364Y-66540015D01*
X153622944Y-66357062D01*
X153591409Y-66332517D01*
X153426714Y-66204329D01*
X153426710Y-66204326D01*
X153426709Y-66204326D01*
X153208010Y-66085972D01*
X153208006Y-66085970D01*
X153208005Y-66085970D01*
X152972815Y-66005229D01*
X152727535Y-65964300D01*
X152478865Y-65964300D01*
X152233584Y-66005229D01*
X151998394Y-66085970D01*
X151779685Y-66204329D01*
X151583459Y-66357059D01*
X151583456Y-66357061D01*
X151583456Y-66357062D01*
X151441173Y-66511623D01*
X151415037Y-66540014D01*
X151279025Y-66748195D01*
X151205946Y-66914800D01*
X151179137Y-66975919D01*
X151128930Y-67174180D01*
X151118091Y-67216983D01*
X151097556Y-67464799D01*
X123434955Y-67464799D01*
X123238179Y-67344214D01*
X123121805Y-67296010D01*
X123005430Y-67247806D01*
X122760469Y-67188997D01*
X122574636Y-67174371D01*
X122574621Y-67174370D01*
X122572202Y-67174180D01*
X122446438Y-67174180D01*
X122444019Y-67174370D01*
X122444003Y-67174371D01*
X122258170Y-67188997D01*
X122013209Y-67247806D01*
X121780459Y-67344215D01*
X121565662Y-67475843D01*
X121374096Y-67639456D01*
X121210483Y-67831022D01*
X121078855Y-68045819D01*
X120982446Y-68278569D01*
X120923637Y-68523530D01*
X120903871Y-68774680D01*
X119009820Y-68774680D01*
X119009820Y-68277925D01*
X119009990Y-68271435D01*
X119014721Y-68181169D01*
X119016813Y-68141246D01*
X119026950Y-67960774D01*
X119028277Y-67948373D01*
X119051932Y-67799029D01*
X119079063Y-67639355D01*
X119081531Y-67628060D01*
X119121756Y-67477941D01*
X119165680Y-67325483D01*
X119169039Y-67315467D01*
X119224916Y-67169905D01*
X119226034Y-67167103D01*
X119285766Y-67022900D01*
X119289806Y-67014137D01*
X119360944Y-66874523D01*
X119362807Y-66871015D01*
X119437912Y-66735125D01*
X119442401Y-66727642D01*
X119527956Y-66595900D01*
X119530729Y-66591816D01*
X119620341Y-66465522D01*
X119625087Y-66459267D01*
X119625100Y-66459251D01*
X119724031Y-66337082D01*
X119727860Y-66332581D01*
X119830940Y-66217237D01*
X119835651Y-66212255D01*
X119946896Y-66101012D01*
X119951877Y-66096303D01*
X120067203Y-65993243D01*
X120071691Y-65989424D01*
X120193929Y-65890438D01*
X120200143Y-65885726D01*
X120326429Y-65796122D01*
X120330575Y-65793307D01*
X120462276Y-65707780D01*
X120469734Y-65703305D01*
X120605653Y-65628187D01*
X120609191Y-65626309D01*
X120748781Y-65555185D01*
X120757516Y-65551158D01*
X120901761Y-65491411D01*
X120904533Y-65490305D01*
X121050109Y-65434425D01*
X121060136Y-65431063D01*
X121212558Y-65387152D01*
X121362758Y-65346907D01*
X121373979Y-65344457D01*
X121533650Y-65317328D01*
X121683031Y-65293669D01*
X121695436Y-65292342D01*
X121869680Y-65282537D01*
X122006848Y-65275349D01*
X122013318Y-65275180D01*
X181006074Y-65275180D01*
X181012563Y-65275349D01*
G37*
%TD.AperFunction*%
%TD*%
M02*
